G04 #@! TF.GenerationSoftware,KiCad,Pcbnew,8.0.8*
G04 #@! TF.CreationDate,2025-05-30T17:01:45-05:00*
G04 #@! TF.ProjectId,logicboard,6c6f6769-6362-46f6-9172-642e6b696361,rev?*
G04 #@! TF.SameCoordinates,Original*
G04 #@! TF.FileFunction,Legend,Bot*
G04 #@! TF.FilePolarity,Positive*
%FSLAX46Y46*%
G04 Gerber Fmt 4.6, Leading zero omitted, Abs format (unit mm)*
G04 Created by KiCad (PCBNEW 8.0.8) date 2025-05-30 17:01:45*
%MOMM*%
%LPD*%
G01*
G04 APERTURE LIST*
%ADD10C,0.150000*%
%ADD11C,0.120000*%
%ADD12C,1.600000*%
%ADD13R,1.600000X1.600000*%
%ADD14O,1.600000X1.600000*%
%ADD15R,1.508000X1.508000*%
%ADD16C,1.508000*%
%ADD17R,1.700000X1.700000*%
%ADD18O,1.700000X1.700000*%
G04 APERTURE END LIST*
D10*
X216713733Y-89485619D02*
X216713733Y-90199904D01*
X216713733Y-90199904D02*
X216761352Y-90342761D01*
X216761352Y-90342761D02*
X216856590Y-90438000D01*
X216856590Y-90438000D02*
X216999447Y-90485619D01*
X216999447Y-90485619D02*
X217094685Y-90485619D01*
X215713733Y-90485619D02*
X216285161Y-90485619D01*
X215999447Y-90485619D02*
X215999447Y-89485619D01*
X215999447Y-89485619D02*
X216094685Y-89628476D01*
X216094685Y-89628476D02*
X216189923Y-89723714D01*
X216189923Y-89723714D02*
X216285161Y-89771333D01*
X76173733Y-89495619D02*
X76173733Y-90209904D01*
X76173733Y-90209904D02*
X76221352Y-90352761D01*
X76221352Y-90352761D02*
X76316590Y-90448000D01*
X76316590Y-90448000D02*
X76459447Y-90495619D01*
X76459447Y-90495619D02*
X76554685Y-90495619D01*
X75745161Y-89590857D02*
X75697542Y-89543238D01*
X75697542Y-89543238D02*
X75602304Y-89495619D01*
X75602304Y-89495619D02*
X75364209Y-89495619D01*
X75364209Y-89495619D02*
X75268971Y-89543238D01*
X75268971Y-89543238D02*
X75221352Y-89590857D01*
X75221352Y-89590857D02*
X75173733Y-89686095D01*
X75173733Y-89686095D02*
X75173733Y-89781333D01*
X75173733Y-89781333D02*
X75221352Y-89924190D01*
X75221352Y-89924190D02*
X75792780Y-90495619D01*
X75792780Y-90495619D02*
X75173733Y-90495619D01*
D11*
X213780400Y-91030800D02*
X216380400Y-91030800D01*
X213780400Y-114010800D02*
X213780400Y-91030800D01*
X213780400Y-114010800D02*
X218980400Y-114010800D01*
X216380400Y-91030800D02*
X216380400Y-93630800D01*
X216380400Y-93630800D02*
X218980400Y-93630800D01*
X217650400Y-91030800D02*
X218980400Y-91030800D01*
X218980400Y-91030800D02*
X218980400Y-92360800D01*
X218980400Y-114010800D02*
X218980400Y-93630800D01*
X73240400Y-91040800D02*
X75840400Y-91040800D01*
X73240400Y-114020800D02*
X73240400Y-91040800D01*
X73240400Y-114020800D02*
X78440400Y-114020800D01*
X75840400Y-91040800D02*
X75840400Y-93640800D01*
X75840400Y-93640800D02*
X78440400Y-93640800D01*
X77110400Y-91040800D02*
X78440400Y-91040800D01*
X78440400Y-91040800D02*
X78440400Y-92370800D01*
X78440400Y-114020800D02*
X78440400Y-93640800D01*
%LPC*%
D12*
X149340000Y-112080000D03*
X151840000Y-112080000D03*
D13*
X122130000Y-92340000D03*
D14*
X122130000Y-94880000D03*
X122130000Y-97420000D03*
X122130000Y-99960000D03*
X122130000Y-102500000D03*
X122130000Y-105040000D03*
X122130000Y-107580000D03*
X129750000Y-107580000D03*
X129750000Y-105040000D03*
X129750000Y-102500000D03*
X129750000Y-99960000D03*
X129750000Y-97420000D03*
X129750000Y-94880000D03*
X129750000Y-92340000D03*
D13*
X147000000Y-92300000D03*
D14*
X147000000Y-94840000D03*
X147000000Y-97380000D03*
X147000000Y-99920000D03*
X147000000Y-102460000D03*
X147000000Y-105000000D03*
X147000000Y-107540000D03*
X154620000Y-107540000D03*
X154620000Y-105000000D03*
X154620000Y-102460000D03*
X154620000Y-99920000D03*
X154620000Y-97380000D03*
X154620000Y-94840000D03*
X154620000Y-92300000D03*
D13*
X171870000Y-92300000D03*
D14*
X171870000Y-94840000D03*
X171870000Y-97380000D03*
X171870000Y-99920000D03*
X171870000Y-102460000D03*
X171870000Y-105000000D03*
X171870000Y-107540000D03*
X179490000Y-107540000D03*
X179490000Y-105000000D03*
X179490000Y-102460000D03*
X179490000Y-99920000D03*
X179490000Y-97380000D03*
X179490000Y-94840000D03*
X179490000Y-92300000D03*
D12*
X124400000Y-112040000D03*
X126900000Y-112040000D03*
D13*
X159435000Y-92300000D03*
D14*
X159435000Y-94840000D03*
X159435000Y-97380000D03*
X159435000Y-99920000D03*
X159435000Y-102460000D03*
X159435000Y-105000000D03*
X159435000Y-107540000D03*
X167055000Y-107540000D03*
X167055000Y-105000000D03*
X167055000Y-102460000D03*
X167055000Y-99920000D03*
X167055000Y-97380000D03*
X167055000Y-94840000D03*
X167055000Y-92300000D03*
D12*
X161925000Y-112080000D03*
X164425000Y-112080000D03*
D13*
X184305000Y-92300000D03*
D14*
X184305000Y-94840000D03*
X184305000Y-97380000D03*
X184305000Y-99920000D03*
X184305000Y-102460000D03*
X184305000Y-105000000D03*
X184305000Y-107540000D03*
X191925000Y-107540000D03*
X191925000Y-105000000D03*
X191925000Y-102460000D03*
X191925000Y-99920000D03*
X191925000Y-97380000D03*
X191925000Y-94840000D03*
X191925000Y-92300000D03*
D12*
X136985000Y-112040000D03*
X139485000Y-112040000D03*
X174010000Y-112080000D03*
X176510000Y-112080000D03*
D13*
X134565000Y-92340000D03*
D14*
X134565000Y-94880000D03*
X134565000Y-97420000D03*
X134565000Y-99960000D03*
X134565000Y-102500000D03*
X134565000Y-105040000D03*
X134565000Y-107580000D03*
X142185000Y-107580000D03*
X142185000Y-105040000D03*
X142185000Y-102500000D03*
X142185000Y-99960000D03*
X142185000Y-97420000D03*
X142185000Y-94880000D03*
X142185000Y-92340000D03*
D13*
X85610400Y-96520800D03*
D12*
X89410400Y-96520800D03*
D13*
X109695000Y-92340000D03*
D14*
X109695000Y-94880000D03*
X109695000Y-97420000D03*
X109695000Y-99960000D03*
X109695000Y-102500000D03*
X109695000Y-105040000D03*
X109695000Y-107580000D03*
X117315000Y-107580000D03*
X117315000Y-105040000D03*
X117315000Y-102500000D03*
X117315000Y-99960000D03*
X117315000Y-97420000D03*
X117315000Y-94880000D03*
X117315000Y-92340000D03*
D13*
X85428000Y-108520800D03*
D12*
X89228000Y-108520800D03*
X200965800Y-97195000D03*
D14*
X200965800Y-107355000D03*
D12*
X112065000Y-112040000D03*
X114565000Y-112040000D03*
X186845000Y-112080000D03*
X189345000Y-112080000D03*
D15*
X99860400Y-105060800D03*
D16*
X99860400Y-102520800D03*
X99860400Y-99980800D03*
D17*
X217650400Y-92360800D03*
D18*
X215110400Y-92360800D03*
X217650400Y-94900800D03*
X215110400Y-94900800D03*
X217650400Y-97440800D03*
X215110400Y-97440800D03*
X217650400Y-99980800D03*
X215110400Y-99980800D03*
X217650400Y-102520800D03*
X215110400Y-102520800D03*
X217650400Y-105060800D03*
X215110400Y-105060800D03*
X217650400Y-107600800D03*
X215110400Y-107600800D03*
X217650400Y-110140800D03*
X215110400Y-110140800D03*
X217650400Y-112680800D03*
X215110400Y-112680800D03*
D17*
X77110400Y-92370800D03*
D18*
X74570400Y-92370800D03*
X77110400Y-94910800D03*
X74570400Y-94910800D03*
X77110400Y-97450800D03*
X74570400Y-97450800D03*
X77110400Y-99990800D03*
X74570400Y-99990800D03*
X77110400Y-102530800D03*
X74570400Y-102530800D03*
X77110400Y-105070800D03*
X74570400Y-105070800D03*
X77110400Y-107610800D03*
X74570400Y-107610800D03*
X77110400Y-110150800D03*
X74570400Y-110150800D03*
X77110400Y-112690800D03*
X74570400Y-112690800D03*
%LPD*%
M02*
