%TF.GenerationSoftware,KiCad,Pcbnew,8.0.8*%
%TF.CreationDate,2025-05-30T17:01:49-05:00*%
%TF.ProjectId,logicboard,6c6f6769-6362-46f6-9172-642e6b696361,rev?*%
%TF.SameCoordinates,Original*%
%TF.FileFunction,Drillmap*%
%TF.FilePolarity,Positive*%
%FSLAX45Y45*%
G04 Gerber Fmt 4.5, Leading zero omitted, Abs format (unit mm)*
G04 Created by KiCad (PCBNEW 8.0.8) date 2025-05-30 17:01:49*
%MOMM*%
%LPD*%
G01*
G04 APERTURE LIST*
%ADD10C,0.200000*%
%ADD11C,0.100000*%
G04 APERTURE END LIST*
D10*
X7111040Y-8302080D02*
X22111040Y-8302080D01*
X22111040Y-12202080D01*
X7111040Y-12202080D01*
X7111040Y-8302080D01*
D11*
X7191960Y-10657040D02*
X7221960Y-10687040D01*
X7221960Y-10657040D02*
X7191960Y-10687040D01*
X7527810Y-11777080D02*
X7557810Y-11807080D01*
X7557810Y-11777080D02*
X7527810Y-11807080D01*
X7926530Y-8872770D02*
X7956530Y-8902770D01*
X7956530Y-8872770D02*
X7926530Y-8902770D01*
X11985000Y-10614170D02*
X12015000Y-10644170D01*
X12015000Y-10614170D02*
X11985000Y-10644170D01*
X12239970Y-11579570D02*
X12269970Y-11609570D01*
X12269970Y-11579570D02*
X12239970Y-11609570D01*
X12543500Y-10743000D02*
X12573500Y-10773000D01*
X12573500Y-10743000D02*
X12543500Y-10773000D01*
X13351270Y-9854000D02*
X13381270Y-9884000D01*
X13381270Y-9854000D02*
X13351270Y-9884000D01*
X13712520Y-8422520D02*
X13742520Y-8452520D01*
X13742520Y-8422520D02*
X13712520Y-8452520D01*
X15185070Y-11777080D02*
X15215070Y-11807080D01*
X15215070Y-11777080D02*
X15185070Y-11807080D01*
X15433500Y-11497070D02*
X15463500Y-11527070D01*
X15463500Y-11497070D02*
X15433500Y-11527070D01*
X15479580Y-8949760D02*
X15509580Y-8979760D01*
X15509580Y-8949760D02*
X15479580Y-8979760D01*
X15535880Y-10961570D02*
X15565880Y-10991570D01*
X15565880Y-10961570D02*
X15535880Y-10991570D01*
X19650090Y-9496880D02*
X19680090Y-9526880D01*
X19680090Y-9496880D02*
X19650090Y-9526880D01*
X20403750Y-11579570D02*
X20433750Y-11609570D01*
X20433750Y-11579570D02*
X20403750Y-11609570D01*
X21075270Y-10097020D02*
X21105270Y-10127020D01*
X21105270Y-10097020D02*
X21075270Y-10127020D01*
X21953270Y-8422520D02*
X21983270Y-8452520D01*
X21983270Y-8422520D02*
X21953270Y-8452520D01*
X8582800Y-10852080D02*
G75*
G02*
X8502800Y-10852080I-40000J0D01*
G01*
X8502800Y-10852080D02*
G75*
G02*
X8582800Y-10852080I40000J0D01*
G01*
X8601040Y-9652080D02*
G75*
G02*
X8521040Y-9652080I-40000J0D01*
G01*
X8521040Y-9652080D02*
G75*
G02*
X8601040Y-9652080I40000J0D01*
G01*
X8962800Y-10852080D02*
G75*
G02*
X8882800Y-10852080I-40000J0D01*
G01*
X8882800Y-10852080D02*
G75*
G02*
X8962800Y-10852080I40000J0D01*
G01*
X8981040Y-9652080D02*
G75*
G02*
X8901040Y-9652080I-40000J0D01*
G01*
X8901040Y-9652080D02*
G75*
G02*
X8981040Y-9652080I40000J0D01*
G01*
X11009500Y-9234000D02*
G75*
G02*
X10929500Y-9234000I-40000J0D01*
G01*
X10929500Y-9234000D02*
G75*
G02*
X11009500Y-9234000I40000J0D01*
G01*
X11009500Y-9488000D02*
G75*
G02*
X10929500Y-9488000I-40000J0D01*
G01*
X10929500Y-9488000D02*
G75*
G02*
X11009500Y-9488000I40000J0D01*
G01*
X11009500Y-9742000D02*
G75*
G02*
X10929500Y-9742000I-40000J0D01*
G01*
X10929500Y-9742000D02*
G75*
G02*
X11009500Y-9742000I40000J0D01*
G01*
X11009500Y-9996000D02*
G75*
G02*
X10929500Y-9996000I-40000J0D01*
G01*
X10929500Y-9996000D02*
G75*
G02*
X11009500Y-9996000I40000J0D01*
G01*
X11009500Y-10250000D02*
G75*
G02*
X10929500Y-10250000I-40000J0D01*
G01*
X10929500Y-10250000D02*
G75*
G02*
X11009500Y-10250000I40000J0D01*
G01*
X11009500Y-10504000D02*
G75*
G02*
X10929500Y-10504000I-40000J0D01*
G01*
X10929500Y-10504000D02*
G75*
G02*
X11009500Y-10504000I40000J0D01*
G01*
X11009500Y-10758000D02*
G75*
G02*
X10929500Y-10758000I-40000J0D01*
G01*
X10929500Y-10758000D02*
G75*
G02*
X11009500Y-10758000I40000J0D01*
G01*
X11246500Y-11204000D02*
G75*
G02*
X11166500Y-11204000I-40000J0D01*
G01*
X11166500Y-11204000D02*
G75*
G02*
X11246500Y-11204000I40000J0D01*
G01*
X11496500Y-11204000D02*
G75*
G02*
X11416500Y-11204000I-40000J0D01*
G01*
X11416500Y-11204000D02*
G75*
G02*
X11496500Y-11204000I40000J0D01*
G01*
X11771500Y-9234000D02*
G75*
G02*
X11691500Y-9234000I-40000J0D01*
G01*
X11691500Y-9234000D02*
G75*
G02*
X11771500Y-9234000I40000J0D01*
G01*
X11771500Y-9488000D02*
G75*
G02*
X11691500Y-9488000I-40000J0D01*
G01*
X11691500Y-9488000D02*
G75*
G02*
X11771500Y-9488000I40000J0D01*
G01*
X11771500Y-9742000D02*
G75*
G02*
X11691500Y-9742000I-40000J0D01*
G01*
X11691500Y-9742000D02*
G75*
G02*
X11771500Y-9742000I40000J0D01*
G01*
X11771500Y-9996000D02*
G75*
G02*
X11691500Y-9996000I-40000J0D01*
G01*
X11691500Y-9996000D02*
G75*
G02*
X11771500Y-9996000I40000J0D01*
G01*
X11771500Y-10250000D02*
G75*
G02*
X11691500Y-10250000I-40000J0D01*
G01*
X11691500Y-10250000D02*
G75*
G02*
X11771500Y-10250000I40000J0D01*
G01*
X11771500Y-10504000D02*
G75*
G02*
X11691500Y-10504000I-40000J0D01*
G01*
X11691500Y-10504000D02*
G75*
G02*
X11771500Y-10504000I40000J0D01*
G01*
X11771500Y-10758000D02*
G75*
G02*
X11691500Y-10758000I-40000J0D01*
G01*
X11691500Y-10758000D02*
G75*
G02*
X11771500Y-10758000I40000J0D01*
G01*
X12253000Y-9234000D02*
G75*
G02*
X12173000Y-9234000I-40000J0D01*
G01*
X12173000Y-9234000D02*
G75*
G02*
X12253000Y-9234000I40000J0D01*
G01*
X12253000Y-9488000D02*
G75*
G02*
X12173000Y-9488000I-40000J0D01*
G01*
X12173000Y-9488000D02*
G75*
G02*
X12253000Y-9488000I40000J0D01*
G01*
X12253000Y-9742000D02*
G75*
G02*
X12173000Y-9742000I-40000J0D01*
G01*
X12173000Y-9742000D02*
G75*
G02*
X12253000Y-9742000I40000J0D01*
G01*
X12253000Y-9996000D02*
G75*
G02*
X12173000Y-9996000I-40000J0D01*
G01*
X12173000Y-9996000D02*
G75*
G02*
X12253000Y-9996000I40000J0D01*
G01*
X12253000Y-10250000D02*
G75*
G02*
X12173000Y-10250000I-40000J0D01*
G01*
X12173000Y-10250000D02*
G75*
G02*
X12253000Y-10250000I40000J0D01*
G01*
X12253000Y-10504000D02*
G75*
G02*
X12173000Y-10504000I-40000J0D01*
G01*
X12173000Y-10504000D02*
G75*
G02*
X12253000Y-10504000I40000J0D01*
G01*
X12253000Y-10758000D02*
G75*
G02*
X12173000Y-10758000I-40000J0D01*
G01*
X12173000Y-10758000D02*
G75*
G02*
X12253000Y-10758000I40000J0D01*
G01*
X12480000Y-11204000D02*
G75*
G02*
X12400000Y-11204000I-40000J0D01*
G01*
X12400000Y-11204000D02*
G75*
G02*
X12480000Y-11204000I40000J0D01*
G01*
X12730000Y-11204000D02*
G75*
G02*
X12650000Y-11204000I-40000J0D01*
G01*
X12650000Y-11204000D02*
G75*
G02*
X12730000Y-11204000I40000J0D01*
G01*
X13015000Y-9234000D02*
G75*
G02*
X12935000Y-9234000I-40000J0D01*
G01*
X12935000Y-9234000D02*
G75*
G02*
X13015000Y-9234000I40000J0D01*
G01*
X13015000Y-9488000D02*
G75*
G02*
X12935000Y-9488000I-40000J0D01*
G01*
X12935000Y-9488000D02*
G75*
G02*
X13015000Y-9488000I40000J0D01*
G01*
X13015000Y-9742000D02*
G75*
G02*
X12935000Y-9742000I-40000J0D01*
G01*
X12935000Y-9742000D02*
G75*
G02*
X13015000Y-9742000I40000J0D01*
G01*
X13015000Y-9996000D02*
G75*
G02*
X12935000Y-9996000I-40000J0D01*
G01*
X12935000Y-9996000D02*
G75*
G02*
X13015000Y-9996000I40000J0D01*
G01*
X13015000Y-10250000D02*
G75*
G02*
X12935000Y-10250000I-40000J0D01*
G01*
X12935000Y-10250000D02*
G75*
G02*
X13015000Y-10250000I40000J0D01*
G01*
X13015000Y-10504000D02*
G75*
G02*
X12935000Y-10504000I-40000J0D01*
G01*
X12935000Y-10504000D02*
G75*
G02*
X13015000Y-10504000I40000J0D01*
G01*
X13015000Y-10758000D02*
G75*
G02*
X12935000Y-10758000I-40000J0D01*
G01*
X12935000Y-10758000D02*
G75*
G02*
X13015000Y-10758000I40000J0D01*
G01*
X13496500Y-9234000D02*
G75*
G02*
X13416500Y-9234000I-40000J0D01*
G01*
X13416500Y-9234000D02*
G75*
G02*
X13496500Y-9234000I40000J0D01*
G01*
X13496500Y-9488000D02*
G75*
G02*
X13416500Y-9488000I-40000J0D01*
G01*
X13416500Y-9488000D02*
G75*
G02*
X13496500Y-9488000I40000J0D01*
G01*
X13496500Y-9742000D02*
G75*
G02*
X13416500Y-9742000I-40000J0D01*
G01*
X13416500Y-9742000D02*
G75*
G02*
X13496500Y-9742000I40000J0D01*
G01*
X13496500Y-9996000D02*
G75*
G02*
X13416500Y-9996000I-40000J0D01*
G01*
X13416500Y-9996000D02*
G75*
G02*
X13496500Y-9996000I40000J0D01*
G01*
X13496500Y-10250000D02*
G75*
G02*
X13416500Y-10250000I-40000J0D01*
G01*
X13416500Y-10250000D02*
G75*
G02*
X13496500Y-10250000I40000J0D01*
G01*
X13496500Y-10504000D02*
G75*
G02*
X13416500Y-10504000I-40000J0D01*
G01*
X13416500Y-10504000D02*
G75*
G02*
X13496500Y-10504000I40000J0D01*
G01*
X13496500Y-10758000D02*
G75*
G02*
X13416500Y-10758000I-40000J0D01*
G01*
X13416500Y-10758000D02*
G75*
G02*
X13496500Y-10758000I40000J0D01*
G01*
X13738500Y-11204000D02*
G75*
G02*
X13658500Y-11204000I-40000J0D01*
G01*
X13658500Y-11204000D02*
G75*
G02*
X13738500Y-11204000I40000J0D01*
G01*
X13988500Y-11204000D02*
G75*
G02*
X13908500Y-11204000I-40000J0D01*
G01*
X13908500Y-11204000D02*
G75*
G02*
X13988500Y-11204000I40000J0D01*
G01*
X14258500Y-9234000D02*
G75*
G02*
X14178500Y-9234000I-40000J0D01*
G01*
X14178500Y-9234000D02*
G75*
G02*
X14258500Y-9234000I40000J0D01*
G01*
X14258500Y-9488000D02*
G75*
G02*
X14178500Y-9488000I-40000J0D01*
G01*
X14178500Y-9488000D02*
G75*
G02*
X14258500Y-9488000I40000J0D01*
G01*
X14258500Y-9742000D02*
G75*
G02*
X14178500Y-9742000I-40000J0D01*
G01*
X14178500Y-9742000D02*
G75*
G02*
X14258500Y-9742000I40000J0D01*
G01*
X14258500Y-9996000D02*
G75*
G02*
X14178500Y-9996000I-40000J0D01*
G01*
X14178500Y-9996000D02*
G75*
G02*
X14258500Y-9996000I40000J0D01*
G01*
X14258500Y-10250000D02*
G75*
G02*
X14178500Y-10250000I-40000J0D01*
G01*
X14178500Y-10250000D02*
G75*
G02*
X14258500Y-10250000I40000J0D01*
G01*
X14258500Y-10504000D02*
G75*
G02*
X14178500Y-10504000I-40000J0D01*
G01*
X14178500Y-10504000D02*
G75*
G02*
X14258500Y-10504000I40000J0D01*
G01*
X14258500Y-10758000D02*
G75*
G02*
X14178500Y-10758000I-40000J0D01*
G01*
X14178500Y-10758000D02*
G75*
G02*
X14258500Y-10758000I40000J0D01*
G01*
X14740000Y-9230000D02*
G75*
G02*
X14660000Y-9230000I-40000J0D01*
G01*
X14660000Y-9230000D02*
G75*
G02*
X14740000Y-9230000I40000J0D01*
G01*
X14740000Y-9484000D02*
G75*
G02*
X14660000Y-9484000I-40000J0D01*
G01*
X14660000Y-9484000D02*
G75*
G02*
X14740000Y-9484000I40000J0D01*
G01*
X14740000Y-9738000D02*
G75*
G02*
X14660000Y-9738000I-40000J0D01*
G01*
X14660000Y-9738000D02*
G75*
G02*
X14740000Y-9738000I40000J0D01*
G01*
X14740000Y-9992000D02*
G75*
G02*
X14660000Y-9992000I-40000J0D01*
G01*
X14660000Y-9992000D02*
G75*
G02*
X14740000Y-9992000I40000J0D01*
G01*
X14740000Y-10246000D02*
G75*
G02*
X14660000Y-10246000I-40000J0D01*
G01*
X14660000Y-10246000D02*
G75*
G02*
X14740000Y-10246000I40000J0D01*
G01*
X14740000Y-10500000D02*
G75*
G02*
X14660000Y-10500000I-40000J0D01*
G01*
X14660000Y-10500000D02*
G75*
G02*
X14740000Y-10500000I40000J0D01*
G01*
X14740000Y-10754000D02*
G75*
G02*
X14660000Y-10754000I-40000J0D01*
G01*
X14660000Y-10754000D02*
G75*
G02*
X14740000Y-10754000I40000J0D01*
G01*
X14974000Y-11208000D02*
G75*
G02*
X14894000Y-11208000I-40000J0D01*
G01*
X14894000Y-11208000D02*
G75*
G02*
X14974000Y-11208000I40000J0D01*
G01*
X15224000Y-11208000D02*
G75*
G02*
X15144000Y-11208000I-40000J0D01*
G01*
X15144000Y-11208000D02*
G75*
G02*
X15224000Y-11208000I40000J0D01*
G01*
X15502000Y-9230000D02*
G75*
G02*
X15422000Y-9230000I-40000J0D01*
G01*
X15422000Y-9230000D02*
G75*
G02*
X15502000Y-9230000I40000J0D01*
G01*
X15502000Y-9484000D02*
G75*
G02*
X15422000Y-9484000I-40000J0D01*
G01*
X15422000Y-9484000D02*
G75*
G02*
X15502000Y-9484000I40000J0D01*
G01*
X15502000Y-9738000D02*
G75*
G02*
X15422000Y-9738000I-40000J0D01*
G01*
X15422000Y-9738000D02*
G75*
G02*
X15502000Y-9738000I40000J0D01*
G01*
X15502000Y-9992000D02*
G75*
G02*
X15422000Y-9992000I-40000J0D01*
G01*
X15422000Y-9992000D02*
G75*
G02*
X15502000Y-9992000I40000J0D01*
G01*
X15502000Y-10246000D02*
G75*
G02*
X15422000Y-10246000I-40000J0D01*
G01*
X15422000Y-10246000D02*
G75*
G02*
X15502000Y-10246000I40000J0D01*
G01*
X15502000Y-10500000D02*
G75*
G02*
X15422000Y-10500000I-40000J0D01*
G01*
X15422000Y-10500000D02*
G75*
G02*
X15502000Y-10500000I40000J0D01*
G01*
X15502000Y-10754000D02*
G75*
G02*
X15422000Y-10754000I-40000J0D01*
G01*
X15422000Y-10754000D02*
G75*
G02*
X15502000Y-10754000I40000J0D01*
G01*
X15983500Y-9230000D02*
G75*
G02*
X15903500Y-9230000I-40000J0D01*
G01*
X15903500Y-9230000D02*
G75*
G02*
X15983500Y-9230000I40000J0D01*
G01*
X15983500Y-9484000D02*
G75*
G02*
X15903500Y-9484000I-40000J0D01*
G01*
X15903500Y-9484000D02*
G75*
G02*
X15983500Y-9484000I40000J0D01*
G01*
X15983500Y-9738000D02*
G75*
G02*
X15903500Y-9738000I-40000J0D01*
G01*
X15903500Y-9738000D02*
G75*
G02*
X15983500Y-9738000I40000J0D01*
G01*
X15983500Y-9992000D02*
G75*
G02*
X15903500Y-9992000I-40000J0D01*
G01*
X15903500Y-9992000D02*
G75*
G02*
X15983500Y-9992000I40000J0D01*
G01*
X15983500Y-10246000D02*
G75*
G02*
X15903500Y-10246000I-40000J0D01*
G01*
X15903500Y-10246000D02*
G75*
G02*
X15983500Y-10246000I40000J0D01*
G01*
X15983500Y-10500000D02*
G75*
G02*
X15903500Y-10500000I-40000J0D01*
G01*
X15903500Y-10500000D02*
G75*
G02*
X15983500Y-10500000I40000J0D01*
G01*
X15983500Y-10754000D02*
G75*
G02*
X15903500Y-10754000I-40000J0D01*
G01*
X15903500Y-10754000D02*
G75*
G02*
X15983500Y-10754000I40000J0D01*
G01*
X16232500Y-11208000D02*
G75*
G02*
X16152500Y-11208000I-40000J0D01*
G01*
X16152500Y-11208000D02*
G75*
G02*
X16232500Y-11208000I40000J0D01*
G01*
X16482500Y-11208000D02*
G75*
G02*
X16402500Y-11208000I-40000J0D01*
G01*
X16402500Y-11208000D02*
G75*
G02*
X16482500Y-11208000I40000J0D01*
G01*
X16745500Y-9230000D02*
G75*
G02*
X16665500Y-9230000I-40000J0D01*
G01*
X16665500Y-9230000D02*
G75*
G02*
X16745500Y-9230000I40000J0D01*
G01*
X16745500Y-9484000D02*
G75*
G02*
X16665500Y-9484000I-40000J0D01*
G01*
X16665500Y-9484000D02*
G75*
G02*
X16745500Y-9484000I40000J0D01*
G01*
X16745500Y-9738000D02*
G75*
G02*
X16665500Y-9738000I-40000J0D01*
G01*
X16665500Y-9738000D02*
G75*
G02*
X16745500Y-9738000I40000J0D01*
G01*
X16745500Y-9992000D02*
G75*
G02*
X16665500Y-9992000I-40000J0D01*
G01*
X16665500Y-9992000D02*
G75*
G02*
X16745500Y-9992000I40000J0D01*
G01*
X16745500Y-10246000D02*
G75*
G02*
X16665500Y-10246000I-40000J0D01*
G01*
X16665500Y-10246000D02*
G75*
G02*
X16745500Y-10246000I40000J0D01*
G01*
X16745500Y-10500000D02*
G75*
G02*
X16665500Y-10500000I-40000J0D01*
G01*
X16665500Y-10500000D02*
G75*
G02*
X16745500Y-10500000I40000J0D01*
G01*
X16745500Y-10754000D02*
G75*
G02*
X16665500Y-10754000I-40000J0D01*
G01*
X16665500Y-10754000D02*
G75*
G02*
X16745500Y-10754000I40000J0D01*
G01*
X17227000Y-9230000D02*
G75*
G02*
X17147000Y-9230000I-40000J0D01*
G01*
X17147000Y-9230000D02*
G75*
G02*
X17227000Y-9230000I40000J0D01*
G01*
X17227000Y-9484000D02*
G75*
G02*
X17147000Y-9484000I-40000J0D01*
G01*
X17147000Y-9484000D02*
G75*
G02*
X17227000Y-9484000I40000J0D01*
G01*
X17227000Y-9738000D02*
G75*
G02*
X17147000Y-9738000I-40000J0D01*
G01*
X17147000Y-9738000D02*
G75*
G02*
X17227000Y-9738000I40000J0D01*
G01*
X17227000Y-9992000D02*
G75*
G02*
X17147000Y-9992000I-40000J0D01*
G01*
X17147000Y-9992000D02*
G75*
G02*
X17227000Y-9992000I40000J0D01*
G01*
X17227000Y-10246000D02*
G75*
G02*
X17147000Y-10246000I-40000J0D01*
G01*
X17147000Y-10246000D02*
G75*
G02*
X17227000Y-10246000I40000J0D01*
G01*
X17227000Y-10500000D02*
G75*
G02*
X17147000Y-10500000I-40000J0D01*
G01*
X17147000Y-10500000D02*
G75*
G02*
X17227000Y-10500000I40000J0D01*
G01*
X17227000Y-10754000D02*
G75*
G02*
X17147000Y-10754000I-40000J0D01*
G01*
X17147000Y-10754000D02*
G75*
G02*
X17227000Y-10754000I40000J0D01*
G01*
X17441000Y-11208000D02*
G75*
G02*
X17361000Y-11208000I-40000J0D01*
G01*
X17361000Y-11208000D02*
G75*
G02*
X17441000Y-11208000I40000J0D01*
G01*
X17691000Y-11208000D02*
G75*
G02*
X17611000Y-11208000I-40000J0D01*
G01*
X17611000Y-11208000D02*
G75*
G02*
X17691000Y-11208000I40000J0D01*
G01*
X17989000Y-9230000D02*
G75*
G02*
X17909000Y-9230000I-40000J0D01*
G01*
X17909000Y-9230000D02*
G75*
G02*
X17989000Y-9230000I40000J0D01*
G01*
X17989000Y-9484000D02*
G75*
G02*
X17909000Y-9484000I-40000J0D01*
G01*
X17909000Y-9484000D02*
G75*
G02*
X17989000Y-9484000I40000J0D01*
G01*
X17989000Y-9738000D02*
G75*
G02*
X17909000Y-9738000I-40000J0D01*
G01*
X17909000Y-9738000D02*
G75*
G02*
X17989000Y-9738000I40000J0D01*
G01*
X17989000Y-9992000D02*
G75*
G02*
X17909000Y-9992000I-40000J0D01*
G01*
X17909000Y-9992000D02*
G75*
G02*
X17989000Y-9992000I40000J0D01*
G01*
X17989000Y-10246000D02*
G75*
G02*
X17909000Y-10246000I-40000J0D01*
G01*
X17909000Y-10246000D02*
G75*
G02*
X17989000Y-10246000I40000J0D01*
G01*
X17989000Y-10500000D02*
G75*
G02*
X17909000Y-10500000I-40000J0D01*
G01*
X17909000Y-10500000D02*
G75*
G02*
X17989000Y-10500000I40000J0D01*
G01*
X17989000Y-10754000D02*
G75*
G02*
X17909000Y-10754000I-40000J0D01*
G01*
X17909000Y-10754000D02*
G75*
G02*
X17989000Y-10754000I40000J0D01*
G01*
X18470500Y-9230000D02*
G75*
G02*
X18390500Y-9230000I-40000J0D01*
G01*
X18390500Y-9230000D02*
G75*
G02*
X18470500Y-9230000I40000J0D01*
G01*
X18470500Y-9484000D02*
G75*
G02*
X18390500Y-9484000I-40000J0D01*
G01*
X18390500Y-9484000D02*
G75*
G02*
X18470500Y-9484000I40000J0D01*
G01*
X18470500Y-9738000D02*
G75*
G02*
X18390500Y-9738000I-40000J0D01*
G01*
X18390500Y-9738000D02*
G75*
G02*
X18470500Y-9738000I40000J0D01*
G01*
X18470500Y-9992000D02*
G75*
G02*
X18390500Y-9992000I-40000J0D01*
G01*
X18390500Y-9992000D02*
G75*
G02*
X18470500Y-9992000I40000J0D01*
G01*
X18470500Y-10246000D02*
G75*
G02*
X18390500Y-10246000I-40000J0D01*
G01*
X18390500Y-10246000D02*
G75*
G02*
X18470500Y-10246000I40000J0D01*
G01*
X18470500Y-10500000D02*
G75*
G02*
X18390500Y-10500000I-40000J0D01*
G01*
X18390500Y-10500000D02*
G75*
G02*
X18470500Y-10500000I40000J0D01*
G01*
X18470500Y-10754000D02*
G75*
G02*
X18390500Y-10754000I-40000J0D01*
G01*
X18390500Y-10754000D02*
G75*
G02*
X18470500Y-10754000I40000J0D01*
G01*
X18724500Y-11208000D02*
G75*
G02*
X18644500Y-11208000I-40000J0D01*
G01*
X18644500Y-11208000D02*
G75*
G02*
X18724500Y-11208000I40000J0D01*
G01*
X18974500Y-11208000D02*
G75*
G02*
X18894500Y-11208000I-40000J0D01*
G01*
X18894500Y-11208000D02*
G75*
G02*
X18974500Y-11208000I40000J0D01*
G01*
X19232500Y-9230000D02*
G75*
G02*
X19152500Y-9230000I-40000J0D01*
G01*
X19152500Y-9230000D02*
G75*
G02*
X19232500Y-9230000I40000J0D01*
G01*
X19232500Y-9484000D02*
G75*
G02*
X19152500Y-9484000I-40000J0D01*
G01*
X19152500Y-9484000D02*
G75*
G02*
X19232500Y-9484000I40000J0D01*
G01*
X19232500Y-9738000D02*
G75*
G02*
X19152500Y-9738000I-40000J0D01*
G01*
X19152500Y-9738000D02*
G75*
G02*
X19232500Y-9738000I40000J0D01*
G01*
X19232500Y-9992000D02*
G75*
G02*
X19152500Y-9992000I-40000J0D01*
G01*
X19152500Y-9992000D02*
G75*
G02*
X19232500Y-9992000I40000J0D01*
G01*
X19232500Y-10246000D02*
G75*
G02*
X19152500Y-10246000I-40000J0D01*
G01*
X19152500Y-10246000D02*
G75*
G02*
X19232500Y-10246000I40000J0D01*
G01*
X19232500Y-10500000D02*
G75*
G02*
X19152500Y-10500000I-40000J0D01*
G01*
X19152500Y-10500000D02*
G75*
G02*
X19232500Y-10500000I40000J0D01*
G01*
X19232500Y-10754000D02*
G75*
G02*
X19152500Y-10754000I-40000J0D01*
G01*
X19152500Y-10754000D02*
G75*
G02*
X19232500Y-10754000I40000J0D01*
G01*
X20136580Y-9719500D02*
G75*
G02*
X20056580Y-9719500I-40000J0D01*
G01*
X20056580Y-9719500D02*
G75*
G02*
X20136580Y-9719500I40000J0D01*
G01*
X20136580Y-10735500D02*
G75*
G02*
X20056580Y-10735500I-40000J0D01*
G01*
X20056580Y-10735500D02*
G75*
G02*
X20136580Y-10735500I40000J0D01*
G01*
X7457040Y-9187080D02*
X7457040Y-9287080D01*
X7407040Y-9237080D02*
X7507040Y-9237080D01*
X7457040Y-9441080D02*
X7457040Y-9541080D01*
X7407040Y-9491080D02*
X7507040Y-9491080D01*
X7457040Y-9695080D02*
X7457040Y-9795080D01*
X7407040Y-9745080D02*
X7507040Y-9745080D01*
X7457040Y-9949080D02*
X7457040Y-10049080D01*
X7407040Y-9999080D02*
X7507040Y-9999080D01*
X7457040Y-10203080D02*
X7457040Y-10303080D01*
X7407040Y-10253080D02*
X7507040Y-10253080D01*
X7457040Y-10457080D02*
X7457040Y-10557080D01*
X7407040Y-10507080D02*
X7507040Y-10507080D01*
X7457040Y-10711080D02*
X7457040Y-10811080D01*
X7407040Y-10761080D02*
X7507040Y-10761080D01*
X7457040Y-10965080D02*
X7457040Y-11065080D01*
X7407040Y-11015080D02*
X7507040Y-11015080D01*
X7457040Y-11219080D02*
X7457040Y-11319080D01*
X7407040Y-11269080D02*
X7507040Y-11269080D01*
X7711040Y-9187080D02*
X7711040Y-9287080D01*
X7661040Y-9237080D02*
X7761040Y-9237080D01*
X7711040Y-9441080D02*
X7711040Y-9541080D01*
X7661040Y-9491080D02*
X7761040Y-9491080D01*
X7711040Y-9695080D02*
X7711040Y-9795080D01*
X7661040Y-9745080D02*
X7761040Y-9745080D01*
X7711040Y-9949080D02*
X7711040Y-10049080D01*
X7661040Y-9999080D02*
X7761040Y-9999080D01*
X7711040Y-10203080D02*
X7711040Y-10303080D01*
X7661040Y-10253080D02*
X7761040Y-10253080D01*
X7711040Y-10457080D02*
X7711040Y-10557080D01*
X7661040Y-10507080D02*
X7761040Y-10507080D01*
X7711040Y-10711080D02*
X7711040Y-10811080D01*
X7661040Y-10761080D02*
X7761040Y-10761080D01*
X7711040Y-10965080D02*
X7711040Y-11065080D01*
X7661040Y-11015080D02*
X7761040Y-11015080D01*
X7711040Y-11219080D02*
X7711040Y-11319080D01*
X7661040Y-11269080D02*
X7761040Y-11269080D01*
X9986040Y-9948080D02*
X9986040Y-10048080D01*
X9936040Y-9998080D02*
X10036040Y-9998080D01*
X9986040Y-10202080D02*
X9986040Y-10302080D01*
X9936040Y-10252080D02*
X10036040Y-10252080D01*
X9986040Y-10456080D02*
X9986040Y-10556080D01*
X9936040Y-10506080D02*
X10036040Y-10506080D01*
X21511040Y-9186080D02*
X21511040Y-9286080D01*
X21461040Y-9236080D02*
X21561040Y-9236080D01*
X21511040Y-9440080D02*
X21511040Y-9540080D01*
X21461040Y-9490080D02*
X21561040Y-9490080D01*
X21511040Y-9694080D02*
X21511040Y-9794080D01*
X21461040Y-9744080D02*
X21561040Y-9744080D01*
X21511040Y-9948080D02*
X21511040Y-10048080D01*
X21461040Y-9998080D02*
X21561040Y-9998080D01*
X21511040Y-10202080D02*
X21511040Y-10302080D01*
X21461040Y-10252080D02*
X21561040Y-10252080D01*
X21511040Y-10456080D02*
X21511040Y-10556080D01*
X21461040Y-10506080D02*
X21561040Y-10506080D01*
X21511040Y-10710080D02*
X21511040Y-10810080D01*
X21461040Y-10760080D02*
X21561040Y-10760080D01*
X21511040Y-10964080D02*
X21511040Y-11064080D01*
X21461040Y-11014080D02*
X21561040Y-11014080D01*
X21511040Y-11218080D02*
X21511040Y-11318080D01*
X21461040Y-11268080D02*
X21561040Y-11268080D01*
X21765040Y-9186080D02*
X21765040Y-9286080D01*
X21715040Y-9236080D02*
X21815040Y-9236080D01*
X21765040Y-9440080D02*
X21765040Y-9540080D01*
X21715040Y-9490080D02*
X21815040Y-9490080D01*
X21765040Y-9694080D02*
X21765040Y-9794080D01*
X21715040Y-9744080D02*
X21815040Y-9744080D01*
X21765040Y-9948080D02*
X21765040Y-10048080D01*
X21715040Y-9998080D02*
X21815040Y-9998080D01*
X21765040Y-10202080D02*
X21765040Y-10302080D01*
X21715040Y-10252080D02*
X21815040Y-10252080D01*
X21765040Y-10456080D02*
X21765040Y-10556080D01*
X21715040Y-10506080D02*
X21815040Y-10506080D01*
X21765040Y-10710080D02*
X21765040Y-10810080D01*
X21715040Y-10760080D02*
X21815040Y-10760080D01*
X21765040Y-10964080D02*
X21765040Y-11064080D01*
X21715040Y-11014080D02*
X21815040Y-11014080D01*
X21765040Y-11218080D02*
X21765040Y-11318080D01*
X21715040Y-11268080D02*
X21815040Y-11268080D01*
D10*
X7361817Y-12523564D02*
X7361817Y-12323564D01*
X7361817Y-12323564D02*
X7409436Y-12323564D01*
X7409436Y-12323564D02*
X7438007Y-12333088D01*
X7438007Y-12333088D02*
X7457055Y-12352135D01*
X7457055Y-12352135D02*
X7466579Y-12371183D01*
X7466579Y-12371183D02*
X7476102Y-12409278D01*
X7476102Y-12409278D02*
X7476102Y-12437849D01*
X7476102Y-12437849D02*
X7466579Y-12475945D01*
X7466579Y-12475945D02*
X7457055Y-12494992D01*
X7457055Y-12494992D02*
X7438007Y-12514040D01*
X7438007Y-12514040D02*
X7409436Y-12523564D01*
X7409436Y-12523564D02*
X7361817Y-12523564D01*
X7561817Y-12523564D02*
X7561817Y-12390230D01*
X7561817Y-12428326D02*
X7571341Y-12409278D01*
X7571341Y-12409278D02*
X7580864Y-12399754D01*
X7580864Y-12399754D02*
X7599912Y-12390230D01*
X7599912Y-12390230D02*
X7618960Y-12390230D01*
X7685626Y-12523564D02*
X7685626Y-12390230D01*
X7685626Y-12323564D02*
X7676102Y-12333088D01*
X7676102Y-12333088D02*
X7685626Y-12342611D01*
X7685626Y-12342611D02*
X7695150Y-12333088D01*
X7695150Y-12333088D02*
X7685626Y-12323564D01*
X7685626Y-12323564D02*
X7685626Y-12342611D01*
X7809436Y-12523564D02*
X7790388Y-12514040D01*
X7790388Y-12514040D02*
X7780864Y-12494992D01*
X7780864Y-12494992D02*
X7780864Y-12323564D01*
X7914198Y-12523564D02*
X7895150Y-12514040D01*
X7895150Y-12514040D02*
X7885626Y-12494992D01*
X7885626Y-12494992D02*
X7885626Y-12323564D01*
X8142769Y-12523564D02*
X8142769Y-12323564D01*
X8142769Y-12323564D02*
X8209436Y-12466421D01*
X8209436Y-12466421D02*
X8276102Y-12323564D01*
X8276102Y-12323564D02*
X8276102Y-12523564D01*
X8457055Y-12523564D02*
X8457055Y-12418802D01*
X8457055Y-12418802D02*
X8447531Y-12399754D01*
X8447531Y-12399754D02*
X8428484Y-12390230D01*
X8428484Y-12390230D02*
X8390388Y-12390230D01*
X8390388Y-12390230D02*
X8371341Y-12399754D01*
X8457055Y-12514040D02*
X8438007Y-12523564D01*
X8438007Y-12523564D02*
X8390388Y-12523564D01*
X8390388Y-12523564D02*
X8371341Y-12514040D01*
X8371341Y-12514040D02*
X8361817Y-12494992D01*
X8361817Y-12494992D02*
X8361817Y-12475945D01*
X8361817Y-12475945D02*
X8371341Y-12456897D01*
X8371341Y-12456897D02*
X8390388Y-12447373D01*
X8390388Y-12447373D02*
X8438007Y-12447373D01*
X8438007Y-12447373D02*
X8457055Y-12437849D01*
X8552293Y-12390230D02*
X8552293Y-12590230D01*
X8552293Y-12399754D02*
X8571341Y-12390230D01*
X8571341Y-12390230D02*
X8609436Y-12390230D01*
X8609436Y-12390230D02*
X8628484Y-12399754D01*
X8628484Y-12399754D02*
X8638007Y-12409278D01*
X8638007Y-12409278D02*
X8647531Y-12428326D01*
X8647531Y-12428326D02*
X8647531Y-12485468D01*
X8647531Y-12485468D02*
X8638007Y-12504516D01*
X8638007Y-12504516D02*
X8628484Y-12514040D01*
X8628484Y-12514040D02*
X8609436Y-12523564D01*
X8609436Y-12523564D02*
X8571341Y-12523564D01*
X8571341Y-12523564D02*
X8552293Y-12514040D01*
X8733245Y-12504516D02*
X8742769Y-12514040D01*
X8742769Y-12514040D02*
X8733245Y-12523564D01*
X8733245Y-12523564D02*
X8723722Y-12514040D01*
X8723722Y-12514040D02*
X8733245Y-12504516D01*
X8733245Y-12504516D02*
X8733245Y-12523564D01*
X8733245Y-12399754D02*
X8742769Y-12409278D01*
X8742769Y-12409278D02*
X8733245Y-12418802D01*
X8733245Y-12418802D02*
X8723722Y-12409278D01*
X8723722Y-12409278D02*
X8733245Y-12399754D01*
X8733245Y-12399754D02*
X8733245Y-12418802D01*
D11*
X7071040Y-12837080D02*
X7101040Y-12867080D01*
X7101040Y-12837080D02*
X7071040Y-12867080D01*
D10*
X7399912Y-12743564D02*
X7418960Y-12743564D01*
X7418960Y-12743564D02*
X7438007Y-12753088D01*
X7438007Y-12753088D02*
X7447531Y-12762611D01*
X7447531Y-12762611D02*
X7457055Y-12781659D01*
X7457055Y-12781659D02*
X7466579Y-12819754D01*
X7466579Y-12819754D02*
X7466579Y-12867373D01*
X7466579Y-12867373D02*
X7457055Y-12905468D01*
X7457055Y-12905468D02*
X7447531Y-12924516D01*
X7447531Y-12924516D02*
X7438007Y-12934040D01*
X7438007Y-12934040D02*
X7418960Y-12943564D01*
X7418960Y-12943564D02*
X7399912Y-12943564D01*
X7399912Y-12943564D02*
X7380864Y-12934040D01*
X7380864Y-12934040D02*
X7371341Y-12924516D01*
X7371341Y-12924516D02*
X7361817Y-12905468D01*
X7361817Y-12905468D02*
X7352293Y-12867373D01*
X7352293Y-12867373D02*
X7352293Y-12819754D01*
X7352293Y-12819754D02*
X7361817Y-12781659D01*
X7361817Y-12781659D02*
X7371341Y-12762611D01*
X7371341Y-12762611D02*
X7380864Y-12753088D01*
X7380864Y-12753088D02*
X7399912Y-12743564D01*
X7552293Y-12924516D02*
X7561817Y-12934040D01*
X7561817Y-12934040D02*
X7552293Y-12943564D01*
X7552293Y-12943564D02*
X7542769Y-12934040D01*
X7542769Y-12934040D02*
X7552293Y-12924516D01*
X7552293Y-12924516D02*
X7552293Y-12943564D01*
X7628483Y-12743564D02*
X7752293Y-12743564D01*
X7752293Y-12743564D02*
X7685626Y-12819754D01*
X7685626Y-12819754D02*
X7714198Y-12819754D01*
X7714198Y-12819754D02*
X7733245Y-12829278D01*
X7733245Y-12829278D02*
X7742769Y-12838802D01*
X7742769Y-12838802D02*
X7752293Y-12857849D01*
X7752293Y-12857849D02*
X7752293Y-12905468D01*
X7752293Y-12905468D02*
X7742769Y-12924516D01*
X7742769Y-12924516D02*
X7733245Y-12934040D01*
X7733245Y-12934040D02*
X7714198Y-12943564D01*
X7714198Y-12943564D02*
X7657055Y-12943564D01*
X7657055Y-12943564D02*
X7638007Y-12934040D01*
X7638007Y-12934040D02*
X7628483Y-12924516D01*
X7876102Y-12743564D02*
X7895150Y-12743564D01*
X7895150Y-12743564D02*
X7914198Y-12753088D01*
X7914198Y-12753088D02*
X7923722Y-12762611D01*
X7923722Y-12762611D02*
X7933245Y-12781659D01*
X7933245Y-12781659D02*
X7942769Y-12819754D01*
X7942769Y-12819754D02*
X7942769Y-12867373D01*
X7942769Y-12867373D02*
X7933245Y-12905468D01*
X7933245Y-12905468D02*
X7923722Y-12924516D01*
X7923722Y-12924516D02*
X7914198Y-12934040D01*
X7914198Y-12934040D02*
X7895150Y-12943564D01*
X7895150Y-12943564D02*
X7876102Y-12943564D01*
X7876102Y-12943564D02*
X7857055Y-12934040D01*
X7857055Y-12934040D02*
X7847531Y-12924516D01*
X7847531Y-12924516D02*
X7838007Y-12905468D01*
X7838007Y-12905468D02*
X7828483Y-12867373D01*
X7828483Y-12867373D02*
X7828483Y-12819754D01*
X7828483Y-12819754D02*
X7838007Y-12781659D01*
X7838007Y-12781659D02*
X7847531Y-12762611D01*
X7847531Y-12762611D02*
X7857055Y-12753088D01*
X7857055Y-12753088D02*
X7876102Y-12743564D01*
X8066579Y-12743564D02*
X8085626Y-12743564D01*
X8085626Y-12743564D02*
X8104674Y-12753088D01*
X8104674Y-12753088D02*
X8114198Y-12762611D01*
X8114198Y-12762611D02*
X8123722Y-12781659D01*
X8123722Y-12781659D02*
X8133245Y-12819754D01*
X8133245Y-12819754D02*
X8133245Y-12867373D01*
X8133245Y-12867373D02*
X8123722Y-12905468D01*
X8123722Y-12905468D02*
X8114198Y-12924516D01*
X8114198Y-12924516D02*
X8104674Y-12934040D01*
X8104674Y-12934040D02*
X8085626Y-12943564D01*
X8085626Y-12943564D02*
X8066579Y-12943564D01*
X8066579Y-12943564D02*
X8047531Y-12934040D01*
X8047531Y-12934040D02*
X8038007Y-12924516D01*
X8038007Y-12924516D02*
X8028483Y-12905468D01*
X8028483Y-12905468D02*
X8018960Y-12867373D01*
X8018960Y-12867373D02*
X8018960Y-12819754D01*
X8018960Y-12819754D02*
X8028483Y-12781659D01*
X8028483Y-12781659D02*
X8038007Y-12762611D01*
X8038007Y-12762611D02*
X8047531Y-12753088D01*
X8047531Y-12753088D02*
X8066579Y-12743564D01*
X8218960Y-12943564D02*
X8218960Y-12810230D01*
X8218960Y-12829278D02*
X8228483Y-12819754D01*
X8228483Y-12819754D02*
X8247531Y-12810230D01*
X8247531Y-12810230D02*
X8276103Y-12810230D01*
X8276103Y-12810230D02*
X8295150Y-12819754D01*
X8295150Y-12819754D02*
X8304674Y-12838802D01*
X8304674Y-12838802D02*
X8304674Y-12943564D01*
X8304674Y-12838802D02*
X8314198Y-12819754D01*
X8314198Y-12819754D02*
X8333245Y-12810230D01*
X8333245Y-12810230D02*
X8361817Y-12810230D01*
X8361817Y-12810230D02*
X8380864Y-12819754D01*
X8380864Y-12819754D02*
X8390388Y-12838802D01*
X8390388Y-12838802D02*
X8390388Y-12943564D01*
X8485626Y-12943564D02*
X8485626Y-12810230D01*
X8485626Y-12829278D02*
X8495150Y-12819754D01*
X8495150Y-12819754D02*
X8514198Y-12810230D01*
X8514198Y-12810230D02*
X8542769Y-12810230D01*
X8542769Y-12810230D02*
X8561817Y-12819754D01*
X8561817Y-12819754D02*
X8571341Y-12838802D01*
X8571341Y-12838802D02*
X8571341Y-12943564D01*
X8571341Y-12838802D02*
X8580865Y-12819754D01*
X8580865Y-12819754D02*
X8599912Y-12810230D01*
X8599912Y-12810230D02*
X8628484Y-12810230D01*
X8628484Y-12810230D02*
X8647531Y-12819754D01*
X8647531Y-12819754D02*
X8657055Y-12838802D01*
X8657055Y-12838802D02*
X8657055Y-12943564D01*
X9047531Y-12734040D02*
X8876103Y-12991183D01*
X9304674Y-12743564D02*
X9323722Y-12743564D01*
X9323722Y-12743564D02*
X9342769Y-12753088D01*
X9342769Y-12753088D02*
X9352293Y-12762611D01*
X9352293Y-12762611D02*
X9361817Y-12781659D01*
X9361817Y-12781659D02*
X9371341Y-12819754D01*
X9371341Y-12819754D02*
X9371341Y-12867373D01*
X9371341Y-12867373D02*
X9361817Y-12905468D01*
X9361817Y-12905468D02*
X9352293Y-12924516D01*
X9352293Y-12924516D02*
X9342769Y-12934040D01*
X9342769Y-12934040D02*
X9323722Y-12943564D01*
X9323722Y-12943564D02*
X9304674Y-12943564D01*
X9304674Y-12943564D02*
X9285627Y-12934040D01*
X9285627Y-12934040D02*
X9276103Y-12924516D01*
X9276103Y-12924516D02*
X9266579Y-12905468D01*
X9266579Y-12905468D02*
X9257055Y-12867373D01*
X9257055Y-12867373D02*
X9257055Y-12819754D01*
X9257055Y-12819754D02*
X9266579Y-12781659D01*
X9266579Y-12781659D02*
X9276103Y-12762611D01*
X9276103Y-12762611D02*
X9285627Y-12753088D01*
X9285627Y-12753088D02*
X9304674Y-12743564D01*
X9457055Y-12924516D02*
X9466579Y-12934040D01*
X9466579Y-12934040D02*
X9457055Y-12943564D01*
X9457055Y-12943564D02*
X9447531Y-12934040D01*
X9447531Y-12934040D02*
X9457055Y-12924516D01*
X9457055Y-12924516D02*
X9457055Y-12943564D01*
X9590388Y-12743564D02*
X9609436Y-12743564D01*
X9609436Y-12743564D02*
X9628484Y-12753088D01*
X9628484Y-12753088D02*
X9638008Y-12762611D01*
X9638008Y-12762611D02*
X9647531Y-12781659D01*
X9647531Y-12781659D02*
X9657055Y-12819754D01*
X9657055Y-12819754D02*
X9657055Y-12867373D01*
X9657055Y-12867373D02*
X9647531Y-12905468D01*
X9647531Y-12905468D02*
X9638008Y-12924516D01*
X9638008Y-12924516D02*
X9628484Y-12934040D01*
X9628484Y-12934040D02*
X9609436Y-12943564D01*
X9609436Y-12943564D02*
X9590388Y-12943564D01*
X9590388Y-12943564D02*
X9571341Y-12934040D01*
X9571341Y-12934040D02*
X9561817Y-12924516D01*
X9561817Y-12924516D02*
X9552293Y-12905468D01*
X9552293Y-12905468D02*
X9542769Y-12867373D01*
X9542769Y-12867373D02*
X9542769Y-12819754D01*
X9542769Y-12819754D02*
X9552293Y-12781659D01*
X9552293Y-12781659D02*
X9561817Y-12762611D01*
X9561817Y-12762611D02*
X9571341Y-12753088D01*
X9571341Y-12753088D02*
X9590388Y-12743564D01*
X9847531Y-12943564D02*
X9733246Y-12943564D01*
X9790388Y-12943564D02*
X9790388Y-12743564D01*
X9790388Y-12743564D02*
X9771341Y-12772135D01*
X9771341Y-12772135D02*
X9752293Y-12791183D01*
X9752293Y-12791183D02*
X9733246Y-12800707D01*
X10038008Y-12943564D02*
X9923722Y-12943564D01*
X9980865Y-12943564D02*
X9980865Y-12743564D01*
X9980865Y-12743564D02*
X9961817Y-12772135D01*
X9961817Y-12772135D02*
X9942769Y-12791183D01*
X9942769Y-12791183D02*
X9923722Y-12800707D01*
X10152293Y-12829278D02*
X10133246Y-12819754D01*
X10133246Y-12819754D02*
X10123722Y-12810230D01*
X10123722Y-12810230D02*
X10114198Y-12791183D01*
X10114198Y-12791183D02*
X10114198Y-12781659D01*
X10114198Y-12781659D02*
X10123722Y-12762611D01*
X10123722Y-12762611D02*
X10133246Y-12753088D01*
X10133246Y-12753088D02*
X10152293Y-12743564D01*
X10152293Y-12743564D02*
X10190389Y-12743564D01*
X10190389Y-12743564D02*
X10209436Y-12753088D01*
X10209436Y-12753088D02*
X10218960Y-12762611D01*
X10218960Y-12762611D02*
X10228484Y-12781659D01*
X10228484Y-12781659D02*
X10228484Y-12791183D01*
X10228484Y-12791183D02*
X10218960Y-12810230D01*
X10218960Y-12810230D02*
X10209436Y-12819754D01*
X10209436Y-12819754D02*
X10190389Y-12829278D01*
X10190389Y-12829278D02*
X10152293Y-12829278D01*
X10152293Y-12829278D02*
X10133246Y-12838802D01*
X10133246Y-12838802D02*
X10123722Y-12848326D01*
X10123722Y-12848326D02*
X10114198Y-12867373D01*
X10114198Y-12867373D02*
X10114198Y-12905468D01*
X10114198Y-12905468D02*
X10123722Y-12924516D01*
X10123722Y-12924516D02*
X10133246Y-12934040D01*
X10133246Y-12934040D02*
X10152293Y-12943564D01*
X10152293Y-12943564D02*
X10190389Y-12943564D01*
X10190389Y-12943564D02*
X10209436Y-12934040D01*
X10209436Y-12934040D02*
X10218960Y-12924516D01*
X10218960Y-12924516D02*
X10228484Y-12905468D01*
X10228484Y-12905468D02*
X10228484Y-12867373D01*
X10228484Y-12867373D02*
X10218960Y-12848326D01*
X10218960Y-12848326D02*
X10209436Y-12838802D01*
X10209436Y-12838802D02*
X10190389Y-12829278D01*
X10304674Y-12743564D02*
X10304674Y-12781659D01*
X10380865Y-12743564D02*
X10380865Y-12781659D01*
X10676103Y-13019754D02*
X10666579Y-13010230D01*
X10666579Y-13010230D02*
X10647531Y-12981659D01*
X10647531Y-12981659D02*
X10638008Y-12962611D01*
X10638008Y-12962611D02*
X10628484Y-12934040D01*
X10628484Y-12934040D02*
X10618960Y-12886421D01*
X10618960Y-12886421D02*
X10618960Y-12848326D01*
X10618960Y-12848326D02*
X10628484Y-12800707D01*
X10628484Y-12800707D02*
X10638008Y-12772135D01*
X10638008Y-12772135D02*
X10647531Y-12753088D01*
X10647531Y-12753088D02*
X10666579Y-12724516D01*
X10666579Y-12724516D02*
X10676103Y-12714992D01*
X10857055Y-12943564D02*
X10742770Y-12943564D01*
X10799912Y-12943564D02*
X10799912Y-12743564D01*
X10799912Y-12743564D02*
X10780865Y-12772135D01*
X10780865Y-12772135D02*
X10761817Y-12791183D01*
X10761817Y-12791183D02*
X10742770Y-12800707D01*
X11028484Y-12743564D02*
X10990389Y-12743564D01*
X10990389Y-12743564D02*
X10971341Y-12753088D01*
X10971341Y-12753088D02*
X10961817Y-12762611D01*
X10961817Y-12762611D02*
X10942770Y-12791183D01*
X10942770Y-12791183D02*
X10933246Y-12829278D01*
X10933246Y-12829278D02*
X10933246Y-12905468D01*
X10933246Y-12905468D02*
X10942770Y-12924516D01*
X10942770Y-12924516D02*
X10952293Y-12934040D01*
X10952293Y-12934040D02*
X10971341Y-12943564D01*
X10971341Y-12943564D02*
X11009436Y-12943564D01*
X11009436Y-12943564D02*
X11028484Y-12934040D01*
X11028484Y-12934040D02*
X11038008Y-12924516D01*
X11038008Y-12924516D02*
X11047531Y-12905468D01*
X11047531Y-12905468D02*
X11047531Y-12857849D01*
X11047531Y-12857849D02*
X11038008Y-12838802D01*
X11038008Y-12838802D02*
X11028484Y-12829278D01*
X11028484Y-12829278D02*
X11009436Y-12819754D01*
X11009436Y-12819754D02*
X10971341Y-12819754D01*
X10971341Y-12819754D02*
X10952293Y-12829278D01*
X10952293Y-12829278D02*
X10942770Y-12838802D01*
X10942770Y-12838802D02*
X10933246Y-12857849D01*
X11285627Y-12943564D02*
X11285627Y-12743564D01*
X11371341Y-12943564D02*
X11371341Y-12838802D01*
X11371341Y-12838802D02*
X11361817Y-12819754D01*
X11361817Y-12819754D02*
X11342770Y-12810230D01*
X11342770Y-12810230D02*
X11314198Y-12810230D01*
X11314198Y-12810230D02*
X11295150Y-12819754D01*
X11295150Y-12819754D02*
X11285627Y-12829278D01*
X11495150Y-12943564D02*
X11476103Y-12934040D01*
X11476103Y-12934040D02*
X11466579Y-12924516D01*
X11466579Y-12924516D02*
X11457055Y-12905468D01*
X11457055Y-12905468D02*
X11457055Y-12848326D01*
X11457055Y-12848326D02*
X11466579Y-12829278D01*
X11466579Y-12829278D02*
X11476103Y-12819754D01*
X11476103Y-12819754D02*
X11495150Y-12810230D01*
X11495150Y-12810230D02*
X11523722Y-12810230D01*
X11523722Y-12810230D02*
X11542770Y-12819754D01*
X11542770Y-12819754D02*
X11552293Y-12829278D01*
X11552293Y-12829278D02*
X11561817Y-12848326D01*
X11561817Y-12848326D02*
X11561817Y-12905468D01*
X11561817Y-12905468D02*
X11552293Y-12924516D01*
X11552293Y-12924516D02*
X11542770Y-12934040D01*
X11542770Y-12934040D02*
X11523722Y-12943564D01*
X11523722Y-12943564D02*
X11495150Y-12943564D01*
X11676103Y-12943564D02*
X11657055Y-12934040D01*
X11657055Y-12934040D02*
X11647531Y-12914992D01*
X11647531Y-12914992D02*
X11647531Y-12743564D01*
X11828484Y-12934040D02*
X11809436Y-12943564D01*
X11809436Y-12943564D02*
X11771341Y-12943564D01*
X11771341Y-12943564D02*
X11752293Y-12934040D01*
X11752293Y-12934040D02*
X11742770Y-12914992D01*
X11742770Y-12914992D02*
X11742770Y-12838802D01*
X11742770Y-12838802D02*
X11752293Y-12819754D01*
X11752293Y-12819754D02*
X11771341Y-12810230D01*
X11771341Y-12810230D02*
X11809436Y-12810230D01*
X11809436Y-12810230D02*
X11828484Y-12819754D01*
X11828484Y-12819754D02*
X11838008Y-12838802D01*
X11838008Y-12838802D02*
X11838008Y-12857849D01*
X11838008Y-12857849D02*
X11742770Y-12876897D01*
X11914198Y-12934040D02*
X11933246Y-12943564D01*
X11933246Y-12943564D02*
X11971341Y-12943564D01*
X11971341Y-12943564D02*
X11990389Y-12934040D01*
X11990389Y-12934040D02*
X11999912Y-12914992D01*
X11999912Y-12914992D02*
X11999912Y-12905468D01*
X11999912Y-12905468D02*
X11990389Y-12886421D01*
X11990389Y-12886421D02*
X11971341Y-12876897D01*
X11971341Y-12876897D02*
X11942770Y-12876897D01*
X11942770Y-12876897D02*
X11923722Y-12867373D01*
X11923722Y-12867373D02*
X11914198Y-12848326D01*
X11914198Y-12848326D02*
X11914198Y-12838802D01*
X11914198Y-12838802D02*
X11923722Y-12819754D01*
X11923722Y-12819754D02*
X11942770Y-12810230D01*
X11942770Y-12810230D02*
X11971341Y-12810230D01*
X11971341Y-12810230D02*
X11990389Y-12819754D01*
X12066579Y-13019754D02*
X12076103Y-13010230D01*
X12076103Y-13010230D02*
X12095151Y-12981659D01*
X12095151Y-12981659D02*
X12104674Y-12962611D01*
X12104674Y-12962611D02*
X12114198Y-12934040D01*
X12114198Y-12934040D02*
X12123722Y-12886421D01*
X12123722Y-12886421D02*
X12123722Y-12848326D01*
X12123722Y-12848326D02*
X12114198Y-12800707D01*
X12114198Y-12800707D02*
X12104674Y-12772135D01*
X12104674Y-12772135D02*
X12095151Y-12753088D01*
X12095151Y-12753088D02*
X12076103Y-12724516D01*
X12076103Y-12724516D02*
X12066579Y-12714992D01*
D11*
X7101040Y-13116080D02*
G75*
G02*
X7021040Y-13116080I-40000J0D01*
G01*
X7021040Y-13116080D02*
G75*
G02*
X7101040Y-13116080I40000J0D01*
G01*
D10*
X7399912Y-13007564D02*
X7418960Y-13007564D01*
X7418960Y-13007564D02*
X7438007Y-13017088D01*
X7438007Y-13017088D02*
X7447531Y-13026611D01*
X7447531Y-13026611D02*
X7457055Y-13045659D01*
X7457055Y-13045659D02*
X7466579Y-13083754D01*
X7466579Y-13083754D02*
X7466579Y-13131373D01*
X7466579Y-13131373D02*
X7457055Y-13169468D01*
X7457055Y-13169468D02*
X7447531Y-13188516D01*
X7447531Y-13188516D02*
X7438007Y-13198040D01*
X7438007Y-13198040D02*
X7418960Y-13207564D01*
X7418960Y-13207564D02*
X7399912Y-13207564D01*
X7399912Y-13207564D02*
X7380864Y-13198040D01*
X7380864Y-13198040D02*
X7371341Y-13188516D01*
X7371341Y-13188516D02*
X7361817Y-13169468D01*
X7361817Y-13169468D02*
X7352293Y-13131373D01*
X7352293Y-13131373D02*
X7352293Y-13083754D01*
X7352293Y-13083754D02*
X7361817Y-13045659D01*
X7361817Y-13045659D02*
X7371341Y-13026611D01*
X7371341Y-13026611D02*
X7380864Y-13017088D01*
X7380864Y-13017088D02*
X7399912Y-13007564D01*
X7552293Y-13188516D02*
X7561817Y-13198040D01*
X7561817Y-13198040D02*
X7552293Y-13207564D01*
X7552293Y-13207564D02*
X7542769Y-13198040D01*
X7542769Y-13198040D02*
X7552293Y-13188516D01*
X7552293Y-13188516D02*
X7552293Y-13207564D01*
X7676102Y-13093278D02*
X7657055Y-13083754D01*
X7657055Y-13083754D02*
X7647531Y-13074230D01*
X7647531Y-13074230D02*
X7638007Y-13055183D01*
X7638007Y-13055183D02*
X7638007Y-13045659D01*
X7638007Y-13045659D02*
X7647531Y-13026611D01*
X7647531Y-13026611D02*
X7657055Y-13017088D01*
X7657055Y-13017088D02*
X7676102Y-13007564D01*
X7676102Y-13007564D02*
X7714198Y-13007564D01*
X7714198Y-13007564D02*
X7733245Y-13017088D01*
X7733245Y-13017088D02*
X7742769Y-13026611D01*
X7742769Y-13026611D02*
X7752293Y-13045659D01*
X7752293Y-13045659D02*
X7752293Y-13055183D01*
X7752293Y-13055183D02*
X7742769Y-13074230D01*
X7742769Y-13074230D02*
X7733245Y-13083754D01*
X7733245Y-13083754D02*
X7714198Y-13093278D01*
X7714198Y-13093278D02*
X7676102Y-13093278D01*
X7676102Y-13093278D02*
X7657055Y-13102802D01*
X7657055Y-13102802D02*
X7647531Y-13112326D01*
X7647531Y-13112326D02*
X7638007Y-13131373D01*
X7638007Y-13131373D02*
X7638007Y-13169468D01*
X7638007Y-13169468D02*
X7647531Y-13188516D01*
X7647531Y-13188516D02*
X7657055Y-13198040D01*
X7657055Y-13198040D02*
X7676102Y-13207564D01*
X7676102Y-13207564D02*
X7714198Y-13207564D01*
X7714198Y-13207564D02*
X7733245Y-13198040D01*
X7733245Y-13198040D02*
X7742769Y-13188516D01*
X7742769Y-13188516D02*
X7752293Y-13169468D01*
X7752293Y-13169468D02*
X7752293Y-13131373D01*
X7752293Y-13131373D02*
X7742769Y-13112326D01*
X7742769Y-13112326D02*
X7733245Y-13102802D01*
X7733245Y-13102802D02*
X7714198Y-13093278D01*
X7876102Y-13007564D02*
X7895150Y-13007564D01*
X7895150Y-13007564D02*
X7914198Y-13017088D01*
X7914198Y-13017088D02*
X7923722Y-13026611D01*
X7923722Y-13026611D02*
X7933245Y-13045659D01*
X7933245Y-13045659D02*
X7942769Y-13083754D01*
X7942769Y-13083754D02*
X7942769Y-13131373D01*
X7942769Y-13131373D02*
X7933245Y-13169468D01*
X7933245Y-13169468D02*
X7923722Y-13188516D01*
X7923722Y-13188516D02*
X7914198Y-13198040D01*
X7914198Y-13198040D02*
X7895150Y-13207564D01*
X7895150Y-13207564D02*
X7876102Y-13207564D01*
X7876102Y-13207564D02*
X7857055Y-13198040D01*
X7857055Y-13198040D02*
X7847531Y-13188516D01*
X7847531Y-13188516D02*
X7838007Y-13169468D01*
X7838007Y-13169468D02*
X7828483Y-13131373D01*
X7828483Y-13131373D02*
X7828483Y-13083754D01*
X7828483Y-13083754D02*
X7838007Y-13045659D01*
X7838007Y-13045659D02*
X7847531Y-13026611D01*
X7847531Y-13026611D02*
X7857055Y-13017088D01*
X7857055Y-13017088D02*
X7876102Y-13007564D01*
X8066579Y-13007564D02*
X8085626Y-13007564D01*
X8085626Y-13007564D02*
X8104674Y-13017088D01*
X8104674Y-13017088D02*
X8114198Y-13026611D01*
X8114198Y-13026611D02*
X8123722Y-13045659D01*
X8123722Y-13045659D02*
X8133245Y-13083754D01*
X8133245Y-13083754D02*
X8133245Y-13131373D01*
X8133245Y-13131373D02*
X8123722Y-13169468D01*
X8123722Y-13169468D02*
X8114198Y-13188516D01*
X8114198Y-13188516D02*
X8104674Y-13198040D01*
X8104674Y-13198040D02*
X8085626Y-13207564D01*
X8085626Y-13207564D02*
X8066579Y-13207564D01*
X8066579Y-13207564D02*
X8047531Y-13198040D01*
X8047531Y-13198040D02*
X8038007Y-13188516D01*
X8038007Y-13188516D02*
X8028483Y-13169468D01*
X8028483Y-13169468D02*
X8018960Y-13131373D01*
X8018960Y-13131373D02*
X8018960Y-13083754D01*
X8018960Y-13083754D02*
X8028483Y-13045659D01*
X8028483Y-13045659D02*
X8038007Y-13026611D01*
X8038007Y-13026611D02*
X8047531Y-13017088D01*
X8047531Y-13017088D02*
X8066579Y-13007564D01*
X8218960Y-13207564D02*
X8218960Y-13074230D01*
X8218960Y-13093278D02*
X8228483Y-13083754D01*
X8228483Y-13083754D02*
X8247531Y-13074230D01*
X8247531Y-13074230D02*
X8276103Y-13074230D01*
X8276103Y-13074230D02*
X8295150Y-13083754D01*
X8295150Y-13083754D02*
X8304674Y-13102802D01*
X8304674Y-13102802D02*
X8304674Y-13207564D01*
X8304674Y-13102802D02*
X8314198Y-13083754D01*
X8314198Y-13083754D02*
X8333245Y-13074230D01*
X8333245Y-13074230D02*
X8361817Y-13074230D01*
X8361817Y-13074230D02*
X8380864Y-13083754D01*
X8380864Y-13083754D02*
X8390388Y-13102802D01*
X8390388Y-13102802D02*
X8390388Y-13207564D01*
X8485626Y-13207564D02*
X8485626Y-13074230D01*
X8485626Y-13093278D02*
X8495150Y-13083754D01*
X8495150Y-13083754D02*
X8514198Y-13074230D01*
X8514198Y-13074230D02*
X8542769Y-13074230D01*
X8542769Y-13074230D02*
X8561817Y-13083754D01*
X8561817Y-13083754D02*
X8571341Y-13102802D01*
X8571341Y-13102802D02*
X8571341Y-13207564D01*
X8571341Y-13102802D02*
X8580865Y-13083754D01*
X8580865Y-13083754D02*
X8599912Y-13074230D01*
X8599912Y-13074230D02*
X8628484Y-13074230D01*
X8628484Y-13074230D02*
X8647531Y-13083754D01*
X8647531Y-13083754D02*
X8657055Y-13102802D01*
X8657055Y-13102802D02*
X8657055Y-13207564D01*
X9047531Y-12998040D02*
X8876103Y-13255183D01*
X9304674Y-13007564D02*
X9323722Y-13007564D01*
X9323722Y-13007564D02*
X9342769Y-13017088D01*
X9342769Y-13017088D02*
X9352293Y-13026611D01*
X9352293Y-13026611D02*
X9361817Y-13045659D01*
X9361817Y-13045659D02*
X9371341Y-13083754D01*
X9371341Y-13083754D02*
X9371341Y-13131373D01*
X9371341Y-13131373D02*
X9361817Y-13169468D01*
X9361817Y-13169468D02*
X9352293Y-13188516D01*
X9352293Y-13188516D02*
X9342769Y-13198040D01*
X9342769Y-13198040D02*
X9323722Y-13207564D01*
X9323722Y-13207564D02*
X9304674Y-13207564D01*
X9304674Y-13207564D02*
X9285627Y-13198040D01*
X9285627Y-13198040D02*
X9276103Y-13188516D01*
X9276103Y-13188516D02*
X9266579Y-13169468D01*
X9266579Y-13169468D02*
X9257055Y-13131373D01*
X9257055Y-13131373D02*
X9257055Y-13083754D01*
X9257055Y-13083754D02*
X9266579Y-13045659D01*
X9266579Y-13045659D02*
X9276103Y-13026611D01*
X9276103Y-13026611D02*
X9285627Y-13017088D01*
X9285627Y-13017088D02*
X9304674Y-13007564D01*
X9457055Y-13188516D02*
X9466579Y-13198040D01*
X9466579Y-13198040D02*
X9457055Y-13207564D01*
X9457055Y-13207564D02*
X9447531Y-13198040D01*
X9447531Y-13198040D02*
X9457055Y-13188516D01*
X9457055Y-13188516D02*
X9457055Y-13207564D01*
X9590388Y-13007564D02*
X9609436Y-13007564D01*
X9609436Y-13007564D02*
X9628484Y-13017088D01*
X9628484Y-13017088D02*
X9638008Y-13026611D01*
X9638008Y-13026611D02*
X9647531Y-13045659D01*
X9647531Y-13045659D02*
X9657055Y-13083754D01*
X9657055Y-13083754D02*
X9657055Y-13131373D01*
X9657055Y-13131373D02*
X9647531Y-13169468D01*
X9647531Y-13169468D02*
X9638008Y-13188516D01*
X9638008Y-13188516D02*
X9628484Y-13198040D01*
X9628484Y-13198040D02*
X9609436Y-13207564D01*
X9609436Y-13207564D02*
X9590388Y-13207564D01*
X9590388Y-13207564D02*
X9571341Y-13198040D01*
X9571341Y-13198040D02*
X9561817Y-13188516D01*
X9561817Y-13188516D02*
X9552293Y-13169468D01*
X9552293Y-13169468D02*
X9542769Y-13131373D01*
X9542769Y-13131373D02*
X9542769Y-13083754D01*
X9542769Y-13083754D02*
X9552293Y-13045659D01*
X9552293Y-13045659D02*
X9561817Y-13026611D01*
X9561817Y-13026611D02*
X9571341Y-13017088D01*
X9571341Y-13017088D02*
X9590388Y-13007564D01*
X9723722Y-13007564D02*
X9847531Y-13007564D01*
X9847531Y-13007564D02*
X9780865Y-13083754D01*
X9780865Y-13083754D02*
X9809436Y-13083754D01*
X9809436Y-13083754D02*
X9828484Y-13093278D01*
X9828484Y-13093278D02*
X9838008Y-13102802D01*
X9838008Y-13102802D02*
X9847531Y-13121849D01*
X9847531Y-13121849D02*
X9847531Y-13169468D01*
X9847531Y-13169468D02*
X9838008Y-13188516D01*
X9838008Y-13188516D02*
X9828484Y-13198040D01*
X9828484Y-13198040D02*
X9809436Y-13207564D01*
X9809436Y-13207564D02*
X9752293Y-13207564D01*
X9752293Y-13207564D02*
X9733246Y-13198040D01*
X9733246Y-13198040D02*
X9723722Y-13188516D01*
X10038008Y-13207564D02*
X9923722Y-13207564D01*
X9980865Y-13207564D02*
X9980865Y-13007564D01*
X9980865Y-13007564D02*
X9961817Y-13036135D01*
X9961817Y-13036135D02*
X9942769Y-13055183D01*
X9942769Y-13055183D02*
X9923722Y-13064707D01*
X10218960Y-13007564D02*
X10123722Y-13007564D01*
X10123722Y-13007564D02*
X10114198Y-13102802D01*
X10114198Y-13102802D02*
X10123722Y-13093278D01*
X10123722Y-13093278D02*
X10142769Y-13083754D01*
X10142769Y-13083754D02*
X10190389Y-13083754D01*
X10190389Y-13083754D02*
X10209436Y-13093278D01*
X10209436Y-13093278D02*
X10218960Y-13102802D01*
X10218960Y-13102802D02*
X10228484Y-13121849D01*
X10228484Y-13121849D02*
X10228484Y-13169468D01*
X10228484Y-13169468D02*
X10218960Y-13188516D01*
X10218960Y-13188516D02*
X10209436Y-13198040D01*
X10209436Y-13198040D02*
X10190389Y-13207564D01*
X10190389Y-13207564D02*
X10142769Y-13207564D01*
X10142769Y-13207564D02*
X10123722Y-13198040D01*
X10123722Y-13198040D02*
X10114198Y-13188516D01*
X10304674Y-13007564D02*
X10304674Y-13045659D01*
X10380865Y-13007564D02*
X10380865Y-13045659D01*
X10676103Y-13283754D02*
X10666579Y-13274230D01*
X10666579Y-13274230D02*
X10647531Y-13245659D01*
X10647531Y-13245659D02*
X10638008Y-13226611D01*
X10638008Y-13226611D02*
X10628484Y-13198040D01*
X10628484Y-13198040D02*
X10618960Y-13150421D01*
X10618960Y-13150421D02*
X10618960Y-13112326D01*
X10618960Y-13112326D02*
X10628484Y-13064707D01*
X10628484Y-13064707D02*
X10638008Y-13036135D01*
X10638008Y-13036135D02*
X10647531Y-13017088D01*
X10647531Y-13017088D02*
X10666579Y-12988516D01*
X10666579Y-12988516D02*
X10676103Y-12978992D01*
X10857055Y-13207564D02*
X10742770Y-13207564D01*
X10799912Y-13207564D02*
X10799912Y-13007564D01*
X10799912Y-13007564D02*
X10780865Y-13036135D01*
X10780865Y-13036135D02*
X10761817Y-13055183D01*
X10761817Y-13055183D02*
X10742770Y-13064707D01*
X11047531Y-13207564D02*
X10933246Y-13207564D01*
X10990389Y-13207564D02*
X10990389Y-13007564D01*
X10990389Y-13007564D02*
X10971341Y-13036135D01*
X10971341Y-13036135D02*
X10952293Y-13055183D01*
X10952293Y-13055183D02*
X10933246Y-13064707D01*
X11161817Y-13093278D02*
X11142770Y-13083754D01*
X11142770Y-13083754D02*
X11133246Y-13074230D01*
X11133246Y-13074230D02*
X11123722Y-13055183D01*
X11123722Y-13055183D02*
X11123722Y-13045659D01*
X11123722Y-13045659D02*
X11133246Y-13026611D01*
X11133246Y-13026611D02*
X11142770Y-13017088D01*
X11142770Y-13017088D02*
X11161817Y-13007564D01*
X11161817Y-13007564D02*
X11199912Y-13007564D01*
X11199912Y-13007564D02*
X11218960Y-13017088D01*
X11218960Y-13017088D02*
X11228484Y-13026611D01*
X11228484Y-13026611D02*
X11238008Y-13045659D01*
X11238008Y-13045659D02*
X11238008Y-13055183D01*
X11238008Y-13055183D02*
X11228484Y-13074230D01*
X11228484Y-13074230D02*
X11218960Y-13083754D01*
X11218960Y-13083754D02*
X11199912Y-13093278D01*
X11199912Y-13093278D02*
X11161817Y-13093278D01*
X11161817Y-13093278D02*
X11142770Y-13102802D01*
X11142770Y-13102802D02*
X11133246Y-13112326D01*
X11133246Y-13112326D02*
X11123722Y-13131373D01*
X11123722Y-13131373D02*
X11123722Y-13169468D01*
X11123722Y-13169468D02*
X11133246Y-13188516D01*
X11133246Y-13188516D02*
X11142770Y-13198040D01*
X11142770Y-13198040D02*
X11161817Y-13207564D01*
X11161817Y-13207564D02*
X11199912Y-13207564D01*
X11199912Y-13207564D02*
X11218960Y-13198040D01*
X11218960Y-13198040D02*
X11228484Y-13188516D01*
X11228484Y-13188516D02*
X11238008Y-13169468D01*
X11238008Y-13169468D02*
X11238008Y-13131373D01*
X11238008Y-13131373D02*
X11228484Y-13112326D01*
X11228484Y-13112326D02*
X11218960Y-13102802D01*
X11218960Y-13102802D02*
X11199912Y-13093278D01*
X11476103Y-13207564D02*
X11476103Y-13007564D01*
X11561817Y-13207564D02*
X11561817Y-13102802D01*
X11561817Y-13102802D02*
X11552293Y-13083754D01*
X11552293Y-13083754D02*
X11533246Y-13074230D01*
X11533246Y-13074230D02*
X11504674Y-13074230D01*
X11504674Y-13074230D02*
X11485627Y-13083754D01*
X11485627Y-13083754D02*
X11476103Y-13093278D01*
X11685627Y-13207564D02*
X11666579Y-13198040D01*
X11666579Y-13198040D02*
X11657055Y-13188516D01*
X11657055Y-13188516D02*
X11647531Y-13169468D01*
X11647531Y-13169468D02*
X11647531Y-13112326D01*
X11647531Y-13112326D02*
X11657055Y-13093278D01*
X11657055Y-13093278D02*
X11666579Y-13083754D01*
X11666579Y-13083754D02*
X11685627Y-13074230D01*
X11685627Y-13074230D02*
X11714198Y-13074230D01*
X11714198Y-13074230D02*
X11733246Y-13083754D01*
X11733246Y-13083754D02*
X11742770Y-13093278D01*
X11742770Y-13093278D02*
X11752293Y-13112326D01*
X11752293Y-13112326D02*
X11752293Y-13169468D01*
X11752293Y-13169468D02*
X11742770Y-13188516D01*
X11742770Y-13188516D02*
X11733246Y-13198040D01*
X11733246Y-13198040D02*
X11714198Y-13207564D01*
X11714198Y-13207564D02*
X11685627Y-13207564D01*
X11866579Y-13207564D02*
X11847531Y-13198040D01*
X11847531Y-13198040D02*
X11838008Y-13178992D01*
X11838008Y-13178992D02*
X11838008Y-13007564D01*
X12018960Y-13198040D02*
X11999912Y-13207564D01*
X11999912Y-13207564D02*
X11961817Y-13207564D01*
X11961817Y-13207564D02*
X11942770Y-13198040D01*
X11942770Y-13198040D02*
X11933246Y-13178992D01*
X11933246Y-13178992D02*
X11933246Y-13102802D01*
X11933246Y-13102802D02*
X11942770Y-13083754D01*
X11942770Y-13083754D02*
X11961817Y-13074230D01*
X11961817Y-13074230D02*
X11999912Y-13074230D01*
X11999912Y-13074230D02*
X12018960Y-13083754D01*
X12018960Y-13083754D02*
X12028484Y-13102802D01*
X12028484Y-13102802D02*
X12028484Y-13121849D01*
X12028484Y-13121849D02*
X11933246Y-13140897D01*
X12104674Y-13198040D02*
X12123722Y-13207564D01*
X12123722Y-13207564D02*
X12161817Y-13207564D01*
X12161817Y-13207564D02*
X12180865Y-13198040D01*
X12180865Y-13198040D02*
X12190389Y-13178992D01*
X12190389Y-13178992D02*
X12190389Y-13169468D01*
X12190389Y-13169468D02*
X12180865Y-13150421D01*
X12180865Y-13150421D02*
X12161817Y-13140897D01*
X12161817Y-13140897D02*
X12133246Y-13140897D01*
X12133246Y-13140897D02*
X12114198Y-13131373D01*
X12114198Y-13131373D02*
X12104674Y-13112326D01*
X12104674Y-13112326D02*
X12104674Y-13102802D01*
X12104674Y-13102802D02*
X12114198Y-13083754D01*
X12114198Y-13083754D02*
X12133246Y-13074230D01*
X12133246Y-13074230D02*
X12161817Y-13074230D01*
X12161817Y-13074230D02*
X12180865Y-13083754D01*
X12257055Y-13283754D02*
X12266579Y-13274230D01*
X12266579Y-13274230D02*
X12285627Y-13245659D01*
X12285627Y-13245659D02*
X12295151Y-13226611D01*
X12295151Y-13226611D02*
X12304674Y-13198040D01*
X12304674Y-13198040D02*
X12314198Y-13150421D01*
X12314198Y-13150421D02*
X12314198Y-13112326D01*
X12314198Y-13112326D02*
X12304674Y-13064707D01*
X12304674Y-13064707D02*
X12295151Y-13036135D01*
X12295151Y-13036135D02*
X12285627Y-13017088D01*
X12285627Y-13017088D02*
X12266579Y-12988516D01*
X12266579Y-12988516D02*
X12257055Y-12978992D01*
D11*
X7051040Y-13330080D02*
X7051040Y-13430080D01*
X7001040Y-13380080D02*
X7101040Y-13380080D01*
D10*
X7466579Y-13471564D02*
X7352293Y-13471564D01*
X7409436Y-13471564D02*
X7409436Y-13271564D01*
X7409436Y-13271564D02*
X7390388Y-13300135D01*
X7390388Y-13300135D02*
X7371341Y-13319183D01*
X7371341Y-13319183D02*
X7352293Y-13328707D01*
X7552293Y-13452516D02*
X7561817Y-13462040D01*
X7561817Y-13462040D02*
X7552293Y-13471564D01*
X7552293Y-13471564D02*
X7542769Y-13462040D01*
X7542769Y-13462040D02*
X7552293Y-13452516D01*
X7552293Y-13452516D02*
X7552293Y-13471564D01*
X7685626Y-13271564D02*
X7704674Y-13271564D01*
X7704674Y-13271564D02*
X7723722Y-13281088D01*
X7723722Y-13281088D02*
X7733245Y-13290611D01*
X7733245Y-13290611D02*
X7742769Y-13309659D01*
X7742769Y-13309659D02*
X7752293Y-13347754D01*
X7752293Y-13347754D02*
X7752293Y-13395373D01*
X7752293Y-13395373D02*
X7742769Y-13433468D01*
X7742769Y-13433468D02*
X7733245Y-13452516D01*
X7733245Y-13452516D02*
X7723722Y-13462040D01*
X7723722Y-13462040D02*
X7704674Y-13471564D01*
X7704674Y-13471564D02*
X7685626Y-13471564D01*
X7685626Y-13471564D02*
X7666579Y-13462040D01*
X7666579Y-13462040D02*
X7657055Y-13452516D01*
X7657055Y-13452516D02*
X7647531Y-13433468D01*
X7647531Y-13433468D02*
X7638007Y-13395373D01*
X7638007Y-13395373D02*
X7638007Y-13347754D01*
X7638007Y-13347754D02*
X7647531Y-13309659D01*
X7647531Y-13309659D02*
X7657055Y-13290611D01*
X7657055Y-13290611D02*
X7666579Y-13281088D01*
X7666579Y-13281088D02*
X7685626Y-13271564D01*
X7876102Y-13271564D02*
X7895150Y-13271564D01*
X7895150Y-13271564D02*
X7914198Y-13281088D01*
X7914198Y-13281088D02*
X7923722Y-13290611D01*
X7923722Y-13290611D02*
X7933245Y-13309659D01*
X7933245Y-13309659D02*
X7942769Y-13347754D01*
X7942769Y-13347754D02*
X7942769Y-13395373D01*
X7942769Y-13395373D02*
X7933245Y-13433468D01*
X7933245Y-13433468D02*
X7923722Y-13452516D01*
X7923722Y-13452516D02*
X7914198Y-13462040D01*
X7914198Y-13462040D02*
X7895150Y-13471564D01*
X7895150Y-13471564D02*
X7876102Y-13471564D01*
X7876102Y-13471564D02*
X7857055Y-13462040D01*
X7857055Y-13462040D02*
X7847531Y-13452516D01*
X7847531Y-13452516D02*
X7838007Y-13433468D01*
X7838007Y-13433468D02*
X7828483Y-13395373D01*
X7828483Y-13395373D02*
X7828483Y-13347754D01*
X7828483Y-13347754D02*
X7838007Y-13309659D01*
X7838007Y-13309659D02*
X7847531Y-13290611D01*
X7847531Y-13290611D02*
X7857055Y-13281088D01*
X7857055Y-13281088D02*
X7876102Y-13271564D01*
X8066579Y-13271564D02*
X8085626Y-13271564D01*
X8085626Y-13271564D02*
X8104674Y-13281088D01*
X8104674Y-13281088D02*
X8114198Y-13290611D01*
X8114198Y-13290611D02*
X8123722Y-13309659D01*
X8123722Y-13309659D02*
X8133245Y-13347754D01*
X8133245Y-13347754D02*
X8133245Y-13395373D01*
X8133245Y-13395373D02*
X8123722Y-13433468D01*
X8123722Y-13433468D02*
X8114198Y-13452516D01*
X8114198Y-13452516D02*
X8104674Y-13462040D01*
X8104674Y-13462040D02*
X8085626Y-13471564D01*
X8085626Y-13471564D02*
X8066579Y-13471564D01*
X8066579Y-13471564D02*
X8047531Y-13462040D01*
X8047531Y-13462040D02*
X8038007Y-13452516D01*
X8038007Y-13452516D02*
X8028483Y-13433468D01*
X8028483Y-13433468D02*
X8018960Y-13395373D01*
X8018960Y-13395373D02*
X8018960Y-13347754D01*
X8018960Y-13347754D02*
X8028483Y-13309659D01*
X8028483Y-13309659D02*
X8038007Y-13290611D01*
X8038007Y-13290611D02*
X8047531Y-13281088D01*
X8047531Y-13281088D02*
X8066579Y-13271564D01*
X8218960Y-13471564D02*
X8218960Y-13338230D01*
X8218960Y-13357278D02*
X8228483Y-13347754D01*
X8228483Y-13347754D02*
X8247531Y-13338230D01*
X8247531Y-13338230D02*
X8276103Y-13338230D01*
X8276103Y-13338230D02*
X8295150Y-13347754D01*
X8295150Y-13347754D02*
X8304674Y-13366802D01*
X8304674Y-13366802D02*
X8304674Y-13471564D01*
X8304674Y-13366802D02*
X8314198Y-13347754D01*
X8314198Y-13347754D02*
X8333245Y-13338230D01*
X8333245Y-13338230D02*
X8361817Y-13338230D01*
X8361817Y-13338230D02*
X8380864Y-13347754D01*
X8380864Y-13347754D02*
X8390388Y-13366802D01*
X8390388Y-13366802D02*
X8390388Y-13471564D01*
X8485626Y-13471564D02*
X8485626Y-13338230D01*
X8485626Y-13357278D02*
X8495150Y-13347754D01*
X8495150Y-13347754D02*
X8514198Y-13338230D01*
X8514198Y-13338230D02*
X8542769Y-13338230D01*
X8542769Y-13338230D02*
X8561817Y-13347754D01*
X8561817Y-13347754D02*
X8571341Y-13366802D01*
X8571341Y-13366802D02*
X8571341Y-13471564D01*
X8571341Y-13366802D02*
X8580865Y-13347754D01*
X8580865Y-13347754D02*
X8599912Y-13338230D01*
X8599912Y-13338230D02*
X8628484Y-13338230D01*
X8628484Y-13338230D02*
X8647531Y-13347754D01*
X8647531Y-13347754D02*
X8657055Y-13366802D01*
X8657055Y-13366802D02*
X8657055Y-13471564D01*
X9047531Y-13262040D02*
X8876103Y-13519183D01*
X9304674Y-13271564D02*
X9323722Y-13271564D01*
X9323722Y-13271564D02*
X9342769Y-13281088D01*
X9342769Y-13281088D02*
X9352293Y-13290611D01*
X9352293Y-13290611D02*
X9361817Y-13309659D01*
X9361817Y-13309659D02*
X9371341Y-13347754D01*
X9371341Y-13347754D02*
X9371341Y-13395373D01*
X9371341Y-13395373D02*
X9361817Y-13433468D01*
X9361817Y-13433468D02*
X9352293Y-13452516D01*
X9352293Y-13452516D02*
X9342769Y-13462040D01*
X9342769Y-13462040D02*
X9323722Y-13471564D01*
X9323722Y-13471564D02*
X9304674Y-13471564D01*
X9304674Y-13471564D02*
X9285627Y-13462040D01*
X9285627Y-13462040D02*
X9276103Y-13452516D01*
X9276103Y-13452516D02*
X9266579Y-13433468D01*
X9266579Y-13433468D02*
X9257055Y-13395373D01*
X9257055Y-13395373D02*
X9257055Y-13347754D01*
X9257055Y-13347754D02*
X9266579Y-13309659D01*
X9266579Y-13309659D02*
X9276103Y-13290611D01*
X9276103Y-13290611D02*
X9285627Y-13281088D01*
X9285627Y-13281088D02*
X9304674Y-13271564D01*
X9457055Y-13452516D02*
X9466579Y-13462040D01*
X9466579Y-13462040D02*
X9457055Y-13471564D01*
X9457055Y-13471564D02*
X9447531Y-13462040D01*
X9447531Y-13462040D02*
X9457055Y-13452516D01*
X9457055Y-13452516D02*
X9457055Y-13471564D01*
X9590388Y-13271564D02*
X9609436Y-13271564D01*
X9609436Y-13271564D02*
X9628484Y-13281088D01*
X9628484Y-13281088D02*
X9638008Y-13290611D01*
X9638008Y-13290611D02*
X9647531Y-13309659D01*
X9647531Y-13309659D02*
X9657055Y-13347754D01*
X9657055Y-13347754D02*
X9657055Y-13395373D01*
X9657055Y-13395373D02*
X9647531Y-13433468D01*
X9647531Y-13433468D02*
X9638008Y-13452516D01*
X9638008Y-13452516D02*
X9628484Y-13462040D01*
X9628484Y-13462040D02*
X9609436Y-13471564D01*
X9609436Y-13471564D02*
X9590388Y-13471564D01*
X9590388Y-13471564D02*
X9571341Y-13462040D01*
X9571341Y-13462040D02*
X9561817Y-13452516D01*
X9561817Y-13452516D02*
X9552293Y-13433468D01*
X9552293Y-13433468D02*
X9542769Y-13395373D01*
X9542769Y-13395373D02*
X9542769Y-13347754D01*
X9542769Y-13347754D02*
X9552293Y-13309659D01*
X9552293Y-13309659D02*
X9561817Y-13290611D01*
X9561817Y-13290611D02*
X9571341Y-13281088D01*
X9571341Y-13281088D02*
X9590388Y-13271564D01*
X9723722Y-13271564D02*
X9847531Y-13271564D01*
X9847531Y-13271564D02*
X9780865Y-13347754D01*
X9780865Y-13347754D02*
X9809436Y-13347754D01*
X9809436Y-13347754D02*
X9828484Y-13357278D01*
X9828484Y-13357278D02*
X9838008Y-13366802D01*
X9838008Y-13366802D02*
X9847531Y-13385849D01*
X9847531Y-13385849D02*
X9847531Y-13433468D01*
X9847531Y-13433468D02*
X9838008Y-13452516D01*
X9838008Y-13452516D02*
X9828484Y-13462040D01*
X9828484Y-13462040D02*
X9809436Y-13471564D01*
X9809436Y-13471564D02*
X9752293Y-13471564D01*
X9752293Y-13471564D02*
X9733246Y-13462040D01*
X9733246Y-13462040D02*
X9723722Y-13452516D01*
X9942769Y-13471564D02*
X9980865Y-13471564D01*
X9980865Y-13471564D02*
X9999912Y-13462040D01*
X9999912Y-13462040D02*
X10009436Y-13452516D01*
X10009436Y-13452516D02*
X10028484Y-13423945D01*
X10028484Y-13423945D02*
X10038008Y-13385849D01*
X10038008Y-13385849D02*
X10038008Y-13309659D01*
X10038008Y-13309659D02*
X10028484Y-13290611D01*
X10028484Y-13290611D02*
X10018960Y-13281088D01*
X10018960Y-13281088D02*
X9999912Y-13271564D01*
X9999912Y-13271564D02*
X9961817Y-13271564D01*
X9961817Y-13271564D02*
X9942769Y-13281088D01*
X9942769Y-13281088D02*
X9933246Y-13290611D01*
X9933246Y-13290611D02*
X9923722Y-13309659D01*
X9923722Y-13309659D02*
X9923722Y-13357278D01*
X9923722Y-13357278D02*
X9933246Y-13376326D01*
X9933246Y-13376326D02*
X9942769Y-13385849D01*
X9942769Y-13385849D02*
X9961817Y-13395373D01*
X9961817Y-13395373D02*
X9999912Y-13395373D01*
X9999912Y-13395373D02*
X10018960Y-13385849D01*
X10018960Y-13385849D02*
X10028484Y-13376326D01*
X10028484Y-13376326D02*
X10038008Y-13357278D01*
X10209436Y-13338230D02*
X10209436Y-13471564D01*
X10161817Y-13262040D02*
X10114198Y-13404897D01*
X10114198Y-13404897D02*
X10238008Y-13404897D01*
X10304674Y-13271564D02*
X10304674Y-13309659D01*
X10380865Y-13271564D02*
X10380865Y-13309659D01*
X10676103Y-13547754D02*
X10666579Y-13538230D01*
X10666579Y-13538230D02*
X10647531Y-13509659D01*
X10647531Y-13509659D02*
X10638008Y-13490611D01*
X10638008Y-13490611D02*
X10628484Y-13462040D01*
X10628484Y-13462040D02*
X10618960Y-13414421D01*
X10618960Y-13414421D02*
X10618960Y-13376326D01*
X10618960Y-13376326D02*
X10628484Y-13328707D01*
X10628484Y-13328707D02*
X10638008Y-13300135D01*
X10638008Y-13300135D02*
X10647531Y-13281088D01*
X10647531Y-13281088D02*
X10666579Y-13252516D01*
X10666579Y-13252516D02*
X10676103Y-13242992D01*
X10733246Y-13271564D02*
X10857055Y-13271564D01*
X10857055Y-13271564D02*
X10790389Y-13347754D01*
X10790389Y-13347754D02*
X10818960Y-13347754D01*
X10818960Y-13347754D02*
X10838008Y-13357278D01*
X10838008Y-13357278D02*
X10847531Y-13366802D01*
X10847531Y-13366802D02*
X10857055Y-13385849D01*
X10857055Y-13385849D02*
X10857055Y-13433468D01*
X10857055Y-13433468D02*
X10847531Y-13452516D01*
X10847531Y-13452516D02*
X10838008Y-13462040D01*
X10838008Y-13462040D02*
X10818960Y-13471564D01*
X10818960Y-13471564D02*
X10761817Y-13471564D01*
X10761817Y-13471564D02*
X10742770Y-13462040D01*
X10742770Y-13462040D02*
X10733246Y-13452516D01*
X10952293Y-13471564D02*
X10990389Y-13471564D01*
X10990389Y-13471564D02*
X11009436Y-13462040D01*
X11009436Y-13462040D02*
X11018960Y-13452516D01*
X11018960Y-13452516D02*
X11038008Y-13423945D01*
X11038008Y-13423945D02*
X11047531Y-13385849D01*
X11047531Y-13385849D02*
X11047531Y-13309659D01*
X11047531Y-13309659D02*
X11038008Y-13290611D01*
X11038008Y-13290611D02*
X11028484Y-13281088D01*
X11028484Y-13281088D02*
X11009436Y-13271564D01*
X11009436Y-13271564D02*
X10971341Y-13271564D01*
X10971341Y-13271564D02*
X10952293Y-13281088D01*
X10952293Y-13281088D02*
X10942770Y-13290611D01*
X10942770Y-13290611D02*
X10933246Y-13309659D01*
X10933246Y-13309659D02*
X10933246Y-13357278D01*
X10933246Y-13357278D02*
X10942770Y-13376326D01*
X10942770Y-13376326D02*
X10952293Y-13385849D01*
X10952293Y-13385849D02*
X10971341Y-13395373D01*
X10971341Y-13395373D02*
X11009436Y-13395373D01*
X11009436Y-13395373D02*
X11028484Y-13385849D01*
X11028484Y-13385849D02*
X11038008Y-13376326D01*
X11038008Y-13376326D02*
X11047531Y-13357278D01*
X11285627Y-13471564D02*
X11285627Y-13271564D01*
X11371341Y-13471564D02*
X11371341Y-13366802D01*
X11371341Y-13366802D02*
X11361817Y-13347754D01*
X11361817Y-13347754D02*
X11342770Y-13338230D01*
X11342770Y-13338230D02*
X11314198Y-13338230D01*
X11314198Y-13338230D02*
X11295150Y-13347754D01*
X11295150Y-13347754D02*
X11285627Y-13357278D01*
X11495150Y-13471564D02*
X11476103Y-13462040D01*
X11476103Y-13462040D02*
X11466579Y-13452516D01*
X11466579Y-13452516D02*
X11457055Y-13433468D01*
X11457055Y-13433468D02*
X11457055Y-13376326D01*
X11457055Y-13376326D02*
X11466579Y-13357278D01*
X11466579Y-13357278D02*
X11476103Y-13347754D01*
X11476103Y-13347754D02*
X11495150Y-13338230D01*
X11495150Y-13338230D02*
X11523722Y-13338230D01*
X11523722Y-13338230D02*
X11542770Y-13347754D01*
X11542770Y-13347754D02*
X11552293Y-13357278D01*
X11552293Y-13357278D02*
X11561817Y-13376326D01*
X11561817Y-13376326D02*
X11561817Y-13433468D01*
X11561817Y-13433468D02*
X11552293Y-13452516D01*
X11552293Y-13452516D02*
X11542770Y-13462040D01*
X11542770Y-13462040D02*
X11523722Y-13471564D01*
X11523722Y-13471564D02*
X11495150Y-13471564D01*
X11676103Y-13471564D02*
X11657055Y-13462040D01*
X11657055Y-13462040D02*
X11647531Y-13442992D01*
X11647531Y-13442992D02*
X11647531Y-13271564D01*
X11828484Y-13462040D02*
X11809436Y-13471564D01*
X11809436Y-13471564D02*
X11771341Y-13471564D01*
X11771341Y-13471564D02*
X11752293Y-13462040D01*
X11752293Y-13462040D02*
X11742770Y-13442992D01*
X11742770Y-13442992D02*
X11742770Y-13366802D01*
X11742770Y-13366802D02*
X11752293Y-13347754D01*
X11752293Y-13347754D02*
X11771341Y-13338230D01*
X11771341Y-13338230D02*
X11809436Y-13338230D01*
X11809436Y-13338230D02*
X11828484Y-13347754D01*
X11828484Y-13347754D02*
X11838008Y-13366802D01*
X11838008Y-13366802D02*
X11838008Y-13385849D01*
X11838008Y-13385849D02*
X11742770Y-13404897D01*
X11914198Y-13462040D02*
X11933246Y-13471564D01*
X11933246Y-13471564D02*
X11971341Y-13471564D01*
X11971341Y-13471564D02*
X11990389Y-13462040D01*
X11990389Y-13462040D02*
X11999912Y-13442992D01*
X11999912Y-13442992D02*
X11999912Y-13433468D01*
X11999912Y-13433468D02*
X11990389Y-13414421D01*
X11990389Y-13414421D02*
X11971341Y-13404897D01*
X11971341Y-13404897D02*
X11942770Y-13404897D01*
X11942770Y-13404897D02*
X11923722Y-13395373D01*
X11923722Y-13395373D02*
X11914198Y-13376326D01*
X11914198Y-13376326D02*
X11914198Y-13366802D01*
X11914198Y-13366802D02*
X11923722Y-13347754D01*
X11923722Y-13347754D02*
X11942770Y-13338230D01*
X11942770Y-13338230D02*
X11971341Y-13338230D01*
X11971341Y-13338230D02*
X11990389Y-13347754D01*
X12066579Y-13547754D02*
X12076103Y-13538230D01*
X12076103Y-13538230D02*
X12095151Y-13509659D01*
X12095151Y-13509659D02*
X12104674Y-13490611D01*
X12104674Y-13490611D02*
X12114198Y-13462040D01*
X12114198Y-13462040D02*
X12123722Y-13414421D01*
X12123722Y-13414421D02*
X12123722Y-13376326D01*
X12123722Y-13376326D02*
X12114198Y-13328707D01*
X12114198Y-13328707D02*
X12104674Y-13300135D01*
X12104674Y-13300135D02*
X12095151Y-13281088D01*
X12095151Y-13281088D02*
X12076103Y-13252516D01*
X12076103Y-13252516D02*
X12066579Y-13242992D01*
M02*
