M48
; DRILL file {KiCad 8.0.8} date 2025-05-30T17:01:50-0500
; FORMAT={-:-/ absolute / metric / decimal}
; #@! TF.CreationDate,2025-05-30T17:01:50-05:00
; #@! TF.GenerationSoftware,Kicad,Pcbnew,8.0.8
; #@! TF.FileFunction,Plated,1,4,PTH
FMAT,2
METRIC
; #@! TA.AperFunction,Plated,PTH,ViaDrill
T1C0.300
; #@! TA.AperFunction,Plated,PTH,ComponentDrill
T2C0.800
; #@! TA.AperFunction,Plated,PTH,ComponentDrill
T3C1.000
%
G90
G05
T1
X72.07Y-106.72
X75.428Y-117.921
X79.415Y-88.878
X120.0Y-106.292
X122.55Y-115.946
X125.585Y-107.58
X133.663Y-98.69
X137.275Y-84.375
X152.001Y-117.921
X154.485Y-115.121
X154.946Y-89.648
X155.509Y-109.766
X196.651Y-95.119
X204.188Y-115.946
X210.903Y-101.12
X219.683Y-84.375
T2
X85.428Y-108.521
X85.61Y-96.521
X89.228Y-108.521
X89.41Y-96.521
X109.695Y-92.34
X109.695Y-94.88
X109.695Y-97.42
X109.695Y-99.96
X109.695Y-102.5
X109.695Y-105.04
X109.695Y-107.58
X112.065Y-112.04
X114.565Y-112.04
X117.315Y-92.34
X117.315Y-94.88
X117.315Y-97.42
X117.315Y-99.96
X117.315Y-102.5
X117.315Y-105.04
X117.315Y-107.58
X122.13Y-92.34
X122.13Y-94.88
X122.13Y-97.42
X122.13Y-99.96
X122.13Y-102.5
X122.13Y-105.04
X122.13Y-107.58
X124.4Y-112.04
X126.9Y-112.04
X129.75Y-92.34
X129.75Y-94.88
X129.75Y-97.42
X129.75Y-99.96
X129.75Y-102.5
X129.75Y-105.04
X129.75Y-107.58
X134.565Y-92.34
X134.565Y-94.88
X134.565Y-97.42
X134.565Y-99.96
X134.565Y-102.5
X134.565Y-105.04
X134.565Y-107.58
X136.985Y-112.04
X139.485Y-112.04
X142.185Y-92.34
X142.185Y-94.88
X142.185Y-97.42
X142.185Y-99.96
X142.185Y-102.5
X142.185Y-105.04
X142.185Y-107.58
X147.0Y-92.3
X147.0Y-94.84
X147.0Y-97.38
X147.0Y-99.92
X147.0Y-102.46
X147.0Y-105.0
X147.0Y-107.54
X149.34Y-112.08
X151.84Y-112.08
X154.62Y-92.3
X154.62Y-94.84
X154.62Y-97.38
X154.62Y-99.92
X154.62Y-102.46
X154.62Y-105.0
X154.62Y-107.54
X159.435Y-92.3
X159.435Y-94.84
X159.435Y-97.38
X159.435Y-99.92
X159.435Y-102.46
X159.435Y-105.0
X159.435Y-107.54
X161.925Y-112.08
X164.425Y-112.08
X167.055Y-92.3
X167.055Y-94.84
X167.055Y-97.38
X167.055Y-99.92
X167.055Y-102.46
X167.055Y-105.0
X167.055Y-107.54
X171.87Y-92.3
X171.87Y-94.84
X171.87Y-97.38
X171.87Y-99.92
X171.87Y-102.46
X171.87Y-105.0
X171.87Y-107.54
X174.01Y-112.08
X176.51Y-112.08
X179.49Y-92.3
X179.49Y-94.84
X179.49Y-97.38
X179.49Y-99.92
X179.49Y-102.46
X179.49Y-105.0
X179.49Y-107.54
X184.305Y-92.3
X184.305Y-94.84
X184.305Y-97.38
X184.305Y-99.92
X184.305Y-102.46
X184.305Y-105.0
X184.305Y-107.54
X186.845Y-112.08
X189.345Y-112.08
X191.925Y-92.3
X191.925Y-94.84
X191.925Y-97.38
X191.925Y-99.92
X191.925Y-102.46
X191.925Y-105.0
X191.925Y-107.54
X200.966Y-97.195
X200.966Y-107.355
T3
X74.57Y-92.371
X74.57Y-94.911
X74.57Y-97.451
X74.57Y-99.991
X74.57Y-102.531
X74.57Y-105.071
X74.57Y-107.611
X74.57Y-110.151
X74.57Y-112.691
X77.11Y-92.371
X77.11Y-94.911
X77.11Y-97.451
X77.11Y-99.991
X77.11Y-102.531
X77.11Y-105.071
X77.11Y-107.611
X77.11Y-110.151
X77.11Y-112.691
X99.86Y-99.981
X99.86Y-102.521
X99.86Y-105.061
X215.11Y-92.361
X215.11Y-94.901
X215.11Y-97.441
X215.11Y-99.981
X215.11Y-102.521
X215.11Y-105.061
X215.11Y-107.601
X215.11Y-110.141
X215.11Y-112.681
X217.65Y-92.361
X217.65Y-94.901
X217.65Y-97.441
X217.65Y-99.981
X217.65Y-102.521
X217.65Y-105.061
X217.65Y-107.601
X217.65Y-110.141
X217.65Y-112.681
M30
