G04 #@! TF.GenerationSoftware,KiCad,Pcbnew,8.0.8*
G04 #@! TF.CreationDate,2025-05-30T17:01:45-05:00*
G04 #@! TF.ProjectId,logicboard,6c6f6769-6362-46f6-9172-642e6b696361,rev?*
G04 #@! TF.SameCoordinates,Original*
G04 #@! TF.FileFunction,Copper,L1,Top*
G04 #@! TF.FilePolarity,Positive*
%FSLAX46Y46*%
G04 Gerber Fmt 4.6, Leading zero omitted, Abs format (unit mm)*
G04 Created by KiCad (PCBNEW 8.0.8) date 2025-05-30 17:01:45*
%MOMM*%
%LPD*%
G01*
G04 APERTURE LIST*
G04 #@! TA.AperFunction,ComponentPad*
%ADD10C,1.600000*%
G04 #@! TD*
G04 #@! TA.AperFunction,ComponentPad*
%ADD11R,1.600000X1.600000*%
G04 #@! TD*
G04 #@! TA.AperFunction,ComponentPad*
%ADD12O,1.600000X1.600000*%
G04 #@! TD*
G04 #@! TA.AperFunction,ComponentPad*
%ADD13R,1.508000X1.508000*%
G04 #@! TD*
G04 #@! TA.AperFunction,ComponentPad*
%ADD14C,1.508000*%
G04 #@! TD*
G04 #@! TA.AperFunction,ComponentPad*
%ADD15R,1.700000X1.700000*%
G04 #@! TD*
G04 #@! TA.AperFunction,ComponentPad*
%ADD16O,1.700000X1.700000*%
G04 #@! TD*
G04 #@! TA.AperFunction,ViaPad*
%ADD17C,0.600000*%
G04 #@! TD*
G04 APERTURE END LIST*
D10*
X149340000Y-112080000D03*
X151840000Y-112080000D03*
D11*
X122130000Y-92340000D03*
D12*
X122130000Y-94880000D03*
X122130000Y-97420000D03*
X122130000Y-99960000D03*
X122130000Y-102500000D03*
X122130000Y-105040000D03*
X122130000Y-107580000D03*
X129750000Y-107580000D03*
X129750000Y-105040000D03*
X129750000Y-102500000D03*
X129750000Y-99960000D03*
X129750000Y-97420000D03*
X129750000Y-94880000D03*
X129750000Y-92340000D03*
D11*
X147000000Y-92300000D03*
D12*
X147000000Y-94840000D03*
X147000000Y-97380000D03*
X147000000Y-99920000D03*
X147000000Y-102460000D03*
X147000000Y-105000000D03*
X147000000Y-107540000D03*
X154620000Y-107540000D03*
X154620000Y-105000000D03*
X154620000Y-102460000D03*
X154620000Y-99920000D03*
X154620000Y-97380000D03*
X154620000Y-94840000D03*
X154620000Y-92300000D03*
D11*
X171870000Y-92300000D03*
D12*
X171870000Y-94840000D03*
X171870000Y-97380000D03*
X171870000Y-99920000D03*
X171870000Y-102460000D03*
X171870000Y-105000000D03*
X171870000Y-107540000D03*
X179490000Y-107540000D03*
X179490000Y-105000000D03*
X179490000Y-102460000D03*
X179490000Y-99920000D03*
X179490000Y-97380000D03*
X179490000Y-94840000D03*
X179490000Y-92300000D03*
D10*
X124400000Y-112040000D03*
X126900000Y-112040000D03*
D11*
X159435000Y-92300000D03*
D12*
X159435000Y-94840000D03*
X159435000Y-97380000D03*
X159435000Y-99920000D03*
X159435000Y-102460000D03*
X159435000Y-105000000D03*
X159435000Y-107540000D03*
X167055000Y-107540000D03*
X167055000Y-105000000D03*
X167055000Y-102460000D03*
X167055000Y-99920000D03*
X167055000Y-97380000D03*
X167055000Y-94840000D03*
X167055000Y-92300000D03*
D10*
X161925000Y-112080000D03*
X164425000Y-112080000D03*
D11*
X184305000Y-92300000D03*
D12*
X184305000Y-94840000D03*
X184305000Y-97380000D03*
X184305000Y-99920000D03*
X184305000Y-102460000D03*
X184305000Y-105000000D03*
X184305000Y-107540000D03*
X191925000Y-107540000D03*
X191925000Y-105000000D03*
X191925000Y-102460000D03*
X191925000Y-99920000D03*
X191925000Y-97380000D03*
X191925000Y-94840000D03*
X191925000Y-92300000D03*
D10*
X136985000Y-112040000D03*
X139485000Y-112040000D03*
X174010000Y-112080000D03*
X176510000Y-112080000D03*
D11*
X134565000Y-92340000D03*
D12*
X134565000Y-94880000D03*
X134565000Y-97420000D03*
X134565000Y-99960000D03*
X134565000Y-102500000D03*
X134565000Y-105040000D03*
X134565000Y-107580000D03*
X142185000Y-107580000D03*
X142185000Y-105040000D03*
X142185000Y-102500000D03*
X142185000Y-99960000D03*
X142185000Y-97420000D03*
X142185000Y-94880000D03*
X142185000Y-92340000D03*
D11*
X85610400Y-96520800D03*
D10*
X89410400Y-96520800D03*
D11*
X109695000Y-92340000D03*
D12*
X109695000Y-94880000D03*
X109695000Y-97420000D03*
X109695000Y-99960000D03*
X109695000Y-102500000D03*
X109695000Y-105040000D03*
X109695000Y-107580000D03*
X117315000Y-107580000D03*
X117315000Y-105040000D03*
X117315000Y-102500000D03*
X117315000Y-99960000D03*
X117315000Y-97420000D03*
X117315000Y-94880000D03*
X117315000Y-92340000D03*
D11*
X85428000Y-108520800D03*
D10*
X89228000Y-108520800D03*
X200965800Y-97195000D03*
D12*
X200965800Y-107355000D03*
D10*
X112065000Y-112040000D03*
X114565000Y-112040000D03*
X186845000Y-112080000D03*
X189345000Y-112080000D03*
D13*
X99860400Y-105060800D03*
D14*
X99860400Y-102520800D03*
X99860400Y-99980800D03*
D15*
X217650400Y-92360800D03*
D16*
X215110400Y-92360800D03*
X217650400Y-94900800D03*
X215110400Y-94900800D03*
X217650400Y-97440800D03*
X215110400Y-97440800D03*
X217650400Y-99980800D03*
X215110400Y-99980800D03*
X217650400Y-102520800D03*
X215110400Y-102520800D03*
X217650400Y-105060800D03*
X215110400Y-105060800D03*
X217650400Y-107600800D03*
X215110400Y-107600800D03*
X217650400Y-110140800D03*
X215110400Y-110140800D03*
X217650400Y-112680800D03*
X215110400Y-112680800D03*
D15*
X77110400Y-92370800D03*
D16*
X74570400Y-92370800D03*
X77110400Y-94910800D03*
X74570400Y-94910800D03*
X77110400Y-97450800D03*
X74570400Y-97450800D03*
X77110400Y-99990800D03*
X74570400Y-99990800D03*
X77110400Y-102530800D03*
X74570400Y-102530800D03*
X77110400Y-105070800D03*
X74570400Y-105070800D03*
X77110400Y-107610800D03*
X74570400Y-107610800D03*
X77110400Y-110150800D03*
X74570400Y-110150800D03*
X77110400Y-112690800D03*
X74570400Y-112690800D03*
D17*
X122549700Y-115945700D03*
X204187500Y-115945700D03*
X219682700Y-84375200D03*
X137275200Y-84375200D03*
X120000000Y-106291700D03*
X154945800Y-89647600D03*
X79415300Y-88877700D03*
X152000700Y-117920800D03*
X75428100Y-117920800D03*
X72069600Y-106720400D03*
X155508800Y-109765700D03*
X154485000Y-115120700D03*
X125585000Y-107580000D03*
X133662700Y-98690000D03*
X196650900Y-95118800D03*
X210902700Y-101120200D03*
G04 #@! TA.AperFunction,Conductor*
G36*
X136766598Y-83540985D02*
G01*
X136812353Y-83593789D01*
X136822297Y-83662947D01*
X136793272Y-83726503D01*
X136776874Y-83742246D01*
X136772933Y-83745388D01*
X136645384Y-83872937D01*
X136549411Y-84025676D01*
X136489831Y-84195945D01*
X136489830Y-84195950D01*
X136469635Y-84375196D01*
X136469635Y-84375203D01*
X136489830Y-84554449D01*
X136489831Y-84554454D01*
X136549411Y-84724723D01*
X136576994Y-84768620D01*
X136645384Y-84877462D01*
X136772938Y-85005016D01*
X136925678Y-85100989D01*
X137095945Y-85160568D01*
X137095950Y-85160569D01*
X137275196Y-85180765D01*
X137275200Y-85180765D01*
X137275204Y-85180765D01*
X137454449Y-85160569D01*
X137454452Y-85160568D01*
X137454455Y-85160568D01*
X137624722Y-85100989D01*
X137777462Y-85005016D01*
X137905016Y-84877462D01*
X138000989Y-84724722D01*
X138060568Y-84554455D01*
X138080765Y-84375200D01*
X138060568Y-84195945D01*
X138000989Y-84025678D01*
X137905016Y-83872938D01*
X137777462Y-83745384D01*
X137777457Y-83745380D01*
X137773526Y-83742246D01*
X137733387Y-83685056D01*
X137730539Y-83615245D01*
X137765885Y-83554976D01*
X137828205Y-83523384D01*
X137850841Y-83521300D01*
X219107059Y-83521300D01*
X219174098Y-83540985D01*
X219219853Y-83593789D01*
X219229797Y-83662947D01*
X219200772Y-83726503D01*
X219184374Y-83742246D01*
X219180433Y-83745388D01*
X219052884Y-83872937D01*
X218956911Y-84025676D01*
X218897331Y-84195945D01*
X218897330Y-84195950D01*
X218877135Y-84375196D01*
X218877135Y-84375203D01*
X218897330Y-84554449D01*
X218897331Y-84554454D01*
X218956911Y-84724723D01*
X218984494Y-84768620D01*
X219052884Y-84877462D01*
X219180438Y-85005016D01*
X219333178Y-85100989D01*
X219503445Y-85160568D01*
X219503450Y-85160569D01*
X219682696Y-85180765D01*
X219682700Y-85180765D01*
X219682704Y-85180765D01*
X219861949Y-85160569D01*
X219861952Y-85160568D01*
X219861955Y-85160568D01*
X220032222Y-85100989D01*
X220184962Y-85005016D01*
X220312516Y-84877462D01*
X220380906Y-84768619D01*
X220433241Y-84722329D01*
X220502294Y-84711681D01*
X220566143Y-84740056D01*
X220604515Y-84798446D01*
X220609900Y-84834592D01*
X220609900Y-121396300D01*
X220590215Y-121463339D01*
X220537411Y-121509094D01*
X220485900Y-121520300D01*
X71734900Y-121520300D01*
X71667861Y-121500615D01*
X71622106Y-121447811D01*
X71610900Y-121396300D01*
X71610900Y-117920796D01*
X74622535Y-117920796D01*
X74622535Y-117920803D01*
X74642730Y-118100049D01*
X74642731Y-118100054D01*
X74702311Y-118270323D01*
X74798284Y-118423062D01*
X74925838Y-118550616D01*
X75078578Y-118646589D01*
X75248845Y-118706168D01*
X75248850Y-118706169D01*
X75428096Y-118726365D01*
X75428100Y-118726365D01*
X75428104Y-118726365D01*
X75607349Y-118706169D01*
X75607352Y-118706168D01*
X75607355Y-118706168D01*
X75777622Y-118646589D01*
X75930362Y-118550616D01*
X76057916Y-118423062D01*
X76153889Y-118270322D01*
X76213468Y-118100055D01*
X76233665Y-117920800D01*
X76233665Y-117920796D01*
X151195135Y-117920796D01*
X151195135Y-117920803D01*
X151215330Y-118100049D01*
X151215331Y-118100054D01*
X151274911Y-118270323D01*
X151370884Y-118423062D01*
X151498438Y-118550616D01*
X151651178Y-118646589D01*
X151821445Y-118706168D01*
X151821450Y-118706169D01*
X152000696Y-118726365D01*
X152000700Y-118726365D01*
X152000704Y-118726365D01*
X152179949Y-118706169D01*
X152179952Y-118706168D01*
X152179955Y-118706168D01*
X152350222Y-118646589D01*
X152502962Y-118550616D01*
X152630516Y-118423062D01*
X152726489Y-118270322D01*
X152786068Y-118100055D01*
X152806265Y-117920800D01*
X152786068Y-117741545D01*
X152726489Y-117571278D01*
X152630516Y-117418538D01*
X152502962Y-117290984D01*
X152350223Y-117195011D01*
X152179954Y-117135431D01*
X152179949Y-117135430D01*
X152000704Y-117115235D01*
X152000696Y-117115235D01*
X151821450Y-117135430D01*
X151821445Y-117135431D01*
X151651176Y-117195011D01*
X151498437Y-117290984D01*
X151370884Y-117418537D01*
X151274911Y-117571276D01*
X151215331Y-117741545D01*
X151215330Y-117741550D01*
X151195135Y-117920796D01*
X76233665Y-117920796D01*
X76213468Y-117741545D01*
X76153889Y-117571278D01*
X76057916Y-117418538D01*
X75930362Y-117290984D01*
X75777623Y-117195011D01*
X75607354Y-117135431D01*
X75607349Y-117135430D01*
X75428104Y-117115235D01*
X75428096Y-117115235D01*
X75248850Y-117135430D01*
X75248845Y-117135431D01*
X75078576Y-117195011D01*
X74925837Y-117290984D01*
X74798284Y-117418537D01*
X74702311Y-117571276D01*
X74642731Y-117741545D01*
X74642730Y-117741550D01*
X74622535Y-117920796D01*
X71610900Y-117920796D01*
X71610900Y-115945696D01*
X121744135Y-115945696D01*
X121744135Y-115945703D01*
X121764330Y-116124949D01*
X121764331Y-116124954D01*
X121823911Y-116295223D01*
X121919884Y-116447962D01*
X122047438Y-116575516D01*
X122200178Y-116671489D01*
X122370445Y-116731068D01*
X122370450Y-116731069D01*
X122549696Y-116751265D01*
X122549700Y-116751265D01*
X122549704Y-116751265D01*
X122728949Y-116731069D01*
X122728952Y-116731068D01*
X122728955Y-116731068D01*
X122899222Y-116671489D01*
X123051962Y-116575516D01*
X123179516Y-116447962D01*
X123275489Y-116295222D01*
X123335068Y-116124955D01*
X123355265Y-115945700D01*
X123355265Y-115945696D01*
X203381935Y-115945696D01*
X203381935Y-115945703D01*
X203402130Y-116124949D01*
X203402131Y-116124954D01*
X203461711Y-116295223D01*
X203557684Y-116447962D01*
X203685238Y-116575516D01*
X203837978Y-116671489D01*
X204008245Y-116731068D01*
X204008250Y-116731069D01*
X204187496Y-116751265D01*
X204187500Y-116751265D01*
X204187504Y-116751265D01*
X204366749Y-116731069D01*
X204366752Y-116731068D01*
X204366755Y-116731068D01*
X204537022Y-116671489D01*
X204689762Y-116575516D01*
X204817316Y-116447962D01*
X204913289Y-116295222D01*
X204972868Y-116124955D01*
X204993065Y-115945700D01*
X204990875Y-115926265D01*
X204972869Y-115766450D01*
X204972868Y-115766445D01*
X204913288Y-115596176D01*
X204834146Y-115470223D01*
X204817316Y-115443438D01*
X204689762Y-115315884D01*
X204664402Y-115299949D01*
X204537023Y-115219911D01*
X204366754Y-115160331D01*
X204366749Y-115160330D01*
X204187504Y-115140135D01*
X204187496Y-115140135D01*
X204008250Y-115160330D01*
X204008245Y-115160331D01*
X203837976Y-115219911D01*
X203685237Y-115315884D01*
X203557684Y-115443437D01*
X203461711Y-115596176D01*
X203402131Y-115766445D01*
X203402130Y-115766450D01*
X203381935Y-115945696D01*
X123355265Y-115945696D01*
X123353075Y-115926265D01*
X123335069Y-115766450D01*
X123335068Y-115766445D01*
X123275488Y-115596176D01*
X123196346Y-115470223D01*
X123179516Y-115443438D01*
X123051962Y-115315884D01*
X123026602Y-115299949D01*
X122899223Y-115219911D01*
X122728954Y-115160331D01*
X122728949Y-115160330D01*
X122549704Y-115140135D01*
X122549696Y-115140135D01*
X122370450Y-115160330D01*
X122370445Y-115160331D01*
X122200176Y-115219911D01*
X122047437Y-115315884D01*
X121919884Y-115443437D01*
X121823911Y-115596176D01*
X121764331Y-115766445D01*
X121764330Y-115766450D01*
X121744135Y-115945696D01*
X71610900Y-115945696D01*
X71610900Y-115120696D01*
X153679435Y-115120696D01*
X153679435Y-115120703D01*
X153699630Y-115299949D01*
X153699631Y-115299954D01*
X153759211Y-115470223D01*
X153838353Y-115596176D01*
X153855184Y-115622962D01*
X153982738Y-115750516D01*
X154135478Y-115846489D01*
X154305745Y-115906068D01*
X154305750Y-115906069D01*
X154484996Y-115926265D01*
X154485000Y-115926265D01*
X154485004Y-115926265D01*
X154664249Y-115906069D01*
X154664252Y-115906068D01*
X154664255Y-115906068D01*
X154834522Y-115846489D01*
X154987262Y-115750516D01*
X155114816Y-115622962D01*
X155210789Y-115470222D01*
X155270368Y-115299955D01*
X155286100Y-115160330D01*
X155290565Y-115120703D01*
X155290565Y-115120696D01*
X155270369Y-114941450D01*
X155270368Y-114941445D01*
X155210788Y-114771176D01*
X155114815Y-114618437D01*
X154987262Y-114490884D01*
X154834523Y-114394911D01*
X154664254Y-114335331D01*
X154664249Y-114335330D01*
X154485004Y-114315135D01*
X154484996Y-114315135D01*
X154305750Y-114335330D01*
X154305745Y-114335331D01*
X154135476Y-114394911D01*
X153982737Y-114490884D01*
X153855184Y-114618437D01*
X153759211Y-114771176D01*
X153699631Y-114941445D01*
X153699630Y-114941450D01*
X153679435Y-115120696D01*
X71610900Y-115120696D01*
X71610900Y-107582748D01*
X71630585Y-107515709D01*
X71683389Y-107469954D01*
X71752547Y-107460010D01*
X71775855Y-107465707D01*
X71890337Y-107505766D01*
X71890343Y-107505767D01*
X71890345Y-107505768D01*
X71890346Y-107505768D01*
X71890350Y-107505769D01*
X72069596Y-107525965D01*
X72069600Y-107525965D01*
X72069604Y-107525965D01*
X72248849Y-107505769D01*
X72248852Y-107505768D01*
X72248855Y-107505768D01*
X72419122Y-107446189D01*
X72571862Y-107350216D01*
X72699416Y-107222662D01*
X72795389Y-107069922D01*
X72854968Y-106899655D01*
X72856364Y-106887265D01*
X72875165Y-106720403D01*
X72875165Y-106720396D01*
X72854969Y-106541150D01*
X72854968Y-106541145D01*
X72811057Y-106415655D01*
X72795389Y-106370878D01*
X72790627Y-106363300D01*
X72724837Y-106258596D01*
X72699416Y-106218138D01*
X72571862Y-106090584D01*
X72528300Y-106063212D01*
X72419123Y-105994611D01*
X72248854Y-105935031D01*
X72248849Y-105935030D01*
X72069604Y-105914835D01*
X72069596Y-105914835D01*
X71890350Y-105935030D01*
X71890337Y-105935033D01*
X71775855Y-105975093D01*
X71706076Y-105978655D01*
X71645449Y-105943927D01*
X71613221Y-105881933D01*
X71610900Y-105858052D01*
X71610900Y-94910799D01*
X73214741Y-94910799D01*
X73214741Y-94910800D01*
X73235336Y-95146203D01*
X73235338Y-95146213D01*
X73296494Y-95374455D01*
X73296496Y-95374459D01*
X73296497Y-95374463D01*
X73340265Y-95468323D01*
X73396365Y-95588630D01*
X73396367Y-95588634D01*
X73487748Y-95719139D01*
X73524899Y-95772196D01*
X73531901Y-95782195D01*
X73531906Y-95782202D01*
X73698997Y-95949293D01*
X73699003Y-95949298D01*
X73884558Y-96079225D01*
X73928183Y-96133802D01*
X73935377Y-96203300D01*
X73903854Y-96265655D01*
X73884558Y-96282375D01*
X73698997Y-96412305D01*
X73531905Y-96579397D01*
X73396365Y-96772969D01*
X73396364Y-96772971D01*
X73296498Y-96987135D01*
X73296494Y-96987144D01*
X73235338Y-97215386D01*
X73235336Y-97215396D01*
X73214741Y-97450799D01*
X73214741Y-97450800D01*
X73235336Y-97686203D01*
X73235338Y-97686213D01*
X73296494Y-97914455D01*
X73296496Y-97914459D01*
X73296497Y-97914463D01*
X73329543Y-97985330D01*
X73396365Y-98128630D01*
X73396367Y-98128634D01*
X73487748Y-98259139D01*
X73531901Y-98322196D01*
X73531906Y-98322202D01*
X73698997Y-98489293D01*
X73699003Y-98489298D01*
X73884558Y-98619225D01*
X73928183Y-98673802D01*
X73935377Y-98743300D01*
X73903854Y-98805655D01*
X73884558Y-98822375D01*
X73698997Y-98952305D01*
X73531905Y-99119397D01*
X73396365Y-99312969D01*
X73396364Y-99312971D01*
X73296498Y-99527135D01*
X73296494Y-99527144D01*
X73235338Y-99755386D01*
X73235336Y-99755396D01*
X73214741Y-99990799D01*
X73214741Y-99990800D01*
X73235336Y-100226203D01*
X73235338Y-100226213D01*
X73296494Y-100454455D01*
X73296496Y-100454459D01*
X73296497Y-100454463D01*
X73372727Y-100617938D01*
X73396365Y-100668630D01*
X73396367Y-100668634D01*
X73467818Y-100770676D01*
X73531901Y-100862196D01*
X73531906Y-100862202D01*
X73698997Y-101029293D01*
X73699003Y-101029298D01*
X73884558Y-101159225D01*
X73928183Y-101213802D01*
X73935377Y-101283300D01*
X73903854Y-101345655D01*
X73884558Y-101362375D01*
X73698997Y-101492305D01*
X73531905Y-101659397D01*
X73396365Y-101852969D01*
X73396364Y-101852971D01*
X73296498Y-102067135D01*
X73296494Y-102067144D01*
X73235338Y-102295386D01*
X73235336Y-102295396D01*
X73214741Y-102530799D01*
X73214741Y-102530800D01*
X73235336Y-102766203D01*
X73235338Y-102766213D01*
X73296494Y-102994455D01*
X73296496Y-102994459D01*
X73296497Y-102994463D01*
X73300400Y-103002832D01*
X73396365Y-103208630D01*
X73396367Y-103208634D01*
X73487748Y-103339139D01*
X73531901Y-103402196D01*
X73531906Y-103402202D01*
X73698997Y-103569293D01*
X73699003Y-103569298D01*
X73884558Y-103699225D01*
X73928183Y-103753802D01*
X73935377Y-103823300D01*
X73903854Y-103885655D01*
X73884558Y-103902375D01*
X73698997Y-104032305D01*
X73531905Y-104199397D01*
X73396365Y-104392969D01*
X73396364Y-104392971D01*
X73296498Y-104607135D01*
X73296494Y-104607144D01*
X73235338Y-104835386D01*
X73235336Y-104835396D01*
X73214741Y-105070799D01*
X73214741Y-105070800D01*
X73235336Y-105306203D01*
X73235338Y-105306213D01*
X73296494Y-105534455D01*
X73296496Y-105534459D01*
X73296497Y-105534463D01*
X73351647Y-105652732D01*
X73396365Y-105748630D01*
X73396367Y-105748634D01*
X73476217Y-105862670D01*
X73531901Y-105942196D01*
X73531906Y-105942202D01*
X73698997Y-106109293D01*
X73699003Y-106109298D01*
X73884558Y-106239225D01*
X73928183Y-106293802D01*
X73935377Y-106363300D01*
X73903854Y-106425655D01*
X73884558Y-106442375D01*
X73698997Y-106572305D01*
X73531905Y-106739397D01*
X73396365Y-106932969D01*
X73396364Y-106932971D01*
X73296498Y-107147135D01*
X73296494Y-107147144D01*
X73235338Y-107375386D01*
X73235336Y-107375396D01*
X73214741Y-107610799D01*
X73214741Y-107610800D01*
X73235336Y-107846203D01*
X73235338Y-107846213D01*
X73296494Y-108074455D01*
X73296496Y-108074459D01*
X73296497Y-108074463D01*
X73370299Y-108232732D01*
X73396365Y-108288630D01*
X73396367Y-108288634D01*
X73487748Y-108419139D01*
X73531901Y-108482196D01*
X73531906Y-108482202D01*
X73698997Y-108649293D01*
X73699003Y-108649298D01*
X73884558Y-108779225D01*
X73928183Y-108833802D01*
X73935377Y-108903300D01*
X73903854Y-108965655D01*
X73884558Y-108982375D01*
X73698997Y-109112305D01*
X73531905Y-109279397D01*
X73396365Y-109472969D01*
X73396364Y-109472971D01*
X73296498Y-109687135D01*
X73296494Y-109687144D01*
X73235338Y-109915386D01*
X73235336Y-109915396D01*
X73214741Y-110150799D01*
X73214741Y-110150800D01*
X73235336Y-110386203D01*
X73235338Y-110386213D01*
X73296494Y-110614455D01*
X73296496Y-110614459D01*
X73296497Y-110614463D01*
X73380387Y-110794365D01*
X73396365Y-110828630D01*
X73396367Y-110828634D01*
X73504681Y-110983321D01*
X73531901Y-111022196D01*
X73531906Y-111022202D01*
X73698997Y-111189293D01*
X73699003Y-111189298D01*
X73884558Y-111319225D01*
X73928183Y-111373802D01*
X73935377Y-111443300D01*
X73903854Y-111505655D01*
X73884558Y-111522375D01*
X73698997Y-111652305D01*
X73531905Y-111819397D01*
X73396365Y-112012969D01*
X73396364Y-112012971D01*
X73296498Y-112227135D01*
X73296494Y-112227144D01*
X73235338Y-112455386D01*
X73235336Y-112455396D01*
X73214741Y-112690799D01*
X73214741Y-112690800D01*
X73235336Y-112926203D01*
X73235338Y-112926213D01*
X73296494Y-113154455D01*
X73296496Y-113154459D01*
X73296497Y-113154463D01*
X73348853Y-113266741D01*
X73396365Y-113368630D01*
X73396367Y-113368634D01*
X73504681Y-113523321D01*
X73531905Y-113562201D01*
X73698999Y-113729295D01*
X73795784Y-113797065D01*
X73892565Y-113864832D01*
X73892567Y-113864833D01*
X73892570Y-113864835D01*
X74106737Y-113964703D01*
X74334992Y-114025863D01*
X74523318Y-114042339D01*
X74570399Y-114046459D01*
X74570400Y-114046459D01*
X74570401Y-114046459D01*
X74609634Y-114043026D01*
X74805808Y-114025863D01*
X75034063Y-113964703D01*
X75248230Y-113864835D01*
X75441801Y-113729295D01*
X75608895Y-113562201D01*
X75738825Y-113376642D01*
X75793402Y-113333017D01*
X75862900Y-113325823D01*
X75925255Y-113357346D01*
X75941975Y-113376642D01*
X76071900Y-113562195D01*
X76071905Y-113562201D01*
X76238999Y-113729295D01*
X76335784Y-113797065D01*
X76432565Y-113864832D01*
X76432567Y-113864833D01*
X76432570Y-113864835D01*
X76646737Y-113964703D01*
X76874992Y-114025863D01*
X77063318Y-114042339D01*
X77110399Y-114046459D01*
X77110400Y-114046459D01*
X77110401Y-114046459D01*
X77149634Y-114043026D01*
X77345808Y-114025863D01*
X77574063Y-113964703D01*
X77788230Y-113864835D01*
X77981801Y-113729295D01*
X78148895Y-113562201D01*
X78284435Y-113368630D01*
X78384303Y-113154463D01*
X78445463Y-112926208D01*
X78466059Y-112690800D01*
X78445463Y-112455392D01*
X78384303Y-112227137D01*
X78297038Y-112039998D01*
X113259532Y-112039998D01*
X113259532Y-112040001D01*
X113279364Y-112266686D01*
X113279366Y-112266697D01*
X113338258Y-112486488D01*
X113338261Y-112486497D01*
X113434431Y-112692732D01*
X113434432Y-112692734D01*
X113564954Y-112879141D01*
X113725858Y-113040045D01*
X113725861Y-113040047D01*
X113912266Y-113170568D01*
X114118504Y-113266739D01*
X114338308Y-113325635D01*
X114500230Y-113339801D01*
X114564998Y-113345468D01*
X114565000Y-113345468D01*
X114565002Y-113345468D01*
X114621673Y-113340509D01*
X114791692Y-113325635D01*
X115011496Y-113266739D01*
X115217734Y-113170568D01*
X115404139Y-113040047D01*
X115565047Y-112879139D01*
X115695568Y-112692734D01*
X115791739Y-112486496D01*
X115850635Y-112266692D01*
X115870468Y-112040000D01*
X115870468Y-112039998D01*
X125594532Y-112039998D01*
X125594532Y-112040001D01*
X125614364Y-112266686D01*
X125614366Y-112266697D01*
X125673258Y-112486488D01*
X125673261Y-112486497D01*
X125769431Y-112692732D01*
X125769432Y-112692734D01*
X125899954Y-112879141D01*
X126060858Y-113040045D01*
X126060861Y-113040047D01*
X126247266Y-113170568D01*
X126453504Y-113266739D01*
X126673308Y-113325635D01*
X126835230Y-113339801D01*
X126899998Y-113345468D01*
X126900000Y-113345468D01*
X126900002Y-113345468D01*
X126956673Y-113340509D01*
X127126692Y-113325635D01*
X127346496Y-113266739D01*
X127552734Y-113170568D01*
X127739139Y-113040047D01*
X127900047Y-112879139D01*
X128030568Y-112692734D01*
X128126739Y-112486496D01*
X128185635Y-112266692D01*
X128205468Y-112040000D01*
X128205468Y-112039998D01*
X138179532Y-112039998D01*
X138179532Y-112040001D01*
X138199364Y-112266686D01*
X138199366Y-112266697D01*
X138258258Y-112486488D01*
X138258261Y-112486497D01*
X138354431Y-112692732D01*
X138354432Y-112692734D01*
X138484954Y-112879141D01*
X138645858Y-113040045D01*
X138645861Y-113040047D01*
X138832266Y-113170568D01*
X139038504Y-113266739D01*
X139258308Y-113325635D01*
X139420230Y-113339801D01*
X139484998Y-113345468D01*
X139485000Y-113345468D01*
X139485002Y-113345468D01*
X139541673Y-113340509D01*
X139711692Y-113325635D01*
X139931496Y-113266739D01*
X140137734Y-113170568D01*
X140324139Y-113040047D01*
X140485047Y-112879139D01*
X140615568Y-112692734D01*
X140711739Y-112486496D01*
X140770635Y-112266692D01*
X140786969Y-112079998D01*
X150534532Y-112079998D01*
X150534532Y-112080001D01*
X150554364Y-112306686D01*
X150554366Y-112306697D01*
X150613258Y-112526488D01*
X150613261Y-112526497D01*
X150709431Y-112732732D01*
X150709432Y-112732734D01*
X150839954Y-112919141D01*
X151000858Y-113080045D01*
X151000861Y-113080047D01*
X151187266Y-113210568D01*
X151393504Y-113306739D01*
X151613308Y-113365635D01*
X151775230Y-113379801D01*
X151839998Y-113385468D01*
X151840000Y-113385468D01*
X151840002Y-113385468D01*
X151896673Y-113380509D01*
X152066692Y-113365635D01*
X152286496Y-113306739D01*
X152492734Y-113210568D01*
X152679139Y-113080047D01*
X152840047Y-112919139D01*
X152970568Y-112732734D01*
X153066739Y-112526496D01*
X153125635Y-112306692D01*
X153145468Y-112080000D01*
X153145468Y-112079998D01*
X163119532Y-112079998D01*
X163119532Y-112080001D01*
X163139364Y-112306686D01*
X163139366Y-112306697D01*
X163198258Y-112526488D01*
X163198261Y-112526497D01*
X163294431Y-112732732D01*
X163294432Y-112732734D01*
X163424954Y-112919141D01*
X163585858Y-113080045D01*
X163585861Y-113080047D01*
X163772266Y-113210568D01*
X163978504Y-113306739D01*
X164198308Y-113365635D01*
X164360230Y-113379801D01*
X164424998Y-113385468D01*
X164425000Y-113385468D01*
X164425002Y-113385468D01*
X164481673Y-113380509D01*
X164651692Y-113365635D01*
X164871496Y-113306739D01*
X165077734Y-113210568D01*
X165264139Y-113080047D01*
X165425047Y-112919139D01*
X165555568Y-112732734D01*
X165651739Y-112526496D01*
X165710635Y-112306692D01*
X165730468Y-112080000D01*
X165730468Y-112079998D01*
X175204532Y-112079998D01*
X175204532Y-112080001D01*
X175224364Y-112306686D01*
X175224366Y-112306697D01*
X175283258Y-112526488D01*
X175283261Y-112526497D01*
X175379431Y-112732732D01*
X175379432Y-112732734D01*
X175509954Y-112919141D01*
X175670858Y-113080045D01*
X175670861Y-113080047D01*
X175857266Y-113210568D01*
X176063504Y-113306739D01*
X176283308Y-113365635D01*
X176445230Y-113379801D01*
X176509998Y-113385468D01*
X176510000Y-113385468D01*
X176510002Y-113385468D01*
X176566673Y-113380509D01*
X176736692Y-113365635D01*
X176956496Y-113306739D01*
X177162734Y-113210568D01*
X177349139Y-113080047D01*
X177510047Y-112919139D01*
X177640568Y-112732734D01*
X177736739Y-112526496D01*
X177795635Y-112306692D01*
X177815468Y-112080000D01*
X177815468Y-112079998D01*
X188039532Y-112079998D01*
X188039532Y-112080001D01*
X188059364Y-112306686D01*
X188059366Y-112306697D01*
X188118258Y-112526488D01*
X188118261Y-112526497D01*
X188214431Y-112732732D01*
X188214432Y-112732734D01*
X188344954Y-112919141D01*
X188505858Y-113080045D01*
X188505861Y-113080047D01*
X188692266Y-113210568D01*
X188898504Y-113306739D01*
X189118308Y-113365635D01*
X189280230Y-113379801D01*
X189344998Y-113385468D01*
X189345000Y-113385468D01*
X189345002Y-113385468D01*
X189401673Y-113380509D01*
X189571692Y-113365635D01*
X189791496Y-113306739D01*
X189997734Y-113210568D01*
X190184139Y-113080047D01*
X190345047Y-112919139D01*
X190475568Y-112732734D01*
X190571739Y-112526496D01*
X190630635Y-112306692D01*
X190650468Y-112080000D01*
X190646968Y-112040000D01*
X190630635Y-111853313D01*
X190630635Y-111853308D01*
X190576776Y-111652301D01*
X190571741Y-111633511D01*
X190571738Y-111633502D01*
X190553090Y-111593511D01*
X190475568Y-111427266D01*
X190345047Y-111240861D01*
X190345045Y-111240858D01*
X190184141Y-111079954D01*
X189997734Y-110949432D01*
X189997732Y-110949431D01*
X189791497Y-110853261D01*
X189791488Y-110853258D01*
X189571697Y-110794366D01*
X189571693Y-110794365D01*
X189571692Y-110794365D01*
X189571691Y-110794364D01*
X189571686Y-110794364D01*
X189345002Y-110774532D01*
X189344998Y-110774532D01*
X189118313Y-110794364D01*
X189118302Y-110794366D01*
X188898511Y-110853258D01*
X188898502Y-110853261D01*
X188692267Y-110949431D01*
X188692265Y-110949432D01*
X188505858Y-111079954D01*
X188344954Y-111240858D01*
X188214432Y-111427265D01*
X188214431Y-111427267D01*
X188118261Y-111633502D01*
X188118258Y-111633511D01*
X188059366Y-111853302D01*
X188059364Y-111853313D01*
X188039532Y-112079998D01*
X177815468Y-112079998D01*
X177811968Y-112040000D01*
X177795635Y-111853313D01*
X177795635Y-111853308D01*
X177741776Y-111652301D01*
X177736741Y-111633511D01*
X177736738Y-111633502D01*
X177718090Y-111593511D01*
X177640568Y-111427266D01*
X177510047Y-111240861D01*
X177510045Y-111240858D01*
X177349141Y-111079954D01*
X177162734Y-110949432D01*
X177162732Y-110949431D01*
X176956497Y-110853261D01*
X176956488Y-110853258D01*
X176736697Y-110794366D01*
X176736693Y-110794365D01*
X176736692Y-110794365D01*
X176736691Y-110794364D01*
X176736686Y-110794364D01*
X176510002Y-110774532D01*
X176509998Y-110774532D01*
X176283313Y-110794364D01*
X176283302Y-110794366D01*
X176063511Y-110853258D01*
X176063502Y-110853261D01*
X175857267Y-110949431D01*
X175857265Y-110949432D01*
X175670858Y-111079954D01*
X175509954Y-111240858D01*
X175379432Y-111427265D01*
X175379431Y-111427267D01*
X175283261Y-111633502D01*
X175283258Y-111633511D01*
X175224366Y-111853302D01*
X175224364Y-111853313D01*
X175204532Y-112079998D01*
X165730468Y-112079998D01*
X165726968Y-112040000D01*
X165710635Y-111853313D01*
X165710635Y-111853308D01*
X165656776Y-111652301D01*
X165651741Y-111633511D01*
X165651738Y-111633502D01*
X165633090Y-111593511D01*
X165555568Y-111427266D01*
X165425047Y-111240861D01*
X165425045Y-111240858D01*
X165264141Y-111079954D01*
X165077734Y-110949432D01*
X165077732Y-110949431D01*
X164871497Y-110853261D01*
X164871488Y-110853258D01*
X164651697Y-110794366D01*
X164651693Y-110794365D01*
X164651692Y-110794365D01*
X164651691Y-110794364D01*
X164651686Y-110794364D01*
X164425002Y-110774532D01*
X164424998Y-110774532D01*
X164198313Y-110794364D01*
X164198302Y-110794366D01*
X163978511Y-110853258D01*
X163978502Y-110853261D01*
X163772267Y-110949431D01*
X163772265Y-110949432D01*
X163585858Y-111079954D01*
X163424954Y-111240858D01*
X163294432Y-111427265D01*
X163294431Y-111427267D01*
X163198261Y-111633502D01*
X163198258Y-111633511D01*
X163139366Y-111853302D01*
X163139364Y-111853313D01*
X163119532Y-112079998D01*
X153145468Y-112079998D01*
X153141968Y-112040000D01*
X153125635Y-111853313D01*
X153125635Y-111853308D01*
X153071776Y-111652301D01*
X153066741Y-111633511D01*
X153066738Y-111633502D01*
X153048090Y-111593511D01*
X152970568Y-111427266D01*
X152840047Y-111240861D01*
X152840045Y-111240858D01*
X152679141Y-111079954D01*
X152492734Y-110949432D01*
X152492732Y-110949431D01*
X152286497Y-110853261D01*
X152286488Y-110853258D01*
X152066697Y-110794366D01*
X152066693Y-110794365D01*
X152066692Y-110794365D01*
X152066691Y-110794364D01*
X152066686Y-110794364D01*
X151840002Y-110774532D01*
X151839998Y-110774532D01*
X151613313Y-110794364D01*
X151613302Y-110794366D01*
X151393511Y-110853258D01*
X151393502Y-110853261D01*
X151187267Y-110949431D01*
X151187265Y-110949432D01*
X151000858Y-111079954D01*
X150839954Y-111240858D01*
X150709432Y-111427265D01*
X150709431Y-111427267D01*
X150613261Y-111633502D01*
X150613258Y-111633511D01*
X150554366Y-111853302D01*
X150554364Y-111853313D01*
X150534532Y-112079998D01*
X140786969Y-112079998D01*
X140790468Y-112040000D01*
X140789090Y-112024254D01*
X140774135Y-111853313D01*
X140770635Y-111813308D01*
X140711739Y-111593504D01*
X140615568Y-111387266D01*
X140485047Y-111200861D01*
X140485045Y-111200858D01*
X140324141Y-111039954D01*
X140137734Y-110909432D01*
X140137732Y-110909431D01*
X139931497Y-110813261D01*
X139931488Y-110813258D01*
X139711697Y-110754366D01*
X139711693Y-110754365D01*
X139711692Y-110754365D01*
X139711691Y-110754364D01*
X139711686Y-110754364D01*
X139485002Y-110734532D01*
X139484998Y-110734532D01*
X139258313Y-110754364D01*
X139258302Y-110754366D01*
X139038511Y-110813258D01*
X139038502Y-110813261D01*
X138832267Y-110909431D01*
X138832265Y-110909432D01*
X138645858Y-111039954D01*
X138484954Y-111200858D01*
X138354432Y-111387265D01*
X138354431Y-111387267D01*
X138258261Y-111593502D01*
X138258258Y-111593511D01*
X138199366Y-111813302D01*
X138199364Y-111813313D01*
X138179532Y-112039998D01*
X128205468Y-112039998D01*
X128204090Y-112024254D01*
X128189135Y-111853313D01*
X128185635Y-111813308D01*
X128126739Y-111593504D01*
X128030568Y-111387266D01*
X127900047Y-111200861D01*
X127900045Y-111200858D01*
X127739141Y-111039954D01*
X127552734Y-110909432D01*
X127552732Y-110909431D01*
X127346497Y-110813261D01*
X127346488Y-110813258D01*
X127126697Y-110754366D01*
X127126693Y-110754365D01*
X127126692Y-110754365D01*
X127126691Y-110754364D01*
X127126686Y-110754364D01*
X126900002Y-110734532D01*
X126899998Y-110734532D01*
X126673313Y-110754364D01*
X126673302Y-110754366D01*
X126453511Y-110813258D01*
X126453502Y-110813261D01*
X126247267Y-110909431D01*
X126247265Y-110909432D01*
X126060858Y-111039954D01*
X125899954Y-111200858D01*
X125769432Y-111387265D01*
X125769431Y-111387267D01*
X125673261Y-111593502D01*
X125673258Y-111593511D01*
X125614366Y-111813302D01*
X125614364Y-111813313D01*
X125594532Y-112039998D01*
X115870468Y-112039998D01*
X115869090Y-112024254D01*
X115854135Y-111853313D01*
X115850635Y-111813308D01*
X115791739Y-111593504D01*
X115695568Y-111387266D01*
X115565047Y-111200861D01*
X115565045Y-111200858D01*
X115404141Y-111039954D01*
X115217734Y-110909432D01*
X115217732Y-110909431D01*
X115011497Y-110813261D01*
X115011488Y-110813258D01*
X114791697Y-110754366D01*
X114791693Y-110754365D01*
X114791692Y-110754365D01*
X114791691Y-110754364D01*
X114791686Y-110754364D01*
X114565002Y-110734532D01*
X114564998Y-110734532D01*
X114338313Y-110754364D01*
X114338302Y-110754366D01*
X114118511Y-110813258D01*
X114118502Y-110813261D01*
X113912267Y-110909431D01*
X113912265Y-110909432D01*
X113725858Y-111039954D01*
X113564954Y-111200858D01*
X113434432Y-111387265D01*
X113434431Y-111387267D01*
X113338261Y-111593502D01*
X113338258Y-111593511D01*
X113279366Y-111813302D01*
X113279364Y-111813313D01*
X113259532Y-112039998D01*
X78297038Y-112039998D01*
X78284435Y-112012971D01*
X78278825Y-112004958D01*
X78148894Y-111819397D01*
X77981802Y-111652306D01*
X77981796Y-111652301D01*
X77796242Y-111522375D01*
X77752617Y-111467798D01*
X77745423Y-111398300D01*
X77776946Y-111335945D01*
X77796242Y-111319225D01*
X77908161Y-111240858D01*
X77981801Y-111189295D01*
X78148895Y-111022201D01*
X78284435Y-110828630D01*
X78384303Y-110614463D01*
X78445463Y-110386208D01*
X78466059Y-110150800D01*
X78445463Y-109915392D01*
X78384303Y-109687137D01*
X78284435Y-109472971D01*
X78278825Y-109464958D01*
X78148894Y-109279397D01*
X77981802Y-109112306D01*
X77981796Y-109112301D01*
X77796242Y-108982375D01*
X77752617Y-108927798D01*
X77745423Y-108858300D01*
X77776946Y-108795945D01*
X77796242Y-108779225D01*
X77894294Y-108710568D01*
X77981801Y-108649295D01*
X78148895Y-108482201D01*
X78284435Y-108288630D01*
X78384303Y-108074463D01*
X78445463Y-107846208D01*
X78460623Y-107672935D01*
X84127500Y-107672935D01*
X84127500Y-109368670D01*
X84127501Y-109368676D01*
X84133908Y-109428283D01*
X84184202Y-109563128D01*
X84184206Y-109563135D01*
X84270452Y-109678344D01*
X84270455Y-109678347D01*
X84385664Y-109764593D01*
X84385671Y-109764597D01*
X84520517Y-109814891D01*
X84520516Y-109814891D01*
X84527444Y-109815635D01*
X84580127Y-109821300D01*
X86275872Y-109821299D01*
X86335483Y-109814891D01*
X86467382Y-109765696D01*
X154703235Y-109765696D01*
X154703235Y-109765703D01*
X154723430Y-109944949D01*
X154723431Y-109944954D01*
X154783011Y-110115223D01*
X154805366Y-110150800D01*
X154878984Y-110267962D01*
X155006538Y-110395516D01*
X155159278Y-110491489D01*
X155329545Y-110551068D01*
X155329550Y-110551069D01*
X155508796Y-110571265D01*
X155508800Y-110571265D01*
X155508804Y-110571265D01*
X155688049Y-110551069D01*
X155688052Y-110551068D01*
X155688055Y-110551068D01*
X155858322Y-110491489D01*
X156011062Y-110395516D01*
X156138616Y-110267962D01*
X156234589Y-110115222D01*
X156294168Y-109944955D01*
X156294169Y-109944949D01*
X156314365Y-109765703D01*
X156314365Y-109765696D01*
X156294169Y-109586450D01*
X156294168Y-109586445D01*
X156258410Y-109484254D01*
X156234589Y-109416178D01*
X156204741Y-109368676D01*
X156148645Y-109279399D01*
X156138616Y-109263438D01*
X156011062Y-109135884D01*
X155973538Y-109112306D01*
X155858323Y-109039911D01*
X155688054Y-108980331D01*
X155688049Y-108980330D01*
X155508804Y-108960135D01*
X155508796Y-108960135D01*
X155329550Y-108980330D01*
X155329545Y-108980331D01*
X155159276Y-109039911D01*
X155006537Y-109135884D01*
X154878984Y-109263437D01*
X154783011Y-109416176D01*
X154723431Y-109586445D01*
X154723430Y-109586450D01*
X154703235Y-109765696D01*
X86467382Y-109765696D01*
X86470331Y-109764596D01*
X86585546Y-109678346D01*
X86671796Y-109563131D01*
X86722091Y-109428283D01*
X86728500Y-109368673D01*
X86728499Y-107672928D01*
X86722091Y-107613317D01*
X86721152Y-107610800D01*
X86671797Y-107478471D01*
X86671793Y-107478464D01*
X86585547Y-107363255D01*
X86585544Y-107363252D01*
X86470335Y-107277006D01*
X86470328Y-107277002D01*
X86335482Y-107226708D01*
X86335483Y-107226708D01*
X86275883Y-107220301D01*
X86275881Y-107220300D01*
X86275873Y-107220300D01*
X86275864Y-107220300D01*
X84580129Y-107220300D01*
X84580123Y-107220301D01*
X84520516Y-107226708D01*
X84385671Y-107277002D01*
X84385664Y-107277006D01*
X84270455Y-107363252D01*
X84270452Y-107363255D01*
X84184206Y-107478464D01*
X84184202Y-107478471D01*
X84133908Y-107613317D01*
X84127501Y-107672916D01*
X84127501Y-107672923D01*
X84127500Y-107672935D01*
X78460623Y-107672935D01*
X78466059Y-107610800D01*
X78445463Y-107375392D01*
X78384303Y-107147137D01*
X78284435Y-106932971D01*
X78280441Y-106927266D01*
X78148894Y-106739397D01*
X77981802Y-106572306D01*
X77981796Y-106572301D01*
X77796242Y-106442375D01*
X77752617Y-106387798D01*
X77745423Y-106318300D01*
X77776946Y-106255945D01*
X77796242Y-106239225D01*
X77891755Y-106172346D01*
X77981801Y-106109295D01*
X78148895Y-105942201D01*
X78284435Y-105748630D01*
X78384303Y-105534463D01*
X78445463Y-105306208D01*
X78466059Y-105070800D01*
X78445463Y-104835392D01*
X78384303Y-104607137D01*
X78284435Y-104392971D01*
X78280441Y-104387266D01*
X78190583Y-104258935D01*
X98605900Y-104258935D01*
X98605900Y-105862670D01*
X98605901Y-105862676D01*
X98612308Y-105922283D01*
X98662602Y-106057128D01*
X98662606Y-106057135D01*
X98748852Y-106172344D01*
X98748855Y-106172347D01*
X98864064Y-106258593D01*
X98864071Y-106258597D01*
X98998917Y-106308891D01*
X98998916Y-106308891D01*
X99005844Y-106309635D01*
X99058527Y-106315300D01*
X100662272Y-106315299D01*
X100721883Y-106308891D01*
X100856731Y-106258596D01*
X100971946Y-106172346D01*
X101058196Y-106057131D01*
X101108491Y-105922283D01*
X101114900Y-105862673D01*
X101114899Y-104258928D01*
X101108491Y-104199317D01*
X101058196Y-104064469D01*
X101058195Y-104064468D01*
X101058193Y-104064464D01*
X100971947Y-103949255D01*
X100971944Y-103949252D01*
X100856735Y-103863006D01*
X100856728Y-103863002D01*
X100721882Y-103812708D01*
X100721883Y-103812708D01*
X100662283Y-103806301D01*
X100662281Y-103806300D01*
X100662273Y-103806300D01*
X100662264Y-103806300D01*
X99058529Y-103806300D01*
X99058523Y-103806301D01*
X98998916Y-103812708D01*
X98864071Y-103863002D01*
X98864064Y-103863006D01*
X98748855Y-103949252D01*
X98748852Y-103949255D01*
X98662606Y-104064464D01*
X98662602Y-104064471D01*
X98612308Y-104199317D01*
X98605901Y-104258916D01*
X98605901Y-104258923D01*
X98605900Y-104258935D01*
X78190583Y-104258935D01*
X78148894Y-104199397D01*
X77981802Y-104032306D01*
X77981796Y-104032301D01*
X77796242Y-103902375D01*
X77752617Y-103847798D01*
X77745423Y-103778300D01*
X77776946Y-103715945D01*
X77796242Y-103699225D01*
X77894294Y-103630568D01*
X77981801Y-103569295D01*
X78148895Y-103402201D01*
X78284435Y-103208630D01*
X78384303Y-102994463D01*
X78445463Y-102766208D01*
X78466059Y-102530800D01*
X78445463Y-102295392D01*
X78384303Y-102067137D01*
X78284435Y-101852971D01*
X78280441Y-101847266D01*
X78148894Y-101659397D01*
X77981802Y-101492306D01*
X77981796Y-101492301D01*
X77796242Y-101362375D01*
X77752617Y-101307798D01*
X77745423Y-101238300D01*
X77776946Y-101175945D01*
X77796242Y-101159225D01*
X77894294Y-101090568D01*
X77981801Y-101029295D01*
X78148895Y-100862201D01*
X78284435Y-100668630D01*
X78384303Y-100454463D01*
X78445463Y-100226208D01*
X78466059Y-99990800D01*
X78465184Y-99980797D01*
X98601108Y-99980797D01*
X98601108Y-99980802D01*
X98620238Y-100199468D01*
X98620239Y-100199475D01*
X98624723Y-100216208D01*
X98677053Y-100411503D01*
X98677054Y-100411506D01*
X98677055Y-100411508D01*
X98769819Y-100610442D01*
X98769823Y-100610450D01*
X98895722Y-100790252D01*
X98895727Y-100790258D01*
X99050941Y-100945472D01*
X99050947Y-100945477D01*
X99230749Y-101071376D01*
X99230751Y-101071377D01*
X99230754Y-101071379D01*
X99429697Y-101164147D01*
X99641726Y-101220961D01*
X99797921Y-101234626D01*
X99860398Y-101240092D01*
X99860400Y-101240092D01*
X99860402Y-101240092D01*
X99915068Y-101235309D01*
X100079074Y-101220961D01*
X100291103Y-101164147D01*
X100490046Y-101071379D01*
X100669857Y-100945474D01*
X100825074Y-100790257D01*
X100950979Y-100610446D01*
X101043747Y-100411503D01*
X101100561Y-100199474D01*
X101119692Y-99980800D01*
X101117872Y-99960001D01*
X101100561Y-99762131D01*
X101100561Y-99762126D01*
X101043747Y-99550097D01*
X100950979Y-99351154D01*
X100950977Y-99351151D01*
X100950976Y-99351149D01*
X100825077Y-99171347D01*
X100825072Y-99171341D01*
X100669858Y-99016127D01*
X100669852Y-99016122D01*
X100490050Y-98890223D01*
X100490042Y-98890219D01*
X100291108Y-98797455D01*
X100291106Y-98797454D01*
X100291103Y-98797453D01*
X100137185Y-98756210D01*
X100079075Y-98740639D01*
X100079068Y-98740638D01*
X99860402Y-98721508D01*
X99860398Y-98721508D01*
X99641731Y-98740638D01*
X99641724Y-98740639D01*
X99560581Y-98762382D01*
X99429697Y-98797453D01*
X99429695Y-98797453D01*
X99429691Y-98797455D01*
X99230757Y-98890219D01*
X99230749Y-98890223D01*
X99050947Y-99016122D01*
X99050941Y-99016127D01*
X98895727Y-99171341D01*
X98895722Y-99171347D01*
X98769823Y-99351149D01*
X98769819Y-99351157D01*
X98677055Y-99550091D01*
X98620239Y-99762124D01*
X98620238Y-99762131D01*
X98601108Y-99980797D01*
X78465184Y-99980797D01*
X78445463Y-99755392D01*
X78390455Y-99550097D01*
X78384305Y-99527144D01*
X78384304Y-99527143D01*
X78384303Y-99527137D01*
X78284435Y-99312971D01*
X78280441Y-99307266D01*
X78148894Y-99119397D01*
X77981802Y-98952306D01*
X77981796Y-98952301D01*
X77796242Y-98822375D01*
X77752617Y-98767798D01*
X77745423Y-98698300D01*
X77776946Y-98635945D01*
X77796242Y-98619225D01*
X77894294Y-98550568D01*
X77981801Y-98489295D01*
X78148895Y-98322201D01*
X78284435Y-98128630D01*
X78384303Y-97914463D01*
X78445463Y-97686208D01*
X78466059Y-97450800D01*
X78445463Y-97215392D01*
X78384303Y-96987137D01*
X78284435Y-96772971D01*
X78280441Y-96767266D01*
X78148894Y-96579397D01*
X77981802Y-96412306D01*
X77981795Y-96412301D01*
X77967519Y-96402305D01*
X77901191Y-96355861D01*
X77788234Y-96276767D01*
X77788230Y-96276765D01*
X77766785Y-96266765D01*
X77574063Y-96176897D01*
X77574059Y-96176896D01*
X77574055Y-96176894D01*
X77345813Y-96115738D01*
X77345803Y-96115736D01*
X77110401Y-96095141D01*
X77110399Y-96095141D01*
X76874996Y-96115736D01*
X76874986Y-96115738D01*
X76646744Y-96176894D01*
X76646735Y-96176898D01*
X76432571Y-96276764D01*
X76432569Y-96276765D01*
X76238997Y-96412305D01*
X76071905Y-96579397D01*
X75941975Y-96764958D01*
X75887398Y-96808583D01*
X75817900Y-96815777D01*
X75755545Y-96784254D01*
X75738825Y-96764958D01*
X75608894Y-96579397D01*
X75441802Y-96412306D01*
X75441796Y-96412301D01*
X75256242Y-96282375D01*
X75212617Y-96227798D01*
X75205423Y-96158300D01*
X75236946Y-96095945D01*
X75256242Y-96079225D01*
X75354294Y-96010568D01*
X75441801Y-95949295D01*
X75608895Y-95782201D01*
X75685404Y-95672935D01*
X84309900Y-95672935D01*
X84309900Y-97368670D01*
X84309901Y-97368676D01*
X84316308Y-97428283D01*
X84366602Y-97563128D01*
X84366606Y-97563135D01*
X84452852Y-97678344D01*
X84452855Y-97678347D01*
X84568064Y-97764593D01*
X84568071Y-97764597D01*
X84702917Y-97814891D01*
X84702916Y-97814891D01*
X84709844Y-97815635D01*
X84762527Y-97821300D01*
X86458272Y-97821299D01*
X86517883Y-97814891D01*
X86652731Y-97764596D01*
X86767946Y-97678346D01*
X86854196Y-97563131D01*
X86904491Y-97428283D01*
X86910900Y-97368673D01*
X86910899Y-95672928D01*
X86904491Y-95613317D01*
X86895283Y-95588630D01*
X86854197Y-95478471D01*
X86854193Y-95478464D01*
X86767947Y-95363255D01*
X86767944Y-95363252D01*
X86652735Y-95277006D01*
X86652728Y-95277002D01*
X86517882Y-95226708D01*
X86517883Y-95226708D01*
X86458283Y-95220301D01*
X86458281Y-95220300D01*
X86458273Y-95220300D01*
X86458264Y-95220300D01*
X84762529Y-95220300D01*
X84762523Y-95220301D01*
X84702916Y-95226708D01*
X84568071Y-95277002D01*
X84568064Y-95277006D01*
X84452855Y-95363252D01*
X84452852Y-95363255D01*
X84366606Y-95478464D01*
X84366602Y-95478471D01*
X84316308Y-95613317D01*
X84309901Y-95672916D01*
X84309901Y-95672923D01*
X84309900Y-95672935D01*
X75685404Y-95672935D01*
X75744435Y-95588630D01*
X75844303Y-95374463D01*
X75905463Y-95146208D01*
X75926059Y-94910800D01*
X75923364Y-94879998D01*
X108389532Y-94879998D01*
X108389532Y-94880001D01*
X108409364Y-95106686D01*
X108409366Y-95106697D01*
X108468258Y-95326488D01*
X108468261Y-95326497D01*
X108564431Y-95532732D01*
X108564432Y-95532734D01*
X108694954Y-95719141D01*
X108855858Y-95880045D01*
X108855861Y-95880047D01*
X109042266Y-96010568D01*
X109100275Y-96037618D01*
X109152714Y-96083791D01*
X109171866Y-96150984D01*
X109151650Y-96217865D01*
X109100275Y-96262382D01*
X109042267Y-96289431D01*
X109042265Y-96289432D01*
X108855858Y-96419954D01*
X108694954Y-96580858D01*
X108564432Y-96767265D01*
X108564431Y-96767267D01*
X108468261Y-96973502D01*
X108468258Y-96973511D01*
X108409366Y-97193302D01*
X108409364Y-97193313D01*
X108389532Y-97419998D01*
X108389532Y-97420001D01*
X108409364Y-97646686D01*
X108409366Y-97646697D01*
X108468258Y-97866488D01*
X108468261Y-97866497D01*
X108564431Y-98072732D01*
X108564432Y-98072734D01*
X108694954Y-98259141D01*
X108855858Y-98420045D01*
X108855861Y-98420047D01*
X109042266Y-98550568D01*
X109100275Y-98577618D01*
X109152714Y-98623791D01*
X109171866Y-98690984D01*
X109151650Y-98757865D01*
X109100275Y-98802381D01*
X109090875Y-98806765D01*
X109042267Y-98829431D01*
X109042265Y-98829432D01*
X108855858Y-98959954D01*
X108694954Y-99120858D01*
X108564432Y-99307265D01*
X108564431Y-99307267D01*
X108468261Y-99513502D01*
X108468258Y-99513511D01*
X108409366Y-99733302D01*
X108409364Y-99733313D01*
X108389532Y-99959998D01*
X108389532Y-99960001D01*
X108409364Y-100186686D01*
X108409366Y-100186697D01*
X108468258Y-100406488D01*
X108468261Y-100406497D01*
X108564431Y-100612732D01*
X108564432Y-100612734D01*
X108694954Y-100799141D01*
X108855858Y-100960045D01*
X108855861Y-100960047D01*
X109042266Y-101090568D01*
X109100275Y-101117618D01*
X109152714Y-101163791D01*
X109171866Y-101230984D01*
X109151650Y-101297865D01*
X109100275Y-101342381D01*
X109090875Y-101346765D01*
X109042267Y-101369431D01*
X109042265Y-101369432D01*
X108855858Y-101499954D01*
X108694954Y-101660858D01*
X108564432Y-101847265D01*
X108564431Y-101847267D01*
X108468261Y-102053502D01*
X108468258Y-102053511D01*
X108409366Y-102273302D01*
X108409364Y-102273313D01*
X108389532Y-102499998D01*
X108389532Y-102500001D01*
X108409364Y-102726686D01*
X108409366Y-102726697D01*
X108468258Y-102946488D01*
X108468261Y-102946497D01*
X108564431Y-103152732D01*
X108564432Y-103152734D01*
X108694954Y-103339141D01*
X108855858Y-103500045D01*
X108855861Y-103500047D01*
X109042266Y-103630568D01*
X109100275Y-103657618D01*
X109152714Y-103703791D01*
X109171866Y-103770984D01*
X109151650Y-103837865D01*
X109100275Y-103882382D01*
X109042267Y-103909431D01*
X109042265Y-103909432D01*
X108855858Y-104039954D01*
X108694954Y-104200858D01*
X108564432Y-104387265D01*
X108564431Y-104387267D01*
X108468261Y-104593502D01*
X108468258Y-104593511D01*
X108409366Y-104813302D01*
X108409364Y-104813313D01*
X108389532Y-105039998D01*
X108389532Y-105040001D01*
X108409364Y-105266686D01*
X108409366Y-105266697D01*
X108468258Y-105486488D01*
X108468261Y-105486497D01*
X108564431Y-105692732D01*
X108564432Y-105692734D01*
X108694954Y-105879141D01*
X108855858Y-106040045D01*
X108855861Y-106040047D01*
X109042266Y-106170568D01*
X109248504Y-106266739D01*
X109248509Y-106266740D01*
X109248511Y-106266741D01*
X109301415Y-106280916D01*
X109468308Y-106325635D01*
X109630230Y-106339801D01*
X109694998Y-106345468D01*
X109695000Y-106345468D01*
X109695002Y-106345468D01*
X109751673Y-106340509D01*
X109921692Y-106325635D01*
X110141496Y-106266739D01*
X110347734Y-106170568D01*
X110534139Y-106040047D01*
X110695047Y-105879139D01*
X110825568Y-105692734D01*
X110921739Y-105486496D01*
X110980635Y-105266692D01*
X111000468Y-105040000D01*
X110996968Y-105000000D01*
X110982567Y-104835392D01*
X110980635Y-104813308D01*
X110922714Y-104597144D01*
X110921741Y-104593511D01*
X110921738Y-104593502D01*
X110903090Y-104553511D01*
X110825568Y-104387266D01*
X110695047Y-104200861D01*
X110695045Y-104200858D01*
X110534141Y-104039954D01*
X110347734Y-103909432D01*
X110347728Y-103909429D01*
X110311155Y-103892375D01*
X110289724Y-103882381D01*
X110237285Y-103836210D01*
X110218133Y-103769017D01*
X110238348Y-103702135D01*
X110289725Y-103657618D01*
X110347734Y-103630568D01*
X110534139Y-103500047D01*
X110695047Y-103339139D01*
X110825568Y-103152734D01*
X110921739Y-102946496D01*
X110980635Y-102726692D01*
X111000468Y-102500000D01*
X110996968Y-102460000D01*
X110982567Y-102295392D01*
X110980635Y-102273308D01*
X110922714Y-102057144D01*
X110921741Y-102053511D01*
X110921738Y-102053502D01*
X110903090Y-102013511D01*
X110825568Y-101847266D01*
X110695047Y-101660861D01*
X110695045Y-101660858D01*
X110534141Y-101499954D01*
X110347734Y-101369432D01*
X110347728Y-101369429D01*
X110299129Y-101346767D01*
X110289724Y-101342381D01*
X110237285Y-101296210D01*
X110218133Y-101229017D01*
X110238348Y-101162135D01*
X110289725Y-101117618D01*
X110347734Y-101090568D01*
X110534139Y-100960047D01*
X110695047Y-100799139D01*
X110825568Y-100612734D01*
X110921739Y-100406496D01*
X110980635Y-100186692D01*
X110998648Y-99980799D01*
X111000468Y-99960001D01*
X111000468Y-99959998D01*
X110994801Y-99895230D01*
X110980635Y-99733308D01*
X110922714Y-99517144D01*
X110921741Y-99513511D01*
X110921738Y-99513502D01*
X110903090Y-99473511D01*
X110825568Y-99307266D01*
X110695047Y-99120861D01*
X110695045Y-99120858D01*
X110534141Y-98959954D01*
X110347734Y-98829432D01*
X110347728Y-98829429D01*
X110299129Y-98806767D01*
X110289724Y-98802381D01*
X110237285Y-98756210D01*
X110218133Y-98689017D01*
X110238348Y-98622135D01*
X110289725Y-98577618D01*
X110347734Y-98550568D01*
X110534139Y-98420047D01*
X110695047Y-98259139D01*
X110825568Y-98072734D01*
X110921739Y-97866496D01*
X110980635Y-97646692D01*
X111000320Y-97421692D01*
X111000468Y-97420001D01*
X111000468Y-97419998D01*
X110982567Y-97215392D01*
X110980635Y-97193308D01*
X110922714Y-96977144D01*
X110921741Y-96973511D01*
X110921738Y-96973502D01*
X110903090Y-96933511D01*
X110825568Y-96767266D01*
X110695047Y-96580861D01*
X110695045Y-96580858D01*
X110534141Y-96419954D01*
X110347734Y-96289432D01*
X110347728Y-96289429D01*
X110311155Y-96272375D01*
X110289724Y-96262381D01*
X110237285Y-96216210D01*
X110218133Y-96149017D01*
X110238348Y-96082135D01*
X110289725Y-96037618D01*
X110347734Y-96010568D01*
X110534139Y-95880047D01*
X110695047Y-95719139D01*
X110825568Y-95532734D01*
X110921739Y-95326496D01*
X110980635Y-95106692D01*
X111000468Y-94880000D01*
X110996968Y-94840000D01*
X110982567Y-94675392D01*
X110980635Y-94653308D01*
X110922714Y-94437144D01*
X110921741Y-94433511D01*
X110921738Y-94433502D01*
X110903090Y-94393511D01*
X110825568Y-94227266D01*
X110695047Y-94040861D01*
X110695045Y-94040858D01*
X110534143Y-93879956D01*
X110509536Y-93862726D01*
X110465912Y-93808149D01*
X110458719Y-93738650D01*
X110490241Y-93676296D01*
X110550471Y-93640882D01*
X110567404Y-93637861D01*
X110602483Y-93634091D01*
X110737331Y-93583796D01*
X110852546Y-93497546D01*
X110938796Y-93382331D01*
X110989091Y-93247483D01*
X110995500Y-93187873D01*
X110995499Y-92339998D01*
X116009532Y-92339998D01*
X116009532Y-92340001D01*
X116029364Y-92566686D01*
X116029366Y-92566697D01*
X116088258Y-92786488D01*
X116088261Y-92786497D01*
X116184431Y-92992732D01*
X116184432Y-92992734D01*
X116314954Y-93179141D01*
X116475858Y-93340045D01*
X116522693Y-93372839D01*
X116662266Y-93470568D01*
X116720275Y-93497618D01*
X116772714Y-93543791D01*
X116791866Y-93610984D01*
X116771650Y-93677865D01*
X116720275Y-93722381D01*
X116710875Y-93726765D01*
X116662267Y-93749431D01*
X116662265Y-93749432D01*
X116475858Y-93879954D01*
X116314954Y-94040858D01*
X116184432Y-94227265D01*
X116184431Y-94227267D01*
X116088261Y-94433502D01*
X116088258Y-94433511D01*
X116029366Y-94653302D01*
X116029364Y-94653313D01*
X116009532Y-94879998D01*
X116009532Y-94880001D01*
X116029364Y-95106686D01*
X116029366Y-95106697D01*
X116088258Y-95326488D01*
X116088261Y-95326497D01*
X116184431Y-95532732D01*
X116184432Y-95532734D01*
X116314954Y-95719141D01*
X116475858Y-95880045D01*
X116475861Y-95880047D01*
X116662266Y-96010568D01*
X116720275Y-96037618D01*
X116772714Y-96083791D01*
X116791866Y-96150984D01*
X116771650Y-96217865D01*
X116720275Y-96262382D01*
X116662267Y-96289431D01*
X116662265Y-96289432D01*
X116475858Y-96419954D01*
X116314954Y-96580858D01*
X116184432Y-96767265D01*
X116184431Y-96767267D01*
X116088261Y-96973502D01*
X116088258Y-96973511D01*
X116029366Y-97193302D01*
X116029364Y-97193313D01*
X116009532Y-97419998D01*
X116009532Y-97420001D01*
X116029364Y-97646686D01*
X116029366Y-97646697D01*
X116088258Y-97866488D01*
X116088261Y-97866497D01*
X116184431Y-98072732D01*
X116184432Y-98072734D01*
X116314954Y-98259141D01*
X116475858Y-98420045D01*
X116475861Y-98420047D01*
X116662266Y-98550568D01*
X116720275Y-98577618D01*
X116772714Y-98623791D01*
X116791866Y-98690984D01*
X116771650Y-98757865D01*
X116720275Y-98802381D01*
X116710875Y-98806765D01*
X116662267Y-98829431D01*
X116662265Y-98829432D01*
X116475858Y-98959954D01*
X116314954Y-99120858D01*
X116184432Y-99307265D01*
X116184431Y-99307267D01*
X116088261Y-99513502D01*
X116088258Y-99513511D01*
X116029366Y-99733302D01*
X116029364Y-99733313D01*
X116009532Y-99959998D01*
X116009532Y-99960001D01*
X116029364Y-100186686D01*
X116029366Y-100186697D01*
X116088258Y-100406488D01*
X116088261Y-100406497D01*
X116184431Y-100612732D01*
X116184432Y-100612734D01*
X116314954Y-100799141D01*
X116475858Y-100960045D01*
X116475861Y-100960047D01*
X116662266Y-101090568D01*
X116720275Y-101117618D01*
X116772714Y-101163791D01*
X116791866Y-101230984D01*
X116771650Y-101297865D01*
X116720275Y-101342381D01*
X116710875Y-101346765D01*
X116662267Y-101369431D01*
X116662265Y-101369432D01*
X116475858Y-101499954D01*
X116314954Y-101660858D01*
X116184432Y-101847265D01*
X116184431Y-101847267D01*
X116088261Y-102053502D01*
X116088258Y-102053511D01*
X116029366Y-102273302D01*
X116029364Y-102273313D01*
X116009532Y-102499998D01*
X116009532Y-102500001D01*
X116029364Y-102726686D01*
X116029366Y-102726697D01*
X116088258Y-102946488D01*
X116088261Y-102946497D01*
X116184431Y-103152732D01*
X116184432Y-103152734D01*
X116314954Y-103339141D01*
X116475858Y-103500045D01*
X116475861Y-103500047D01*
X116662266Y-103630568D01*
X116720275Y-103657618D01*
X116772714Y-103703791D01*
X116791866Y-103770984D01*
X116771650Y-103837865D01*
X116720275Y-103882382D01*
X116662267Y-103909431D01*
X116662265Y-103909432D01*
X116475858Y-104039954D01*
X116314954Y-104200858D01*
X116184432Y-104387265D01*
X116184431Y-104387267D01*
X116088261Y-104593502D01*
X116088258Y-104593511D01*
X116029366Y-104813302D01*
X116029364Y-104813313D01*
X116009532Y-105039998D01*
X116009532Y-105040001D01*
X116029364Y-105266686D01*
X116029366Y-105266697D01*
X116088258Y-105486488D01*
X116088261Y-105486497D01*
X116184431Y-105692732D01*
X116184432Y-105692734D01*
X116314954Y-105879141D01*
X116475858Y-106040045D01*
X116475861Y-106040047D01*
X116662266Y-106170568D01*
X116720275Y-106197618D01*
X116772714Y-106243791D01*
X116791866Y-106310984D01*
X116771650Y-106377865D01*
X116720275Y-106422382D01*
X116662267Y-106449431D01*
X116662265Y-106449432D01*
X116475858Y-106579954D01*
X116314954Y-106740858D01*
X116184432Y-106927265D01*
X116184431Y-106927267D01*
X116088261Y-107133502D01*
X116088258Y-107133511D01*
X116029366Y-107353302D01*
X116029364Y-107353313D01*
X116009532Y-107579998D01*
X116009532Y-107580001D01*
X116029364Y-107806686D01*
X116029366Y-107806697D01*
X116088258Y-108026488D01*
X116088261Y-108026497D01*
X116184431Y-108232732D01*
X116184432Y-108232734D01*
X116314954Y-108419141D01*
X116475858Y-108580045D01*
X116475861Y-108580047D01*
X116662266Y-108710568D01*
X116868504Y-108806739D01*
X117088308Y-108865635D01*
X117250230Y-108879801D01*
X117314998Y-108885468D01*
X117315000Y-108885468D01*
X117315002Y-108885468D01*
X117371673Y-108880509D01*
X117541692Y-108865635D01*
X117761496Y-108806739D01*
X117967734Y-108710568D01*
X118154139Y-108580047D01*
X118315047Y-108419139D01*
X118445568Y-108232734D01*
X118541739Y-108026496D01*
X118600635Y-107806692D01*
X118620320Y-107581692D01*
X118620468Y-107580001D01*
X118620468Y-107579998D01*
X118620468Y-107579996D01*
X124779435Y-107579996D01*
X124779435Y-107580003D01*
X124799630Y-107759249D01*
X124799631Y-107759254D01*
X124859211Y-107929523D01*
X124950284Y-108074463D01*
X124955184Y-108082262D01*
X125082738Y-108209816D01*
X125119209Y-108232732D01*
X125220920Y-108296642D01*
X125235478Y-108305789D01*
X125376244Y-108355045D01*
X125405745Y-108365368D01*
X125405750Y-108365369D01*
X125584996Y-108385565D01*
X125585000Y-108385565D01*
X125585004Y-108385565D01*
X125764249Y-108365369D01*
X125764252Y-108365368D01*
X125764255Y-108365368D01*
X125934522Y-108305789D01*
X126087262Y-108209816D01*
X126214816Y-108082262D01*
X126310789Y-107929522D01*
X126370368Y-107759255D01*
X126380095Y-107672927D01*
X126390565Y-107580003D01*
X126390565Y-107579996D01*
X126370369Y-107400750D01*
X126370368Y-107400745D01*
X126361497Y-107375392D01*
X126310789Y-107230478D01*
X126304394Y-107220301D01*
X126252138Y-107137135D01*
X126214816Y-107077738D01*
X126087262Y-106950184D01*
X125934523Y-106854211D01*
X125764254Y-106794631D01*
X125764249Y-106794630D01*
X125585004Y-106774435D01*
X125584996Y-106774435D01*
X125405750Y-106794630D01*
X125405745Y-106794631D01*
X125235476Y-106854211D01*
X125082737Y-106950184D01*
X124955184Y-107077737D01*
X124859211Y-107230476D01*
X124799631Y-107400745D01*
X124799630Y-107400750D01*
X124779435Y-107579996D01*
X118620468Y-107579996D01*
X118608761Y-107446188D01*
X118600635Y-107353308D01*
X118542714Y-107137144D01*
X118541741Y-107133511D01*
X118541738Y-107133502D01*
X118523090Y-107093511D01*
X118445568Y-106927266D01*
X118315047Y-106740861D01*
X118315045Y-106740858D01*
X118154141Y-106579954D01*
X117967734Y-106449432D01*
X117967728Y-106449429D01*
X117931155Y-106432375D01*
X117909724Y-106422381D01*
X117857285Y-106376210D01*
X117838133Y-106309017D01*
X117843368Y-106291696D01*
X119194435Y-106291696D01*
X119194435Y-106291703D01*
X119214630Y-106470949D01*
X119214631Y-106470954D01*
X119274211Y-106641223D01*
X119336818Y-106740861D01*
X119370184Y-106793962D01*
X119497738Y-106921516D01*
X119650478Y-107017489D01*
X119800323Y-107069922D01*
X119820745Y-107077068D01*
X119820750Y-107077069D01*
X119999996Y-107097265D01*
X120000000Y-107097265D01*
X120000004Y-107097265D01*
X120179249Y-107077069D01*
X120179252Y-107077068D01*
X120179255Y-107077068D01*
X120349522Y-107017489D01*
X120502262Y-106921516D01*
X120629816Y-106793962D01*
X120725789Y-106641222D01*
X120785368Y-106470955D01*
X120787793Y-106449431D01*
X120805565Y-106291703D01*
X120805565Y-106291696D01*
X120785369Y-106112450D01*
X120785368Y-106112445D01*
X120780766Y-106099293D01*
X120725789Y-105942178D01*
X120721299Y-105935033D01*
X120675839Y-105862683D01*
X120629816Y-105789438D01*
X120502262Y-105661884D01*
X120487697Y-105652732D01*
X120349523Y-105565911D01*
X120179254Y-105506331D01*
X120179249Y-105506330D01*
X120000004Y-105486135D01*
X119999996Y-105486135D01*
X119820750Y-105506330D01*
X119820745Y-105506331D01*
X119650476Y-105565911D01*
X119497737Y-105661884D01*
X119370184Y-105789437D01*
X119274211Y-105942176D01*
X119214631Y-106112445D01*
X119214630Y-106112450D01*
X119194435Y-106291696D01*
X117843368Y-106291696D01*
X117858348Y-106242135D01*
X117909725Y-106197618D01*
X117967734Y-106170568D01*
X118154139Y-106040047D01*
X118315047Y-105879139D01*
X118445568Y-105692734D01*
X118541739Y-105486496D01*
X118600635Y-105266692D01*
X118620468Y-105040000D01*
X118616968Y-105000000D01*
X118602567Y-104835392D01*
X118600635Y-104813308D01*
X118542714Y-104597144D01*
X118541741Y-104593511D01*
X118541738Y-104593502D01*
X118523090Y-104553511D01*
X118445568Y-104387266D01*
X118315047Y-104200861D01*
X118315045Y-104200858D01*
X118154141Y-104039954D01*
X117967734Y-103909432D01*
X117967728Y-103909429D01*
X117931155Y-103892375D01*
X117909724Y-103882381D01*
X117857285Y-103836210D01*
X117838133Y-103769017D01*
X117858348Y-103702135D01*
X117909725Y-103657618D01*
X117967734Y-103630568D01*
X118154139Y-103500047D01*
X118315047Y-103339139D01*
X118445568Y-103152734D01*
X118541739Y-102946496D01*
X118600635Y-102726692D01*
X118620468Y-102500000D01*
X118616968Y-102460000D01*
X118602567Y-102295392D01*
X118600635Y-102273308D01*
X118542714Y-102057144D01*
X118541741Y-102053511D01*
X118541738Y-102053502D01*
X118523090Y-102013511D01*
X118445568Y-101847266D01*
X118315047Y-101660861D01*
X118315045Y-101660858D01*
X118154141Y-101499954D01*
X117967734Y-101369432D01*
X117967728Y-101369429D01*
X117919129Y-101346767D01*
X117909724Y-101342381D01*
X117857285Y-101296210D01*
X117838133Y-101229017D01*
X117858348Y-101162135D01*
X117909725Y-101117618D01*
X117967734Y-101090568D01*
X118154139Y-100960047D01*
X118315047Y-100799139D01*
X118445568Y-100612734D01*
X118541739Y-100406496D01*
X118600635Y-100186692D01*
X118618648Y-99980799D01*
X118620468Y-99960001D01*
X118620468Y-99959998D01*
X118614801Y-99895230D01*
X118600635Y-99733308D01*
X118542714Y-99517144D01*
X118541741Y-99513511D01*
X118541738Y-99513502D01*
X118523090Y-99473511D01*
X118445568Y-99307266D01*
X118315047Y-99120861D01*
X118315045Y-99120858D01*
X118154141Y-98959954D01*
X117967734Y-98829432D01*
X117967728Y-98829429D01*
X117919129Y-98806767D01*
X117909724Y-98802381D01*
X117857285Y-98756210D01*
X117838133Y-98689017D01*
X117858348Y-98622135D01*
X117909725Y-98577618D01*
X117967734Y-98550568D01*
X118154139Y-98420047D01*
X118315047Y-98259139D01*
X118445568Y-98072734D01*
X118541739Y-97866496D01*
X118600635Y-97646692D01*
X118620320Y-97421692D01*
X118620468Y-97420001D01*
X118620468Y-97419998D01*
X118602567Y-97215392D01*
X118600635Y-97193308D01*
X118542714Y-96977144D01*
X118541741Y-96973511D01*
X118541738Y-96973502D01*
X118523090Y-96933511D01*
X118445568Y-96767266D01*
X118315047Y-96580861D01*
X118315045Y-96580858D01*
X118154141Y-96419954D01*
X117967734Y-96289432D01*
X117967728Y-96289429D01*
X117931155Y-96272375D01*
X117909724Y-96262381D01*
X117857285Y-96216210D01*
X117838133Y-96149017D01*
X117858348Y-96082135D01*
X117909725Y-96037618D01*
X117967734Y-96010568D01*
X118154139Y-95880047D01*
X118315047Y-95719139D01*
X118445568Y-95532734D01*
X118541739Y-95326496D01*
X118600635Y-95106692D01*
X118620468Y-94880000D01*
X118620468Y-94879998D01*
X120824532Y-94879998D01*
X120824532Y-94880001D01*
X120844364Y-95106686D01*
X120844366Y-95106697D01*
X120903258Y-95326488D01*
X120903261Y-95326497D01*
X120999431Y-95532732D01*
X120999432Y-95532734D01*
X121129954Y-95719141D01*
X121290858Y-95880045D01*
X121290861Y-95880047D01*
X121477266Y-96010568D01*
X121535275Y-96037618D01*
X121587714Y-96083791D01*
X121606866Y-96150984D01*
X121586650Y-96217865D01*
X121535275Y-96262382D01*
X121477267Y-96289431D01*
X121477265Y-96289432D01*
X121290858Y-96419954D01*
X121129954Y-96580858D01*
X120999432Y-96767265D01*
X120999431Y-96767267D01*
X120903261Y-96973502D01*
X120903258Y-96973511D01*
X120844366Y-97193302D01*
X120844364Y-97193313D01*
X120824532Y-97419998D01*
X120824532Y-97420001D01*
X120844364Y-97646686D01*
X120844366Y-97646697D01*
X120903258Y-97866488D01*
X120903261Y-97866497D01*
X120999431Y-98072732D01*
X120999432Y-98072734D01*
X121129954Y-98259141D01*
X121290858Y-98420045D01*
X121290861Y-98420047D01*
X121477266Y-98550568D01*
X121535275Y-98577618D01*
X121587714Y-98623791D01*
X121606866Y-98690984D01*
X121586650Y-98757865D01*
X121535275Y-98802381D01*
X121525875Y-98806765D01*
X121477267Y-98829431D01*
X121477265Y-98829432D01*
X121290858Y-98959954D01*
X121129954Y-99120858D01*
X120999432Y-99307265D01*
X120999431Y-99307267D01*
X120903261Y-99513502D01*
X120903258Y-99513511D01*
X120844366Y-99733302D01*
X120844364Y-99733313D01*
X120824532Y-99959998D01*
X120824532Y-99960001D01*
X120844364Y-100186686D01*
X120844366Y-100186697D01*
X120903258Y-100406488D01*
X120903261Y-100406497D01*
X120999431Y-100612732D01*
X120999432Y-100612734D01*
X121129954Y-100799141D01*
X121290858Y-100960045D01*
X121290861Y-100960047D01*
X121477266Y-101090568D01*
X121535275Y-101117618D01*
X121587714Y-101163791D01*
X121606866Y-101230984D01*
X121586650Y-101297865D01*
X121535275Y-101342381D01*
X121525875Y-101346765D01*
X121477267Y-101369431D01*
X121477265Y-101369432D01*
X121290858Y-101499954D01*
X121129954Y-101660858D01*
X120999432Y-101847265D01*
X120999431Y-101847267D01*
X120903261Y-102053502D01*
X120903258Y-102053511D01*
X120844366Y-102273302D01*
X120844364Y-102273313D01*
X120824532Y-102499998D01*
X120824532Y-102500001D01*
X120844364Y-102726686D01*
X120844366Y-102726697D01*
X120903258Y-102946488D01*
X120903261Y-102946497D01*
X120999431Y-103152732D01*
X120999432Y-103152734D01*
X121129954Y-103339141D01*
X121290858Y-103500045D01*
X121290861Y-103500047D01*
X121477266Y-103630568D01*
X121535275Y-103657618D01*
X121587714Y-103703791D01*
X121606866Y-103770984D01*
X121586650Y-103837865D01*
X121535275Y-103882382D01*
X121477267Y-103909431D01*
X121477265Y-103909432D01*
X121290858Y-104039954D01*
X121129954Y-104200858D01*
X120999432Y-104387265D01*
X120999431Y-104387267D01*
X120903261Y-104593502D01*
X120903258Y-104593511D01*
X120844366Y-104813302D01*
X120844364Y-104813313D01*
X120824532Y-105039998D01*
X120824532Y-105040001D01*
X120844364Y-105266686D01*
X120844366Y-105266697D01*
X120903258Y-105486488D01*
X120903261Y-105486497D01*
X120999431Y-105692732D01*
X120999432Y-105692734D01*
X121129954Y-105879141D01*
X121290858Y-106040045D01*
X121290861Y-106040047D01*
X121477266Y-106170568D01*
X121683504Y-106266739D01*
X121683509Y-106266740D01*
X121683511Y-106266741D01*
X121736415Y-106280916D01*
X121903308Y-106325635D01*
X122065230Y-106339801D01*
X122129998Y-106345468D01*
X122130000Y-106345468D01*
X122130002Y-106345468D01*
X122186673Y-106340509D01*
X122356692Y-106325635D01*
X122576496Y-106266739D01*
X122782734Y-106170568D01*
X122969139Y-106040047D01*
X123130047Y-105879139D01*
X123260568Y-105692734D01*
X123356739Y-105486496D01*
X123415635Y-105266692D01*
X123435468Y-105040000D01*
X123431968Y-105000000D01*
X123417567Y-104835392D01*
X123415635Y-104813308D01*
X123357714Y-104597144D01*
X123356741Y-104593511D01*
X123356738Y-104593502D01*
X123338090Y-104553511D01*
X123260568Y-104387266D01*
X123130047Y-104200861D01*
X123130045Y-104200858D01*
X122969141Y-104039954D01*
X122782734Y-103909432D01*
X122782728Y-103909429D01*
X122746155Y-103892375D01*
X122724724Y-103882381D01*
X122672285Y-103836210D01*
X122653133Y-103769017D01*
X122673348Y-103702135D01*
X122724725Y-103657618D01*
X122782734Y-103630568D01*
X122969139Y-103500047D01*
X123130047Y-103339139D01*
X123260568Y-103152734D01*
X123356739Y-102946496D01*
X123415635Y-102726692D01*
X123435468Y-102500000D01*
X123431968Y-102460000D01*
X123417567Y-102295392D01*
X123415635Y-102273308D01*
X123357714Y-102057144D01*
X123356741Y-102053511D01*
X123356738Y-102053502D01*
X123338090Y-102013511D01*
X123260568Y-101847266D01*
X123130047Y-101660861D01*
X123130045Y-101660858D01*
X122969141Y-101499954D01*
X122782734Y-101369432D01*
X122782728Y-101369429D01*
X122734129Y-101346767D01*
X122724724Y-101342381D01*
X122672285Y-101296210D01*
X122653133Y-101229017D01*
X122673348Y-101162135D01*
X122724725Y-101117618D01*
X122782734Y-101090568D01*
X122969139Y-100960047D01*
X123130047Y-100799139D01*
X123260568Y-100612734D01*
X123356739Y-100406496D01*
X123415635Y-100186692D01*
X123433648Y-99980799D01*
X123435468Y-99960001D01*
X123435468Y-99959998D01*
X123429801Y-99895230D01*
X123415635Y-99733308D01*
X123357714Y-99517144D01*
X123356741Y-99513511D01*
X123356738Y-99513502D01*
X123338090Y-99473511D01*
X123260568Y-99307266D01*
X123130047Y-99120861D01*
X123130045Y-99120858D01*
X122969141Y-98959954D01*
X122782734Y-98829432D01*
X122782728Y-98829429D01*
X122734129Y-98806767D01*
X122724724Y-98802381D01*
X122672285Y-98756210D01*
X122653133Y-98689017D01*
X122673348Y-98622135D01*
X122724725Y-98577618D01*
X122782734Y-98550568D01*
X122969139Y-98420047D01*
X123130047Y-98259139D01*
X123260568Y-98072734D01*
X123356739Y-97866496D01*
X123415635Y-97646692D01*
X123435320Y-97421692D01*
X123435468Y-97420001D01*
X123435468Y-97419998D01*
X123417567Y-97215392D01*
X123415635Y-97193308D01*
X123357714Y-96977144D01*
X123356741Y-96973511D01*
X123356738Y-96973502D01*
X123338090Y-96933511D01*
X123260568Y-96767266D01*
X123130047Y-96580861D01*
X123130045Y-96580858D01*
X122969141Y-96419954D01*
X122782734Y-96289432D01*
X122782728Y-96289429D01*
X122746155Y-96272375D01*
X122724724Y-96262381D01*
X122672285Y-96216210D01*
X122653133Y-96149017D01*
X122673348Y-96082135D01*
X122724725Y-96037618D01*
X122782734Y-96010568D01*
X122969139Y-95880047D01*
X123130047Y-95719139D01*
X123260568Y-95532734D01*
X123356739Y-95326496D01*
X123415635Y-95106692D01*
X123435468Y-94880000D01*
X123431968Y-94840000D01*
X123417567Y-94675392D01*
X123415635Y-94653308D01*
X123357714Y-94437144D01*
X123356741Y-94433511D01*
X123356738Y-94433502D01*
X123338090Y-94393511D01*
X123260568Y-94227266D01*
X123130047Y-94040861D01*
X123130045Y-94040858D01*
X122969143Y-93879956D01*
X122944536Y-93862726D01*
X122900912Y-93808149D01*
X122893719Y-93738650D01*
X122925241Y-93676296D01*
X122985471Y-93640882D01*
X123002404Y-93637861D01*
X123037483Y-93634091D01*
X123172331Y-93583796D01*
X123287546Y-93497546D01*
X123373796Y-93382331D01*
X123424091Y-93247483D01*
X123430500Y-93187873D01*
X123430499Y-92339998D01*
X128444532Y-92339998D01*
X128444532Y-92340001D01*
X128464364Y-92566686D01*
X128464366Y-92566697D01*
X128523258Y-92786488D01*
X128523261Y-92786497D01*
X128619431Y-92992732D01*
X128619432Y-92992734D01*
X128749954Y-93179141D01*
X128910858Y-93340045D01*
X128957693Y-93372839D01*
X129097266Y-93470568D01*
X129155275Y-93497618D01*
X129207714Y-93543791D01*
X129226866Y-93610984D01*
X129206650Y-93677865D01*
X129155275Y-93722381D01*
X129145875Y-93726765D01*
X129097267Y-93749431D01*
X129097265Y-93749432D01*
X128910858Y-93879954D01*
X128749954Y-94040858D01*
X128619432Y-94227265D01*
X128619431Y-94227267D01*
X128523261Y-94433502D01*
X128523258Y-94433511D01*
X128464366Y-94653302D01*
X128464364Y-94653313D01*
X128444532Y-94879998D01*
X128444532Y-94880001D01*
X128464364Y-95106686D01*
X128464366Y-95106697D01*
X128523258Y-95326488D01*
X128523261Y-95326497D01*
X128619431Y-95532732D01*
X128619432Y-95532734D01*
X128749954Y-95719141D01*
X128910858Y-95880045D01*
X128910861Y-95880047D01*
X129097266Y-96010568D01*
X129155275Y-96037618D01*
X129207714Y-96083791D01*
X129226866Y-96150984D01*
X129206650Y-96217865D01*
X129155275Y-96262382D01*
X129097267Y-96289431D01*
X129097265Y-96289432D01*
X128910858Y-96419954D01*
X128749954Y-96580858D01*
X128619432Y-96767265D01*
X128619431Y-96767267D01*
X128523261Y-96973502D01*
X128523258Y-96973511D01*
X128464366Y-97193302D01*
X128464364Y-97193313D01*
X128444532Y-97419998D01*
X128444532Y-97420001D01*
X128464364Y-97646686D01*
X128464366Y-97646697D01*
X128523258Y-97866488D01*
X128523261Y-97866497D01*
X128619431Y-98072732D01*
X128619432Y-98072734D01*
X128749954Y-98259141D01*
X128910858Y-98420045D01*
X128910861Y-98420047D01*
X129097266Y-98550568D01*
X129155275Y-98577618D01*
X129207714Y-98623791D01*
X129226866Y-98690984D01*
X129206650Y-98757865D01*
X129155275Y-98802381D01*
X129145875Y-98806765D01*
X129097267Y-98829431D01*
X129097265Y-98829432D01*
X128910858Y-98959954D01*
X128749954Y-99120858D01*
X128619432Y-99307265D01*
X128619431Y-99307267D01*
X128523261Y-99513502D01*
X128523258Y-99513511D01*
X128464366Y-99733302D01*
X128464364Y-99733313D01*
X128444532Y-99959998D01*
X128444532Y-99960001D01*
X128464364Y-100186686D01*
X128464366Y-100186697D01*
X128523258Y-100406488D01*
X128523261Y-100406497D01*
X128619431Y-100612732D01*
X128619432Y-100612734D01*
X128749954Y-100799141D01*
X128910858Y-100960045D01*
X128910861Y-100960047D01*
X129097266Y-101090568D01*
X129155275Y-101117618D01*
X129207714Y-101163791D01*
X129226866Y-101230984D01*
X129206650Y-101297865D01*
X129155275Y-101342381D01*
X129145875Y-101346765D01*
X129097267Y-101369431D01*
X129097265Y-101369432D01*
X128910858Y-101499954D01*
X128749954Y-101660858D01*
X128619432Y-101847265D01*
X128619431Y-101847267D01*
X128523261Y-102053502D01*
X128523258Y-102053511D01*
X128464366Y-102273302D01*
X128464364Y-102273313D01*
X128444532Y-102499998D01*
X128444532Y-102500001D01*
X128464364Y-102726686D01*
X128464366Y-102726697D01*
X128523258Y-102946488D01*
X128523261Y-102946497D01*
X128619431Y-103152732D01*
X128619432Y-103152734D01*
X128749954Y-103339141D01*
X128910858Y-103500045D01*
X128910861Y-103500047D01*
X129097266Y-103630568D01*
X129155275Y-103657618D01*
X129207714Y-103703791D01*
X129226866Y-103770984D01*
X129206650Y-103837865D01*
X129155275Y-103882382D01*
X129097267Y-103909431D01*
X129097265Y-103909432D01*
X128910858Y-104039954D01*
X128749954Y-104200858D01*
X128619432Y-104387265D01*
X128619431Y-104387267D01*
X128523261Y-104593502D01*
X128523258Y-104593511D01*
X128464366Y-104813302D01*
X128464364Y-104813313D01*
X128444532Y-105039998D01*
X128444532Y-105040001D01*
X128464364Y-105266686D01*
X128464366Y-105266697D01*
X128523258Y-105486488D01*
X128523261Y-105486497D01*
X128619431Y-105692732D01*
X128619432Y-105692734D01*
X128749954Y-105879141D01*
X128910858Y-106040045D01*
X128910861Y-106040047D01*
X129097266Y-106170568D01*
X129155275Y-106197618D01*
X129207714Y-106243791D01*
X129226866Y-106310984D01*
X129206650Y-106377865D01*
X129155275Y-106422382D01*
X129097267Y-106449431D01*
X129097265Y-106449432D01*
X128910858Y-106579954D01*
X128749954Y-106740858D01*
X128619432Y-106927265D01*
X128619431Y-106927267D01*
X128523261Y-107133502D01*
X128523258Y-107133511D01*
X128464366Y-107353302D01*
X128464364Y-107353313D01*
X128444532Y-107579998D01*
X128444532Y-107580001D01*
X128464364Y-107806686D01*
X128464366Y-107806697D01*
X128523258Y-108026488D01*
X128523261Y-108026497D01*
X128619431Y-108232732D01*
X128619432Y-108232734D01*
X128749954Y-108419141D01*
X128910858Y-108580045D01*
X128910861Y-108580047D01*
X129097266Y-108710568D01*
X129303504Y-108806739D01*
X129523308Y-108865635D01*
X129685230Y-108879801D01*
X129749998Y-108885468D01*
X129750000Y-108885468D01*
X129750002Y-108885468D01*
X129806673Y-108880509D01*
X129976692Y-108865635D01*
X130196496Y-108806739D01*
X130402734Y-108710568D01*
X130589139Y-108580047D01*
X130750047Y-108419139D01*
X130880568Y-108232734D01*
X130976739Y-108026496D01*
X131035635Y-107806692D01*
X131055320Y-107581692D01*
X131055468Y-107580001D01*
X131055468Y-107579998D01*
X131043761Y-107446188D01*
X131035635Y-107353308D01*
X130977714Y-107137144D01*
X130976741Y-107133511D01*
X130976738Y-107133502D01*
X130958090Y-107093511D01*
X130880568Y-106927266D01*
X130750047Y-106740861D01*
X130750045Y-106740858D01*
X130589141Y-106579954D01*
X130402734Y-106449432D01*
X130402728Y-106449429D01*
X130366155Y-106432375D01*
X130344724Y-106422381D01*
X130292285Y-106376210D01*
X130273133Y-106309017D01*
X130293348Y-106242135D01*
X130344725Y-106197618D01*
X130402734Y-106170568D01*
X130589139Y-106040047D01*
X130750047Y-105879139D01*
X130880568Y-105692734D01*
X130976739Y-105486496D01*
X131035635Y-105266692D01*
X131055468Y-105040000D01*
X131051968Y-105000000D01*
X131037567Y-104835392D01*
X131035635Y-104813308D01*
X130977714Y-104597144D01*
X130976741Y-104593511D01*
X130976738Y-104593502D01*
X130958090Y-104553511D01*
X130880568Y-104387266D01*
X130750047Y-104200861D01*
X130750045Y-104200858D01*
X130589141Y-104039954D01*
X130402734Y-103909432D01*
X130402728Y-103909429D01*
X130366155Y-103892375D01*
X130344724Y-103882381D01*
X130292285Y-103836210D01*
X130273133Y-103769017D01*
X130293348Y-103702135D01*
X130344725Y-103657618D01*
X130402734Y-103630568D01*
X130589139Y-103500047D01*
X130750047Y-103339139D01*
X130880568Y-103152734D01*
X130976739Y-102946496D01*
X131035635Y-102726692D01*
X131055468Y-102500000D01*
X131051968Y-102460000D01*
X131037567Y-102295392D01*
X131035635Y-102273308D01*
X130977714Y-102057144D01*
X130976741Y-102053511D01*
X130976738Y-102053502D01*
X130958090Y-102013511D01*
X130880568Y-101847266D01*
X130750047Y-101660861D01*
X130750045Y-101660858D01*
X130589141Y-101499954D01*
X130402734Y-101369432D01*
X130402728Y-101369429D01*
X130354129Y-101346767D01*
X130344724Y-101342381D01*
X130292285Y-101296210D01*
X130273133Y-101229017D01*
X130293348Y-101162135D01*
X130344725Y-101117618D01*
X130402734Y-101090568D01*
X130589139Y-100960047D01*
X130750047Y-100799139D01*
X130880568Y-100612734D01*
X130976739Y-100406496D01*
X131035635Y-100186692D01*
X131053648Y-99980799D01*
X131055468Y-99960001D01*
X131055468Y-99959998D01*
X131049801Y-99895230D01*
X131035635Y-99733308D01*
X130977714Y-99517144D01*
X130976741Y-99513511D01*
X130976738Y-99513502D01*
X130958090Y-99473511D01*
X130880568Y-99307266D01*
X130750047Y-99120861D01*
X130750045Y-99120858D01*
X130589141Y-98959954D01*
X130402734Y-98829432D01*
X130402728Y-98829429D01*
X130354129Y-98806767D01*
X130344724Y-98802381D01*
X130292285Y-98756210D01*
X130273412Y-98689996D01*
X132857135Y-98689996D01*
X132857135Y-98690003D01*
X132877330Y-98869249D01*
X132877331Y-98869254D01*
X132936911Y-99039523D01*
X133019738Y-99171341D01*
X133032884Y-99192262D01*
X133160438Y-99319816D01*
X133210317Y-99351157D01*
X133279566Y-99394669D01*
X133325857Y-99447004D01*
X133336505Y-99516057D01*
X133333369Y-99531756D01*
X133279366Y-99733302D01*
X133279364Y-99733313D01*
X133259532Y-99959998D01*
X133259532Y-99960001D01*
X133279364Y-100186686D01*
X133279366Y-100186697D01*
X133338258Y-100406488D01*
X133338261Y-100406497D01*
X133434431Y-100612732D01*
X133434432Y-100612734D01*
X133564954Y-100799141D01*
X133725858Y-100960045D01*
X133725861Y-100960047D01*
X133912266Y-101090568D01*
X133970275Y-101117618D01*
X134022714Y-101163791D01*
X134041866Y-101230984D01*
X134021650Y-101297865D01*
X133970275Y-101342381D01*
X133960875Y-101346765D01*
X133912267Y-101369431D01*
X133912265Y-101369432D01*
X133725858Y-101499954D01*
X133564954Y-101660858D01*
X133434432Y-101847265D01*
X133434431Y-101847267D01*
X133338261Y-102053502D01*
X133338258Y-102053511D01*
X133279366Y-102273302D01*
X133279364Y-102273313D01*
X133259532Y-102499998D01*
X133259532Y-102500001D01*
X133279364Y-102726686D01*
X133279366Y-102726697D01*
X133338258Y-102946488D01*
X133338261Y-102946497D01*
X133434431Y-103152732D01*
X133434432Y-103152734D01*
X133564954Y-103339141D01*
X133725858Y-103500045D01*
X133725861Y-103500047D01*
X133912266Y-103630568D01*
X133970275Y-103657618D01*
X134022714Y-103703791D01*
X134041866Y-103770984D01*
X134021650Y-103837865D01*
X133970275Y-103882382D01*
X133912267Y-103909431D01*
X133912265Y-103909432D01*
X133725858Y-104039954D01*
X133564954Y-104200858D01*
X133434432Y-104387265D01*
X133434431Y-104387267D01*
X133338261Y-104593502D01*
X133338258Y-104593511D01*
X133279366Y-104813302D01*
X133279364Y-104813313D01*
X133259532Y-105039998D01*
X133259532Y-105040001D01*
X133279364Y-105266686D01*
X133279366Y-105266697D01*
X133338258Y-105486488D01*
X133338261Y-105486497D01*
X133434431Y-105692732D01*
X133434432Y-105692734D01*
X133564954Y-105879141D01*
X133725858Y-106040045D01*
X133725861Y-106040047D01*
X133912266Y-106170568D01*
X134118504Y-106266739D01*
X134118509Y-106266740D01*
X134118511Y-106266741D01*
X134171415Y-106280916D01*
X134338308Y-106325635D01*
X134500230Y-106339801D01*
X134564998Y-106345468D01*
X134565000Y-106345468D01*
X134565002Y-106345468D01*
X134621673Y-106340509D01*
X134791692Y-106325635D01*
X135011496Y-106266739D01*
X135217734Y-106170568D01*
X135404139Y-106040047D01*
X135565047Y-105879139D01*
X135695568Y-105692734D01*
X135791739Y-105486496D01*
X135850635Y-105266692D01*
X135870468Y-105040000D01*
X135866968Y-105000000D01*
X135852567Y-104835392D01*
X135850635Y-104813308D01*
X135792714Y-104597144D01*
X135791741Y-104593511D01*
X135791738Y-104593502D01*
X135773090Y-104553511D01*
X135695568Y-104387266D01*
X135565047Y-104200861D01*
X135565045Y-104200858D01*
X135404141Y-104039954D01*
X135217734Y-103909432D01*
X135217728Y-103909429D01*
X135181155Y-103892375D01*
X135159724Y-103882381D01*
X135107285Y-103836210D01*
X135088133Y-103769017D01*
X135108348Y-103702135D01*
X135159725Y-103657618D01*
X135217734Y-103630568D01*
X135404139Y-103500047D01*
X135565047Y-103339139D01*
X135695568Y-103152734D01*
X135791739Y-102946496D01*
X135850635Y-102726692D01*
X135870468Y-102500000D01*
X135866968Y-102460000D01*
X135852567Y-102295392D01*
X135850635Y-102273308D01*
X135792714Y-102057144D01*
X135791741Y-102053511D01*
X135791738Y-102053502D01*
X135773090Y-102013511D01*
X135695568Y-101847266D01*
X135565047Y-101660861D01*
X135565045Y-101660858D01*
X135404141Y-101499954D01*
X135217734Y-101369432D01*
X135217728Y-101369429D01*
X135169129Y-101346767D01*
X135159724Y-101342381D01*
X135107285Y-101296210D01*
X135088133Y-101229017D01*
X135108348Y-101162135D01*
X135159725Y-101117618D01*
X135217734Y-101090568D01*
X135404139Y-100960047D01*
X135565047Y-100799139D01*
X135695568Y-100612734D01*
X135791739Y-100406496D01*
X135850635Y-100186692D01*
X135868648Y-99980799D01*
X135870468Y-99960001D01*
X135870468Y-99959998D01*
X135864801Y-99895230D01*
X135850635Y-99733308D01*
X135792714Y-99517144D01*
X135791741Y-99513511D01*
X135791738Y-99513502D01*
X135773090Y-99473511D01*
X135695568Y-99307266D01*
X135565047Y-99120861D01*
X135565045Y-99120858D01*
X135404141Y-98959954D01*
X135217734Y-98829432D01*
X135217728Y-98829429D01*
X135169129Y-98806767D01*
X135159724Y-98802381D01*
X135107285Y-98756210D01*
X135088133Y-98689017D01*
X135108348Y-98622135D01*
X135159725Y-98577618D01*
X135217734Y-98550568D01*
X135404139Y-98420047D01*
X135565047Y-98259139D01*
X135695568Y-98072734D01*
X135791739Y-97866496D01*
X135850635Y-97646692D01*
X135870320Y-97421692D01*
X135870468Y-97420001D01*
X135870468Y-97419998D01*
X135852567Y-97215392D01*
X135850635Y-97193308D01*
X135792714Y-96977144D01*
X135791741Y-96973511D01*
X135791738Y-96973502D01*
X135773090Y-96933511D01*
X135695568Y-96767266D01*
X135565047Y-96580861D01*
X135565045Y-96580858D01*
X135404141Y-96419954D01*
X135217734Y-96289432D01*
X135217728Y-96289429D01*
X135181155Y-96272375D01*
X135159724Y-96262381D01*
X135107285Y-96216210D01*
X135088133Y-96149017D01*
X135108348Y-96082135D01*
X135159725Y-96037618D01*
X135217734Y-96010568D01*
X135404139Y-95880047D01*
X135565047Y-95719139D01*
X135695568Y-95532734D01*
X135791739Y-95326496D01*
X135850635Y-95106692D01*
X135870468Y-94880000D01*
X135866968Y-94840000D01*
X135852567Y-94675392D01*
X135850635Y-94653308D01*
X135792714Y-94437144D01*
X135791741Y-94433511D01*
X135791738Y-94433502D01*
X135773090Y-94393511D01*
X135695568Y-94227266D01*
X135565047Y-94040861D01*
X135565045Y-94040858D01*
X135404143Y-93879956D01*
X135379536Y-93862726D01*
X135335912Y-93808149D01*
X135328719Y-93738650D01*
X135360241Y-93676296D01*
X135420471Y-93640882D01*
X135437404Y-93637861D01*
X135472483Y-93634091D01*
X135607331Y-93583796D01*
X135722546Y-93497546D01*
X135808796Y-93382331D01*
X135859091Y-93247483D01*
X135865500Y-93187873D01*
X135865499Y-92339998D01*
X140879532Y-92339998D01*
X140879532Y-92340001D01*
X140899364Y-92566686D01*
X140899366Y-92566697D01*
X140958258Y-92786488D01*
X140958261Y-92786497D01*
X141054431Y-92992732D01*
X141054432Y-92992734D01*
X141184954Y-93179141D01*
X141345858Y-93340045D01*
X141392693Y-93372839D01*
X141532266Y-93470568D01*
X141590275Y-93497618D01*
X141642714Y-93543791D01*
X141661866Y-93610984D01*
X141641650Y-93677865D01*
X141590275Y-93722381D01*
X141580875Y-93726765D01*
X141532267Y-93749431D01*
X141532265Y-93749432D01*
X141345858Y-93879954D01*
X141184954Y-94040858D01*
X141054432Y-94227265D01*
X141054431Y-94227267D01*
X140958261Y-94433502D01*
X140958258Y-94433511D01*
X140899366Y-94653302D01*
X140899364Y-94653313D01*
X140879532Y-94879998D01*
X140879532Y-94880001D01*
X140899364Y-95106686D01*
X140899366Y-95106697D01*
X140958258Y-95326488D01*
X140958261Y-95326497D01*
X141054431Y-95532732D01*
X141054432Y-95532734D01*
X141184954Y-95719141D01*
X141345858Y-95880045D01*
X141345861Y-95880047D01*
X141532266Y-96010568D01*
X141590275Y-96037618D01*
X141642714Y-96083791D01*
X141661866Y-96150984D01*
X141641650Y-96217865D01*
X141590275Y-96262382D01*
X141532267Y-96289431D01*
X141532265Y-96289432D01*
X141345858Y-96419954D01*
X141184954Y-96580858D01*
X141054432Y-96767265D01*
X141054431Y-96767267D01*
X140958261Y-96973502D01*
X140958258Y-96973511D01*
X140899366Y-97193302D01*
X140899364Y-97193313D01*
X140879532Y-97419998D01*
X140879532Y-97420001D01*
X140899364Y-97646686D01*
X140899366Y-97646697D01*
X140958258Y-97866488D01*
X140958261Y-97866497D01*
X141054431Y-98072732D01*
X141054432Y-98072734D01*
X141184954Y-98259141D01*
X141345858Y-98420045D01*
X141345861Y-98420047D01*
X141532266Y-98550568D01*
X141590275Y-98577618D01*
X141642714Y-98623791D01*
X141661866Y-98690984D01*
X141641650Y-98757865D01*
X141590275Y-98802381D01*
X141580875Y-98806765D01*
X141532267Y-98829431D01*
X141532265Y-98829432D01*
X141345858Y-98959954D01*
X141184954Y-99120858D01*
X141054432Y-99307265D01*
X141054431Y-99307267D01*
X140958261Y-99513502D01*
X140958258Y-99513511D01*
X140899366Y-99733302D01*
X140899364Y-99733313D01*
X140879532Y-99959998D01*
X140879532Y-99960001D01*
X140899364Y-100186686D01*
X140899366Y-100186697D01*
X140958258Y-100406488D01*
X140958261Y-100406497D01*
X141054431Y-100612732D01*
X141054432Y-100612734D01*
X141184954Y-100799141D01*
X141345858Y-100960045D01*
X141345861Y-100960047D01*
X141532266Y-101090568D01*
X141590275Y-101117618D01*
X141642714Y-101163791D01*
X141661866Y-101230984D01*
X141641650Y-101297865D01*
X141590275Y-101342381D01*
X141580875Y-101346765D01*
X141532267Y-101369431D01*
X141532265Y-101369432D01*
X141345858Y-101499954D01*
X141184954Y-101660858D01*
X141054432Y-101847265D01*
X141054431Y-101847267D01*
X140958261Y-102053502D01*
X140958258Y-102053511D01*
X140899366Y-102273302D01*
X140899364Y-102273313D01*
X140879532Y-102499998D01*
X140879532Y-102500001D01*
X140899364Y-102726686D01*
X140899366Y-102726697D01*
X140958258Y-102946488D01*
X140958261Y-102946497D01*
X141054431Y-103152732D01*
X141054432Y-103152734D01*
X141184954Y-103339141D01*
X141345858Y-103500045D01*
X141345861Y-103500047D01*
X141532266Y-103630568D01*
X141590275Y-103657618D01*
X141642714Y-103703791D01*
X141661866Y-103770984D01*
X141641650Y-103837865D01*
X141590275Y-103882382D01*
X141532267Y-103909431D01*
X141532265Y-103909432D01*
X141345858Y-104039954D01*
X141184954Y-104200858D01*
X141054432Y-104387265D01*
X141054431Y-104387267D01*
X140958261Y-104593502D01*
X140958258Y-104593511D01*
X140899366Y-104813302D01*
X140899364Y-104813313D01*
X140879532Y-105039998D01*
X140879532Y-105040001D01*
X140899364Y-105266686D01*
X140899366Y-105266697D01*
X140958258Y-105486488D01*
X140958261Y-105486497D01*
X141054431Y-105692732D01*
X141054432Y-105692734D01*
X141184954Y-105879141D01*
X141345858Y-106040045D01*
X141345861Y-106040047D01*
X141532266Y-106170568D01*
X141590275Y-106197618D01*
X141642714Y-106243791D01*
X141661866Y-106310984D01*
X141641650Y-106377865D01*
X141590275Y-106422382D01*
X141532267Y-106449431D01*
X141532265Y-106449432D01*
X141345858Y-106579954D01*
X141184954Y-106740858D01*
X141054432Y-106927265D01*
X141054431Y-106927267D01*
X140958261Y-107133502D01*
X140958258Y-107133511D01*
X140899366Y-107353302D01*
X140899364Y-107353313D01*
X140879532Y-107579998D01*
X140879532Y-107580001D01*
X140899364Y-107806686D01*
X140899366Y-107806697D01*
X140958258Y-108026488D01*
X140958261Y-108026497D01*
X141054431Y-108232732D01*
X141054432Y-108232734D01*
X141184954Y-108419141D01*
X141345858Y-108580045D01*
X141345861Y-108580047D01*
X141532266Y-108710568D01*
X141738504Y-108806739D01*
X141958308Y-108865635D01*
X142120230Y-108879801D01*
X142184998Y-108885468D01*
X142185000Y-108885468D01*
X142185002Y-108885468D01*
X142241673Y-108880509D01*
X142411692Y-108865635D01*
X142631496Y-108806739D01*
X142837734Y-108710568D01*
X143024139Y-108580047D01*
X143185047Y-108419139D01*
X143315568Y-108232734D01*
X143411739Y-108026496D01*
X143470635Y-107806692D01*
X143490320Y-107581692D01*
X143490468Y-107580001D01*
X143490468Y-107579998D01*
X143478761Y-107446188D01*
X143470635Y-107353308D01*
X143412714Y-107137144D01*
X143411741Y-107133511D01*
X143411738Y-107133502D01*
X143393090Y-107093511D01*
X143315568Y-106927266D01*
X143185047Y-106740861D01*
X143185045Y-106740858D01*
X143024141Y-106579954D01*
X142837734Y-106449432D01*
X142837728Y-106449429D01*
X142801155Y-106432375D01*
X142779724Y-106422381D01*
X142727285Y-106376210D01*
X142708133Y-106309017D01*
X142728348Y-106242135D01*
X142779725Y-106197618D01*
X142837734Y-106170568D01*
X143024139Y-106040047D01*
X143185047Y-105879139D01*
X143315568Y-105692734D01*
X143411739Y-105486496D01*
X143470635Y-105266692D01*
X143490468Y-105040000D01*
X143486968Y-105000000D01*
X143472567Y-104835392D01*
X143470635Y-104813308D01*
X143412714Y-104597144D01*
X143411741Y-104593511D01*
X143411738Y-104593502D01*
X143393090Y-104553511D01*
X143315568Y-104387266D01*
X143185047Y-104200861D01*
X143185045Y-104200858D01*
X143024141Y-104039954D01*
X142837734Y-103909432D01*
X142837728Y-103909429D01*
X142801155Y-103892375D01*
X142779724Y-103882381D01*
X142727285Y-103836210D01*
X142708133Y-103769017D01*
X142728348Y-103702135D01*
X142779725Y-103657618D01*
X142837734Y-103630568D01*
X143024139Y-103500047D01*
X143185047Y-103339139D01*
X143315568Y-103152734D01*
X143411739Y-102946496D01*
X143470635Y-102726692D01*
X143490468Y-102500000D01*
X143486968Y-102460000D01*
X143472567Y-102295392D01*
X143470635Y-102273308D01*
X143412714Y-102057144D01*
X143411741Y-102053511D01*
X143411738Y-102053502D01*
X143393090Y-102013511D01*
X143315568Y-101847266D01*
X143185047Y-101660861D01*
X143185045Y-101660858D01*
X143024141Y-101499954D01*
X142837734Y-101369432D01*
X142837728Y-101369429D01*
X142789129Y-101346767D01*
X142779724Y-101342381D01*
X142727285Y-101296210D01*
X142708133Y-101229017D01*
X142728348Y-101162135D01*
X142779725Y-101117618D01*
X142837734Y-101090568D01*
X143024139Y-100960047D01*
X143185047Y-100799139D01*
X143315568Y-100612734D01*
X143411739Y-100406496D01*
X143470635Y-100186692D01*
X143488648Y-99980799D01*
X143490468Y-99960001D01*
X143490468Y-99959998D01*
X143484801Y-99895230D01*
X143470635Y-99733308D01*
X143412714Y-99517144D01*
X143411741Y-99513511D01*
X143411738Y-99513502D01*
X143393090Y-99473511D01*
X143315568Y-99307266D01*
X143185047Y-99120861D01*
X143185045Y-99120858D01*
X143024141Y-98959954D01*
X142837734Y-98829432D01*
X142837728Y-98829429D01*
X142789129Y-98806767D01*
X142779724Y-98802381D01*
X142727285Y-98756210D01*
X142708133Y-98689017D01*
X142728348Y-98622135D01*
X142779725Y-98577618D01*
X142837734Y-98550568D01*
X143024139Y-98420047D01*
X143185047Y-98259139D01*
X143315568Y-98072734D01*
X143411739Y-97866496D01*
X143470635Y-97646692D01*
X143490320Y-97421692D01*
X143490468Y-97420001D01*
X143490468Y-97419998D01*
X143472567Y-97215392D01*
X143470635Y-97193308D01*
X143412714Y-96977144D01*
X143411741Y-96973511D01*
X143411738Y-96973502D01*
X143393090Y-96933511D01*
X143315568Y-96767266D01*
X143185047Y-96580861D01*
X143185045Y-96580858D01*
X143024141Y-96419954D01*
X142837734Y-96289432D01*
X142837728Y-96289429D01*
X142801155Y-96272375D01*
X142779724Y-96262381D01*
X142727285Y-96216210D01*
X142708133Y-96149017D01*
X142728348Y-96082135D01*
X142779725Y-96037618D01*
X142837734Y-96010568D01*
X143024139Y-95880047D01*
X143185047Y-95719139D01*
X143315568Y-95532734D01*
X143411739Y-95326496D01*
X143470635Y-95106692D01*
X143490468Y-94880000D01*
X143486968Y-94840000D01*
X143486968Y-94839998D01*
X145694532Y-94839998D01*
X145694532Y-94840001D01*
X145714364Y-95066686D01*
X145714366Y-95066697D01*
X145773258Y-95286488D01*
X145773261Y-95286497D01*
X145869431Y-95492732D01*
X145869432Y-95492734D01*
X145999954Y-95679141D01*
X146160858Y-95840045D01*
X146160861Y-95840047D01*
X146347266Y-95970568D01*
X146405275Y-95997618D01*
X146457714Y-96043791D01*
X146476866Y-96110984D01*
X146456650Y-96177865D01*
X146405275Y-96222382D01*
X146347267Y-96249431D01*
X146347265Y-96249432D01*
X146160858Y-96379954D01*
X145999954Y-96540858D01*
X145869432Y-96727265D01*
X145869431Y-96727267D01*
X145773261Y-96933502D01*
X145773258Y-96933511D01*
X145714366Y-97153302D01*
X145714364Y-97153313D01*
X145694532Y-97379998D01*
X145694532Y-97380001D01*
X145714364Y-97606686D01*
X145714366Y-97606697D01*
X145773258Y-97826488D01*
X145773261Y-97826497D01*
X145869431Y-98032732D01*
X145869432Y-98032734D01*
X145999954Y-98219141D01*
X146160858Y-98380045D01*
X146160861Y-98380047D01*
X146347266Y-98510568D01*
X146405275Y-98537618D01*
X146457714Y-98583791D01*
X146476866Y-98650984D01*
X146456650Y-98717865D01*
X146405275Y-98762382D01*
X146347267Y-98789431D01*
X146347265Y-98789432D01*
X146160858Y-98919954D01*
X145999954Y-99080858D01*
X145869432Y-99267265D01*
X145869431Y-99267267D01*
X145773261Y-99473502D01*
X145773258Y-99473511D01*
X145714366Y-99693302D01*
X145714364Y-99693313D01*
X145694532Y-99919998D01*
X145694532Y-99920001D01*
X145714364Y-100146686D01*
X145714366Y-100146697D01*
X145773258Y-100366488D01*
X145773261Y-100366497D01*
X145869431Y-100572732D01*
X145869432Y-100572734D01*
X145999954Y-100759141D01*
X146160858Y-100920045D01*
X146160861Y-100920047D01*
X146347266Y-101050568D01*
X146405275Y-101077618D01*
X146457714Y-101123791D01*
X146476866Y-101190984D01*
X146456650Y-101257865D01*
X146405275Y-101302382D01*
X146347267Y-101329431D01*
X146347265Y-101329432D01*
X146160858Y-101459954D01*
X145999954Y-101620858D01*
X145869432Y-101807265D01*
X145869431Y-101807267D01*
X145773261Y-102013502D01*
X145773258Y-102013511D01*
X145714366Y-102233302D01*
X145714364Y-102233313D01*
X145694532Y-102459998D01*
X145694532Y-102460001D01*
X145714364Y-102686686D01*
X145714366Y-102686697D01*
X145773258Y-102906488D01*
X145773261Y-102906497D01*
X145869431Y-103112732D01*
X145869432Y-103112734D01*
X145999954Y-103299141D01*
X146160858Y-103460045D01*
X146160861Y-103460047D01*
X146347266Y-103590568D01*
X146405275Y-103617618D01*
X146457714Y-103663791D01*
X146476866Y-103730984D01*
X146456650Y-103797865D01*
X146405275Y-103842382D01*
X146347267Y-103869431D01*
X146347265Y-103869432D01*
X146160858Y-103999954D01*
X145999954Y-104160858D01*
X145869432Y-104347265D01*
X145869431Y-104347267D01*
X145773261Y-104553502D01*
X145773258Y-104553511D01*
X145714366Y-104773302D01*
X145714364Y-104773313D01*
X145694532Y-104999998D01*
X145694532Y-105000001D01*
X145714364Y-105226686D01*
X145714366Y-105226697D01*
X145773258Y-105446488D01*
X145773261Y-105446497D01*
X145869431Y-105652732D01*
X145869432Y-105652734D01*
X145999954Y-105839141D01*
X146160858Y-106000045D01*
X146160861Y-106000047D01*
X146347266Y-106130568D01*
X146553504Y-106226739D01*
X146773308Y-106285635D01*
X146935230Y-106299801D01*
X146999998Y-106305468D01*
X147000000Y-106305468D01*
X147000002Y-106305468D01*
X147056673Y-106300509D01*
X147226692Y-106285635D01*
X147446496Y-106226739D01*
X147652734Y-106130568D01*
X147839139Y-106000047D01*
X148000047Y-105839139D01*
X148130568Y-105652734D01*
X148226739Y-105446496D01*
X148285635Y-105226692D01*
X148305468Y-105000000D01*
X148285635Y-104773308D01*
X148226739Y-104553504D01*
X148130568Y-104347266D01*
X148000047Y-104160861D01*
X148000045Y-104160858D01*
X147839141Y-103999954D01*
X147652734Y-103869432D01*
X147652728Y-103869429D01*
X147594725Y-103842382D01*
X147542285Y-103796210D01*
X147523133Y-103729017D01*
X147543348Y-103662135D01*
X147594725Y-103617618D01*
X147652734Y-103590568D01*
X147839139Y-103460047D01*
X148000047Y-103299139D01*
X148130568Y-103112734D01*
X148226739Y-102906496D01*
X148285635Y-102686692D01*
X148305468Y-102460000D01*
X148285635Y-102233308D01*
X148226739Y-102013504D01*
X148130568Y-101807266D01*
X148000047Y-101620861D01*
X148000045Y-101620858D01*
X147839141Y-101459954D01*
X147652734Y-101329432D01*
X147652728Y-101329429D01*
X147594725Y-101302382D01*
X147542285Y-101256210D01*
X147523133Y-101189017D01*
X147543348Y-101122135D01*
X147594725Y-101077618D01*
X147652734Y-101050568D01*
X147839139Y-100920047D01*
X148000047Y-100759139D01*
X148130568Y-100572734D01*
X148226739Y-100366496D01*
X148285635Y-100146692D01*
X148305468Y-99920000D01*
X148285635Y-99693308D01*
X148226739Y-99473504D01*
X148130568Y-99267266D01*
X148000047Y-99080861D01*
X148000045Y-99080858D01*
X147839141Y-98919954D01*
X147652734Y-98789432D01*
X147652728Y-98789429D01*
X147594725Y-98762382D01*
X147542285Y-98716210D01*
X147523133Y-98649017D01*
X147543348Y-98582135D01*
X147594725Y-98537618D01*
X147652734Y-98510568D01*
X147839139Y-98380047D01*
X148000047Y-98219139D01*
X148130568Y-98032734D01*
X148226739Y-97826496D01*
X148285635Y-97606692D01*
X148305468Y-97380000D01*
X148285635Y-97153308D01*
X148226739Y-96933504D01*
X148130568Y-96727266D01*
X148020028Y-96569397D01*
X148000045Y-96540858D01*
X147839141Y-96379954D01*
X147652734Y-96249432D01*
X147652728Y-96249429D01*
X147594725Y-96222382D01*
X147542285Y-96176210D01*
X147523133Y-96109017D01*
X147543348Y-96042135D01*
X147594725Y-95997618D01*
X147652734Y-95970568D01*
X147839139Y-95840047D01*
X148000047Y-95679139D01*
X148130568Y-95492734D01*
X148226739Y-95286496D01*
X148285635Y-95066692D01*
X148305468Y-94840000D01*
X148285635Y-94613308D01*
X148226739Y-94393504D01*
X148130568Y-94187266D01*
X148000047Y-94000861D01*
X148000045Y-94000858D01*
X147839143Y-93839956D01*
X147814536Y-93822726D01*
X147770912Y-93768149D01*
X147763719Y-93698650D01*
X147795241Y-93636296D01*
X147855471Y-93600882D01*
X147872404Y-93597861D01*
X147907483Y-93594091D01*
X148042331Y-93543796D01*
X148157546Y-93457546D01*
X148243796Y-93342331D01*
X148294091Y-93207483D01*
X148300500Y-93147873D01*
X148300499Y-92299998D01*
X153314532Y-92299998D01*
X153314532Y-92300001D01*
X153334364Y-92526686D01*
X153334366Y-92526697D01*
X153393258Y-92746488D01*
X153393261Y-92746497D01*
X153489431Y-92952732D01*
X153489432Y-92952734D01*
X153619954Y-93139141D01*
X153780858Y-93300045D01*
X153806905Y-93318283D01*
X153967266Y-93430568D01*
X154025275Y-93457618D01*
X154077714Y-93503791D01*
X154096866Y-93570984D01*
X154076650Y-93637865D01*
X154025275Y-93682382D01*
X153967267Y-93709431D01*
X153967265Y-93709432D01*
X153780858Y-93839954D01*
X153619954Y-94000858D01*
X153489432Y-94187265D01*
X153489431Y-94187267D01*
X153393261Y-94393502D01*
X153393258Y-94393511D01*
X153334366Y-94613302D01*
X153334364Y-94613313D01*
X153314532Y-94839998D01*
X153314532Y-94840001D01*
X153334364Y-95066686D01*
X153334366Y-95066697D01*
X153393258Y-95286488D01*
X153393261Y-95286497D01*
X153489431Y-95492732D01*
X153489432Y-95492734D01*
X153619954Y-95679141D01*
X153780858Y-95840045D01*
X153780861Y-95840047D01*
X153967266Y-95970568D01*
X154025275Y-95997618D01*
X154077714Y-96043791D01*
X154096866Y-96110984D01*
X154076650Y-96177865D01*
X154025275Y-96222382D01*
X153967267Y-96249431D01*
X153967265Y-96249432D01*
X153780858Y-96379954D01*
X153619954Y-96540858D01*
X153489432Y-96727265D01*
X153489431Y-96727267D01*
X153393261Y-96933502D01*
X153393258Y-96933511D01*
X153334366Y-97153302D01*
X153334364Y-97153313D01*
X153314532Y-97379998D01*
X153314532Y-97380001D01*
X153334364Y-97606686D01*
X153334366Y-97606697D01*
X153393258Y-97826488D01*
X153393261Y-97826497D01*
X153489431Y-98032732D01*
X153489432Y-98032734D01*
X153619954Y-98219141D01*
X153780858Y-98380045D01*
X153780861Y-98380047D01*
X153967266Y-98510568D01*
X154025275Y-98537618D01*
X154077714Y-98583791D01*
X154096866Y-98650984D01*
X154076650Y-98717865D01*
X154025275Y-98762382D01*
X153967267Y-98789431D01*
X153967265Y-98789432D01*
X153780858Y-98919954D01*
X153619954Y-99080858D01*
X153489432Y-99267265D01*
X153489431Y-99267267D01*
X153393261Y-99473502D01*
X153393258Y-99473511D01*
X153334366Y-99693302D01*
X153334364Y-99693313D01*
X153314532Y-99919998D01*
X153314532Y-99920001D01*
X153334364Y-100146686D01*
X153334366Y-100146697D01*
X153393258Y-100366488D01*
X153393261Y-100366497D01*
X153489431Y-100572732D01*
X153489432Y-100572734D01*
X153619954Y-100759141D01*
X153780858Y-100920045D01*
X153780861Y-100920047D01*
X153967266Y-101050568D01*
X154025275Y-101077618D01*
X154077714Y-101123791D01*
X154096866Y-101190984D01*
X154076650Y-101257865D01*
X154025275Y-101302382D01*
X153967267Y-101329431D01*
X153967265Y-101329432D01*
X153780858Y-101459954D01*
X153619954Y-101620858D01*
X153489432Y-101807265D01*
X153489431Y-101807267D01*
X153393261Y-102013502D01*
X153393258Y-102013511D01*
X153334366Y-102233302D01*
X153334364Y-102233313D01*
X153314532Y-102459998D01*
X153314532Y-102460001D01*
X153334364Y-102686686D01*
X153334366Y-102686697D01*
X153393258Y-102906488D01*
X153393261Y-102906497D01*
X153489431Y-103112732D01*
X153489432Y-103112734D01*
X153619954Y-103299141D01*
X153780858Y-103460045D01*
X153780861Y-103460047D01*
X153967266Y-103590568D01*
X154025275Y-103617618D01*
X154077714Y-103663791D01*
X154096866Y-103730984D01*
X154076650Y-103797865D01*
X154025275Y-103842382D01*
X153967267Y-103869431D01*
X153967265Y-103869432D01*
X153780858Y-103999954D01*
X153619954Y-104160858D01*
X153489432Y-104347265D01*
X153489431Y-104347267D01*
X153393261Y-104553502D01*
X153393258Y-104553511D01*
X153334366Y-104773302D01*
X153334364Y-104773313D01*
X153314532Y-104999998D01*
X153314532Y-105000001D01*
X153334364Y-105226686D01*
X153334366Y-105226697D01*
X153393258Y-105446488D01*
X153393261Y-105446497D01*
X153489431Y-105652732D01*
X153489432Y-105652734D01*
X153619954Y-105839141D01*
X153780858Y-106000045D01*
X153780861Y-106000047D01*
X153967266Y-106130568D01*
X154025275Y-106157618D01*
X154077714Y-106203791D01*
X154096866Y-106270984D01*
X154076650Y-106337865D01*
X154025275Y-106382382D01*
X153967267Y-106409431D01*
X153967265Y-106409432D01*
X153780858Y-106539954D01*
X153619954Y-106700858D01*
X153489432Y-106887265D01*
X153489431Y-106887267D01*
X153393261Y-107093502D01*
X153393258Y-107093511D01*
X153334366Y-107313302D01*
X153334364Y-107313313D01*
X153314532Y-107539998D01*
X153314532Y-107540001D01*
X153334364Y-107766686D01*
X153334366Y-107766697D01*
X153393258Y-107986488D01*
X153393261Y-107986497D01*
X153489431Y-108192732D01*
X153489432Y-108192734D01*
X153619954Y-108379141D01*
X153780858Y-108540045D01*
X153780861Y-108540047D01*
X153967266Y-108670568D01*
X154173504Y-108766739D01*
X154393308Y-108825635D01*
X154555230Y-108839801D01*
X154619998Y-108845468D01*
X154620000Y-108845468D01*
X154620002Y-108845468D01*
X154676673Y-108840509D01*
X154846692Y-108825635D01*
X155066496Y-108766739D01*
X155272734Y-108670568D01*
X155459139Y-108540047D01*
X155620047Y-108379139D01*
X155750568Y-108192734D01*
X155846739Y-107986496D01*
X155905635Y-107766692D01*
X155925468Y-107540000D01*
X155905635Y-107313308D01*
X155846739Y-107093504D01*
X155750568Y-106887266D01*
X155633725Y-106720396D01*
X155620045Y-106700858D01*
X155459141Y-106539954D01*
X155272734Y-106409432D01*
X155272728Y-106409429D01*
X155214725Y-106382382D01*
X155162285Y-106336210D01*
X155143133Y-106269017D01*
X155163348Y-106202135D01*
X155214725Y-106157618D01*
X155272734Y-106130568D01*
X155459139Y-106000047D01*
X155620047Y-105839139D01*
X155750568Y-105652734D01*
X155846739Y-105446496D01*
X155905635Y-105226692D01*
X155925468Y-105000000D01*
X155905635Y-104773308D01*
X155846739Y-104553504D01*
X155750568Y-104347266D01*
X155620047Y-104160861D01*
X155620045Y-104160858D01*
X155459141Y-103999954D01*
X155272734Y-103869432D01*
X155272728Y-103869429D01*
X155214725Y-103842382D01*
X155162285Y-103796210D01*
X155143133Y-103729017D01*
X155163348Y-103662135D01*
X155214725Y-103617618D01*
X155272734Y-103590568D01*
X155459139Y-103460047D01*
X155620047Y-103299139D01*
X155750568Y-103112734D01*
X155846739Y-102906496D01*
X155905635Y-102686692D01*
X155925468Y-102460000D01*
X155905635Y-102233308D01*
X155846739Y-102013504D01*
X155750568Y-101807266D01*
X155620047Y-101620861D01*
X155620045Y-101620858D01*
X155459141Y-101459954D01*
X155272734Y-101329432D01*
X155272728Y-101329429D01*
X155214725Y-101302382D01*
X155162285Y-101256210D01*
X155143133Y-101189017D01*
X155163348Y-101122135D01*
X155214725Y-101077618D01*
X155272734Y-101050568D01*
X155459139Y-100920047D01*
X155620047Y-100759139D01*
X155750568Y-100572734D01*
X155846739Y-100366496D01*
X155905635Y-100146692D01*
X155925468Y-99920000D01*
X155905635Y-99693308D01*
X155846739Y-99473504D01*
X155750568Y-99267266D01*
X155620047Y-99080861D01*
X155620045Y-99080858D01*
X155459141Y-98919954D01*
X155272734Y-98789432D01*
X155272728Y-98789429D01*
X155214725Y-98762382D01*
X155162285Y-98716210D01*
X155143133Y-98649017D01*
X155163348Y-98582135D01*
X155214725Y-98537618D01*
X155272734Y-98510568D01*
X155459139Y-98380047D01*
X155620047Y-98219139D01*
X155750568Y-98032734D01*
X155846739Y-97826496D01*
X155905635Y-97606692D01*
X155925468Y-97380000D01*
X155905635Y-97153308D01*
X155846739Y-96933504D01*
X155750568Y-96727266D01*
X155640028Y-96569397D01*
X155620045Y-96540858D01*
X155459141Y-96379954D01*
X155272734Y-96249432D01*
X155272728Y-96249429D01*
X155214725Y-96222382D01*
X155162285Y-96176210D01*
X155143133Y-96109017D01*
X155163348Y-96042135D01*
X155214725Y-95997618D01*
X155272734Y-95970568D01*
X155459139Y-95840047D01*
X155620047Y-95679139D01*
X155750568Y-95492734D01*
X155846739Y-95286496D01*
X155905635Y-95066692D01*
X155925468Y-94840000D01*
X155925468Y-94839998D01*
X158129532Y-94839998D01*
X158129532Y-94840001D01*
X158149364Y-95066686D01*
X158149366Y-95066697D01*
X158208258Y-95286488D01*
X158208261Y-95286497D01*
X158304431Y-95492732D01*
X158304432Y-95492734D01*
X158434954Y-95679141D01*
X158595858Y-95840045D01*
X158595861Y-95840047D01*
X158782266Y-95970568D01*
X158840275Y-95997618D01*
X158892714Y-96043791D01*
X158911866Y-96110984D01*
X158891650Y-96177865D01*
X158840275Y-96222382D01*
X158782267Y-96249431D01*
X158782265Y-96249432D01*
X158595858Y-96379954D01*
X158434954Y-96540858D01*
X158304432Y-96727265D01*
X158304431Y-96727267D01*
X158208261Y-96933502D01*
X158208258Y-96933511D01*
X158149366Y-97153302D01*
X158149364Y-97153313D01*
X158129532Y-97379998D01*
X158129532Y-97380001D01*
X158149364Y-97606686D01*
X158149366Y-97606697D01*
X158208258Y-97826488D01*
X158208261Y-97826497D01*
X158304431Y-98032732D01*
X158304432Y-98032734D01*
X158434954Y-98219141D01*
X158595858Y-98380045D01*
X158595861Y-98380047D01*
X158782266Y-98510568D01*
X158840275Y-98537618D01*
X158892714Y-98583791D01*
X158911866Y-98650984D01*
X158891650Y-98717865D01*
X158840275Y-98762382D01*
X158782267Y-98789431D01*
X158782265Y-98789432D01*
X158595858Y-98919954D01*
X158434954Y-99080858D01*
X158304432Y-99267265D01*
X158304431Y-99267267D01*
X158208261Y-99473502D01*
X158208258Y-99473511D01*
X158149366Y-99693302D01*
X158149364Y-99693313D01*
X158129532Y-99919998D01*
X158129532Y-99920001D01*
X158149364Y-100146686D01*
X158149366Y-100146697D01*
X158208258Y-100366488D01*
X158208261Y-100366497D01*
X158304431Y-100572732D01*
X158304432Y-100572734D01*
X158434954Y-100759141D01*
X158595858Y-100920045D01*
X158595861Y-100920047D01*
X158782266Y-101050568D01*
X158840275Y-101077618D01*
X158892714Y-101123791D01*
X158911866Y-101190984D01*
X158891650Y-101257865D01*
X158840275Y-101302382D01*
X158782267Y-101329431D01*
X158782265Y-101329432D01*
X158595858Y-101459954D01*
X158434954Y-101620858D01*
X158304432Y-101807265D01*
X158304431Y-101807267D01*
X158208261Y-102013502D01*
X158208258Y-102013511D01*
X158149366Y-102233302D01*
X158149364Y-102233313D01*
X158129532Y-102459998D01*
X158129532Y-102460001D01*
X158149364Y-102686686D01*
X158149366Y-102686697D01*
X158208258Y-102906488D01*
X158208261Y-102906497D01*
X158304431Y-103112732D01*
X158304432Y-103112734D01*
X158434954Y-103299141D01*
X158595858Y-103460045D01*
X158595861Y-103460047D01*
X158782266Y-103590568D01*
X158840275Y-103617618D01*
X158892714Y-103663791D01*
X158911866Y-103730984D01*
X158891650Y-103797865D01*
X158840275Y-103842382D01*
X158782267Y-103869431D01*
X158782265Y-103869432D01*
X158595858Y-103999954D01*
X158434954Y-104160858D01*
X158304432Y-104347265D01*
X158304431Y-104347267D01*
X158208261Y-104553502D01*
X158208258Y-104553511D01*
X158149366Y-104773302D01*
X158149364Y-104773313D01*
X158129532Y-104999998D01*
X158129532Y-105000001D01*
X158149364Y-105226686D01*
X158149366Y-105226697D01*
X158208258Y-105446488D01*
X158208261Y-105446497D01*
X158304431Y-105652732D01*
X158304432Y-105652734D01*
X158434954Y-105839141D01*
X158595858Y-106000045D01*
X158595861Y-106000047D01*
X158782266Y-106130568D01*
X158988504Y-106226739D01*
X159208308Y-106285635D01*
X159370230Y-106299801D01*
X159434998Y-106305468D01*
X159435000Y-106305468D01*
X159435002Y-106305468D01*
X159491673Y-106300509D01*
X159661692Y-106285635D01*
X159881496Y-106226739D01*
X160087734Y-106130568D01*
X160274139Y-106000047D01*
X160435047Y-105839139D01*
X160565568Y-105652734D01*
X160661739Y-105446496D01*
X160720635Y-105226692D01*
X160740468Y-105000000D01*
X160720635Y-104773308D01*
X160661739Y-104553504D01*
X160565568Y-104347266D01*
X160435047Y-104160861D01*
X160435045Y-104160858D01*
X160274141Y-103999954D01*
X160087734Y-103869432D01*
X160087728Y-103869429D01*
X160029725Y-103842382D01*
X159977285Y-103796210D01*
X159958133Y-103729017D01*
X159978348Y-103662135D01*
X160029725Y-103617618D01*
X160087734Y-103590568D01*
X160274139Y-103460047D01*
X160435047Y-103299139D01*
X160565568Y-103112734D01*
X160661739Y-102906496D01*
X160720635Y-102686692D01*
X160740468Y-102460000D01*
X160720635Y-102233308D01*
X160661739Y-102013504D01*
X160565568Y-101807266D01*
X160435047Y-101620861D01*
X160435045Y-101620858D01*
X160274141Y-101459954D01*
X160087734Y-101329432D01*
X160087728Y-101329429D01*
X160029725Y-101302382D01*
X159977285Y-101256210D01*
X159958133Y-101189017D01*
X159978348Y-101122135D01*
X160029725Y-101077618D01*
X160087734Y-101050568D01*
X160274139Y-100920047D01*
X160435047Y-100759139D01*
X160565568Y-100572734D01*
X160661739Y-100366496D01*
X160720635Y-100146692D01*
X160740468Y-99920000D01*
X160720635Y-99693308D01*
X160661739Y-99473504D01*
X160565568Y-99267266D01*
X160435047Y-99080861D01*
X160435045Y-99080858D01*
X160274141Y-98919954D01*
X160087734Y-98789432D01*
X160087728Y-98789429D01*
X160029725Y-98762382D01*
X159977285Y-98716210D01*
X159958133Y-98649017D01*
X159978348Y-98582135D01*
X160029725Y-98537618D01*
X160087734Y-98510568D01*
X160274139Y-98380047D01*
X160435047Y-98219139D01*
X160565568Y-98032734D01*
X160661739Y-97826496D01*
X160720635Y-97606692D01*
X160740468Y-97380000D01*
X160720635Y-97153308D01*
X160661739Y-96933504D01*
X160565568Y-96727266D01*
X160455028Y-96569397D01*
X160435045Y-96540858D01*
X160274141Y-96379954D01*
X160087734Y-96249432D01*
X160087728Y-96249429D01*
X160029725Y-96222382D01*
X159977285Y-96176210D01*
X159958133Y-96109017D01*
X159978348Y-96042135D01*
X160029725Y-95997618D01*
X160087734Y-95970568D01*
X160274139Y-95840047D01*
X160435047Y-95679139D01*
X160565568Y-95492734D01*
X160661739Y-95286496D01*
X160720635Y-95066692D01*
X160740468Y-94840000D01*
X160720635Y-94613308D01*
X160661739Y-94393504D01*
X160565568Y-94187266D01*
X160435047Y-94000861D01*
X160435045Y-94000858D01*
X160274143Y-93839956D01*
X160249536Y-93822726D01*
X160205912Y-93768149D01*
X160198719Y-93698650D01*
X160230241Y-93636296D01*
X160290471Y-93600882D01*
X160307404Y-93597861D01*
X160342483Y-93594091D01*
X160477331Y-93543796D01*
X160592546Y-93457546D01*
X160678796Y-93342331D01*
X160729091Y-93207483D01*
X160735500Y-93147873D01*
X160735499Y-92299998D01*
X165749532Y-92299998D01*
X165749532Y-92300001D01*
X165769364Y-92526686D01*
X165769366Y-92526697D01*
X165828258Y-92746488D01*
X165828261Y-92746497D01*
X165924431Y-92952732D01*
X165924432Y-92952734D01*
X166054954Y-93139141D01*
X166215858Y-93300045D01*
X166241905Y-93318283D01*
X166402266Y-93430568D01*
X166460275Y-93457618D01*
X166512714Y-93503791D01*
X166531866Y-93570984D01*
X166511650Y-93637865D01*
X166460275Y-93682382D01*
X166402267Y-93709431D01*
X166402265Y-93709432D01*
X166215858Y-93839954D01*
X166054954Y-94000858D01*
X165924432Y-94187265D01*
X165924431Y-94187267D01*
X165828261Y-94393502D01*
X165828258Y-94393511D01*
X165769366Y-94613302D01*
X165769364Y-94613313D01*
X165749532Y-94839998D01*
X165749532Y-94840001D01*
X165769364Y-95066686D01*
X165769366Y-95066697D01*
X165828258Y-95286488D01*
X165828261Y-95286497D01*
X165924431Y-95492732D01*
X165924432Y-95492734D01*
X166054954Y-95679141D01*
X166215858Y-95840045D01*
X166215861Y-95840047D01*
X166402266Y-95970568D01*
X166460275Y-95997618D01*
X166512714Y-96043791D01*
X166531866Y-96110984D01*
X166511650Y-96177865D01*
X166460275Y-96222382D01*
X166402267Y-96249431D01*
X166402265Y-96249432D01*
X166215858Y-96379954D01*
X166054954Y-96540858D01*
X165924432Y-96727265D01*
X165924431Y-96727267D01*
X165828261Y-96933502D01*
X165828258Y-96933511D01*
X165769366Y-97153302D01*
X165769364Y-97153313D01*
X165749532Y-97379998D01*
X165749532Y-97380001D01*
X165769364Y-97606686D01*
X165769366Y-97606697D01*
X165828258Y-97826488D01*
X165828261Y-97826497D01*
X165924431Y-98032732D01*
X165924432Y-98032734D01*
X166054954Y-98219141D01*
X166215858Y-98380045D01*
X166215861Y-98380047D01*
X166402266Y-98510568D01*
X166460275Y-98537618D01*
X166512714Y-98583791D01*
X166531866Y-98650984D01*
X166511650Y-98717865D01*
X166460275Y-98762382D01*
X166402267Y-98789431D01*
X166402265Y-98789432D01*
X166215858Y-98919954D01*
X166054954Y-99080858D01*
X165924432Y-99267265D01*
X165924431Y-99267267D01*
X165828261Y-99473502D01*
X165828258Y-99473511D01*
X165769366Y-99693302D01*
X165769364Y-99693313D01*
X165749532Y-99919998D01*
X165749532Y-99920001D01*
X165769364Y-100146686D01*
X165769366Y-100146697D01*
X165828258Y-100366488D01*
X165828261Y-100366497D01*
X165924431Y-100572732D01*
X165924432Y-100572734D01*
X166054954Y-100759141D01*
X166215858Y-100920045D01*
X166215861Y-100920047D01*
X166402266Y-101050568D01*
X166460275Y-101077618D01*
X166512714Y-101123791D01*
X166531866Y-101190984D01*
X166511650Y-101257865D01*
X166460275Y-101302382D01*
X166402267Y-101329431D01*
X166402265Y-101329432D01*
X166215858Y-101459954D01*
X166054954Y-101620858D01*
X165924432Y-101807265D01*
X165924431Y-101807267D01*
X165828261Y-102013502D01*
X165828258Y-102013511D01*
X165769366Y-102233302D01*
X165769364Y-102233313D01*
X165749532Y-102459998D01*
X165749532Y-102460001D01*
X165769364Y-102686686D01*
X165769366Y-102686697D01*
X165828258Y-102906488D01*
X165828261Y-102906497D01*
X165924431Y-103112732D01*
X165924432Y-103112734D01*
X166054954Y-103299141D01*
X166215858Y-103460045D01*
X166215861Y-103460047D01*
X166402266Y-103590568D01*
X166460275Y-103617618D01*
X166512714Y-103663791D01*
X166531866Y-103730984D01*
X166511650Y-103797865D01*
X166460275Y-103842382D01*
X166402267Y-103869431D01*
X166402265Y-103869432D01*
X166215858Y-103999954D01*
X166054954Y-104160858D01*
X165924432Y-104347265D01*
X165924431Y-104347267D01*
X165828261Y-104553502D01*
X165828258Y-104553511D01*
X165769366Y-104773302D01*
X165769364Y-104773313D01*
X165749532Y-104999998D01*
X165749532Y-105000001D01*
X165769364Y-105226686D01*
X165769366Y-105226697D01*
X165828258Y-105446488D01*
X165828261Y-105446497D01*
X165924431Y-105652732D01*
X165924432Y-105652734D01*
X166054954Y-105839141D01*
X166215858Y-106000045D01*
X166215861Y-106000047D01*
X166402266Y-106130568D01*
X166460275Y-106157618D01*
X166512714Y-106203791D01*
X166531866Y-106270984D01*
X166511650Y-106337865D01*
X166460275Y-106382382D01*
X166402267Y-106409431D01*
X166402265Y-106409432D01*
X166215858Y-106539954D01*
X166054954Y-106700858D01*
X165924432Y-106887265D01*
X165924431Y-106887267D01*
X165828261Y-107093502D01*
X165828258Y-107093511D01*
X165769366Y-107313302D01*
X165769364Y-107313313D01*
X165749532Y-107539998D01*
X165749532Y-107540001D01*
X165769364Y-107766686D01*
X165769366Y-107766697D01*
X165828258Y-107986488D01*
X165828261Y-107986497D01*
X165924431Y-108192732D01*
X165924432Y-108192734D01*
X166054954Y-108379141D01*
X166215858Y-108540045D01*
X166215861Y-108540047D01*
X166402266Y-108670568D01*
X166608504Y-108766739D01*
X166828308Y-108825635D01*
X166990230Y-108839801D01*
X167054998Y-108845468D01*
X167055000Y-108845468D01*
X167055002Y-108845468D01*
X167111673Y-108840509D01*
X167281692Y-108825635D01*
X167501496Y-108766739D01*
X167707734Y-108670568D01*
X167894139Y-108540047D01*
X168055047Y-108379139D01*
X168185568Y-108192734D01*
X168281739Y-107986496D01*
X168340635Y-107766692D01*
X168360468Y-107540000D01*
X168340635Y-107313308D01*
X168281739Y-107093504D01*
X168185568Y-106887266D01*
X168068725Y-106720396D01*
X168055045Y-106700858D01*
X167894141Y-106539954D01*
X167707734Y-106409432D01*
X167707728Y-106409429D01*
X167649725Y-106382382D01*
X167597285Y-106336210D01*
X167578133Y-106269017D01*
X167598348Y-106202135D01*
X167649725Y-106157618D01*
X167707734Y-106130568D01*
X167894139Y-106000047D01*
X168055047Y-105839139D01*
X168185568Y-105652734D01*
X168281739Y-105446496D01*
X168340635Y-105226692D01*
X168360468Y-105000000D01*
X168340635Y-104773308D01*
X168281739Y-104553504D01*
X168185568Y-104347266D01*
X168055047Y-104160861D01*
X168055045Y-104160858D01*
X167894141Y-103999954D01*
X167707734Y-103869432D01*
X167707728Y-103869429D01*
X167649725Y-103842382D01*
X167597285Y-103796210D01*
X167578133Y-103729017D01*
X167598348Y-103662135D01*
X167649725Y-103617618D01*
X167707734Y-103590568D01*
X167894139Y-103460047D01*
X168055047Y-103299139D01*
X168185568Y-103112734D01*
X168281739Y-102906496D01*
X168340635Y-102686692D01*
X168360468Y-102460000D01*
X168340635Y-102233308D01*
X168281739Y-102013504D01*
X168185568Y-101807266D01*
X168055047Y-101620861D01*
X168055045Y-101620858D01*
X167894141Y-101459954D01*
X167707734Y-101329432D01*
X167707728Y-101329429D01*
X167649725Y-101302382D01*
X167597285Y-101256210D01*
X167578133Y-101189017D01*
X167598348Y-101122135D01*
X167649725Y-101077618D01*
X167707734Y-101050568D01*
X167894139Y-100920047D01*
X168055047Y-100759139D01*
X168185568Y-100572734D01*
X168281739Y-100366496D01*
X168340635Y-100146692D01*
X168360468Y-99920000D01*
X168340635Y-99693308D01*
X168281739Y-99473504D01*
X168185568Y-99267266D01*
X168055047Y-99080861D01*
X168055045Y-99080858D01*
X167894141Y-98919954D01*
X167707734Y-98789432D01*
X167707728Y-98789429D01*
X167649725Y-98762382D01*
X167597285Y-98716210D01*
X167578133Y-98649017D01*
X167598348Y-98582135D01*
X167649725Y-98537618D01*
X167707734Y-98510568D01*
X167894139Y-98380047D01*
X168055047Y-98219139D01*
X168185568Y-98032734D01*
X168281739Y-97826496D01*
X168340635Y-97606692D01*
X168360468Y-97380000D01*
X168340635Y-97153308D01*
X168281739Y-96933504D01*
X168185568Y-96727266D01*
X168075028Y-96569397D01*
X168055045Y-96540858D01*
X167894141Y-96379954D01*
X167707734Y-96249432D01*
X167707728Y-96249429D01*
X167649725Y-96222382D01*
X167597285Y-96176210D01*
X167578133Y-96109017D01*
X167598348Y-96042135D01*
X167649725Y-95997618D01*
X167707734Y-95970568D01*
X167894139Y-95840047D01*
X168055047Y-95679139D01*
X168185568Y-95492734D01*
X168281739Y-95286496D01*
X168340635Y-95066692D01*
X168360468Y-94840000D01*
X168360468Y-94839998D01*
X170564532Y-94839998D01*
X170564532Y-94840001D01*
X170584364Y-95066686D01*
X170584366Y-95066697D01*
X170643258Y-95286488D01*
X170643261Y-95286497D01*
X170739431Y-95492732D01*
X170739432Y-95492734D01*
X170869954Y-95679141D01*
X171030858Y-95840045D01*
X171030861Y-95840047D01*
X171217266Y-95970568D01*
X171275275Y-95997618D01*
X171327714Y-96043791D01*
X171346866Y-96110984D01*
X171326650Y-96177865D01*
X171275275Y-96222382D01*
X171217267Y-96249431D01*
X171217265Y-96249432D01*
X171030858Y-96379954D01*
X170869954Y-96540858D01*
X170739432Y-96727265D01*
X170739431Y-96727267D01*
X170643261Y-96933502D01*
X170643258Y-96933511D01*
X170584366Y-97153302D01*
X170584364Y-97153313D01*
X170564532Y-97379998D01*
X170564532Y-97380001D01*
X170584364Y-97606686D01*
X170584366Y-97606697D01*
X170643258Y-97826488D01*
X170643261Y-97826497D01*
X170739431Y-98032732D01*
X170739432Y-98032734D01*
X170869954Y-98219141D01*
X171030858Y-98380045D01*
X171030861Y-98380047D01*
X171217266Y-98510568D01*
X171275275Y-98537618D01*
X171327714Y-98583791D01*
X171346866Y-98650984D01*
X171326650Y-98717865D01*
X171275275Y-98762382D01*
X171217267Y-98789431D01*
X171217265Y-98789432D01*
X171030858Y-98919954D01*
X170869954Y-99080858D01*
X170739432Y-99267265D01*
X170739431Y-99267267D01*
X170643261Y-99473502D01*
X170643258Y-99473511D01*
X170584366Y-99693302D01*
X170584364Y-99693313D01*
X170564532Y-99919998D01*
X170564532Y-99920001D01*
X170584364Y-100146686D01*
X170584366Y-100146697D01*
X170643258Y-100366488D01*
X170643261Y-100366497D01*
X170739431Y-100572732D01*
X170739432Y-100572734D01*
X170869954Y-100759141D01*
X171030858Y-100920045D01*
X171030861Y-100920047D01*
X171217266Y-101050568D01*
X171275275Y-101077618D01*
X171327714Y-101123791D01*
X171346866Y-101190984D01*
X171326650Y-101257865D01*
X171275275Y-101302382D01*
X171217267Y-101329431D01*
X171217265Y-101329432D01*
X171030858Y-101459954D01*
X170869954Y-101620858D01*
X170739432Y-101807265D01*
X170739431Y-101807267D01*
X170643261Y-102013502D01*
X170643258Y-102013511D01*
X170584366Y-102233302D01*
X170584364Y-102233313D01*
X170564532Y-102459998D01*
X170564532Y-102460001D01*
X170584364Y-102686686D01*
X170584366Y-102686697D01*
X170643258Y-102906488D01*
X170643261Y-102906497D01*
X170739431Y-103112732D01*
X170739432Y-103112734D01*
X170869954Y-103299141D01*
X171030858Y-103460045D01*
X171030861Y-103460047D01*
X171217266Y-103590568D01*
X171275275Y-103617618D01*
X171327714Y-103663791D01*
X171346866Y-103730984D01*
X171326650Y-103797865D01*
X171275275Y-103842382D01*
X171217267Y-103869431D01*
X171217265Y-103869432D01*
X171030858Y-103999954D01*
X170869954Y-104160858D01*
X170739432Y-104347265D01*
X170739431Y-104347267D01*
X170643261Y-104553502D01*
X170643258Y-104553511D01*
X170584366Y-104773302D01*
X170584364Y-104773313D01*
X170564532Y-104999998D01*
X170564532Y-105000001D01*
X170584364Y-105226686D01*
X170584366Y-105226697D01*
X170643258Y-105446488D01*
X170643261Y-105446497D01*
X170739431Y-105652732D01*
X170739432Y-105652734D01*
X170869954Y-105839141D01*
X171030858Y-106000045D01*
X171030861Y-106000047D01*
X171217266Y-106130568D01*
X171423504Y-106226739D01*
X171643308Y-106285635D01*
X171805230Y-106299801D01*
X171869998Y-106305468D01*
X171870000Y-106305468D01*
X171870002Y-106305468D01*
X171926673Y-106300509D01*
X172096692Y-106285635D01*
X172316496Y-106226739D01*
X172522734Y-106130568D01*
X172709139Y-106000047D01*
X172870047Y-105839139D01*
X173000568Y-105652734D01*
X173096739Y-105446496D01*
X173155635Y-105226692D01*
X173175468Y-105000000D01*
X173155635Y-104773308D01*
X173096739Y-104553504D01*
X173000568Y-104347266D01*
X172870047Y-104160861D01*
X172870045Y-104160858D01*
X172709141Y-103999954D01*
X172522734Y-103869432D01*
X172522728Y-103869429D01*
X172464725Y-103842382D01*
X172412285Y-103796210D01*
X172393133Y-103729017D01*
X172413348Y-103662135D01*
X172464725Y-103617618D01*
X172522734Y-103590568D01*
X172709139Y-103460047D01*
X172870047Y-103299139D01*
X173000568Y-103112734D01*
X173096739Y-102906496D01*
X173155635Y-102686692D01*
X173175468Y-102460000D01*
X173155635Y-102233308D01*
X173096739Y-102013504D01*
X173000568Y-101807266D01*
X172870047Y-101620861D01*
X172870045Y-101620858D01*
X172709141Y-101459954D01*
X172522734Y-101329432D01*
X172522728Y-101329429D01*
X172464725Y-101302382D01*
X172412285Y-101256210D01*
X172393133Y-101189017D01*
X172413348Y-101122135D01*
X172464725Y-101077618D01*
X172522734Y-101050568D01*
X172709139Y-100920047D01*
X172870047Y-100759139D01*
X173000568Y-100572734D01*
X173096739Y-100366496D01*
X173155635Y-100146692D01*
X173175468Y-99920000D01*
X173155635Y-99693308D01*
X173096739Y-99473504D01*
X173000568Y-99267266D01*
X172870047Y-99080861D01*
X172870045Y-99080858D01*
X172709141Y-98919954D01*
X172522734Y-98789432D01*
X172522728Y-98789429D01*
X172464725Y-98762382D01*
X172412285Y-98716210D01*
X172393133Y-98649017D01*
X172413348Y-98582135D01*
X172464725Y-98537618D01*
X172522734Y-98510568D01*
X172709139Y-98380047D01*
X172870047Y-98219139D01*
X173000568Y-98032734D01*
X173096739Y-97826496D01*
X173155635Y-97606692D01*
X173175468Y-97380000D01*
X173155635Y-97153308D01*
X173096739Y-96933504D01*
X173000568Y-96727266D01*
X172890028Y-96569397D01*
X172870045Y-96540858D01*
X172709141Y-96379954D01*
X172522734Y-96249432D01*
X172522728Y-96249429D01*
X172464725Y-96222382D01*
X172412285Y-96176210D01*
X172393133Y-96109017D01*
X172413348Y-96042135D01*
X172464725Y-95997618D01*
X172522734Y-95970568D01*
X172709139Y-95840047D01*
X172870047Y-95679139D01*
X173000568Y-95492734D01*
X173096739Y-95286496D01*
X173155635Y-95066692D01*
X173175468Y-94840000D01*
X173155635Y-94613308D01*
X173096739Y-94393504D01*
X173000568Y-94187266D01*
X172870047Y-94000861D01*
X172870045Y-94000858D01*
X172709143Y-93839956D01*
X172684536Y-93822726D01*
X172640912Y-93768149D01*
X172633719Y-93698650D01*
X172665241Y-93636296D01*
X172725471Y-93600882D01*
X172742404Y-93597861D01*
X172777483Y-93594091D01*
X172912331Y-93543796D01*
X173027546Y-93457546D01*
X173113796Y-93342331D01*
X173164091Y-93207483D01*
X173170500Y-93147873D01*
X173170499Y-92299998D01*
X178184532Y-92299998D01*
X178184532Y-92300001D01*
X178204364Y-92526686D01*
X178204366Y-92526697D01*
X178263258Y-92746488D01*
X178263261Y-92746497D01*
X178359431Y-92952732D01*
X178359432Y-92952734D01*
X178489954Y-93139141D01*
X178650858Y-93300045D01*
X178676905Y-93318283D01*
X178837266Y-93430568D01*
X178895275Y-93457618D01*
X178947714Y-93503791D01*
X178966866Y-93570984D01*
X178946650Y-93637865D01*
X178895275Y-93682382D01*
X178837267Y-93709431D01*
X178837265Y-93709432D01*
X178650858Y-93839954D01*
X178489954Y-94000858D01*
X178359432Y-94187265D01*
X178359431Y-94187267D01*
X178263261Y-94393502D01*
X178263258Y-94393511D01*
X178204366Y-94613302D01*
X178204364Y-94613313D01*
X178184532Y-94839998D01*
X178184532Y-94840001D01*
X178204364Y-95066686D01*
X178204366Y-95066697D01*
X178263258Y-95286488D01*
X178263261Y-95286497D01*
X178359431Y-95492732D01*
X178359432Y-95492734D01*
X178489954Y-95679141D01*
X178650858Y-95840045D01*
X178650861Y-95840047D01*
X178837266Y-95970568D01*
X178895275Y-95997618D01*
X178947714Y-96043791D01*
X178966866Y-96110984D01*
X178946650Y-96177865D01*
X178895275Y-96222382D01*
X178837267Y-96249431D01*
X178837265Y-96249432D01*
X178650858Y-96379954D01*
X178489954Y-96540858D01*
X178359432Y-96727265D01*
X178359431Y-96727267D01*
X178263261Y-96933502D01*
X178263258Y-96933511D01*
X178204366Y-97153302D01*
X178204364Y-97153313D01*
X178184532Y-97379998D01*
X178184532Y-97380001D01*
X178204364Y-97606686D01*
X178204366Y-97606697D01*
X178263258Y-97826488D01*
X178263261Y-97826497D01*
X178359431Y-98032732D01*
X178359432Y-98032734D01*
X178489954Y-98219141D01*
X178650858Y-98380045D01*
X178650861Y-98380047D01*
X178837266Y-98510568D01*
X178895275Y-98537618D01*
X178947714Y-98583791D01*
X178966866Y-98650984D01*
X178946650Y-98717865D01*
X178895275Y-98762382D01*
X178837267Y-98789431D01*
X178837265Y-98789432D01*
X178650858Y-98919954D01*
X178489954Y-99080858D01*
X178359432Y-99267265D01*
X178359431Y-99267267D01*
X178263261Y-99473502D01*
X178263258Y-99473511D01*
X178204366Y-99693302D01*
X178204364Y-99693313D01*
X178184532Y-99919998D01*
X178184532Y-99920001D01*
X178204364Y-100146686D01*
X178204366Y-100146697D01*
X178263258Y-100366488D01*
X178263261Y-100366497D01*
X178359431Y-100572732D01*
X178359432Y-100572734D01*
X178489954Y-100759141D01*
X178650858Y-100920045D01*
X178650861Y-100920047D01*
X178837266Y-101050568D01*
X178895275Y-101077618D01*
X178947714Y-101123791D01*
X178966866Y-101190984D01*
X178946650Y-101257865D01*
X178895275Y-101302382D01*
X178837267Y-101329431D01*
X178837265Y-101329432D01*
X178650858Y-101459954D01*
X178489954Y-101620858D01*
X178359432Y-101807265D01*
X178359431Y-101807267D01*
X178263261Y-102013502D01*
X178263258Y-102013511D01*
X178204366Y-102233302D01*
X178204364Y-102233313D01*
X178184532Y-102459998D01*
X178184532Y-102460001D01*
X178204364Y-102686686D01*
X178204366Y-102686697D01*
X178263258Y-102906488D01*
X178263261Y-102906497D01*
X178359431Y-103112732D01*
X178359432Y-103112734D01*
X178489954Y-103299141D01*
X178650858Y-103460045D01*
X178650861Y-103460047D01*
X178837266Y-103590568D01*
X178895275Y-103617618D01*
X178947714Y-103663791D01*
X178966866Y-103730984D01*
X178946650Y-103797865D01*
X178895275Y-103842382D01*
X178837267Y-103869431D01*
X178837265Y-103869432D01*
X178650858Y-103999954D01*
X178489954Y-104160858D01*
X178359432Y-104347265D01*
X178359431Y-104347267D01*
X178263261Y-104553502D01*
X178263258Y-104553511D01*
X178204366Y-104773302D01*
X178204364Y-104773313D01*
X178184532Y-104999998D01*
X178184532Y-105000001D01*
X178204364Y-105226686D01*
X178204366Y-105226697D01*
X178263258Y-105446488D01*
X178263261Y-105446497D01*
X178359431Y-105652732D01*
X178359432Y-105652734D01*
X178489954Y-105839141D01*
X178650858Y-106000045D01*
X178650861Y-106000047D01*
X178837266Y-106130568D01*
X178895275Y-106157618D01*
X178947714Y-106203791D01*
X178966866Y-106270984D01*
X178946650Y-106337865D01*
X178895275Y-106382382D01*
X178837267Y-106409431D01*
X178837265Y-106409432D01*
X178650858Y-106539954D01*
X178489954Y-106700858D01*
X178359432Y-106887265D01*
X178359431Y-106887267D01*
X178263261Y-107093502D01*
X178263258Y-107093511D01*
X178204366Y-107313302D01*
X178204364Y-107313313D01*
X178184532Y-107539998D01*
X178184532Y-107540001D01*
X178204364Y-107766686D01*
X178204366Y-107766697D01*
X178263258Y-107986488D01*
X178263261Y-107986497D01*
X178359431Y-108192732D01*
X178359432Y-108192734D01*
X178489954Y-108379141D01*
X178650858Y-108540045D01*
X178650861Y-108540047D01*
X178837266Y-108670568D01*
X179043504Y-108766739D01*
X179263308Y-108825635D01*
X179425230Y-108839801D01*
X179489998Y-108845468D01*
X179490000Y-108845468D01*
X179490002Y-108845468D01*
X179546673Y-108840509D01*
X179716692Y-108825635D01*
X179936496Y-108766739D01*
X180142734Y-108670568D01*
X180329139Y-108540047D01*
X180490047Y-108379139D01*
X180620568Y-108192734D01*
X180716739Y-107986496D01*
X180775635Y-107766692D01*
X180795468Y-107540000D01*
X180775635Y-107313308D01*
X180716739Y-107093504D01*
X180620568Y-106887266D01*
X180503725Y-106720396D01*
X180490045Y-106700858D01*
X180329141Y-106539954D01*
X180142734Y-106409432D01*
X180142728Y-106409429D01*
X180084725Y-106382382D01*
X180032285Y-106336210D01*
X180013133Y-106269017D01*
X180033348Y-106202135D01*
X180084725Y-106157618D01*
X180142734Y-106130568D01*
X180329139Y-106000047D01*
X180490047Y-105839139D01*
X180620568Y-105652734D01*
X180716739Y-105446496D01*
X180775635Y-105226692D01*
X180795468Y-105000000D01*
X180775635Y-104773308D01*
X180716739Y-104553504D01*
X180620568Y-104347266D01*
X180490047Y-104160861D01*
X180490045Y-104160858D01*
X180329141Y-103999954D01*
X180142734Y-103869432D01*
X180142728Y-103869429D01*
X180084725Y-103842382D01*
X180032285Y-103796210D01*
X180013133Y-103729017D01*
X180033348Y-103662135D01*
X180084725Y-103617618D01*
X180142734Y-103590568D01*
X180329139Y-103460047D01*
X180490047Y-103299139D01*
X180620568Y-103112734D01*
X180716739Y-102906496D01*
X180775635Y-102686692D01*
X180795468Y-102460000D01*
X180775635Y-102233308D01*
X180716739Y-102013504D01*
X180620568Y-101807266D01*
X180490047Y-101620861D01*
X180490045Y-101620858D01*
X180329141Y-101459954D01*
X180142734Y-101329432D01*
X180142728Y-101329429D01*
X180084725Y-101302382D01*
X180032285Y-101256210D01*
X180013133Y-101189017D01*
X180033348Y-101122135D01*
X180084725Y-101077618D01*
X180142734Y-101050568D01*
X180329139Y-100920047D01*
X180490047Y-100759139D01*
X180620568Y-100572734D01*
X180716739Y-100366496D01*
X180775635Y-100146692D01*
X180795468Y-99920000D01*
X180775635Y-99693308D01*
X180716739Y-99473504D01*
X180620568Y-99267266D01*
X180490047Y-99080861D01*
X180490045Y-99080858D01*
X180329141Y-98919954D01*
X180142734Y-98789432D01*
X180142728Y-98789429D01*
X180084725Y-98762382D01*
X180032285Y-98716210D01*
X180013133Y-98649017D01*
X180033348Y-98582135D01*
X180084725Y-98537618D01*
X180142734Y-98510568D01*
X180329139Y-98380047D01*
X180490047Y-98219139D01*
X180620568Y-98032734D01*
X180716739Y-97826496D01*
X180775635Y-97606692D01*
X180795468Y-97380000D01*
X180775635Y-97153308D01*
X180716739Y-96933504D01*
X180620568Y-96727266D01*
X180510028Y-96569397D01*
X180490045Y-96540858D01*
X180329141Y-96379954D01*
X180142734Y-96249432D01*
X180142728Y-96249429D01*
X180084725Y-96222382D01*
X180032285Y-96176210D01*
X180013133Y-96109017D01*
X180033348Y-96042135D01*
X180084725Y-95997618D01*
X180142734Y-95970568D01*
X180329139Y-95840047D01*
X180490047Y-95679139D01*
X180620568Y-95492734D01*
X180716739Y-95286496D01*
X180775635Y-95066692D01*
X180795468Y-94840000D01*
X180795468Y-94839998D01*
X182999532Y-94839998D01*
X182999532Y-94840001D01*
X183019364Y-95066686D01*
X183019366Y-95066697D01*
X183078258Y-95286488D01*
X183078261Y-95286497D01*
X183174431Y-95492732D01*
X183174432Y-95492734D01*
X183304954Y-95679141D01*
X183465858Y-95840045D01*
X183465861Y-95840047D01*
X183652266Y-95970568D01*
X183710275Y-95997618D01*
X183762714Y-96043791D01*
X183781866Y-96110984D01*
X183761650Y-96177865D01*
X183710275Y-96222382D01*
X183652267Y-96249431D01*
X183652265Y-96249432D01*
X183465858Y-96379954D01*
X183304954Y-96540858D01*
X183174432Y-96727265D01*
X183174431Y-96727267D01*
X183078261Y-96933502D01*
X183078258Y-96933511D01*
X183019366Y-97153302D01*
X183019364Y-97153313D01*
X182999532Y-97379998D01*
X182999532Y-97380001D01*
X183019364Y-97606686D01*
X183019366Y-97606697D01*
X183078258Y-97826488D01*
X183078261Y-97826497D01*
X183174431Y-98032732D01*
X183174432Y-98032734D01*
X183304954Y-98219141D01*
X183465858Y-98380045D01*
X183465861Y-98380047D01*
X183652266Y-98510568D01*
X183710275Y-98537618D01*
X183762714Y-98583791D01*
X183781866Y-98650984D01*
X183761650Y-98717865D01*
X183710275Y-98762382D01*
X183652267Y-98789431D01*
X183652265Y-98789432D01*
X183465858Y-98919954D01*
X183304954Y-99080858D01*
X183174432Y-99267265D01*
X183174431Y-99267267D01*
X183078261Y-99473502D01*
X183078258Y-99473511D01*
X183019366Y-99693302D01*
X183019364Y-99693313D01*
X182999532Y-99919998D01*
X182999532Y-99920001D01*
X183019364Y-100146686D01*
X183019366Y-100146697D01*
X183078258Y-100366488D01*
X183078261Y-100366497D01*
X183174431Y-100572732D01*
X183174432Y-100572734D01*
X183304954Y-100759141D01*
X183465858Y-100920045D01*
X183465861Y-100920047D01*
X183652266Y-101050568D01*
X183710275Y-101077618D01*
X183762714Y-101123791D01*
X183781866Y-101190984D01*
X183761650Y-101257865D01*
X183710275Y-101302382D01*
X183652267Y-101329431D01*
X183652265Y-101329432D01*
X183465858Y-101459954D01*
X183304954Y-101620858D01*
X183174432Y-101807265D01*
X183174431Y-101807267D01*
X183078261Y-102013502D01*
X183078258Y-102013511D01*
X183019366Y-102233302D01*
X183019364Y-102233313D01*
X182999532Y-102459998D01*
X182999532Y-102460001D01*
X183019364Y-102686686D01*
X183019366Y-102686697D01*
X183078258Y-102906488D01*
X183078261Y-102906497D01*
X183174431Y-103112732D01*
X183174432Y-103112734D01*
X183304954Y-103299141D01*
X183465858Y-103460045D01*
X183465861Y-103460047D01*
X183652266Y-103590568D01*
X183710275Y-103617618D01*
X183762714Y-103663791D01*
X183781866Y-103730984D01*
X183761650Y-103797865D01*
X183710275Y-103842382D01*
X183652267Y-103869431D01*
X183652265Y-103869432D01*
X183465858Y-103999954D01*
X183304954Y-104160858D01*
X183174432Y-104347265D01*
X183174431Y-104347267D01*
X183078261Y-104553502D01*
X183078258Y-104553511D01*
X183019366Y-104773302D01*
X183019364Y-104773313D01*
X182999532Y-104999998D01*
X182999532Y-105000001D01*
X183019364Y-105226686D01*
X183019366Y-105226697D01*
X183078258Y-105446488D01*
X183078261Y-105446497D01*
X183174431Y-105652732D01*
X183174432Y-105652734D01*
X183304954Y-105839141D01*
X183465858Y-106000045D01*
X183465861Y-106000047D01*
X183652266Y-106130568D01*
X183858504Y-106226739D01*
X184078308Y-106285635D01*
X184240230Y-106299801D01*
X184304998Y-106305468D01*
X184305000Y-106305468D01*
X184305002Y-106305468D01*
X184361673Y-106300509D01*
X184531692Y-106285635D01*
X184751496Y-106226739D01*
X184957734Y-106130568D01*
X185144139Y-106000047D01*
X185305047Y-105839139D01*
X185435568Y-105652734D01*
X185531739Y-105446496D01*
X185590635Y-105226692D01*
X185610468Y-105000000D01*
X185590635Y-104773308D01*
X185531739Y-104553504D01*
X185435568Y-104347266D01*
X185305047Y-104160861D01*
X185305045Y-104160858D01*
X185144141Y-103999954D01*
X184957734Y-103869432D01*
X184957728Y-103869429D01*
X184899725Y-103842382D01*
X184847285Y-103796210D01*
X184828133Y-103729017D01*
X184848348Y-103662135D01*
X184899725Y-103617618D01*
X184957734Y-103590568D01*
X185144139Y-103460047D01*
X185305047Y-103299139D01*
X185435568Y-103112734D01*
X185531739Y-102906496D01*
X185590635Y-102686692D01*
X185610468Y-102460000D01*
X185590635Y-102233308D01*
X185531739Y-102013504D01*
X185435568Y-101807266D01*
X185305047Y-101620861D01*
X185305045Y-101620858D01*
X185144141Y-101459954D01*
X184957734Y-101329432D01*
X184957728Y-101329429D01*
X184899725Y-101302382D01*
X184847285Y-101256210D01*
X184828133Y-101189017D01*
X184848348Y-101122135D01*
X184899725Y-101077618D01*
X184957734Y-101050568D01*
X185144139Y-100920047D01*
X185305047Y-100759139D01*
X185435568Y-100572734D01*
X185531739Y-100366496D01*
X185590635Y-100146692D01*
X185610468Y-99920000D01*
X185590635Y-99693308D01*
X185531739Y-99473504D01*
X185435568Y-99267266D01*
X185305047Y-99080861D01*
X185305045Y-99080858D01*
X185144141Y-98919954D01*
X184957734Y-98789432D01*
X184957728Y-98789429D01*
X184899725Y-98762382D01*
X184847285Y-98716210D01*
X184828133Y-98649017D01*
X184848348Y-98582135D01*
X184899725Y-98537618D01*
X184957734Y-98510568D01*
X185144139Y-98380047D01*
X185305047Y-98219139D01*
X185435568Y-98032734D01*
X185531739Y-97826496D01*
X185590635Y-97606692D01*
X185610468Y-97380000D01*
X185610468Y-97379998D01*
X190619532Y-97379998D01*
X190619532Y-97380001D01*
X190639364Y-97606686D01*
X190639366Y-97606697D01*
X190698258Y-97826488D01*
X190698261Y-97826497D01*
X190794431Y-98032732D01*
X190794432Y-98032734D01*
X190924954Y-98219141D01*
X191085858Y-98380045D01*
X191085861Y-98380047D01*
X191272266Y-98510568D01*
X191330275Y-98537618D01*
X191382714Y-98583791D01*
X191401866Y-98650984D01*
X191381650Y-98717865D01*
X191330275Y-98762382D01*
X191272267Y-98789431D01*
X191272265Y-98789432D01*
X191085858Y-98919954D01*
X190924954Y-99080858D01*
X190794432Y-99267265D01*
X190794431Y-99267267D01*
X190698261Y-99473502D01*
X190698258Y-99473511D01*
X190639366Y-99693302D01*
X190639364Y-99693313D01*
X190619532Y-99919998D01*
X190619532Y-99920001D01*
X190639364Y-100146686D01*
X190639366Y-100146697D01*
X190698258Y-100366488D01*
X190698261Y-100366497D01*
X190794431Y-100572732D01*
X190794432Y-100572734D01*
X190924954Y-100759141D01*
X191085858Y-100920045D01*
X191085861Y-100920047D01*
X191272266Y-101050568D01*
X191330275Y-101077618D01*
X191382714Y-101123791D01*
X191401866Y-101190984D01*
X191381650Y-101257865D01*
X191330275Y-101302382D01*
X191272267Y-101329431D01*
X191272265Y-101329432D01*
X191085858Y-101459954D01*
X190924954Y-101620858D01*
X190794432Y-101807265D01*
X190794431Y-101807267D01*
X190698261Y-102013502D01*
X190698258Y-102013511D01*
X190639366Y-102233302D01*
X190639364Y-102233313D01*
X190619532Y-102459998D01*
X190619532Y-102460001D01*
X190639364Y-102686686D01*
X190639366Y-102686697D01*
X190698258Y-102906488D01*
X190698261Y-102906497D01*
X190794431Y-103112732D01*
X190794432Y-103112734D01*
X190924954Y-103299141D01*
X191085858Y-103460045D01*
X191085861Y-103460047D01*
X191272266Y-103590568D01*
X191330275Y-103617618D01*
X191382714Y-103663791D01*
X191401866Y-103730984D01*
X191381650Y-103797865D01*
X191330275Y-103842382D01*
X191272267Y-103869431D01*
X191272265Y-103869432D01*
X191085858Y-103999954D01*
X190924954Y-104160858D01*
X190794432Y-104347265D01*
X190794431Y-104347267D01*
X190698261Y-104553502D01*
X190698258Y-104553511D01*
X190639366Y-104773302D01*
X190639364Y-104773313D01*
X190619532Y-104999998D01*
X190619532Y-105000001D01*
X190639364Y-105226686D01*
X190639366Y-105226697D01*
X190698258Y-105446488D01*
X190698261Y-105446497D01*
X190794431Y-105652732D01*
X190794432Y-105652734D01*
X190924954Y-105839141D01*
X191085858Y-106000045D01*
X191085861Y-106000047D01*
X191272266Y-106130568D01*
X191330275Y-106157618D01*
X191382714Y-106203791D01*
X191401866Y-106270984D01*
X191381650Y-106337865D01*
X191330275Y-106382382D01*
X191272267Y-106409431D01*
X191272265Y-106409432D01*
X191085858Y-106539954D01*
X190924954Y-106700858D01*
X190794432Y-106887265D01*
X190794431Y-106887267D01*
X190698261Y-107093502D01*
X190698258Y-107093511D01*
X190639366Y-107313302D01*
X190639364Y-107313313D01*
X190619532Y-107539998D01*
X190619532Y-107540001D01*
X190639364Y-107766686D01*
X190639366Y-107766697D01*
X190698258Y-107986488D01*
X190698261Y-107986497D01*
X190794431Y-108192732D01*
X190794432Y-108192734D01*
X190924954Y-108379141D01*
X191085858Y-108540045D01*
X191085861Y-108540047D01*
X191272266Y-108670568D01*
X191478504Y-108766739D01*
X191698308Y-108825635D01*
X191860230Y-108839801D01*
X191924998Y-108845468D01*
X191925000Y-108845468D01*
X191925002Y-108845468D01*
X191981673Y-108840509D01*
X192151692Y-108825635D01*
X192371496Y-108766739D01*
X192577734Y-108670568D01*
X192764139Y-108540047D01*
X192925047Y-108379139D01*
X193055568Y-108192734D01*
X193151739Y-107986496D01*
X193210635Y-107766692D01*
X193230468Y-107540000D01*
X193214282Y-107354998D01*
X199660332Y-107354998D01*
X199660332Y-107355001D01*
X199680164Y-107581686D01*
X199680166Y-107581697D01*
X199739058Y-107801488D01*
X199739061Y-107801497D01*
X199835231Y-108007732D01*
X199835232Y-108007734D01*
X199965754Y-108194141D01*
X200126658Y-108355045D01*
X200126661Y-108355047D01*
X200313066Y-108485568D01*
X200519304Y-108581739D01*
X200739108Y-108640635D01*
X200901030Y-108654801D01*
X200965798Y-108660468D01*
X200965800Y-108660468D01*
X200965802Y-108660468D01*
X201022473Y-108655509D01*
X201192492Y-108640635D01*
X201412296Y-108581739D01*
X201618534Y-108485568D01*
X201804939Y-108355047D01*
X201965847Y-108194139D01*
X202096368Y-108007734D01*
X202192539Y-107801496D01*
X202251435Y-107581692D01*
X202269484Y-107375386D01*
X202271268Y-107355001D01*
X202271268Y-107354998D01*
X202260374Y-107230478D01*
X202251435Y-107128308D01*
X202192539Y-106908504D01*
X202096368Y-106702266D01*
X201965847Y-106515861D01*
X201965845Y-106515858D01*
X201804941Y-106354954D01*
X201618534Y-106224432D01*
X201618532Y-106224431D01*
X201412297Y-106128261D01*
X201412288Y-106128258D01*
X201192497Y-106069366D01*
X201192493Y-106069365D01*
X201192492Y-106069365D01*
X201192491Y-106069364D01*
X201192486Y-106069364D01*
X200965802Y-106049532D01*
X200965798Y-106049532D01*
X200739113Y-106069364D01*
X200739102Y-106069366D01*
X200519311Y-106128258D01*
X200519302Y-106128261D01*
X200313067Y-106224431D01*
X200313065Y-106224432D01*
X200126658Y-106354954D01*
X199965754Y-106515858D01*
X199835232Y-106702265D01*
X199835231Y-106702267D01*
X199739061Y-106908502D01*
X199739058Y-106908511D01*
X199680166Y-107128302D01*
X199680164Y-107128313D01*
X199660332Y-107354998D01*
X193214282Y-107354998D01*
X193210635Y-107313308D01*
X193151739Y-107093504D01*
X193055568Y-106887266D01*
X192938725Y-106720396D01*
X192925045Y-106700858D01*
X192764141Y-106539954D01*
X192577734Y-106409432D01*
X192577728Y-106409429D01*
X192519725Y-106382382D01*
X192467285Y-106336210D01*
X192448133Y-106269017D01*
X192468348Y-106202135D01*
X192519725Y-106157618D01*
X192577734Y-106130568D01*
X192764139Y-106000047D01*
X192925047Y-105839139D01*
X193055568Y-105652734D01*
X193151739Y-105446496D01*
X193210635Y-105226692D01*
X193230468Y-105000000D01*
X193210635Y-104773308D01*
X193151739Y-104553504D01*
X193055568Y-104347266D01*
X192925047Y-104160861D01*
X192925045Y-104160858D01*
X192764141Y-103999954D01*
X192577734Y-103869432D01*
X192577728Y-103869429D01*
X192519725Y-103842382D01*
X192467285Y-103796210D01*
X192448133Y-103729017D01*
X192468348Y-103662135D01*
X192519725Y-103617618D01*
X192577734Y-103590568D01*
X192764139Y-103460047D01*
X192925047Y-103299139D01*
X193055568Y-103112734D01*
X193151739Y-102906496D01*
X193210635Y-102686692D01*
X193230468Y-102460000D01*
X193210635Y-102233308D01*
X193151739Y-102013504D01*
X193055568Y-101807266D01*
X192925047Y-101620861D01*
X192925045Y-101620858D01*
X192764141Y-101459954D01*
X192577734Y-101329432D01*
X192577728Y-101329429D01*
X192519725Y-101302382D01*
X192467285Y-101256210D01*
X192448133Y-101189017D01*
X192468348Y-101122135D01*
X192470586Y-101120196D01*
X210097135Y-101120196D01*
X210097135Y-101120203D01*
X210117330Y-101299449D01*
X210117331Y-101299454D01*
X210176911Y-101469723D01*
X210191101Y-101492306D01*
X210272884Y-101622462D01*
X210400438Y-101750016D01*
X210490780Y-101806782D01*
X210548371Y-101842969D01*
X210553178Y-101845989D01*
X210666886Y-101885777D01*
X210723445Y-101905568D01*
X210723450Y-101905569D01*
X210902696Y-101925765D01*
X210902700Y-101925765D01*
X210902704Y-101925765D01*
X211081949Y-101905569D01*
X211081952Y-101905568D01*
X211081955Y-101905568D01*
X211252222Y-101845989D01*
X211404962Y-101750016D01*
X211532516Y-101622462D01*
X211628489Y-101469722D01*
X211688068Y-101299455D01*
X211688434Y-101296210D01*
X211708265Y-101120203D01*
X211708265Y-101120196D01*
X211688069Y-100940950D01*
X211688068Y-100940945D01*
X211680755Y-100920045D01*
X211628489Y-100770678D01*
X211532516Y-100617938D01*
X211404962Y-100490384D01*
X211252223Y-100394411D01*
X211081954Y-100334831D01*
X211081949Y-100334830D01*
X210902704Y-100314635D01*
X210902696Y-100314635D01*
X210723450Y-100334830D01*
X210723445Y-100334831D01*
X210553176Y-100394411D01*
X210400437Y-100490384D01*
X210272884Y-100617937D01*
X210176911Y-100770676D01*
X210117331Y-100940945D01*
X210117330Y-100940950D01*
X210097135Y-101120196D01*
X192470586Y-101120196D01*
X192519725Y-101077618D01*
X192577734Y-101050568D01*
X192764139Y-100920047D01*
X192925047Y-100759139D01*
X193055568Y-100572734D01*
X193151739Y-100366496D01*
X193210635Y-100146692D01*
X193225149Y-99980799D01*
X213754741Y-99980799D01*
X213754741Y-99980800D01*
X213775336Y-100216203D01*
X213775338Y-100216213D01*
X213836494Y-100444455D01*
X213836496Y-100444459D01*
X213836497Y-100444463D01*
X213917390Y-100617938D01*
X213936365Y-100658630D01*
X213936367Y-100658634D01*
X214071901Y-100852195D01*
X214071906Y-100852202D01*
X214238997Y-101019293D01*
X214239003Y-101019298D01*
X214424558Y-101149225D01*
X214468183Y-101203802D01*
X214475377Y-101273300D01*
X214443854Y-101335655D01*
X214424558Y-101352375D01*
X214238997Y-101482305D01*
X214071905Y-101649397D01*
X213936366Y-101842969D01*
X213936365Y-101842971D01*
X213856845Y-102013502D01*
X213836498Y-102057135D01*
X213836494Y-102057144D01*
X213775338Y-102285386D01*
X213775336Y-102285396D01*
X213754741Y-102520799D01*
X213754741Y-102520800D01*
X213775336Y-102756203D01*
X213775338Y-102756213D01*
X213836494Y-102984455D01*
X213836496Y-102984459D01*
X213836497Y-102984463D01*
X213841161Y-102994464D01*
X213936365Y-103198630D01*
X213936367Y-103198634D01*
X214034752Y-103339141D01*
X214071901Y-103392196D01*
X214071906Y-103392202D01*
X214238997Y-103559293D01*
X214239003Y-103559298D01*
X214424558Y-103689225D01*
X214468183Y-103743802D01*
X214475377Y-103813300D01*
X214443854Y-103875655D01*
X214424558Y-103892375D01*
X214238997Y-104022305D01*
X214071905Y-104189397D01*
X213936365Y-104382969D01*
X213936364Y-104382971D01*
X213836498Y-104597135D01*
X213836494Y-104597144D01*
X213775338Y-104825386D01*
X213775336Y-104825396D01*
X213754741Y-105060799D01*
X213754741Y-105060800D01*
X213775336Y-105296203D01*
X213775338Y-105296213D01*
X213836494Y-105524455D01*
X213836496Y-105524459D01*
X213836497Y-105524463D01*
X213841161Y-105534464D01*
X213936365Y-105738630D01*
X213936367Y-105738634D01*
X214034752Y-105879141D01*
X214071901Y-105932196D01*
X214071906Y-105932202D01*
X214238997Y-106099293D01*
X214239003Y-106099298D01*
X214424558Y-106229225D01*
X214468183Y-106283802D01*
X214475377Y-106353300D01*
X214443854Y-106415655D01*
X214424558Y-106432375D01*
X214238997Y-106562305D01*
X214071905Y-106729397D01*
X213936365Y-106922969D01*
X213936364Y-106922971D01*
X213836498Y-107137135D01*
X213836494Y-107137144D01*
X213775338Y-107365386D01*
X213775336Y-107365396D01*
X213754741Y-107600799D01*
X213754741Y-107600800D01*
X213775336Y-107836203D01*
X213775338Y-107836213D01*
X213836494Y-108064455D01*
X213836496Y-108064459D01*
X213836497Y-108064463D01*
X213914962Y-108232732D01*
X213936365Y-108278630D01*
X213936367Y-108278634D01*
X214034752Y-108419141D01*
X214071901Y-108472196D01*
X214071906Y-108472202D01*
X214238997Y-108639293D01*
X214239003Y-108639298D01*
X214424558Y-108769225D01*
X214468183Y-108823802D01*
X214475377Y-108893300D01*
X214443854Y-108955655D01*
X214424558Y-108972375D01*
X214238997Y-109102305D01*
X214071905Y-109269397D01*
X213936365Y-109462969D01*
X213936364Y-109462971D01*
X213836498Y-109677135D01*
X213836494Y-109677144D01*
X213775338Y-109905386D01*
X213775336Y-109905396D01*
X213754741Y-110140799D01*
X213754741Y-110140800D01*
X213775336Y-110376203D01*
X213775338Y-110376213D01*
X213836494Y-110604455D01*
X213836496Y-110604459D01*
X213836497Y-110604463D01*
X213931103Y-110807346D01*
X213936365Y-110818630D01*
X213936367Y-110818634D01*
X213999945Y-110909432D01*
X214071901Y-111012196D01*
X214071906Y-111012202D01*
X214238997Y-111179293D01*
X214239003Y-111179298D01*
X214424558Y-111309225D01*
X214468183Y-111363802D01*
X214475377Y-111433300D01*
X214443854Y-111495655D01*
X214424558Y-111512375D01*
X214238997Y-111642305D01*
X214071905Y-111809397D01*
X213936365Y-112002969D01*
X213936364Y-112002971D01*
X213836498Y-112217135D01*
X213836494Y-112217144D01*
X213775338Y-112445386D01*
X213775336Y-112445396D01*
X213754741Y-112680799D01*
X213754741Y-112680800D01*
X213775336Y-112916203D01*
X213775338Y-112916213D01*
X213836494Y-113144455D01*
X213836496Y-113144459D01*
X213836497Y-113144463D01*
X213912167Y-113306738D01*
X213936365Y-113358630D01*
X213936367Y-113358634D01*
X213955157Y-113385468D01*
X214071905Y-113552201D01*
X214238999Y-113719295D01*
X214253285Y-113729298D01*
X214432565Y-113854832D01*
X214432567Y-113854833D01*
X214432570Y-113854835D01*
X214646737Y-113954703D01*
X214874992Y-114015863D01*
X215063318Y-114032339D01*
X215110399Y-114036459D01*
X215110400Y-114036459D01*
X215110401Y-114036459D01*
X215149634Y-114033026D01*
X215345808Y-114015863D01*
X215574063Y-113954703D01*
X215788230Y-113854835D01*
X215981801Y-113719295D01*
X216148895Y-113552201D01*
X216278825Y-113366642D01*
X216333402Y-113323017D01*
X216402900Y-113315823D01*
X216465255Y-113347346D01*
X216481975Y-113366642D01*
X216611900Y-113552195D01*
X216611905Y-113552201D01*
X216778999Y-113719295D01*
X216793285Y-113729298D01*
X216972565Y-113854832D01*
X216972567Y-113854833D01*
X216972570Y-113854835D01*
X217186737Y-113954703D01*
X217414992Y-114015863D01*
X217603318Y-114032339D01*
X217650399Y-114036459D01*
X217650400Y-114036459D01*
X217650401Y-114036459D01*
X217689634Y-114033026D01*
X217885808Y-114015863D01*
X218114063Y-113954703D01*
X218328230Y-113854835D01*
X218521801Y-113719295D01*
X218688895Y-113552201D01*
X218824435Y-113358630D01*
X218924303Y-113144463D01*
X218985463Y-112916208D01*
X219006059Y-112680800D01*
X218985463Y-112445392D01*
X218926984Y-112227144D01*
X218924305Y-112217144D01*
X218924304Y-112217143D01*
X218924303Y-112217137D01*
X218824435Y-112002971D01*
X218818825Y-111994958D01*
X218688894Y-111809397D01*
X218521802Y-111642306D01*
X218521796Y-111642301D01*
X218336242Y-111512375D01*
X218292617Y-111457798D01*
X218285423Y-111388300D01*
X218316946Y-111325945D01*
X218336242Y-111309225D01*
X218358426Y-111293691D01*
X218521801Y-111179295D01*
X218688895Y-111012201D01*
X218824435Y-110818630D01*
X218924303Y-110604463D01*
X218985463Y-110376208D01*
X219006059Y-110140800D01*
X218985463Y-109905392D01*
X218926984Y-109687144D01*
X218924305Y-109677144D01*
X218924304Y-109677143D01*
X218924303Y-109677137D01*
X218824435Y-109462971D01*
X218818825Y-109454958D01*
X218688894Y-109269397D01*
X218521802Y-109102306D01*
X218521796Y-109102301D01*
X218336242Y-108972375D01*
X218292617Y-108917798D01*
X218285423Y-108848300D01*
X218316946Y-108785945D01*
X218336242Y-108769225D01*
X218358426Y-108753691D01*
X218521801Y-108639295D01*
X218688895Y-108472201D01*
X218824435Y-108278630D01*
X218924303Y-108064463D01*
X218985463Y-107836208D01*
X219006059Y-107600800D01*
X219004239Y-107580003D01*
X218997745Y-107505769D01*
X218985463Y-107365392D01*
X218926984Y-107147144D01*
X218924305Y-107137144D01*
X218924304Y-107137143D01*
X218924303Y-107137137D01*
X218824435Y-106922971D01*
X218823417Y-106921516D01*
X218688894Y-106729397D01*
X218521802Y-106562306D01*
X218521796Y-106562301D01*
X218336242Y-106432375D01*
X218292617Y-106377798D01*
X218285423Y-106308300D01*
X218316946Y-106245945D01*
X218336242Y-106229225D01*
X218420010Y-106170570D01*
X218521801Y-106099295D01*
X218688895Y-105932201D01*
X218824435Y-105738630D01*
X218924303Y-105524463D01*
X218985463Y-105296208D01*
X219006059Y-105060800D01*
X218985463Y-104825392D01*
X218926984Y-104607144D01*
X218924305Y-104597144D01*
X218924304Y-104597143D01*
X218924303Y-104597137D01*
X218824435Y-104382971D01*
X218818825Y-104374958D01*
X218688894Y-104189397D01*
X218521802Y-104022306D01*
X218521796Y-104022301D01*
X218336242Y-103892375D01*
X218292617Y-103837798D01*
X218285423Y-103768300D01*
X218316946Y-103705945D01*
X218336242Y-103689225D01*
X218420010Y-103630570D01*
X218521801Y-103559295D01*
X218688895Y-103392201D01*
X218824435Y-103198630D01*
X218924303Y-102984463D01*
X218985463Y-102756208D01*
X219006059Y-102520800D01*
X218985463Y-102285392D01*
X218926984Y-102067144D01*
X218924305Y-102057144D01*
X218924304Y-102057143D01*
X218924303Y-102057137D01*
X218824435Y-101842971D01*
X218818825Y-101834958D01*
X218688894Y-101649397D01*
X218521802Y-101482306D01*
X218521795Y-101482301D01*
X218503830Y-101469722D01*
X218482921Y-101455081D01*
X218328234Y-101346767D01*
X218328230Y-101346765D01*
X218318831Y-101342382D01*
X218114063Y-101246897D01*
X218114059Y-101246896D01*
X218114055Y-101246894D01*
X217885813Y-101185738D01*
X217885803Y-101185736D01*
X217650401Y-101165141D01*
X217650399Y-101165141D01*
X217414996Y-101185736D01*
X217414986Y-101185738D01*
X217186744Y-101246894D01*
X217186735Y-101246898D01*
X216972571Y-101346764D01*
X216972569Y-101346765D01*
X216778997Y-101482305D01*
X216611905Y-101649397D01*
X216481975Y-101834958D01*
X216427398Y-101878583D01*
X216357900Y-101885777D01*
X216295545Y-101854254D01*
X216278825Y-101834958D01*
X216148894Y-101649397D01*
X215981802Y-101482306D01*
X215981796Y-101482301D01*
X215796242Y-101352375D01*
X215752617Y-101297798D01*
X215745423Y-101228300D01*
X215776946Y-101165945D01*
X215796242Y-101149225D01*
X215834930Y-101122135D01*
X215981801Y-101019295D01*
X216148895Y-100852201D01*
X216284435Y-100658630D01*
X216384303Y-100444463D01*
X216445463Y-100216208D01*
X216466059Y-99980800D01*
X216445463Y-99745392D01*
X216399026Y-99572085D01*
X216384305Y-99517144D01*
X216384304Y-99517143D01*
X216384303Y-99517137D01*
X216284435Y-99302971D01*
X216259435Y-99267266D01*
X216148894Y-99109397D01*
X215981802Y-98942306D01*
X215981795Y-98942301D01*
X215788234Y-98806767D01*
X215788230Y-98806765D01*
X215751053Y-98789429D01*
X215574063Y-98706897D01*
X215574059Y-98706896D01*
X215574055Y-98706894D01*
X215345813Y-98645738D01*
X215345803Y-98645736D01*
X215110401Y-98625141D01*
X215110399Y-98625141D01*
X214874996Y-98645736D01*
X214874986Y-98645738D01*
X214646744Y-98706894D01*
X214646735Y-98706898D01*
X214432571Y-98806764D01*
X214432569Y-98806765D01*
X214238997Y-98942305D01*
X214071905Y-99109397D01*
X213936365Y-99302969D01*
X213936364Y-99302971D01*
X213836498Y-99517135D01*
X213836494Y-99517144D01*
X213775338Y-99745386D01*
X213775336Y-99745396D01*
X213754741Y-99980799D01*
X193225149Y-99980799D01*
X193230468Y-99920000D01*
X193210635Y-99693308D01*
X193151739Y-99473504D01*
X193055568Y-99267266D01*
X192925047Y-99080861D01*
X192925045Y-99080858D01*
X192764141Y-98919954D01*
X192577734Y-98789432D01*
X192577728Y-98789429D01*
X192519725Y-98762382D01*
X192467285Y-98716210D01*
X192448133Y-98649017D01*
X192468348Y-98582135D01*
X192519725Y-98537618D01*
X192577734Y-98510568D01*
X192764139Y-98380047D01*
X192925047Y-98219139D01*
X193055568Y-98032734D01*
X193151739Y-97826496D01*
X193210635Y-97606692D01*
X193230468Y-97380000D01*
X193214282Y-97194998D01*
X199660332Y-97194998D01*
X199660332Y-97195001D01*
X199680164Y-97421686D01*
X199680166Y-97421697D01*
X199739058Y-97641488D01*
X199739061Y-97641497D01*
X199835231Y-97847732D01*
X199835232Y-97847734D01*
X199965754Y-98034141D01*
X200126658Y-98195045D01*
X200126661Y-98195047D01*
X200313066Y-98325568D01*
X200519304Y-98421739D01*
X200739108Y-98480635D01*
X200901030Y-98494801D01*
X200965798Y-98500468D01*
X200965800Y-98500468D01*
X200965802Y-98500468D01*
X201022473Y-98495509D01*
X201192492Y-98480635D01*
X201412296Y-98421739D01*
X201618534Y-98325568D01*
X201804939Y-98195047D01*
X201965847Y-98034139D01*
X202096368Y-97847734D01*
X202192539Y-97641496D01*
X202251435Y-97421692D01*
X202269484Y-97215386D01*
X202271268Y-97195001D01*
X202271268Y-97194998D01*
X202251890Y-96973511D01*
X202251435Y-96968308D01*
X202192539Y-96748504D01*
X202096368Y-96542266D01*
X201965847Y-96355861D01*
X201965845Y-96355858D01*
X201804941Y-96194954D01*
X201618534Y-96064432D01*
X201618532Y-96064431D01*
X201412297Y-95968261D01*
X201412288Y-95968258D01*
X201192497Y-95909366D01*
X201192493Y-95909365D01*
X201192492Y-95909365D01*
X201192491Y-95909364D01*
X201192486Y-95909364D01*
X200965802Y-95889532D01*
X200965798Y-95889532D01*
X200739113Y-95909364D01*
X200739102Y-95909366D01*
X200519311Y-95968258D01*
X200519302Y-95968261D01*
X200313067Y-96064431D01*
X200313065Y-96064432D01*
X200126658Y-96194954D01*
X199965754Y-96355858D01*
X199835232Y-96542265D01*
X199835231Y-96542267D01*
X199739061Y-96748502D01*
X199739058Y-96748511D01*
X199680166Y-96968302D01*
X199680164Y-96968313D01*
X199660332Y-97194998D01*
X193214282Y-97194998D01*
X193210635Y-97153308D01*
X193151739Y-96933504D01*
X193055568Y-96727266D01*
X192945028Y-96569397D01*
X192925045Y-96540858D01*
X192764141Y-96379954D01*
X192577734Y-96249432D01*
X192577732Y-96249431D01*
X192371497Y-96153261D01*
X192371488Y-96153258D01*
X192151697Y-96094366D01*
X192151693Y-96094365D01*
X192151692Y-96094365D01*
X192151691Y-96094364D01*
X192151686Y-96094364D01*
X191925002Y-96074532D01*
X191924998Y-96074532D01*
X191698313Y-96094364D01*
X191698302Y-96094366D01*
X191478511Y-96153258D01*
X191478502Y-96153261D01*
X191272267Y-96249431D01*
X191272265Y-96249432D01*
X191085858Y-96379954D01*
X190924954Y-96540858D01*
X190794432Y-96727265D01*
X190794431Y-96727267D01*
X190698261Y-96933502D01*
X190698258Y-96933511D01*
X190639366Y-97153302D01*
X190639364Y-97153313D01*
X190619532Y-97379998D01*
X185610468Y-97379998D01*
X185590635Y-97153308D01*
X185531739Y-96933504D01*
X185435568Y-96727266D01*
X185325028Y-96569397D01*
X185305045Y-96540858D01*
X185144141Y-96379954D01*
X184957734Y-96249432D01*
X184957728Y-96249429D01*
X184899725Y-96222382D01*
X184847285Y-96176210D01*
X184828133Y-96109017D01*
X184848348Y-96042135D01*
X184899725Y-95997618D01*
X184957734Y-95970568D01*
X185144139Y-95840047D01*
X185305047Y-95679139D01*
X185435568Y-95492734D01*
X185531739Y-95286496D01*
X185576674Y-95118796D01*
X195845335Y-95118796D01*
X195845335Y-95118803D01*
X195865530Y-95298049D01*
X195865531Y-95298054D01*
X195925111Y-95468323D01*
X196000708Y-95588634D01*
X196021084Y-95621062D01*
X196148638Y-95748616D01*
X196301378Y-95844589D01*
X196402711Y-95880047D01*
X196471645Y-95904168D01*
X196471650Y-95904169D01*
X196650896Y-95924365D01*
X196650900Y-95924365D01*
X196650904Y-95924365D01*
X196830149Y-95904169D01*
X196830152Y-95904168D01*
X196830155Y-95904168D01*
X197000422Y-95844589D01*
X197153162Y-95748616D01*
X197280716Y-95621062D01*
X197376689Y-95468322D01*
X197436268Y-95298055D01*
X197436269Y-95298049D01*
X197456465Y-95118803D01*
X197456465Y-95118796D01*
X197436269Y-94939550D01*
X197436268Y-94939545D01*
X197426209Y-94910799D01*
X197422710Y-94900799D01*
X213754741Y-94900799D01*
X213754741Y-94900800D01*
X213775336Y-95136203D01*
X213775338Y-95136213D01*
X213836494Y-95364455D01*
X213836496Y-95364459D01*
X213836497Y-95364463D01*
X213884928Y-95468323D01*
X213936365Y-95578630D01*
X213936367Y-95578634D01*
X214034752Y-95719141D01*
X214071905Y-95772201D01*
X214238999Y-95939295D01*
X214322293Y-95997618D01*
X214432565Y-96074832D01*
X214432567Y-96074833D01*
X214432570Y-96074835D01*
X214646737Y-96174703D01*
X214646743Y-96174704D01*
X214646744Y-96174705D01*
X214701685Y-96189426D01*
X214874992Y-96235863D01*
X215063318Y-96252339D01*
X215110399Y-96256459D01*
X215110400Y-96256459D01*
X215110401Y-96256459D01*
X215149634Y-96253026D01*
X215345808Y-96235863D01*
X215574063Y-96174703D01*
X215788230Y-96074835D01*
X215981801Y-95939295D01*
X216148895Y-95772201D01*
X216278825Y-95586642D01*
X216333402Y-95543017D01*
X216402900Y-95535823D01*
X216465255Y-95567346D01*
X216481975Y-95586642D01*
X216611901Y-95772196D01*
X216611906Y-95772202D01*
X216778997Y-95939293D01*
X216779003Y-95939298D01*
X216964558Y-96069225D01*
X217008183Y-96123802D01*
X217015377Y-96193300D01*
X216983854Y-96255655D01*
X216964558Y-96272375D01*
X216778997Y-96402305D01*
X216611905Y-96569397D01*
X216476365Y-96762969D01*
X216476364Y-96762971D01*
X216376498Y-96977135D01*
X216376494Y-96977144D01*
X216315338Y-97205386D01*
X216315336Y-97205396D01*
X216294741Y-97440799D01*
X216294741Y-97440800D01*
X216315336Y-97676203D01*
X216315338Y-97676213D01*
X216376494Y-97904455D01*
X216376496Y-97904459D01*
X216376497Y-97904463D01*
X216414206Y-97985330D01*
X216476365Y-98118630D01*
X216476367Y-98118634D01*
X216574752Y-98259141D01*
X216611905Y-98312201D01*
X216778999Y-98479295D01*
X216862293Y-98537618D01*
X216972565Y-98614832D01*
X216972567Y-98614833D01*
X216972570Y-98614835D01*
X217186737Y-98714703D01*
X217186743Y-98714704D01*
X217186744Y-98714705D01*
X217212134Y-98721508D01*
X217414992Y-98775863D01*
X217603318Y-98792339D01*
X217650399Y-98796459D01*
X217650400Y-98796459D01*
X217650401Y-98796459D01*
X217689634Y-98793026D01*
X217885808Y-98775863D01*
X218114063Y-98714703D01*
X218328230Y-98614835D01*
X218521801Y-98479295D01*
X218688895Y-98312201D01*
X218824435Y-98118630D01*
X218924303Y-97904463D01*
X218985463Y-97676208D01*
X219006059Y-97440800D01*
X218985463Y-97205392D01*
X218926984Y-96987144D01*
X218924305Y-96977144D01*
X218924304Y-96977143D01*
X218924303Y-96977137D01*
X218824435Y-96762971D01*
X218814306Y-96748504D01*
X218688894Y-96569397D01*
X218521802Y-96402306D01*
X218521796Y-96402301D01*
X218336242Y-96272375D01*
X218292617Y-96217798D01*
X218285423Y-96148300D01*
X218316946Y-96085945D01*
X218336242Y-96069225D01*
X218420010Y-96010570D01*
X218521801Y-95939295D01*
X218688895Y-95772201D01*
X218824435Y-95578630D01*
X218924303Y-95364463D01*
X218985463Y-95136208D01*
X219006059Y-94900800D01*
X218985463Y-94665392D01*
X218926984Y-94447144D01*
X218924305Y-94437144D01*
X218924304Y-94437143D01*
X218924303Y-94437137D01*
X218824435Y-94222971D01*
X218818824Y-94214958D01*
X218688896Y-94029400D01*
X218660354Y-94000858D01*
X218566967Y-93907471D01*
X218533484Y-93846151D01*
X218538468Y-93776459D01*
X218580339Y-93720525D01*
X218611315Y-93703610D01*
X218742731Y-93654596D01*
X218857946Y-93568346D01*
X218944196Y-93453131D01*
X218994491Y-93318283D01*
X219000900Y-93258673D01*
X219000899Y-91462928D01*
X218994491Y-91403317D01*
X218990462Y-91392516D01*
X218944197Y-91268471D01*
X218944193Y-91268464D01*
X218857947Y-91153255D01*
X218857944Y-91153252D01*
X218742735Y-91067006D01*
X218742728Y-91067002D01*
X218607882Y-91016708D01*
X218607883Y-91016708D01*
X218548283Y-91010301D01*
X218548281Y-91010300D01*
X218548273Y-91010300D01*
X218548264Y-91010300D01*
X216752529Y-91010300D01*
X216752523Y-91010301D01*
X216692916Y-91016708D01*
X216558071Y-91067002D01*
X216558064Y-91067006D01*
X216442855Y-91153252D01*
X216442852Y-91153255D01*
X216356606Y-91268464D01*
X216356602Y-91268471D01*
X216306308Y-91403317D01*
X216301061Y-91452127D01*
X216299901Y-91462923D01*
X216299900Y-91462935D01*
X216299900Y-93258670D01*
X216299901Y-93258676D01*
X216306308Y-93318283D01*
X216356602Y-93453128D01*
X216356606Y-93453135D01*
X216442852Y-93568344D01*
X216442855Y-93568347D01*
X216558064Y-93654593D01*
X216558071Y-93654597D01*
X216689481Y-93703610D01*
X216745415Y-93745481D01*
X216769832Y-93810945D01*
X216754980Y-93879218D01*
X216733830Y-93907473D01*
X216611903Y-94029400D01*
X216481975Y-94214958D01*
X216427398Y-94258583D01*
X216357900Y-94265777D01*
X216295545Y-94234254D01*
X216278825Y-94214958D01*
X216148894Y-94029397D01*
X215981802Y-93862306D01*
X215981795Y-93862301D01*
X215788234Y-93726767D01*
X215788230Y-93726765D01*
X215727937Y-93698650D01*
X215574063Y-93626897D01*
X215574059Y-93626896D01*
X215574055Y-93626894D01*
X215345813Y-93565738D01*
X215345803Y-93565736D01*
X215110401Y-93545141D01*
X215110399Y-93545141D01*
X214874996Y-93565736D01*
X214874986Y-93565738D01*
X214646744Y-93626894D01*
X214646735Y-93626898D01*
X214432571Y-93726764D01*
X214432569Y-93726765D01*
X214238997Y-93862305D01*
X214071905Y-94029397D01*
X213936365Y-94222969D01*
X213936364Y-94222971D01*
X213836498Y-94437135D01*
X213836494Y-94437144D01*
X213775338Y-94665386D01*
X213775336Y-94665396D01*
X213754741Y-94900799D01*
X197422710Y-94900799D01*
X197376689Y-94769278D01*
X197280716Y-94616538D01*
X197153162Y-94488984D01*
X197000423Y-94393011D01*
X196830154Y-94333431D01*
X196830149Y-94333430D01*
X196650904Y-94313235D01*
X196650896Y-94313235D01*
X196471650Y-94333430D01*
X196471645Y-94333431D01*
X196301376Y-94393011D01*
X196148637Y-94488984D01*
X196021084Y-94616537D01*
X195925111Y-94769276D01*
X195865531Y-94939545D01*
X195865530Y-94939550D01*
X195845335Y-95118796D01*
X185576674Y-95118796D01*
X185590635Y-95066692D01*
X185610468Y-94840000D01*
X185590635Y-94613308D01*
X185531739Y-94393504D01*
X185435568Y-94187266D01*
X185305047Y-94000861D01*
X185305045Y-94000858D01*
X185144143Y-93839956D01*
X185119536Y-93822726D01*
X185075912Y-93768149D01*
X185068719Y-93698650D01*
X185100241Y-93636296D01*
X185160471Y-93600882D01*
X185177404Y-93597861D01*
X185212483Y-93594091D01*
X185347331Y-93543796D01*
X185462546Y-93457546D01*
X185548796Y-93342331D01*
X185599091Y-93207483D01*
X185605500Y-93147873D01*
X185605499Y-92299998D01*
X190619532Y-92299998D01*
X190619532Y-92300001D01*
X190639364Y-92526686D01*
X190639366Y-92526697D01*
X190698258Y-92746488D01*
X190698261Y-92746497D01*
X190794431Y-92952732D01*
X190794432Y-92952734D01*
X190924954Y-93139141D01*
X191085858Y-93300045D01*
X191111905Y-93318283D01*
X191272266Y-93430568D01*
X191478504Y-93526739D01*
X191698308Y-93585635D01*
X191838052Y-93597861D01*
X191924998Y-93605468D01*
X191925000Y-93605468D01*
X191925002Y-93605468D01*
X191981796Y-93600499D01*
X192151692Y-93585635D01*
X192371496Y-93526739D01*
X192577734Y-93430568D01*
X192764139Y-93300047D01*
X192925047Y-93139139D01*
X193055568Y-92952734D01*
X193151739Y-92746496D01*
X193210635Y-92526692D01*
X193230468Y-92300000D01*
X193210635Y-92073308D01*
X193151739Y-91853504D01*
X193055568Y-91647266D01*
X192946940Y-91492128D01*
X192925045Y-91460858D01*
X192764141Y-91299954D01*
X192577734Y-91169432D01*
X192577732Y-91169431D01*
X192371497Y-91073261D01*
X192371488Y-91073258D01*
X192151697Y-91014366D01*
X192151693Y-91014365D01*
X192151692Y-91014365D01*
X192151691Y-91014364D01*
X192151686Y-91014364D01*
X191925002Y-90994532D01*
X191924998Y-90994532D01*
X191698313Y-91014364D01*
X191698302Y-91014366D01*
X191478511Y-91073258D01*
X191478502Y-91073261D01*
X191272267Y-91169431D01*
X191272265Y-91169432D01*
X191085858Y-91299954D01*
X190924954Y-91460858D01*
X190794432Y-91647265D01*
X190794431Y-91647267D01*
X190698261Y-91853502D01*
X190698258Y-91853511D01*
X190639366Y-92073302D01*
X190639364Y-92073313D01*
X190619532Y-92299998D01*
X185605499Y-92299998D01*
X185605499Y-91452128D01*
X185599091Y-91392517D01*
X185579486Y-91339954D01*
X185548797Y-91257671D01*
X185548793Y-91257664D01*
X185462547Y-91142455D01*
X185462544Y-91142452D01*
X185347335Y-91056206D01*
X185347328Y-91056202D01*
X185212482Y-91005908D01*
X185212483Y-91005908D01*
X185152883Y-90999501D01*
X185152881Y-90999500D01*
X185152873Y-90999500D01*
X185152864Y-90999500D01*
X183457129Y-90999500D01*
X183457123Y-90999501D01*
X183397516Y-91005908D01*
X183262671Y-91056202D01*
X183262664Y-91056206D01*
X183147455Y-91142452D01*
X183147452Y-91142455D01*
X183061206Y-91257664D01*
X183061202Y-91257671D01*
X183010908Y-91392517D01*
X183006608Y-91432516D01*
X183004501Y-91452123D01*
X183004500Y-91452135D01*
X183004500Y-93147870D01*
X183004501Y-93147876D01*
X183010908Y-93207483D01*
X183061202Y-93342328D01*
X183061206Y-93342335D01*
X183147452Y-93457544D01*
X183147455Y-93457547D01*
X183262664Y-93543793D01*
X183262671Y-93543797D01*
X183307618Y-93560561D01*
X183397517Y-93594091D01*
X183432596Y-93597862D01*
X183497144Y-93624599D01*
X183536993Y-93681991D01*
X183539488Y-93751816D01*
X183503836Y-93811905D01*
X183490464Y-93822725D01*
X183465858Y-93839954D01*
X183304954Y-94000858D01*
X183174432Y-94187265D01*
X183174431Y-94187267D01*
X183078261Y-94393502D01*
X183078258Y-94393511D01*
X183019366Y-94613302D01*
X183019364Y-94613313D01*
X182999532Y-94839998D01*
X180795468Y-94839998D01*
X180775635Y-94613308D01*
X180716739Y-94393504D01*
X180620568Y-94187266D01*
X180490047Y-94000861D01*
X180490045Y-94000858D01*
X180329141Y-93839954D01*
X180142734Y-93709432D01*
X180142728Y-93709429D01*
X180084725Y-93682382D01*
X180032285Y-93636210D01*
X180013133Y-93569017D01*
X180033348Y-93502135D01*
X180084725Y-93457618D01*
X180142734Y-93430568D01*
X180329139Y-93300047D01*
X180490047Y-93139139D01*
X180620568Y-92952734D01*
X180716739Y-92746496D01*
X180775635Y-92526692D01*
X180795468Y-92300000D01*
X180775635Y-92073308D01*
X180716739Y-91853504D01*
X180620568Y-91647266D01*
X180511940Y-91492128D01*
X180490045Y-91460858D01*
X180329141Y-91299954D01*
X180142734Y-91169432D01*
X180142732Y-91169431D01*
X179936497Y-91073261D01*
X179936488Y-91073258D01*
X179716697Y-91014366D01*
X179716693Y-91014365D01*
X179716692Y-91014365D01*
X179716691Y-91014364D01*
X179716686Y-91014364D01*
X179490002Y-90994532D01*
X179489998Y-90994532D01*
X179263313Y-91014364D01*
X179263302Y-91014366D01*
X179043511Y-91073258D01*
X179043502Y-91073261D01*
X178837267Y-91169431D01*
X178837265Y-91169432D01*
X178650858Y-91299954D01*
X178489954Y-91460858D01*
X178359432Y-91647265D01*
X178359431Y-91647267D01*
X178263261Y-91853502D01*
X178263258Y-91853511D01*
X178204366Y-92073302D01*
X178204364Y-92073313D01*
X178184532Y-92299998D01*
X173170499Y-92299998D01*
X173170499Y-91452128D01*
X173164091Y-91392517D01*
X173144486Y-91339954D01*
X173113797Y-91257671D01*
X173113793Y-91257664D01*
X173027547Y-91142455D01*
X173027544Y-91142452D01*
X172912335Y-91056206D01*
X172912328Y-91056202D01*
X172777482Y-91005908D01*
X172777483Y-91005908D01*
X172717883Y-90999501D01*
X172717881Y-90999500D01*
X172717873Y-90999500D01*
X172717864Y-90999500D01*
X171022129Y-90999500D01*
X171022123Y-90999501D01*
X170962516Y-91005908D01*
X170827671Y-91056202D01*
X170827664Y-91056206D01*
X170712455Y-91142452D01*
X170712452Y-91142455D01*
X170626206Y-91257664D01*
X170626202Y-91257671D01*
X170575908Y-91392517D01*
X170571608Y-91432516D01*
X170569501Y-91452123D01*
X170569500Y-91452135D01*
X170569500Y-93147870D01*
X170569501Y-93147876D01*
X170575908Y-93207483D01*
X170626202Y-93342328D01*
X170626206Y-93342335D01*
X170712452Y-93457544D01*
X170712455Y-93457547D01*
X170827664Y-93543793D01*
X170827671Y-93543797D01*
X170872618Y-93560561D01*
X170962517Y-93594091D01*
X170997596Y-93597862D01*
X171062144Y-93624599D01*
X171101993Y-93681991D01*
X171104488Y-93751816D01*
X171068836Y-93811905D01*
X171055464Y-93822725D01*
X171030858Y-93839954D01*
X170869954Y-94000858D01*
X170739432Y-94187265D01*
X170739431Y-94187267D01*
X170643261Y-94393502D01*
X170643258Y-94393511D01*
X170584366Y-94613302D01*
X170584364Y-94613313D01*
X170564532Y-94839998D01*
X168360468Y-94839998D01*
X168340635Y-94613308D01*
X168281739Y-94393504D01*
X168185568Y-94187266D01*
X168055047Y-94000861D01*
X168055045Y-94000858D01*
X167894141Y-93839954D01*
X167707734Y-93709432D01*
X167707728Y-93709429D01*
X167649725Y-93682382D01*
X167597285Y-93636210D01*
X167578133Y-93569017D01*
X167598348Y-93502135D01*
X167649725Y-93457618D01*
X167707734Y-93430568D01*
X167894139Y-93300047D01*
X168055047Y-93139139D01*
X168185568Y-92952734D01*
X168281739Y-92746496D01*
X168340635Y-92526692D01*
X168360468Y-92300000D01*
X168340635Y-92073308D01*
X168281739Y-91853504D01*
X168185568Y-91647266D01*
X168076940Y-91492128D01*
X168055045Y-91460858D01*
X167894141Y-91299954D01*
X167707734Y-91169432D01*
X167707732Y-91169431D01*
X167501497Y-91073261D01*
X167501488Y-91073258D01*
X167281697Y-91014366D01*
X167281693Y-91014365D01*
X167281692Y-91014365D01*
X167281691Y-91014364D01*
X167281686Y-91014364D01*
X167055002Y-90994532D01*
X167054998Y-90994532D01*
X166828313Y-91014364D01*
X166828302Y-91014366D01*
X166608511Y-91073258D01*
X166608502Y-91073261D01*
X166402267Y-91169431D01*
X166402265Y-91169432D01*
X166215858Y-91299954D01*
X166054954Y-91460858D01*
X165924432Y-91647265D01*
X165924431Y-91647267D01*
X165828261Y-91853502D01*
X165828258Y-91853511D01*
X165769366Y-92073302D01*
X165769364Y-92073313D01*
X165749532Y-92299998D01*
X160735499Y-92299998D01*
X160735499Y-91452128D01*
X160729091Y-91392517D01*
X160709486Y-91339954D01*
X160678797Y-91257671D01*
X160678793Y-91257664D01*
X160592547Y-91142455D01*
X160592544Y-91142452D01*
X160477335Y-91056206D01*
X160477328Y-91056202D01*
X160342482Y-91005908D01*
X160342483Y-91005908D01*
X160282883Y-90999501D01*
X160282881Y-90999500D01*
X160282873Y-90999500D01*
X160282864Y-90999500D01*
X158587129Y-90999500D01*
X158587123Y-90999501D01*
X158527516Y-91005908D01*
X158392671Y-91056202D01*
X158392664Y-91056206D01*
X158277455Y-91142452D01*
X158277452Y-91142455D01*
X158191206Y-91257664D01*
X158191202Y-91257671D01*
X158140908Y-91392517D01*
X158136608Y-91432516D01*
X158134501Y-91452123D01*
X158134500Y-91452135D01*
X158134500Y-93147870D01*
X158134501Y-93147876D01*
X158140908Y-93207483D01*
X158191202Y-93342328D01*
X158191206Y-93342335D01*
X158277452Y-93457544D01*
X158277455Y-93457547D01*
X158392664Y-93543793D01*
X158392671Y-93543797D01*
X158437618Y-93560561D01*
X158527517Y-93594091D01*
X158562596Y-93597862D01*
X158627144Y-93624599D01*
X158666993Y-93681991D01*
X158669488Y-93751816D01*
X158633836Y-93811905D01*
X158620464Y-93822725D01*
X158595858Y-93839954D01*
X158434954Y-94000858D01*
X158304432Y-94187265D01*
X158304431Y-94187267D01*
X158208261Y-94393502D01*
X158208258Y-94393511D01*
X158149366Y-94613302D01*
X158149364Y-94613313D01*
X158129532Y-94839998D01*
X155925468Y-94839998D01*
X155905635Y-94613308D01*
X155846739Y-94393504D01*
X155750568Y-94187266D01*
X155620047Y-94000861D01*
X155620045Y-94000858D01*
X155459141Y-93839954D01*
X155272734Y-93709432D01*
X155272728Y-93709429D01*
X155214725Y-93682382D01*
X155162285Y-93636210D01*
X155143133Y-93569017D01*
X155163348Y-93502135D01*
X155214725Y-93457618D01*
X155272734Y-93430568D01*
X155459139Y-93300047D01*
X155620047Y-93139139D01*
X155750568Y-92952734D01*
X155846739Y-92746496D01*
X155905635Y-92526692D01*
X155925468Y-92300000D01*
X155905635Y-92073308D01*
X155846739Y-91853504D01*
X155750568Y-91647266D01*
X155641940Y-91492128D01*
X155620045Y-91460858D01*
X155459141Y-91299954D01*
X155272734Y-91169432D01*
X155272732Y-91169431D01*
X155066497Y-91073261D01*
X155066488Y-91073258D01*
X154846697Y-91014366D01*
X154846693Y-91014365D01*
X154846692Y-91014365D01*
X154846691Y-91014364D01*
X154846686Y-91014364D01*
X154620002Y-90994532D01*
X154619998Y-90994532D01*
X154393313Y-91014364D01*
X154393302Y-91014366D01*
X154173511Y-91073258D01*
X154173502Y-91073261D01*
X153967267Y-91169431D01*
X153967265Y-91169432D01*
X153780858Y-91299954D01*
X153619954Y-91460858D01*
X153489432Y-91647265D01*
X153489431Y-91647267D01*
X153393261Y-91853502D01*
X153393258Y-91853511D01*
X153334366Y-92073302D01*
X153334364Y-92073313D01*
X153314532Y-92299998D01*
X148300499Y-92299998D01*
X148300499Y-91452128D01*
X148294091Y-91392517D01*
X148274486Y-91339954D01*
X148243797Y-91257671D01*
X148243793Y-91257664D01*
X148157547Y-91142455D01*
X148157544Y-91142452D01*
X148042335Y-91056206D01*
X148042328Y-91056202D01*
X147907482Y-91005908D01*
X147907483Y-91005908D01*
X147847883Y-90999501D01*
X147847881Y-90999500D01*
X147847873Y-90999500D01*
X147847864Y-90999500D01*
X146152129Y-90999500D01*
X146152123Y-90999501D01*
X146092516Y-91005908D01*
X145957671Y-91056202D01*
X145957664Y-91056206D01*
X145842455Y-91142452D01*
X145842452Y-91142455D01*
X145756206Y-91257664D01*
X145756202Y-91257671D01*
X145705908Y-91392517D01*
X145701608Y-91432516D01*
X145699501Y-91452123D01*
X145699500Y-91452135D01*
X145699500Y-93147870D01*
X145699501Y-93147876D01*
X145705908Y-93207483D01*
X145756202Y-93342328D01*
X145756206Y-93342335D01*
X145842452Y-93457544D01*
X145842455Y-93457547D01*
X145957664Y-93543793D01*
X145957671Y-93543797D01*
X146002618Y-93560561D01*
X146092517Y-93594091D01*
X146127596Y-93597862D01*
X146192144Y-93624599D01*
X146231993Y-93681991D01*
X146234488Y-93751816D01*
X146198836Y-93811905D01*
X146185464Y-93822725D01*
X146160858Y-93839954D01*
X145999954Y-94000858D01*
X145869432Y-94187265D01*
X145869431Y-94187267D01*
X145773261Y-94393502D01*
X145773258Y-94393511D01*
X145714366Y-94613302D01*
X145714364Y-94613313D01*
X145694532Y-94839998D01*
X143486968Y-94839998D01*
X143472567Y-94675392D01*
X143470635Y-94653308D01*
X143412714Y-94437144D01*
X143411741Y-94433511D01*
X143411738Y-94433502D01*
X143393090Y-94393511D01*
X143315568Y-94227266D01*
X143185047Y-94040861D01*
X143185045Y-94040858D01*
X143024141Y-93879954D01*
X142837734Y-93749432D01*
X142837728Y-93749429D01*
X142789129Y-93726767D01*
X142779724Y-93722381D01*
X142727285Y-93676210D01*
X142708133Y-93609017D01*
X142728348Y-93542135D01*
X142779725Y-93497618D01*
X142837734Y-93470568D01*
X143024139Y-93340047D01*
X143185047Y-93179139D01*
X143315568Y-92992734D01*
X143411739Y-92786496D01*
X143470635Y-92566692D01*
X143490468Y-92340000D01*
X143486968Y-92300000D01*
X143470635Y-92113313D01*
X143470635Y-92113308D01*
X143411739Y-91893504D01*
X143315568Y-91687266D01*
X143185047Y-91500861D01*
X143185045Y-91500858D01*
X143024141Y-91339954D01*
X142837734Y-91209432D01*
X142837732Y-91209431D01*
X142631497Y-91113261D01*
X142631488Y-91113258D01*
X142411697Y-91054366D01*
X142411693Y-91054365D01*
X142411692Y-91054365D01*
X142411691Y-91054364D01*
X142411686Y-91054364D01*
X142185002Y-91034532D01*
X142184998Y-91034532D01*
X141958313Y-91054364D01*
X141958302Y-91054366D01*
X141738511Y-91113258D01*
X141738502Y-91113261D01*
X141532267Y-91209431D01*
X141532265Y-91209432D01*
X141345858Y-91339954D01*
X141184954Y-91500858D01*
X141054432Y-91687265D01*
X141054431Y-91687267D01*
X140958261Y-91893502D01*
X140958258Y-91893511D01*
X140899366Y-92113302D01*
X140899364Y-92113313D01*
X140879532Y-92339998D01*
X135865499Y-92339998D01*
X135865499Y-91492128D01*
X135859091Y-91432517D01*
X135851929Y-91413316D01*
X135808797Y-91297671D01*
X135808793Y-91297664D01*
X135722547Y-91182455D01*
X135722544Y-91182452D01*
X135607335Y-91096206D01*
X135607328Y-91096202D01*
X135472482Y-91045908D01*
X135472483Y-91045908D01*
X135412883Y-91039501D01*
X135412881Y-91039500D01*
X135412873Y-91039500D01*
X135412864Y-91039500D01*
X133717129Y-91039500D01*
X133717123Y-91039501D01*
X133657516Y-91045908D01*
X133522671Y-91096202D01*
X133522664Y-91096206D01*
X133407455Y-91182452D01*
X133407452Y-91182455D01*
X133321206Y-91297664D01*
X133321202Y-91297671D01*
X133270908Y-91432517D01*
X133266564Y-91472927D01*
X133264501Y-91492123D01*
X133264500Y-91492135D01*
X133264500Y-93187870D01*
X133264501Y-93187876D01*
X133270908Y-93247483D01*
X133321202Y-93382328D01*
X133321206Y-93382335D01*
X133407452Y-93497544D01*
X133407455Y-93497547D01*
X133522664Y-93583793D01*
X133522671Y-93583797D01*
X133550266Y-93594089D01*
X133657517Y-93634091D01*
X133692596Y-93637862D01*
X133757144Y-93664599D01*
X133796993Y-93721991D01*
X133799488Y-93791816D01*
X133763836Y-93851905D01*
X133750464Y-93862725D01*
X133725858Y-93879954D01*
X133564954Y-94040858D01*
X133434432Y-94227265D01*
X133434431Y-94227267D01*
X133338261Y-94433502D01*
X133338258Y-94433511D01*
X133279366Y-94653302D01*
X133279364Y-94653313D01*
X133259532Y-94879998D01*
X133259532Y-94880001D01*
X133279364Y-95106686D01*
X133279366Y-95106697D01*
X133338258Y-95326488D01*
X133338261Y-95326497D01*
X133434431Y-95532732D01*
X133434432Y-95532734D01*
X133564954Y-95719141D01*
X133725858Y-95880045D01*
X133725861Y-95880047D01*
X133912266Y-96010568D01*
X133970275Y-96037618D01*
X134022714Y-96083791D01*
X134041866Y-96150984D01*
X134021650Y-96217865D01*
X133970275Y-96262382D01*
X133912267Y-96289431D01*
X133912265Y-96289432D01*
X133725858Y-96419954D01*
X133564954Y-96580858D01*
X133434432Y-96767265D01*
X133434431Y-96767267D01*
X133338261Y-96973502D01*
X133338258Y-96973511D01*
X133279366Y-97193302D01*
X133279364Y-97193313D01*
X133259532Y-97419998D01*
X133259532Y-97420001D01*
X133279364Y-97646686D01*
X133279366Y-97646697D01*
X133333370Y-97848243D01*
X133331707Y-97918093D01*
X133292544Y-97975955D01*
X133279567Y-97985330D01*
X133160437Y-98060184D01*
X133032884Y-98187737D01*
X132936911Y-98340476D01*
X132877331Y-98510745D01*
X132877330Y-98510750D01*
X132857135Y-98689996D01*
X130273412Y-98689996D01*
X130273133Y-98689017D01*
X130293348Y-98622135D01*
X130344725Y-98577618D01*
X130402734Y-98550568D01*
X130589139Y-98420047D01*
X130750047Y-98259139D01*
X130880568Y-98072734D01*
X130976739Y-97866496D01*
X131035635Y-97646692D01*
X131055320Y-97421692D01*
X131055468Y-97420001D01*
X131055468Y-97419998D01*
X131037567Y-97215392D01*
X131035635Y-97193308D01*
X130977714Y-96977144D01*
X130976741Y-96973511D01*
X130976738Y-96973502D01*
X130958090Y-96933511D01*
X130880568Y-96767266D01*
X130750047Y-96580861D01*
X130750045Y-96580858D01*
X130589141Y-96419954D01*
X130402734Y-96289432D01*
X130402728Y-96289429D01*
X130366155Y-96272375D01*
X130344724Y-96262381D01*
X130292285Y-96216210D01*
X130273133Y-96149017D01*
X130293348Y-96082135D01*
X130344725Y-96037618D01*
X130402734Y-96010568D01*
X130589139Y-95880047D01*
X130750047Y-95719139D01*
X130880568Y-95532734D01*
X130976739Y-95326496D01*
X131035635Y-95106692D01*
X131055468Y-94880000D01*
X131051968Y-94840000D01*
X131037567Y-94675392D01*
X131035635Y-94653308D01*
X130977714Y-94437144D01*
X130976741Y-94433511D01*
X130976738Y-94433502D01*
X130958090Y-94393511D01*
X130880568Y-94227266D01*
X130750047Y-94040861D01*
X130750045Y-94040858D01*
X130589141Y-93879954D01*
X130402734Y-93749432D01*
X130402728Y-93749429D01*
X130354129Y-93726767D01*
X130344724Y-93722381D01*
X130292285Y-93676210D01*
X130273133Y-93609017D01*
X130293348Y-93542135D01*
X130344725Y-93497618D01*
X130402734Y-93470568D01*
X130589139Y-93340047D01*
X130750047Y-93179139D01*
X130880568Y-92992734D01*
X130976739Y-92786496D01*
X131035635Y-92566692D01*
X131055468Y-92340000D01*
X131051968Y-92300000D01*
X131035635Y-92113313D01*
X131035635Y-92113308D01*
X130976739Y-91893504D01*
X130880568Y-91687266D01*
X130750047Y-91500861D01*
X130750045Y-91500858D01*
X130589141Y-91339954D01*
X130402734Y-91209432D01*
X130402732Y-91209431D01*
X130196497Y-91113261D01*
X130196488Y-91113258D01*
X129976697Y-91054366D01*
X129976693Y-91054365D01*
X129976692Y-91054365D01*
X129976691Y-91054364D01*
X129976686Y-91054364D01*
X129750002Y-91034532D01*
X129749998Y-91034532D01*
X129523313Y-91054364D01*
X129523302Y-91054366D01*
X129303511Y-91113258D01*
X129303502Y-91113261D01*
X129097267Y-91209431D01*
X129097265Y-91209432D01*
X128910858Y-91339954D01*
X128749954Y-91500858D01*
X128619432Y-91687265D01*
X128619431Y-91687267D01*
X128523261Y-91893502D01*
X128523258Y-91893511D01*
X128464366Y-92113302D01*
X128464364Y-92113313D01*
X128444532Y-92339998D01*
X123430499Y-92339998D01*
X123430499Y-91492128D01*
X123424091Y-91432517D01*
X123416929Y-91413316D01*
X123373797Y-91297671D01*
X123373793Y-91297664D01*
X123287547Y-91182455D01*
X123287544Y-91182452D01*
X123172335Y-91096206D01*
X123172328Y-91096202D01*
X123037482Y-91045908D01*
X123037483Y-91045908D01*
X122977883Y-91039501D01*
X122977881Y-91039500D01*
X122977873Y-91039500D01*
X122977864Y-91039500D01*
X121282129Y-91039500D01*
X121282123Y-91039501D01*
X121222516Y-91045908D01*
X121087671Y-91096202D01*
X121087664Y-91096206D01*
X120972455Y-91182452D01*
X120972452Y-91182455D01*
X120886206Y-91297664D01*
X120886202Y-91297671D01*
X120835908Y-91432517D01*
X120831564Y-91472927D01*
X120829501Y-91492123D01*
X120829500Y-91492135D01*
X120829500Y-93187870D01*
X120829501Y-93187876D01*
X120835908Y-93247483D01*
X120886202Y-93382328D01*
X120886206Y-93382335D01*
X120972452Y-93497544D01*
X120972455Y-93497547D01*
X121087664Y-93583793D01*
X121087671Y-93583797D01*
X121115266Y-93594089D01*
X121222517Y-93634091D01*
X121257596Y-93637862D01*
X121322144Y-93664599D01*
X121361993Y-93721991D01*
X121364488Y-93791816D01*
X121328836Y-93851905D01*
X121315464Y-93862725D01*
X121290858Y-93879954D01*
X121129954Y-94040858D01*
X120999432Y-94227265D01*
X120999431Y-94227267D01*
X120903261Y-94433502D01*
X120903258Y-94433511D01*
X120844366Y-94653302D01*
X120844364Y-94653313D01*
X120824532Y-94879998D01*
X118620468Y-94879998D01*
X118616968Y-94840000D01*
X118602567Y-94675392D01*
X118600635Y-94653308D01*
X118542714Y-94437144D01*
X118541741Y-94433511D01*
X118541738Y-94433502D01*
X118523090Y-94393511D01*
X118445568Y-94227266D01*
X118315047Y-94040861D01*
X118315045Y-94040858D01*
X118154141Y-93879954D01*
X117967734Y-93749432D01*
X117967728Y-93749429D01*
X117919129Y-93726767D01*
X117909724Y-93722381D01*
X117857285Y-93676210D01*
X117838133Y-93609017D01*
X117858348Y-93542135D01*
X117909725Y-93497618D01*
X117967734Y-93470568D01*
X118154139Y-93340047D01*
X118315047Y-93179139D01*
X118445568Y-92992734D01*
X118541739Y-92786496D01*
X118600635Y-92566692D01*
X118620468Y-92340000D01*
X118616968Y-92300000D01*
X118600635Y-92113313D01*
X118600635Y-92113308D01*
X118541739Y-91893504D01*
X118445568Y-91687266D01*
X118315047Y-91500861D01*
X118315045Y-91500858D01*
X118154141Y-91339954D01*
X117967734Y-91209432D01*
X117967732Y-91209431D01*
X117761497Y-91113261D01*
X117761488Y-91113258D01*
X117541697Y-91054366D01*
X117541693Y-91054365D01*
X117541692Y-91054365D01*
X117541691Y-91054364D01*
X117541686Y-91054364D01*
X117315002Y-91034532D01*
X117314998Y-91034532D01*
X117088313Y-91054364D01*
X117088302Y-91054366D01*
X116868511Y-91113258D01*
X116868502Y-91113261D01*
X116662267Y-91209431D01*
X116662265Y-91209432D01*
X116475858Y-91339954D01*
X116314954Y-91500858D01*
X116184432Y-91687265D01*
X116184431Y-91687267D01*
X116088261Y-91893502D01*
X116088258Y-91893511D01*
X116029366Y-92113302D01*
X116029364Y-92113313D01*
X116009532Y-92339998D01*
X110995499Y-92339998D01*
X110995499Y-91492128D01*
X110989091Y-91432517D01*
X110981929Y-91413316D01*
X110938797Y-91297671D01*
X110938793Y-91297664D01*
X110852547Y-91182455D01*
X110852544Y-91182452D01*
X110737335Y-91096206D01*
X110737328Y-91096202D01*
X110602482Y-91045908D01*
X110602483Y-91045908D01*
X110542883Y-91039501D01*
X110542881Y-91039500D01*
X110542873Y-91039500D01*
X110542864Y-91039500D01*
X108847129Y-91039500D01*
X108847123Y-91039501D01*
X108787516Y-91045908D01*
X108652671Y-91096202D01*
X108652664Y-91096206D01*
X108537455Y-91182452D01*
X108537452Y-91182455D01*
X108451206Y-91297664D01*
X108451202Y-91297671D01*
X108400908Y-91432517D01*
X108396564Y-91472927D01*
X108394501Y-91492123D01*
X108394500Y-91492135D01*
X108394500Y-93187870D01*
X108394501Y-93187876D01*
X108400908Y-93247483D01*
X108451202Y-93382328D01*
X108451206Y-93382335D01*
X108537452Y-93497544D01*
X108537455Y-93497547D01*
X108652664Y-93583793D01*
X108652671Y-93583797D01*
X108680266Y-93594089D01*
X108787517Y-93634091D01*
X108822596Y-93637862D01*
X108887144Y-93664599D01*
X108926993Y-93721991D01*
X108929488Y-93791816D01*
X108893836Y-93851905D01*
X108880464Y-93862725D01*
X108855858Y-93879954D01*
X108694954Y-94040858D01*
X108564432Y-94227265D01*
X108564431Y-94227267D01*
X108468261Y-94433502D01*
X108468258Y-94433511D01*
X108409366Y-94653302D01*
X108409364Y-94653313D01*
X108389532Y-94879998D01*
X75923364Y-94879998D01*
X75905463Y-94675392D01*
X75844303Y-94447137D01*
X75744435Y-94232971D01*
X75740441Y-94227266D01*
X75608894Y-94039397D01*
X75441802Y-93872306D01*
X75441795Y-93872301D01*
X75427519Y-93862305D01*
X75370995Y-93822726D01*
X75248234Y-93736767D01*
X75248230Y-93736765D01*
X75226783Y-93726764D01*
X75034063Y-93636897D01*
X75034059Y-93636896D01*
X75034055Y-93636894D01*
X74805813Y-93575738D01*
X74805803Y-93575736D01*
X74570401Y-93555141D01*
X74570399Y-93555141D01*
X74334996Y-93575736D01*
X74334986Y-93575738D01*
X74106744Y-93636894D01*
X74106735Y-93636898D01*
X73892571Y-93736764D01*
X73892569Y-93736765D01*
X73698997Y-93872305D01*
X73531905Y-94039397D01*
X73396365Y-94232969D01*
X73396364Y-94232971D01*
X73296498Y-94447135D01*
X73296494Y-94447144D01*
X73235338Y-94675386D01*
X73235336Y-94675396D01*
X73214741Y-94910799D01*
X71610900Y-94910799D01*
X71610900Y-91472935D01*
X75759900Y-91472935D01*
X75759900Y-93268670D01*
X75759901Y-93268676D01*
X75766308Y-93328283D01*
X75816602Y-93463128D01*
X75816606Y-93463135D01*
X75902852Y-93578344D01*
X75902855Y-93578347D01*
X76018064Y-93664593D01*
X76018071Y-93664597D01*
X76152917Y-93714891D01*
X76152916Y-93714891D01*
X76159844Y-93715635D01*
X76212527Y-93721300D01*
X78008272Y-93721299D01*
X78067883Y-93714891D01*
X78202731Y-93664596D01*
X78317946Y-93578346D01*
X78404196Y-93463131D01*
X78454491Y-93328283D01*
X78460900Y-93268673D01*
X78460899Y-91472928D01*
X78454491Y-91413317D01*
X78450761Y-91403317D01*
X78404197Y-91278471D01*
X78404193Y-91278464D01*
X78317947Y-91163255D01*
X78317944Y-91163252D01*
X78202735Y-91077006D01*
X78202728Y-91077002D01*
X78067882Y-91026708D01*
X78067883Y-91026708D01*
X78008283Y-91020301D01*
X78008281Y-91020300D01*
X78008273Y-91020300D01*
X78008264Y-91020300D01*
X76212529Y-91020300D01*
X76212523Y-91020301D01*
X76152916Y-91026708D01*
X76018071Y-91077002D01*
X76018064Y-91077006D01*
X75902855Y-91163252D01*
X75902852Y-91163255D01*
X75816606Y-91278464D01*
X75816602Y-91278471D01*
X75766308Y-91413317D01*
X75760975Y-91462927D01*
X75759901Y-91472923D01*
X75759900Y-91472935D01*
X71610900Y-91472935D01*
X71610900Y-88877696D01*
X78609735Y-88877696D01*
X78609735Y-88877703D01*
X78629930Y-89056949D01*
X78629931Y-89056954D01*
X78689511Y-89227223D01*
X78785484Y-89379962D01*
X78913038Y-89507516D01*
X79065778Y-89603489D01*
X79191829Y-89647596D01*
X79236045Y-89663068D01*
X79236050Y-89663069D01*
X79415296Y-89683265D01*
X79415300Y-89683265D01*
X79415304Y-89683265D01*
X79594549Y-89663069D01*
X79594552Y-89663068D01*
X79594555Y-89663068D01*
X79638771Y-89647596D01*
X154140235Y-89647596D01*
X154140235Y-89647603D01*
X154160430Y-89826849D01*
X154160431Y-89826854D01*
X154220011Y-89997123D01*
X154315984Y-90149862D01*
X154443538Y-90277416D01*
X154596278Y-90373389D01*
X154766545Y-90432968D01*
X154766550Y-90432969D01*
X154945796Y-90453165D01*
X154945800Y-90453165D01*
X154945804Y-90453165D01*
X155125049Y-90432969D01*
X155125052Y-90432968D01*
X155125055Y-90432968D01*
X155295322Y-90373389D01*
X155448062Y-90277416D01*
X155575616Y-90149862D01*
X155671589Y-89997122D01*
X155731168Y-89826855D01*
X155749622Y-89663069D01*
X155751365Y-89647603D01*
X155751365Y-89647596D01*
X155731169Y-89468350D01*
X155731168Y-89468345D01*
X155671588Y-89298076D01*
X155575615Y-89145337D01*
X155448062Y-89017784D01*
X155295323Y-88921811D01*
X155125054Y-88862231D01*
X155125049Y-88862230D01*
X154945804Y-88842035D01*
X154945796Y-88842035D01*
X154766550Y-88862230D01*
X154766545Y-88862231D01*
X154596276Y-88921811D01*
X154443537Y-89017784D01*
X154315984Y-89145337D01*
X154220011Y-89298076D01*
X154160431Y-89468345D01*
X154160430Y-89468350D01*
X154140235Y-89647596D01*
X79638771Y-89647596D01*
X79764822Y-89603489D01*
X79917562Y-89507516D01*
X80045116Y-89379962D01*
X80141089Y-89227222D01*
X80200668Y-89056955D01*
X80200669Y-89056949D01*
X80220865Y-88877703D01*
X80220865Y-88877696D01*
X80200669Y-88698450D01*
X80200668Y-88698445D01*
X80141088Y-88528176D01*
X80045115Y-88375437D01*
X79917562Y-88247884D01*
X79764823Y-88151911D01*
X79594554Y-88092331D01*
X79594549Y-88092330D01*
X79415304Y-88072135D01*
X79415296Y-88072135D01*
X79236050Y-88092330D01*
X79236045Y-88092331D01*
X79065776Y-88151911D01*
X78913037Y-88247884D01*
X78785484Y-88375437D01*
X78689511Y-88528176D01*
X78629931Y-88698445D01*
X78629930Y-88698450D01*
X78609735Y-88877696D01*
X71610900Y-88877696D01*
X71610900Y-83645300D01*
X71630585Y-83578261D01*
X71683389Y-83532506D01*
X71734900Y-83521300D01*
X136699559Y-83521300D01*
X136766598Y-83540985D01*
G37*
G04 #@! TD.AperFunction*
M02*
