G04 #@! TF.GenerationSoftware,KiCad,Pcbnew,8.0.8*
G04 #@! TF.CreationDate,2025-05-30T17:01:45-05:00*
G04 #@! TF.ProjectId,logicboard,6c6f6769-6362-46f6-9172-642e6b696361,rev?*
G04 #@! TF.SameCoordinates,Original*
G04 #@! TF.FileFunction,Soldermask,Bot*
G04 #@! TF.FilePolarity,Negative*
%FSLAX46Y46*%
G04 Gerber Fmt 4.6, Leading zero omitted, Abs format (unit mm)*
G04 Created by KiCad (PCBNEW 8.0.8) date 2025-05-30 17:01:45*
%MOMM*%
%LPD*%
G01*
G04 APERTURE LIST*
%ADD10C,1.600000*%
%ADD11R,1.600000X1.600000*%
%ADD12O,1.600000X1.600000*%
%ADD13R,1.508000X1.508000*%
%ADD14C,1.508000*%
%ADD15R,1.700000X1.700000*%
%ADD16O,1.700000X1.700000*%
G04 APERTURE END LIST*
D10*
X149340000Y-112080000D03*
X151840000Y-112080000D03*
D11*
X122130000Y-92340000D03*
D12*
X122130000Y-94880000D03*
X122130000Y-97420000D03*
X122130000Y-99960000D03*
X122130000Y-102500000D03*
X122130000Y-105040000D03*
X122130000Y-107580000D03*
X129750000Y-107580000D03*
X129750000Y-105040000D03*
X129750000Y-102500000D03*
X129750000Y-99960000D03*
X129750000Y-97420000D03*
X129750000Y-94880000D03*
X129750000Y-92340000D03*
D11*
X147000000Y-92300000D03*
D12*
X147000000Y-94840000D03*
X147000000Y-97380000D03*
X147000000Y-99920000D03*
X147000000Y-102460000D03*
X147000000Y-105000000D03*
X147000000Y-107540000D03*
X154620000Y-107540000D03*
X154620000Y-105000000D03*
X154620000Y-102460000D03*
X154620000Y-99920000D03*
X154620000Y-97380000D03*
X154620000Y-94840000D03*
X154620000Y-92300000D03*
D11*
X171870000Y-92300000D03*
D12*
X171870000Y-94840000D03*
X171870000Y-97380000D03*
X171870000Y-99920000D03*
X171870000Y-102460000D03*
X171870000Y-105000000D03*
X171870000Y-107540000D03*
X179490000Y-107540000D03*
X179490000Y-105000000D03*
X179490000Y-102460000D03*
X179490000Y-99920000D03*
X179490000Y-97380000D03*
X179490000Y-94840000D03*
X179490000Y-92300000D03*
D10*
X124400000Y-112040000D03*
X126900000Y-112040000D03*
D11*
X159435000Y-92300000D03*
D12*
X159435000Y-94840000D03*
X159435000Y-97380000D03*
X159435000Y-99920000D03*
X159435000Y-102460000D03*
X159435000Y-105000000D03*
X159435000Y-107540000D03*
X167055000Y-107540000D03*
X167055000Y-105000000D03*
X167055000Y-102460000D03*
X167055000Y-99920000D03*
X167055000Y-97380000D03*
X167055000Y-94840000D03*
X167055000Y-92300000D03*
D10*
X161925000Y-112080000D03*
X164425000Y-112080000D03*
D11*
X184305000Y-92300000D03*
D12*
X184305000Y-94840000D03*
X184305000Y-97380000D03*
X184305000Y-99920000D03*
X184305000Y-102460000D03*
X184305000Y-105000000D03*
X184305000Y-107540000D03*
X191925000Y-107540000D03*
X191925000Y-105000000D03*
X191925000Y-102460000D03*
X191925000Y-99920000D03*
X191925000Y-97380000D03*
X191925000Y-94840000D03*
X191925000Y-92300000D03*
D10*
X136985000Y-112040000D03*
X139485000Y-112040000D03*
X174010000Y-112080000D03*
X176510000Y-112080000D03*
D11*
X134565000Y-92340000D03*
D12*
X134565000Y-94880000D03*
X134565000Y-97420000D03*
X134565000Y-99960000D03*
X134565000Y-102500000D03*
X134565000Y-105040000D03*
X134565000Y-107580000D03*
X142185000Y-107580000D03*
X142185000Y-105040000D03*
X142185000Y-102500000D03*
X142185000Y-99960000D03*
X142185000Y-97420000D03*
X142185000Y-94880000D03*
X142185000Y-92340000D03*
D11*
X85610400Y-96520800D03*
D10*
X89410400Y-96520800D03*
D11*
X109695000Y-92340000D03*
D12*
X109695000Y-94880000D03*
X109695000Y-97420000D03*
X109695000Y-99960000D03*
X109695000Y-102500000D03*
X109695000Y-105040000D03*
X109695000Y-107580000D03*
X117315000Y-107580000D03*
X117315000Y-105040000D03*
X117315000Y-102500000D03*
X117315000Y-99960000D03*
X117315000Y-97420000D03*
X117315000Y-94880000D03*
X117315000Y-92340000D03*
D11*
X85428000Y-108520800D03*
D10*
X89228000Y-108520800D03*
X200965800Y-97195000D03*
D12*
X200965800Y-107355000D03*
D10*
X112065000Y-112040000D03*
X114565000Y-112040000D03*
X186845000Y-112080000D03*
X189345000Y-112080000D03*
D13*
X99860400Y-105060800D03*
D14*
X99860400Y-102520800D03*
X99860400Y-99980800D03*
D15*
X217650400Y-92360800D03*
D16*
X215110400Y-92360800D03*
X217650400Y-94900800D03*
X215110400Y-94900800D03*
X217650400Y-97440800D03*
X215110400Y-97440800D03*
X217650400Y-99980800D03*
X215110400Y-99980800D03*
X217650400Y-102520800D03*
X215110400Y-102520800D03*
X217650400Y-105060800D03*
X215110400Y-105060800D03*
X217650400Y-107600800D03*
X215110400Y-107600800D03*
X217650400Y-110140800D03*
X215110400Y-110140800D03*
X217650400Y-112680800D03*
X215110400Y-112680800D03*
D15*
X77110400Y-92370800D03*
D16*
X74570400Y-92370800D03*
X77110400Y-94910800D03*
X74570400Y-94910800D03*
X77110400Y-97450800D03*
X74570400Y-97450800D03*
X77110400Y-99990800D03*
X74570400Y-99990800D03*
X77110400Y-102530800D03*
X74570400Y-102530800D03*
X77110400Y-105070800D03*
X74570400Y-105070800D03*
X77110400Y-107610800D03*
X74570400Y-107610800D03*
X77110400Y-110150800D03*
X74570400Y-110150800D03*
X77110400Y-112690800D03*
X74570400Y-112690800D03*
M02*
