%TF.GenerationSoftware,KiCad,Pcbnew,8.0.8*%
%TF.CreationDate,2025-05-30T17:01:49-05:00*%
%TF.ProjectId,logicboard,6c6f6769-6362-46f6-9172-642e6b696361,rev?*%
%TF.SameCoordinates,Original*%
%TF.FileFunction,Drillmap*%
%TF.FilePolarity,Positive*%
%FSLAX45Y45*%
G04 Gerber Fmt 4.5, Leading zero omitted, Abs format (unit mm)*
G04 Created by KiCad (PCBNEW 8.0.8) date 2025-05-30 17:01:49*
%MOMM*%
%LPD*%
G01*
G04 APERTURE LIST*
%ADD10C,0.200000*%
G04 APERTURE END LIST*
D10*
X7111040Y-8302080D02*
X22111040Y-8302080D01*
X22111040Y-12202080D01*
X7111040Y-12202080D01*
X7111040Y-8302080D01*
X7361817Y-12523564D02*
X7361817Y-12323564D01*
X7361817Y-12323564D02*
X7409436Y-12323564D01*
X7409436Y-12323564D02*
X7438007Y-12333088D01*
X7438007Y-12333088D02*
X7457055Y-12352135D01*
X7457055Y-12352135D02*
X7466579Y-12371183D01*
X7466579Y-12371183D02*
X7476102Y-12409278D01*
X7476102Y-12409278D02*
X7476102Y-12437849D01*
X7476102Y-12437849D02*
X7466579Y-12475945D01*
X7466579Y-12475945D02*
X7457055Y-12494992D01*
X7457055Y-12494992D02*
X7438007Y-12514040D01*
X7438007Y-12514040D02*
X7409436Y-12523564D01*
X7409436Y-12523564D02*
X7361817Y-12523564D01*
X7561817Y-12523564D02*
X7561817Y-12390230D01*
X7561817Y-12428326D02*
X7571341Y-12409278D01*
X7571341Y-12409278D02*
X7580864Y-12399754D01*
X7580864Y-12399754D02*
X7599912Y-12390230D01*
X7599912Y-12390230D02*
X7618960Y-12390230D01*
X7685626Y-12523564D02*
X7685626Y-12390230D01*
X7685626Y-12323564D02*
X7676102Y-12333088D01*
X7676102Y-12333088D02*
X7685626Y-12342611D01*
X7685626Y-12342611D02*
X7695150Y-12333088D01*
X7695150Y-12333088D02*
X7685626Y-12323564D01*
X7685626Y-12323564D02*
X7685626Y-12342611D01*
X7809436Y-12523564D02*
X7790388Y-12514040D01*
X7790388Y-12514040D02*
X7780864Y-12494992D01*
X7780864Y-12494992D02*
X7780864Y-12323564D01*
X7914198Y-12523564D02*
X7895150Y-12514040D01*
X7895150Y-12514040D02*
X7885626Y-12494992D01*
X7885626Y-12494992D02*
X7885626Y-12323564D01*
X8142769Y-12523564D02*
X8142769Y-12323564D01*
X8142769Y-12323564D02*
X8209436Y-12466421D01*
X8209436Y-12466421D02*
X8276102Y-12323564D01*
X8276102Y-12323564D02*
X8276102Y-12523564D01*
X8457055Y-12523564D02*
X8457055Y-12418802D01*
X8457055Y-12418802D02*
X8447531Y-12399754D01*
X8447531Y-12399754D02*
X8428484Y-12390230D01*
X8428484Y-12390230D02*
X8390388Y-12390230D01*
X8390388Y-12390230D02*
X8371341Y-12399754D01*
X8457055Y-12514040D02*
X8438007Y-12523564D01*
X8438007Y-12523564D02*
X8390388Y-12523564D01*
X8390388Y-12523564D02*
X8371341Y-12514040D01*
X8371341Y-12514040D02*
X8361817Y-12494992D01*
X8361817Y-12494992D02*
X8361817Y-12475945D01*
X8361817Y-12475945D02*
X8371341Y-12456897D01*
X8371341Y-12456897D02*
X8390388Y-12447373D01*
X8390388Y-12447373D02*
X8438007Y-12447373D01*
X8438007Y-12447373D02*
X8457055Y-12437849D01*
X8552293Y-12390230D02*
X8552293Y-12590230D01*
X8552293Y-12399754D02*
X8571341Y-12390230D01*
X8571341Y-12390230D02*
X8609436Y-12390230D01*
X8609436Y-12390230D02*
X8628484Y-12399754D01*
X8628484Y-12399754D02*
X8638007Y-12409278D01*
X8638007Y-12409278D02*
X8647531Y-12428326D01*
X8647531Y-12428326D02*
X8647531Y-12485468D01*
X8647531Y-12485468D02*
X8638007Y-12504516D01*
X8638007Y-12504516D02*
X8628484Y-12514040D01*
X8628484Y-12514040D02*
X8609436Y-12523564D01*
X8609436Y-12523564D02*
X8571341Y-12523564D01*
X8571341Y-12523564D02*
X8552293Y-12514040D01*
X8733245Y-12504516D02*
X8742769Y-12514040D01*
X8742769Y-12514040D02*
X8733245Y-12523564D01*
X8733245Y-12523564D02*
X8723722Y-12514040D01*
X8723722Y-12514040D02*
X8733245Y-12504516D01*
X8733245Y-12504516D02*
X8733245Y-12523564D01*
X8733245Y-12399754D02*
X8742769Y-12409278D01*
X8742769Y-12409278D02*
X8733245Y-12418802D01*
X8733245Y-12418802D02*
X8723722Y-12409278D01*
X8723722Y-12409278D02*
X8733245Y-12399754D01*
X8733245Y-12399754D02*
X8733245Y-12418802D01*
M02*
