%TF.GenerationSoftware,KiCad,Pcbnew,8.0.8*%
%TF.CreationDate,2025-05-30T13:17:01-05:00*%
%TF.ProjectId,baseboard,62617365-626f-4617-9264-2e6b69636164,rev?*%
%TF.SameCoordinates,Original*%
%TF.FileFunction,Drillmap*%
%TF.FilePolarity,Positive*%
%FSLAX45Y45*%
G04 Gerber Fmt 4.5, Leading zero omitted, Abs format (unit mm)*
G04 Created by KiCad (PCBNEW 8.0.8) date 2025-05-30 13:17:01*
%MOMM*%
%LPD*%
G01*
G04 APERTURE LIST*
%ADD10C,0.200000*%
G04 APERTURE END LIST*
D10*
X7570302Y-4837500D02*
X7570302Y-6946257D01*
X7570302Y-11368743D02*
X7570302Y-13477500D01*
X7570302Y-13477500D02*
X7790000Y-13477500D01*
X7645302Y-7057500D02*
X7645302Y-9077500D01*
X7645302Y-9077500D02*
X7795302Y-9077500D01*
X7645302Y-9237500D02*
X7645302Y-11257500D01*
X7790000Y-4837500D02*
X7570302Y-4837500D01*
X7790000Y-4962500D02*
X7790000Y-4837500D01*
X7790000Y-13352500D02*
X7940000Y-13352500D01*
X7790000Y-13477500D02*
X7790000Y-13352500D01*
X7795302Y-9077500D02*
X7795302Y-9237500D01*
X7795302Y-9237500D02*
X7645302Y-9237500D01*
X7940000Y-4837500D02*
X7940000Y-4962500D01*
X7940000Y-4962500D02*
X7790000Y-4962500D01*
X7940000Y-13352500D02*
X7940000Y-13477500D01*
X7940000Y-13477500D02*
X8715302Y-13477500D01*
X8027935Y-4837500D02*
X7940000Y-4837500D01*
X8365302Y-4932500D02*
X8145302Y-4932500D01*
X8715302Y-13477500D02*
X8715302Y-13447500D01*
X8955302Y-13447500D02*
X8955302Y-13477500D01*
X8955302Y-13477500D02*
X9150000Y-13477500D01*
X9150000Y-4837500D02*
X8482669Y-4837500D01*
X9150000Y-4962500D02*
X9150000Y-4837500D01*
X9150000Y-13352500D02*
X9313350Y-13352500D01*
X9150000Y-13477500D02*
X9150000Y-13352500D01*
X9313350Y-4837500D02*
X9313350Y-4962500D01*
X9313350Y-4962500D02*
X9150000Y-4962500D01*
X9313350Y-13352500D02*
X9313350Y-13477500D01*
X9313350Y-13477500D02*
X9980302Y-13477500D01*
X9827935Y-4837500D02*
X9313350Y-4837500D01*
X9945302Y-4932500D02*
X10165302Y-4932500D01*
X9980302Y-13352500D02*
X10130302Y-13352500D01*
X9980302Y-13477500D02*
X9980302Y-13352500D01*
X10130302Y-13352500D02*
X10130302Y-13477500D01*
X10130302Y-13477500D02*
X10797254Y-13477500D01*
X10797254Y-4837500D02*
X10282669Y-4837500D01*
X10797254Y-4962500D02*
X10797254Y-4837500D01*
X10797254Y-13352500D02*
X10960604Y-13352500D01*
X10797254Y-13477500D02*
X10797254Y-13352500D01*
X10960604Y-4837500D02*
X10960604Y-4962500D01*
X10960604Y-4962500D02*
X10797254Y-4962500D01*
X10960604Y-13352500D02*
X10960604Y-13477500D01*
X10960604Y-13477500D02*
X11155302Y-13477500D01*
X11155302Y-13477500D02*
X11155302Y-13447500D01*
X11395302Y-13447500D02*
X11395302Y-13477500D01*
X11395302Y-13477500D02*
X12390302Y-13477500D01*
X11627935Y-4837500D02*
X10960604Y-4837500D01*
X11965302Y-4932500D02*
X11745302Y-4932500D01*
X12390302Y-4837500D02*
X12082669Y-4837500D01*
X12390302Y-4962500D02*
X12390302Y-4837500D01*
X12390302Y-13352500D02*
X12541243Y-13352500D01*
X12390302Y-13477500D02*
X12390302Y-13352500D01*
X12541243Y-4962500D02*
X12390302Y-4962500D01*
X12635302Y-5907500D02*
X12635302Y-5064867D01*
X12635302Y-13250133D02*
X12635302Y-12407500D01*
X12875302Y-5064867D02*
X12875302Y-5907500D01*
X12875302Y-12407500D02*
X12875302Y-13250133D01*
X12969361Y-13352500D02*
X13120302Y-13352500D01*
X13120302Y-4837500D02*
X13120302Y-4962500D01*
X13120302Y-4962500D02*
X12969361Y-4962500D01*
X13120302Y-13352500D02*
X13120302Y-13477500D01*
X13120302Y-13477500D02*
X13427935Y-13477500D01*
X13427935Y-4837500D02*
X13120302Y-4837500D01*
X13545302Y-13382500D02*
X13765302Y-13382500D01*
X13765302Y-4932500D02*
X13545302Y-4932500D01*
X13882669Y-13477500D02*
X14550000Y-13477500D01*
X14550000Y-4837500D02*
X13882669Y-4837500D01*
X14550000Y-4962500D02*
X14550000Y-4837500D01*
X14550000Y-13352500D02*
X14713350Y-13352500D01*
X14550000Y-13477500D02*
X14550000Y-13352500D01*
X14713350Y-4837500D02*
X14713350Y-4962500D01*
X14713350Y-4962500D02*
X14550000Y-4962500D01*
X14713350Y-13352500D02*
X14713350Y-13477500D01*
X14713350Y-13477500D02*
X15227935Y-13477500D01*
X15227935Y-4837500D02*
X14713350Y-4837500D01*
X15565302Y-4932500D02*
X15345302Y-4932500D01*
X15565302Y-13382500D02*
X15345302Y-13382500D01*
X15682669Y-13477500D02*
X16197254Y-13477500D01*
X16197254Y-4837500D02*
X15682669Y-4837500D01*
X16197254Y-4962500D02*
X16197254Y-4837500D01*
X16197254Y-13352500D02*
X16360604Y-13352500D01*
X16197254Y-13477500D02*
X16197254Y-13352500D01*
X16360604Y-4837500D02*
X16360604Y-4962500D01*
X16360604Y-4962500D02*
X16197254Y-4962500D01*
X16360604Y-13352500D02*
X16360604Y-13477500D01*
X16360604Y-13477500D02*
X17027935Y-13477500D01*
X17027935Y-4837500D02*
X16360604Y-4837500D01*
X17145302Y-13382500D02*
X17365302Y-13382500D01*
X17365302Y-4932500D02*
X17145302Y-4932500D01*
X17482669Y-13477500D02*
X17790302Y-13477500D01*
X17790302Y-4837500D02*
X17482669Y-4837500D01*
X17790302Y-4962500D02*
X17790302Y-4837500D01*
X17790302Y-13352500D02*
X17941244Y-13352500D01*
X17790302Y-13477500D02*
X17790302Y-13352500D01*
X17941244Y-4962500D02*
X17790302Y-4962500D01*
X18035302Y-5907500D02*
X18035302Y-5064867D01*
X18035302Y-13250133D02*
X18035302Y-12407500D01*
X18275302Y-5064867D02*
X18275302Y-5907500D01*
X18275302Y-12407500D02*
X18275302Y-13250133D01*
X18369361Y-13352500D02*
X18520302Y-13352500D01*
X18520302Y-4837500D02*
X18520302Y-4962500D01*
X18520302Y-4962500D02*
X18369361Y-4962500D01*
X18520302Y-13352500D02*
X18520302Y-13477500D01*
X18520302Y-13477500D02*
X18827935Y-13477500D01*
X18827935Y-4837500D02*
X18520302Y-4837500D01*
X18945302Y-13382500D02*
X19165302Y-13382500D01*
X19165302Y-4932500D02*
X18945302Y-4932500D01*
X19282669Y-13477500D02*
X19950000Y-13477500D01*
X19950000Y-4837500D02*
X19282669Y-4837500D01*
X19950000Y-4962500D02*
X19950000Y-4837500D01*
X19950000Y-13352500D02*
X20113350Y-13352500D01*
X19950000Y-13477500D02*
X19950000Y-13352500D01*
X20113350Y-4837500D02*
X20113350Y-4962500D01*
X20113350Y-4962500D02*
X19950000Y-4962500D01*
X20113350Y-13352500D02*
X20113350Y-13477500D01*
X20113350Y-13477500D02*
X20627935Y-13477500D01*
X20627935Y-4837500D02*
X20113350Y-4837500D01*
X20965302Y-4932500D02*
X20745302Y-4932500D01*
X20965302Y-13382500D02*
X20745302Y-13382500D01*
X21082669Y-13477500D02*
X21597254Y-13477500D01*
X21597254Y-4837500D02*
X21082669Y-4837500D01*
X21597254Y-4962500D02*
X21597254Y-4837500D01*
X21597254Y-13352500D02*
X21760604Y-13352500D01*
X21597254Y-13477500D02*
X21597254Y-13352500D01*
X21760604Y-4837500D02*
X21760604Y-4962500D01*
X21760604Y-4962500D02*
X21597254Y-4962500D01*
X21760604Y-13352500D02*
X21760604Y-13477500D01*
X21760604Y-13477500D02*
X22427935Y-13477500D01*
X22427935Y-4837500D02*
X21760604Y-4837500D01*
X22545302Y-13382500D02*
X22765302Y-13382500D01*
X22765302Y-4932500D02*
X22545302Y-4932500D01*
X22882669Y-13477500D02*
X22970604Y-13477500D01*
X22970604Y-4837500D02*
X22882669Y-4837500D01*
X22970604Y-4962500D02*
X22970604Y-4837500D01*
X22970604Y-13352500D02*
X23120604Y-13352500D01*
X22970604Y-13477500D02*
X22970604Y-13352500D01*
X23115302Y-9077500D02*
X23265302Y-9077500D01*
X23115302Y-9237500D02*
X23115302Y-9077500D01*
X23120604Y-4837500D02*
X23120604Y-4962500D01*
X23120604Y-4962500D02*
X22970604Y-4962500D01*
X23120604Y-13352500D02*
X23120604Y-13477500D01*
X23120604Y-13477500D02*
X23340302Y-13477500D01*
X23265302Y-9077500D02*
X23265302Y-7057500D01*
X23265302Y-9237500D02*
X23115302Y-9237500D01*
X23265302Y-11257500D02*
X23265302Y-9237500D01*
X23340302Y-4837500D02*
X23120604Y-4837500D01*
X23340302Y-6946257D02*
X23340302Y-4837500D01*
X23340302Y-13477500D02*
X23340302Y-11368743D01*
X7570302Y-6946257D02*
G75*
G02*
X7645302Y-7057500I-45000J-111243D01*
G01*
X7645302Y-11257500D02*
G75*
G02*
X7570303Y-11368744I-120002J0D01*
G01*
X8145302Y-4932500D02*
G75*
G02*
X8027935Y-4837500I0J120000D01*
G01*
X8482669Y-4837500D02*
G75*
G02*
X8365302Y-4932500I-117367J25000D01*
G01*
X8715302Y-13447500D02*
G75*
G02*
X8955298Y-13447500I119998J0D01*
G01*
X9945302Y-4932500D02*
G75*
G02*
X9827935Y-4837500I0J120000D01*
G01*
X10282669Y-4837500D02*
G75*
G02*
X10165302Y-4932500I-117367J25000D01*
G01*
X11155302Y-13447500D02*
G75*
G02*
X11395298Y-13447500I119998J0D01*
G01*
X11745302Y-4932500D02*
G75*
G02*
X11627935Y-4837500I0J120000D01*
G01*
X12082669Y-4837500D02*
G75*
G02*
X11965302Y-4932500I-117367J25000D01*
G01*
X12541243Y-13352500D02*
G75*
G02*
X12635303Y-13250135I119057J-15000D01*
G01*
X12635302Y-5064867D02*
G75*
G02*
X12541244Y-4962500I25000J117366D01*
G01*
X12635302Y-12407500D02*
G75*
G02*
X12875302Y-12407500I120000J0D01*
G01*
X12875302Y-5907500D02*
G75*
G02*
X12635302Y-5907500I-120000J0D01*
G01*
X12875302Y-13250133D02*
G75*
G02*
X12969359Y-13352500I-25002J-117367D01*
G01*
X12969361Y-4962500D02*
G75*
G02*
X12875302Y-5064867I-119059J15000D01*
G01*
X13427935Y-13477500D02*
G75*
G02*
X13545302Y-13382502I117365J-25000D01*
G01*
X13545302Y-4932500D02*
G75*
G02*
X13427935Y-4837500I0J120000D01*
G01*
X13765302Y-13382500D02*
G75*
G02*
X13882667Y-13477500I-2J-120000D01*
G01*
X13882669Y-4837500D02*
G75*
G02*
X13765302Y-4932500I-117367J25000D01*
G01*
X15227935Y-13477500D02*
G75*
G02*
X15345302Y-13382502I117365J-25000D01*
G01*
X15345302Y-4932500D02*
G75*
G02*
X15227935Y-4837500I0J120000D01*
G01*
X15565302Y-13382500D02*
G75*
G02*
X15682667Y-13477500I-2J-120000D01*
G01*
X15682669Y-4837500D02*
G75*
G02*
X15565302Y-4932500I-117367J25000D01*
G01*
X17027935Y-13477500D02*
G75*
G02*
X17145302Y-13382502I117365J-25000D01*
G01*
X17145302Y-4932500D02*
G75*
G02*
X17027935Y-4837500I0J120000D01*
G01*
X17365302Y-13382500D02*
G75*
G02*
X17482667Y-13477500I-2J-120000D01*
G01*
X17482669Y-4837500D02*
G75*
G02*
X17365302Y-4932500I-117367J25000D01*
G01*
X17941244Y-13352500D02*
G75*
G02*
X18035303Y-13250135I119056J-15000D01*
G01*
X18035302Y-5064867D02*
G75*
G02*
X17941244Y-4962500I25000J117366D01*
G01*
X18035302Y-12407500D02*
G75*
G02*
X18275302Y-12407500I120000J0D01*
G01*
X18275302Y-5907500D02*
G75*
G02*
X18035302Y-5907500I-120000J0D01*
G01*
X18275302Y-13250133D02*
G75*
G02*
X18369359Y-13352500I-25002J-117367D01*
G01*
X18369361Y-4962500D02*
G75*
G02*
X18275302Y-5064867I-119059J15000D01*
G01*
X18827935Y-13477500D02*
G75*
G02*
X18945302Y-13382502I117365J-25000D01*
G01*
X18945302Y-4932500D02*
G75*
G02*
X18827935Y-4837500I0J120000D01*
G01*
X19165302Y-13382500D02*
G75*
G02*
X19282667Y-13477500I-2J-120000D01*
G01*
X19282669Y-4837500D02*
G75*
G02*
X19165302Y-4932500I-117367J25000D01*
G01*
X20627935Y-13477500D02*
G75*
G02*
X20745302Y-13382502I117365J-25000D01*
G01*
X20745302Y-4932500D02*
G75*
G02*
X20627935Y-4837500I0J120000D01*
G01*
X20965302Y-13382500D02*
G75*
G02*
X21082667Y-13477500I-2J-120000D01*
G01*
X21082669Y-4837500D02*
G75*
G02*
X20965302Y-4932500I-117367J25000D01*
G01*
X22427935Y-13477500D02*
G75*
G02*
X22545302Y-13382502I117365J-25000D01*
G01*
X22545302Y-4932500D02*
G75*
G02*
X22427935Y-4837500I0J120000D01*
G01*
X22765302Y-13382500D02*
G75*
G02*
X22882667Y-13477500I-2J-120000D01*
G01*
X22882669Y-4837500D02*
G75*
G02*
X22765302Y-4932500I-117367J25000D01*
G01*
X23265302Y-7057500D02*
G75*
G02*
X23340302Y-6946257I119999J0D01*
G01*
X23340302Y-11368743D02*
G75*
G02*
X23265301Y-11257500I44998J111243D01*
G01*
X7821079Y-13798984D02*
X7821079Y-13598984D01*
X7821079Y-13598984D02*
X7868698Y-13598984D01*
X7868698Y-13598984D02*
X7897269Y-13608508D01*
X7897269Y-13608508D02*
X7916317Y-13627555D01*
X7916317Y-13627555D02*
X7925841Y-13646603D01*
X7925841Y-13646603D02*
X7935365Y-13684698D01*
X7935365Y-13684698D02*
X7935365Y-13713269D01*
X7935365Y-13713269D02*
X7925841Y-13751365D01*
X7925841Y-13751365D02*
X7916317Y-13770412D01*
X7916317Y-13770412D02*
X7897269Y-13789460D01*
X7897269Y-13789460D02*
X7868698Y-13798984D01*
X7868698Y-13798984D02*
X7821079Y-13798984D01*
X8021079Y-13798984D02*
X8021079Y-13665650D01*
X8021079Y-13703746D02*
X8030603Y-13684698D01*
X8030603Y-13684698D02*
X8040127Y-13675174D01*
X8040127Y-13675174D02*
X8059174Y-13665650D01*
X8059174Y-13665650D02*
X8078222Y-13665650D01*
X8144888Y-13798984D02*
X8144888Y-13665650D01*
X8144888Y-13598984D02*
X8135365Y-13608508D01*
X8135365Y-13608508D02*
X8144888Y-13618031D01*
X8144888Y-13618031D02*
X8154412Y-13608508D01*
X8154412Y-13608508D02*
X8144888Y-13598984D01*
X8144888Y-13598984D02*
X8144888Y-13618031D01*
X8268698Y-13798984D02*
X8249650Y-13789460D01*
X8249650Y-13789460D02*
X8240127Y-13770412D01*
X8240127Y-13770412D02*
X8240127Y-13598984D01*
X8373460Y-13798984D02*
X8354412Y-13789460D01*
X8354412Y-13789460D02*
X8344888Y-13770412D01*
X8344888Y-13770412D02*
X8344888Y-13598984D01*
X8602031Y-13798984D02*
X8602031Y-13598984D01*
X8602031Y-13598984D02*
X8668698Y-13741841D01*
X8668698Y-13741841D02*
X8735365Y-13598984D01*
X8735365Y-13598984D02*
X8735365Y-13798984D01*
X8916317Y-13798984D02*
X8916317Y-13694222D01*
X8916317Y-13694222D02*
X8906793Y-13675174D01*
X8906793Y-13675174D02*
X8887746Y-13665650D01*
X8887746Y-13665650D02*
X8849650Y-13665650D01*
X8849650Y-13665650D02*
X8830603Y-13675174D01*
X8916317Y-13789460D02*
X8897270Y-13798984D01*
X8897270Y-13798984D02*
X8849650Y-13798984D01*
X8849650Y-13798984D02*
X8830603Y-13789460D01*
X8830603Y-13789460D02*
X8821079Y-13770412D01*
X8821079Y-13770412D02*
X8821079Y-13751365D01*
X8821079Y-13751365D02*
X8830603Y-13732317D01*
X8830603Y-13732317D02*
X8849650Y-13722793D01*
X8849650Y-13722793D02*
X8897270Y-13722793D01*
X8897270Y-13722793D02*
X8916317Y-13713269D01*
X9011555Y-13665650D02*
X9011555Y-13865650D01*
X9011555Y-13675174D02*
X9030603Y-13665650D01*
X9030603Y-13665650D02*
X9068698Y-13665650D01*
X9068698Y-13665650D02*
X9087746Y-13675174D01*
X9087746Y-13675174D02*
X9097270Y-13684698D01*
X9097270Y-13684698D02*
X9106793Y-13703746D01*
X9106793Y-13703746D02*
X9106793Y-13760888D01*
X9106793Y-13760888D02*
X9097270Y-13779936D01*
X9097270Y-13779936D02*
X9087746Y-13789460D01*
X9087746Y-13789460D02*
X9068698Y-13798984D01*
X9068698Y-13798984D02*
X9030603Y-13798984D01*
X9030603Y-13798984D02*
X9011555Y-13789460D01*
X9192508Y-13779936D02*
X9202031Y-13789460D01*
X9202031Y-13789460D02*
X9192508Y-13798984D01*
X9192508Y-13798984D02*
X9182984Y-13789460D01*
X9182984Y-13789460D02*
X9192508Y-13779936D01*
X9192508Y-13779936D02*
X9192508Y-13798984D01*
X9192508Y-13675174D02*
X9202031Y-13684698D01*
X9202031Y-13684698D02*
X9192508Y-13694222D01*
X9192508Y-13694222D02*
X9182984Y-13684698D01*
X9182984Y-13684698D02*
X9192508Y-13675174D01*
X9192508Y-13675174D02*
X9192508Y-13694222D01*
M02*
