G04 #@! TF.GenerationSoftware,KiCad,Pcbnew,8.0.8*
G04 #@! TF.CreationDate,2025-05-30T13:16:56-05:00*
G04 #@! TF.ProjectId,baseboard,62617365-626f-4617-9264-2e6b69636164,rev?*
G04 #@! TF.SameCoordinates,Original*
G04 #@! TF.FileFunction,Legend,Top*
G04 #@! TF.FilePolarity,Positive*
%FSLAX46Y46*%
G04 Gerber Fmt 4.6, Leading zero omitted, Abs format (unit mm)*
G04 Created by KiCad (PCBNEW 8.0.8) date 2025-05-30 13:16:56*
%MOMM*%
%LPD*%
G01*
G04 APERTURE LIST*
%ADD10C,0.200000*%
%ADD11C,0.300000*%
%ADD12C,0.150000*%
%ADD13C,0.254000*%
%ADD14C,0.120000*%
%ADD15C,0.100000*%
%ADD16C,0.127000*%
%ADD17C,0.000000*%
%ADD18R,1.500000X1.500000*%
%ADD19C,1.600000*%
%ADD20C,3.556000*%
%ADD21C,3.810000*%
%ADD22R,1.600000X1.600000*%
%ADD23O,1.600000X1.600000*%
%ADD24C,1.400000*%
%ADD25C,2.400000*%
%ADD26O,2.400000X2.400000*%
%ADD27R,1.700000X1.700000*%
%ADD28O,1.700000X1.700000*%
%ADD29C,2.000000*%
%ADD30R,1.730000X2.030000*%
%ADD31O,1.730000X2.030000*%
%ADD32R,1.950000X1.950000*%
%ADD33C,1.950000*%
%ADD34R,1.508000X1.508000*%
%ADD35C,1.508000*%
%ADD36R,1.200000X1.200000*%
%ADD37C,1.200000*%
G04 APERTURE END LIST*
D10*
X164602600Y-77817393D02*
X175602600Y-77817393D01*
X175602600Y-82817393D01*
X164602600Y-82817393D01*
X164602600Y-77817393D01*
D11*
X162554286Y-60331172D02*
X162554286Y-60045458D01*
X162554286Y-60045458D02*
X162625715Y-59902601D01*
X162625715Y-59902601D02*
X162768572Y-59759744D01*
X162768572Y-59759744D02*
X163054286Y-59688315D01*
X163054286Y-59688315D02*
X163554286Y-59688315D01*
X163554286Y-59688315D02*
X163840000Y-59759744D01*
X163840000Y-59759744D02*
X163982858Y-59902601D01*
X163982858Y-59902601D02*
X164054286Y-60045458D01*
X164054286Y-60045458D02*
X164054286Y-60331172D01*
X164054286Y-60331172D02*
X163982858Y-60474030D01*
X163982858Y-60474030D02*
X163840000Y-60616887D01*
X163840000Y-60616887D02*
X163554286Y-60688315D01*
X163554286Y-60688315D02*
X163054286Y-60688315D01*
X163054286Y-60688315D02*
X162768572Y-60616887D01*
X162768572Y-60616887D02*
X162625715Y-60474030D01*
X162625715Y-60474030D02*
X162554286Y-60331172D01*
X163054286Y-58402601D02*
X164054286Y-58402601D01*
X163054286Y-59045458D02*
X163840000Y-59045458D01*
X163840000Y-59045458D02*
X163982858Y-58974029D01*
X163982858Y-58974029D02*
X164054286Y-58831172D01*
X164054286Y-58831172D02*
X164054286Y-58616886D01*
X164054286Y-58616886D02*
X163982858Y-58474029D01*
X163982858Y-58474029D02*
X163911429Y-58402601D01*
X163054286Y-57902600D02*
X163054286Y-57331172D01*
X162554286Y-57688315D02*
X163840000Y-57688315D01*
X163840000Y-57688315D02*
X163982858Y-57616886D01*
X163982858Y-57616886D02*
X164054286Y-57474029D01*
X164054286Y-57474029D02*
X164054286Y-57331172D01*
X163054286Y-56831172D02*
X164554286Y-56831172D01*
X163125715Y-56831172D02*
X163054286Y-56688315D01*
X163054286Y-56688315D02*
X163054286Y-56402600D01*
X163054286Y-56402600D02*
X163125715Y-56259743D01*
X163125715Y-56259743D02*
X163197143Y-56188315D01*
X163197143Y-56188315D02*
X163340000Y-56116886D01*
X163340000Y-56116886D02*
X163768572Y-56116886D01*
X163768572Y-56116886D02*
X163911429Y-56188315D01*
X163911429Y-56188315D02*
X163982858Y-56259743D01*
X163982858Y-56259743D02*
X164054286Y-56402600D01*
X164054286Y-56402600D02*
X164054286Y-56688315D01*
X164054286Y-56688315D02*
X163982858Y-56831172D01*
X163054286Y-54831172D02*
X164054286Y-54831172D01*
X163054286Y-55474029D02*
X163840000Y-55474029D01*
X163840000Y-55474029D02*
X163982858Y-55402600D01*
X163982858Y-55402600D02*
X164054286Y-55259743D01*
X164054286Y-55259743D02*
X164054286Y-55045457D01*
X164054286Y-55045457D02*
X163982858Y-54902600D01*
X163982858Y-54902600D02*
X163911429Y-54831172D01*
X163054286Y-54331171D02*
X163054286Y-53759743D01*
X162554286Y-54116886D02*
X163840000Y-54116886D01*
X163840000Y-54116886D02*
X163982858Y-54045457D01*
X163982858Y-54045457D02*
X164054286Y-53902600D01*
X164054286Y-53902600D02*
X164054286Y-53759743D01*
X156268796Y-65561139D02*
X155554510Y-65561139D01*
X155554510Y-65561139D02*
X155554510Y-64061139D01*
X156983082Y-65561139D02*
X156840225Y-65489711D01*
X156840225Y-65489711D02*
X156768796Y-65418282D01*
X156768796Y-65418282D02*
X156697368Y-65275425D01*
X156697368Y-65275425D02*
X156697368Y-64846853D01*
X156697368Y-64846853D02*
X156768796Y-64703996D01*
X156768796Y-64703996D02*
X156840225Y-64632568D01*
X156840225Y-64632568D02*
X156983082Y-64561139D01*
X156983082Y-64561139D02*
X157197368Y-64561139D01*
X157197368Y-64561139D02*
X157340225Y-64632568D01*
X157340225Y-64632568D02*
X157411654Y-64703996D01*
X157411654Y-64703996D02*
X157483082Y-64846853D01*
X157483082Y-64846853D02*
X157483082Y-65275425D01*
X157483082Y-65275425D02*
X157411654Y-65418282D01*
X157411654Y-65418282D02*
X157340225Y-65489711D01*
X157340225Y-65489711D02*
X157197368Y-65561139D01*
X157197368Y-65561139D02*
X156983082Y-65561139D01*
X158768797Y-65489711D02*
X158625939Y-65561139D01*
X158625939Y-65561139D02*
X158340225Y-65561139D01*
X158340225Y-65561139D02*
X158197368Y-65489711D01*
X158197368Y-65489711D02*
X158125939Y-65418282D01*
X158125939Y-65418282D02*
X158054511Y-65275425D01*
X158054511Y-65275425D02*
X158054511Y-64846853D01*
X158054511Y-64846853D02*
X158125939Y-64703996D01*
X158125939Y-64703996D02*
X158197368Y-64632568D01*
X158197368Y-64632568D02*
X158340225Y-64561139D01*
X158340225Y-64561139D02*
X158625939Y-64561139D01*
X158625939Y-64561139D02*
X158768797Y-64632568D01*
X160054511Y-65561139D02*
X160054511Y-64775425D01*
X160054511Y-64775425D02*
X159983082Y-64632568D01*
X159983082Y-64632568D02*
X159840225Y-64561139D01*
X159840225Y-64561139D02*
X159554511Y-64561139D01*
X159554511Y-64561139D02*
X159411653Y-64632568D01*
X160054511Y-65489711D02*
X159911653Y-65561139D01*
X159911653Y-65561139D02*
X159554511Y-65561139D01*
X159554511Y-65561139D02*
X159411653Y-65489711D01*
X159411653Y-65489711D02*
X159340225Y-65346853D01*
X159340225Y-65346853D02*
X159340225Y-65203996D01*
X159340225Y-65203996D02*
X159411653Y-65061139D01*
X159411653Y-65061139D02*
X159554511Y-64989711D01*
X159554511Y-64989711D02*
X159911653Y-64989711D01*
X159911653Y-64989711D02*
X160054511Y-64918282D01*
X160983082Y-65561139D02*
X160840225Y-65489711D01*
X160840225Y-65489711D02*
X160768796Y-65346853D01*
X160768796Y-65346853D02*
X160768796Y-64061139D01*
X168047030Y-50505538D02*
X168261316Y-50576966D01*
X168261316Y-50576966D02*
X168332745Y-50648395D01*
X168332745Y-50648395D02*
X168404173Y-50791252D01*
X168404173Y-50791252D02*
X168404173Y-51005538D01*
X168404173Y-51005538D02*
X168332745Y-51148395D01*
X168332745Y-51148395D02*
X168261316Y-51219824D01*
X168261316Y-51219824D02*
X168118459Y-51291252D01*
X168118459Y-51291252D02*
X167547030Y-51291252D01*
X167547030Y-51291252D02*
X167547030Y-49791252D01*
X167547030Y-49791252D02*
X168047030Y-49791252D01*
X168047030Y-49791252D02*
X168189888Y-49862681D01*
X168189888Y-49862681D02*
X168261316Y-49934109D01*
X168261316Y-49934109D02*
X168332745Y-50076966D01*
X168332745Y-50076966D02*
X168332745Y-50219824D01*
X168332745Y-50219824D02*
X168261316Y-50362681D01*
X168261316Y-50362681D02*
X168189888Y-50434109D01*
X168189888Y-50434109D02*
X168047030Y-50505538D01*
X168047030Y-50505538D02*
X167547030Y-50505538D01*
X169047030Y-51291252D02*
X169047030Y-49791252D01*
X169047030Y-49791252D02*
X169904173Y-51291252D01*
X169904173Y-51291252D02*
X169904173Y-49791252D01*
X171475602Y-51148395D02*
X171404174Y-51219824D01*
X171404174Y-51219824D02*
X171189888Y-51291252D01*
X171189888Y-51291252D02*
X171047031Y-51291252D01*
X171047031Y-51291252D02*
X170832745Y-51219824D01*
X170832745Y-51219824D02*
X170689888Y-51076966D01*
X170689888Y-51076966D02*
X170618459Y-50934109D01*
X170618459Y-50934109D02*
X170547031Y-50648395D01*
X170547031Y-50648395D02*
X170547031Y-50434109D01*
X170547031Y-50434109D02*
X170618459Y-50148395D01*
X170618459Y-50148395D02*
X170689888Y-50005538D01*
X170689888Y-50005538D02*
X170832745Y-49862681D01*
X170832745Y-49862681D02*
X171047031Y-49791252D01*
X171047031Y-49791252D02*
X171189888Y-49791252D01*
X171189888Y-49791252D02*
X171404174Y-49862681D01*
X171404174Y-49862681D02*
X171475602Y-49934109D01*
X149098572Y-64094970D02*
X149384286Y-64094970D01*
X149384286Y-64094970D02*
X149527143Y-64166399D01*
X149527143Y-64166399D02*
X149670000Y-64309256D01*
X149670000Y-64309256D02*
X149741429Y-64594970D01*
X149741429Y-64594970D02*
X149741429Y-65094970D01*
X149741429Y-65094970D02*
X149670000Y-65380684D01*
X149670000Y-65380684D02*
X149527143Y-65523542D01*
X149527143Y-65523542D02*
X149384286Y-65594970D01*
X149384286Y-65594970D02*
X149098572Y-65594970D01*
X149098572Y-65594970D02*
X148955715Y-65523542D01*
X148955715Y-65523542D02*
X148812857Y-65380684D01*
X148812857Y-65380684D02*
X148741429Y-65094970D01*
X148741429Y-65094970D02*
X148741429Y-64594970D01*
X148741429Y-64594970D02*
X148812857Y-64309256D01*
X148812857Y-64309256D02*
X148955715Y-64166399D01*
X148955715Y-64166399D02*
X149098572Y-64094970D01*
X150312858Y-65523542D02*
X150527144Y-65594970D01*
X150527144Y-65594970D02*
X150884286Y-65594970D01*
X150884286Y-65594970D02*
X151027144Y-65523542D01*
X151027144Y-65523542D02*
X151098572Y-65452113D01*
X151098572Y-65452113D02*
X151170001Y-65309256D01*
X151170001Y-65309256D02*
X151170001Y-65166399D01*
X151170001Y-65166399D02*
X151098572Y-65023542D01*
X151098572Y-65023542D02*
X151027144Y-64952113D01*
X151027144Y-64952113D02*
X150884286Y-64880684D01*
X150884286Y-64880684D02*
X150598572Y-64809256D01*
X150598572Y-64809256D02*
X150455715Y-64737827D01*
X150455715Y-64737827D02*
X150384286Y-64666399D01*
X150384286Y-64666399D02*
X150312858Y-64523542D01*
X150312858Y-64523542D02*
X150312858Y-64380684D01*
X150312858Y-64380684D02*
X150384286Y-64237827D01*
X150384286Y-64237827D02*
X150455715Y-64166399D01*
X150455715Y-64166399D02*
X150598572Y-64094970D01*
X150598572Y-64094970D02*
X150955715Y-64094970D01*
X150955715Y-64094970D02*
X151170001Y-64166399D01*
X79216795Y-73404828D02*
X79216795Y-73761971D01*
X78859652Y-73619114D02*
X79216795Y-73761971D01*
X79216795Y-73761971D02*
X79573938Y-73619114D01*
X79002509Y-74047685D02*
X79216795Y-73761971D01*
X79216795Y-73761971D02*
X79431081Y-74047685D01*
X80359652Y-73404828D02*
X80359652Y-73761971D01*
X80002509Y-73619114D02*
X80359652Y-73761971D01*
X80359652Y-73761971D02*
X80716795Y-73619114D01*
X80145366Y-74047685D02*
X80359652Y-73761971D01*
X80359652Y-73761971D02*
X80573938Y-74047685D01*
X81216795Y-73904828D02*
X82288223Y-73904828D01*
X81645366Y-73261971D02*
X81216795Y-75190542D01*
X82145366Y-74547685D02*
X81073938Y-74547685D01*
X81716795Y-75190542D02*
X82145366Y-73261971D01*
X82716795Y-73904828D02*
X83788223Y-73904828D01*
X83145366Y-73261971D02*
X82716795Y-75190542D01*
X83645366Y-74547685D02*
X82573938Y-74547685D01*
X83216795Y-75190542D02*
X83645366Y-73261971D01*
X84502509Y-73404828D02*
X84502509Y-73761971D01*
X84145366Y-73619114D02*
X84502509Y-73761971D01*
X84502509Y-73761971D02*
X84859652Y-73619114D01*
X84288223Y-74047685D02*
X84502509Y-73761971D01*
X84502509Y-73761971D02*
X84716795Y-74047685D01*
X85645366Y-73404828D02*
X85645366Y-73761971D01*
X85288223Y-73619114D02*
X85645366Y-73761971D01*
X85645366Y-73761971D02*
X86002509Y-73619114D01*
X85431080Y-74047685D02*
X85645366Y-73761971D01*
X85645366Y-73761971D02*
X85859652Y-74047685D01*
X207445489Y-50199171D02*
X207445489Y-51699171D01*
X206731203Y-51199171D02*
X206731203Y-50199171D01*
X206731203Y-51056314D02*
X206659774Y-51127742D01*
X206659774Y-51127742D02*
X206516917Y-51199171D01*
X206516917Y-51199171D02*
X206302631Y-51199171D01*
X206302631Y-51199171D02*
X206159774Y-51127742D01*
X206159774Y-51127742D02*
X206088346Y-50984885D01*
X206088346Y-50984885D02*
X206088346Y-50199171D01*
X205374060Y-51199171D02*
X205374060Y-49699171D01*
X205374060Y-51127742D02*
X205231203Y-51199171D01*
X205231203Y-51199171D02*
X204945488Y-51199171D01*
X204945488Y-51199171D02*
X204802631Y-51127742D01*
X204802631Y-51127742D02*
X204731203Y-51056314D01*
X204731203Y-51056314D02*
X204659774Y-50913457D01*
X204659774Y-50913457D02*
X204659774Y-50484885D01*
X204659774Y-50484885D02*
X204731203Y-50342028D01*
X204731203Y-50342028D02*
X204802631Y-50270600D01*
X204802631Y-50270600D02*
X204945488Y-50199171D01*
X204945488Y-50199171D02*
X205231203Y-50199171D01*
X205231203Y-50199171D02*
X205374060Y-50270600D01*
X203374060Y-51199171D02*
X203374060Y-50199171D01*
X204016917Y-51199171D02*
X204016917Y-50413457D01*
X204016917Y-50413457D02*
X203945488Y-50270600D01*
X203945488Y-50270600D02*
X203802631Y-50199171D01*
X203802631Y-50199171D02*
X203588345Y-50199171D01*
X203588345Y-50199171D02*
X203445488Y-50270600D01*
X203445488Y-50270600D02*
X203374060Y-50342028D01*
X202874059Y-51199171D02*
X202302631Y-51199171D01*
X202659774Y-51699171D02*
X202659774Y-50413457D01*
X202659774Y-50413457D02*
X202588345Y-50270600D01*
X202588345Y-50270600D02*
X202445488Y-50199171D01*
X202445488Y-50199171D02*
X202302631Y-50199171D01*
X175661199Y-60473085D02*
X174161199Y-60473085D01*
X174661199Y-59758799D02*
X175661199Y-59758799D01*
X174804056Y-59758799D02*
X174732628Y-59687370D01*
X174732628Y-59687370D02*
X174661199Y-59544513D01*
X174661199Y-59544513D02*
X174661199Y-59330227D01*
X174661199Y-59330227D02*
X174732628Y-59187370D01*
X174732628Y-59187370D02*
X174875485Y-59115942D01*
X174875485Y-59115942D02*
X175661199Y-59115942D01*
X174661199Y-58401656D02*
X176161199Y-58401656D01*
X174732628Y-58401656D02*
X174661199Y-58258799D01*
X174661199Y-58258799D02*
X174661199Y-57973084D01*
X174661199Y-57973084D02*
X174732628Y-57830227D01*
X174732628Y-57830227D02*
X174804056Y-57758799D01*
X174804056Y-57758799D02*
X174946913Y-57687370D01*
X174946913Y-57687370D02*
X175375485Y-57687370D01*
X175375485Y-57687370D02*
X175518342Y-57758799D01*
X175518342Y-57758799D02*
X175589771Y-57830227D01*
X175589771Y-57830227D02*
X175661199Y-57973084D01*
X175661199Y-57973084D02*
X175661199Y-58258799D01*
X175661199Y-58258799D02*
X175589771Y-58401656D01*
X174661199Y-56401656D02*
X175661199Y-56401656D01*
X174661199Y-57044513D02*
X175446913Y-57044513D01*
X175446913Y-57044513D02*
X175589771Y-56973084D01*
X175589771Y-56973084D02*
X175661199Y-56830227D01*
X175661199Y-56830227D02*
X175661199Y-56615941D01*
X175661199Y-56615941D02*
X175589771Y-56473084D01*
X175589771Y-56473084D02*
X175518342Y-56401656D01*
X174661199Y-55901655D02*
X174661199Y-55330227D01*
X174161199Y-55687370D02*
X175446913Y-55687370D01*
X175446913Y-55687370D02*
X175589771Y-55615941D01*
X175589771Y-55615941D02*
X175661199Y-55473084D01*
X175661199Y-55473084D02*
X175661199Y-55330227D01*
X167336610Y-64514414D02*
X166836610Y-64514414D01*
X166836610Y-65300128D02*
X166836610Y-63800128D01*
X166836610Y-63800128D02*
X167550896Y-63800128D01*
X168122324Y-65300128D02*
X168122324Y-64300128D01*
X168122324Y-63800128D02*
X168050896Y-63871557D01*
X168050896Y-63871557D02*
X168122324Y-63942985D01*
X168122324Y-63942985D02*
X168193753Y-63871557D01*
X168193753Y-63871557D02*
X168122324Y-63800128D01*
X168122324Y-63800128D02*
X168122324Y-63942985D01*
X168836610Y-65300128D02*
X168836610Y-63800128D01*
X168836610Y-64371557D02*
X168979468Y-64300128D01*
X168979468Y-64300128D02*
X169265182Y-64300128D01*
X169265182Y-64300128D02*
X169408039Y-64371557D01*
X169408039Y-64371557D02*
X169479468Y-64442985D01*
X169479468Y-64442985D02*
X169550896Y-64585842D01*
X169550896Y-64585842D02*
X169550896Y-65014414D01*
X169550896Y-65014414D02*
X169479468Y-65157271D01*
X169479468Y-65157271D02*
X169408039Y-65228700D01*
X169408039Y-65228700D02*
X169265182Y-65300128D01*
X169265182Y-65300128D02*
X168979468Y-65300128D01*
X168979468Y-65300128D02*
X168836610Y-65228700D01*
X170765182Y-65228700D02*
X170622325Y-65300128D01*
X170622325Y-65300128D02*
X170336611Y-65300128D01*
X170336611Y-65300128D02*
X170193753Y-65228700D01*
X170193753Y-65228700D02*
X170122325Y-65085842D01*
X170122325Y-65085842D02*
X170122325Y-64514414D01*
X170122325Y-64514414D02*
X170193753Y-64371557D01*
X170193753Y-64371557D02*
X170336611Y-64300128D01*
X170336611Y-64300128D02*
X170622325Y-64300128D01*
X170622325Y-64300128D02*
X170765182Y-64371557D01*
X170765182Y-64371557D02*
X170836611Y-64514414D01*
X170836611Y-64514414D02*
X170836611Y-64657271D01*
X170836611Y-64657271D02*
X170122325Y-64800128D01*
X171479467Y-65300128D02*
X171479467Y-64300128D01*
X171479467Y-64585842D02*
X171550896Y-64442985D01*
X171550896Y-64442985D02*
X171622325Y-64371557D01*
X171622325Y-64371557D02*
X171765182Y-64300128D01*
X171765182Y-64300128D02*
X171908039Y-64300128D01*
X120428827Y-55967774D02*
X120428827Y-55682060D01*
X120428827Y-55682060D02*
X120500256Y-55539203D01*
X120500256Y-55539203D02*
X120643113Y-55396346D01*
X120643113Y-55396346D02*
X120928827Y-55324917D01*
X120928827Y-55324917D02*
X121428827Y-55324917D01*
X121428827Y-55324917D02*
X121714541Y-55396346D01*
X121714541Y-55396346D02*
X121857399Y-55539203D01*
X121857399Y-55539203D02*
X121928827Y-55682060D01*
X121928827Y-55682060D02*
X121928827Y-55967774D01*
X121928827Y-55967774D02*
X121857399Y-56110632D01*
X121857399Y-56110632D02*
X121714541Y-56253489D01*
X121714541Y-56253489D02*
X121428827Y-56324917D01*
X121428827Y-56324917D02*
X120928827Y-56324917D01*
X120928827Y-56324917D02*
X120643113Y-56253489D01*
X120643113Y-56253489D02*
X120500256Y-56110632D01*
X120500256Y-56110632D02*
X120428827Y-55967774D01*
X121857399Y-54753488D02*
X121928827Y-54539203D01*
X121928827Y-54539203D02*
X121928827Y-54182060D01*
X121928827Y-54182060D02*
X121857399Y-54039203D01*
X121857399Y-54039203D02*
X121785970Y-53967774D01*
X121785970Y-53967774D02*
X121643113Y-53896345D01*
X121643113Y-53896345D02*
X121500256Y-53896345D01*
X121500256Y-53896345D02*
X121357399Y-53967774D01*
X121357399Y-53967774D02*
X121285970Y-54039203D01*
X121285970Y-54039203D02*
X121214541Y-54182060D01*
X121214541Y-54182060D02*
X121143113Y-54467774D01*
X121143113Y-54467774D02*
X121071684Y-54610631D01*
X121071684Y-54610631D02*
X121000256Y-54682060D01*
X121000256Y-54682060D02*
X120857399Y-54753488D01*
X120857399Y-54753488D02*
X120714541Y-54753488D01*
X120714541Y-54753488D02*
X120571684Y-54682060D01*
X120571684Y-54682060D02*
X120500256Y-54610631D01*
X120500256Y-54610631D02*
X120428827Y-54467774D01*
X120428827Y-54467774D02*
X120428827Y-54110631D01*
X120428827Y-54110631D02*
X120500256Y-53896345D01*
X130554510Y-53226309D02*
X130554510Y-51726309D01*
X131268796Y-52226309D02*
X131268796Y-53226309D01*
X131268796Y-52369166D02*
X131340225Y-52297738D01*
X131340225Y-52297738D02*
X131483082Y-52226309D01*
X131483082Y-52226309D02*
X131697368Y-52226309D01*
X131697368Y-52226309D02*
X131840225Y-52297738D01*
X131840225Y-52297738D02*
X131911654Y-52440595D01*
X131911654Y-52440595D02*
X131911654Y-53226309D01*
X132625939Y-53226309D02*
X132625939Y-51726309D01*
X133268797Y-53226309D02*
X133268797Y-52440595D01*
X133268797Y-52440595D02*
X133197368Y-52297738D01*
X133197368Y-52297738D02*
X133054511Y-52226309D01*
X133054511Y-52226309D02*
X132840225Y-52226309D01*
X132840225Y-52226309D02*
X132697368Y-52297738D01*
X132697368Y-52297738D02*
X132625939Y-52369166D01*
X133840225Y-51726309D02*
X134768797Y-51726309D01*
X134768797Y-51726309D02*
X134268797Y-52297738D01*
X134268797Y-52297738D02*
X134483082Y-52297738D01*
X134483082Y-52297738D02*
X134625940Y-52369166D01*
X134625940Y-52369166D02*
X134697368Y-52440595D01*
X134697368Y-52440595D02*
X134768797Y-52583452D01*
X134768797Y-52583452D02*
X134768797Y-52940595D01*
X134768797Y-52940595D02*
X134697368Y-53083452D01*
X134697368Y-53083452D02*
X134625940Y-53154881D01*
X134625940Y-53154881D02*
X134483082Y-53226309D01*
X134483082Y-53226309D02*
X134054511Y-53226309D01*
X134054511Y-53226309D02*
X133911654Y-53154881D01*
X133911654Y-53154881D02*
X133840225Y-53083452D01*
X135911653Y-52440595D02*
X136125939Y-52512023D01*
X136125939Y-52512023D02*
X136197368Y-52583452D01*
X136197368Y-52583452D02*
X136268796Y-52726309D01*
X136268796Y-52726309D02*
X136268796Y-52940595D01*
X136268796Y-52940595D02*
X136197368Y-53083452D01*
X136197368Y-53083452D02*
X136125939Y-53154881D01*
X136125939Y-53154881D02*
X135983082Y-53226309D01*
X135983082Y-53226309D02*
X135411653Y-53226309D01*
X135411653Y-53226309D02*
X135411653Y-51726309D01*
X135411653Y-51726309D02*
X135911653Y-51726309D01*
X135911653Y-51726309D02*
X136054511Y-51797738D01*
X136054511Y-51797738D02*
X136125939Y-51869166D01*
X136125939Y-51869166D02*
X136197368Y-52012023D01*
X136197368Y-52012023D02*
X136197368Y-52154881D01*
X136197368Y-52154881D02*
X136125939Y-52297738D01*
X136125939Y-52297738D02*
X136054511Y-52369166D01*
X136054511Y-52369166D02*
X135911653Y-52440595D01*
X135911653Y-52440595D02*
X135411653Y-52440595D01*
X136768796Y-52226309D02*
X137125939Y-53226309D01*
X137483082Y-52226309D02*
X137125939Y-53226309D01*
X137125939Y-53226309D02*
X136983082Y-53583452D01*
X136983082Y-53583452D02*
X136911653Y-53654881D01*
X136911653Y-53654881D02*
X136768796Y-53726309D01*
X138054510Y-52226309D02*
X138054510Y-53726309D01*
X138054510Y-52297738D02*
X138197368Y-52226309D01*
X138197368Y-52226309D02*
X138483082Y-52226309D01*
X138483082Y-52226309D02*
X138625939Y-52297738D01*
X138625939Y-52297738D02*
X138697368Y-52369166D01*
X138697368Y-52369166D02*
X138768796Y-52512023D01*
X138768796Y-52512023D02*
X138768796Y-52940595D01*
X138768796Y-52940595D02*
X138697368Y-53083452D01*
X138697368Y-53083452D02*
X138625939Y-53154881D01*
X138625939Y-53154881D02*
X138483082Y-53226309D01*
X138483082Y-53226309D02*
X138197368Y-53226309D01*
X138197368Y-53226309D02*
X138054510Y-53154881D01*
X205840225Y-130300828D02*
X206125939Y-130300828D01*
X206125939Y-130300828D02*
X206268796Y-130372257D01*
X206268796Y-130372257D02*
X206411653Y-130515114D01*
X206411653Y-130515114D02*
X206483082Y-130800828D01*
X206483082Y-130800828D02*
X206483082Y-131300828D01*
X206483082Y-131300828D02*
X206411653Y-131586542D01*
X206411653Y-131586542D02*
X206268796Y-131729400D01*
X206268796Y-131729400D02*
X206125939Y-131800828D01*
X206125939Y-131800828D02*
X205840225Y-131800828D01*
X205840225Y-131800828D02*
X205697368Y-131729400D01*
X205697368Y-131729400D02*
X205554510Y-131586542D01*
X205554510Y-131586542D02*
X205483082Y-131300828D01*
X205483082Y-131300828D02*
X205483082Y-130800828D01*
X205483082Y-130800828D02*
X205554510Y-130515114D01*
X205554510Y-130515114D02*
X205697368Y-130372257D01*
X205697368Y-130372257D02*
X205840225Y-130300828D01*
X207768797Y-130800828D02*
X207768797Y-131800828D01*
X207125939Y-130800828D02*
X207125939Y-131586542D01*
X207125939Y-131586542D02*
X207197368Y-131729400D01*
X207197368Y-131729400D02*
X207340225Y-131800828D01*
X207340225Y-131800828D02*
X207554511Y-131800828D01*
X207554511Y-131800828D02*
X207697368Y-131729400D01*
X207697368Y-131729400D02*
X207768797Y-131657971D01*
X208268797Y-130800828D02*
X208840225Y-130800828D01*
X208483082Y-130300828D02*
X208483082Y-131586542D01*
X208483082Y-131586542D02*
X208554511Y-131729400D01*
X208554511Y-131729400D02*
X208697368Y-131800828D01*
X208697368Y-131800828D02*
X208840225Y-131800828D01*
X209340225Y-130800828D02*
X209340225Y-132300828D01*
X209340225Y-130872257D02*
X209483083Y-130800828D01*
X209483083Y-130800828D02*
X209768797Y-130800828D01*
X209768797Y-130800828D02*
X209911654Y-130872257D01*
X209911654Y-130872257D02*
X209983083Y-130943685D01*
X209983083Y-130943685D02*
X210054511Y-131086542D01*
X210054511Y-131086542D02*
X210054511Y-131515114D01*
X210054511Y-131515114D02*
X209983083Y-131657971D01*
X209983083Y-131657971D02*
X209911654Y-131729400D01*
X209911654Y-131729400D02*
X209768797Y-131800828D01*
X209768797Y-131800828D02*
X209483083Y-131800828D01*
X209483083Y-131800828D02*
X209340225Y-131729400D01*
X211340226Y-130800828D02*
X211340226Y-131800828D01*
X210697368Y-130800828D02*
X210697368Y-131586542D01*
X210697368Y-131586542D02*
X210768797Y-131729400D01*
X210768797Y-131729400D02*
X210911654Y-131800828D01*
X210911654Y-131800828D02*
X211125940Y-131800828D01*
X211125940Y-131800828D02*
X211268797Y-131729400D01*
X211268797Y-131729400D02*
X211340226Y-131657971D01*
X211840226Y-130800828D02*
X212411654Y-130800828D01*
X212054511Y-130300828D02*
X212054511Y-131586542D01*
X212054511Y-131586542D02*
X212125940Y-131729400D01*
X212125940Y-131729400D02*
X212268797Y-131800828D01*
X212268797Y-131800828D02*
X212411654Y-131800828D01*
X146394828Y-52491884D02*
X146394828Y-50991884D01*
X146394828Y-50991884D02*
X147251971Y-52491884D01*
X147251971Y-52491884D02*
X147251971Y-50991884D01*
X148180543Y-52491884D02*
X148037686Y-52420456D01*
X148037686Y-52420456D02*
X147966257Y-52349027D01*
X147966257Y-52349027D02*
X147894829Y-52206170D01*
X147894829Y-52206170D02*
X147894829Y-51777598D01*
X147894829Y-51777598D02*
X147966257Y-51634741D01*
X147966257Y-51634741D02*
X148037686Y-51563313D01*
X148037686Y-51563313D02*
X148180543Y-51491884D01*
X148180543Y-51491884D02*
X148394829Y-51491884D01*
X148394829Y-51491884D02*
X148537686Y-51563313D01*
X148537686Y-51563313D02*
X148609115Y-51634741D01*
X148609115Y-51634741D02*
X148680543Y-51777598D01*
X148680543Y-51777598D02*
X148680543Y-52206170D01*
X148680543Y-52206170D02*
X148609115Y-52349027D01*
X148609115Y-52349027D02*
X148537686Y-52420456D01*
X148537686Y-52420456D02*
X148394829Y-52491884D01*
X148394829Y-52491884D02*
X148180543Y-52491884D01*
X149323400Y-52491884D02*
X149323400Y-51491884D01*
X149323400Y-51777598D02*
X149394829Y-51634741D01*
X149394829Y-51634741D02*
X149466258Y-51563313D01*
X149466258Y-51563313D02*
X149609115Y-51491884D01*
X149609115Y-51491884D02*
X149751972Y-51491884D01*
X150251971Y-52491884D02*
X150251971Y-51491884D01*
X150251971Y-51634741D02*
X150323400Y-51563313D01*
X150323400Y-51563313D02*
X150466257Y-51491884D01*
X150466257Y-51491884D02*
X150680543Y-51491884D01*
X150680543Y-51491884D02*
X150823400Y-51563313D01*
X150823400Y-51563313D02*
X150894829Y-51706170D01*
X150894829Y-51706170D02*
X150894829Y-52491884D01*
X150894829Y-51706170D02*
X150966257Y-51563313D01*
X150966257Y-51563313D02*
X151109114Y-51491884D01*
X151109114Y-51491884D02*
X151323400Y-51491884D01*
X151323400Y-51491884D02*
X151466257Y-51563313D01*
X151466257Y-51563313D02*
X151537686Y-51706170D01*
X151537686Y-51706170D02*
X151537686Y-52491884D01*
X152894829Y-52491884D02*
X152894829Y-51706170D01*
X152894829Y-51706170D02*
X152823400Y-51563313D01*
X152823400Y-51563313D02*
X152680543Y-51491884D01*
X152680543Y-51491884D02*
X152394829Y-51491884D01*
X152394829Y-51491884D02*
X152251971Y-51563313D01*
X152894829Y-52420456D02*
X152751971Y-52491884D01*
X152751971Y-52491884D02*
X152394829Y-52491884D01*
X152394829Y-52491884D02*
X152251971Y-52420456D01*
X152251971Y-52420456D02*
X152180543Y-52277598D01*
X152180543Y-52277598D02*
X152180543Y-52134741D01*
X152180543Y-52134741D02*
X152251971Y-51991884D01*
X152251971Y-51991884D02*
X152394829Y-51920456D01*
X152394829Y-51920456D02*
X152751971Y-51920456D01*
X152751971Y-51920456D02*
X152894829Y-51849027D01*
X153823400Y-52491884D02*
X153680543Y-52420456D01*
X153680543Y-52420456D02*
X153609114Y-52277598D01*
X153609114Y-52277598D02*
X153609114Y-50991884D01*
X130554510Y-57800828D02*
X130554510Y-56300828D01*
X131268796Y-56800828D02*
X131268796Y-57800828D01*
X131268796Y-56943685D02*
X131340225Y-56872257D01*
X131340225Y-56872257D02*
X131483082Y-56800828D01*
X131483082Y-56800828D02*
X131697368Y-56800828D01*
X131697368Y-56800828D02*
X131840225Y-56872257D01*
X131840225Y-56872257D02*
X131911654Y-57015114D01*
X131911654Y-57015114D02*
X131911654Y-57800828D01*
X132625939Y-57800828D02*
X132625939Y-56300828D01*
X133268797Y-57800828D02*
X133268797Y-57015114D01*
X133268797Y-57015114D02*
X133197368Y-56872257D01*
X133197368Y-56872257D02*
X133054511Y-56800828D01*
X133054511Y-56800828D02*
X132840225Y-56800828D01*
X132840225Y-56800828D02*
X132697368Y-56872257D01*
X132697368Y-56872257D02*
X132625939Y-56943685D01*
X133911654Y-56443685D02*
X133983082Y-56372257D01*
X133983082Y-56372257D02*
X134125940Y-56300828D01*
X134125940Y-56300828D02*
X134483082Y-56300828D01*
X134483082Y-56300828D02*
X134625940Y-56372257D01*
X134625940Y-56372257D02*
X134697368Y-56443685D01*
X134697368Y-56443685D02*
X134768797Y-56586542D01*
X134768797Y-56586542D02*
X134768797Y-56729400D01*
X134768797Y-56729400D02*
X134697368Y-56943685D01*
X134697368Y-56943685D02*
X133840225Y-57800828D01*
X133840225Y-57800828D02*
X134768797Y-57800828D01*
X135911653Y-57015114D02*
X136125939Y-57086542D01*
X136125939Y-57086542D02*
X136197368Y-57157971D01*
X136197368Y-57157971D02*
X136268796Y-57300828D01*
X136268796Y-57300828D02*
X136268796Y-57515114D01*
X136268796Y-57515114D02*
X136197368Y-57657971D01*
X136197368Y-57657971D02*
X136125939Y-57729400D01*
X136125939Y-57729400D02*
X135983082Y-57800828D01*
X135983082Y-57800828D02*
X135411653Y-57800828D01*
X135411653Y-57800828D02*
X135411653Y-56300828D01*
X135411653Y-56300828D02*
X135911653Y-56300828D01*
X135911653Y-56300828D02*
X136054511Y-56372257D01*
X136054511Y-56372257D02*
X136125939Y-56443685D01*
X136125939Y-56443685D02*
X136197368Y-56586542D01*
X136197368Y-56586542D02*
X136197368Y-56729400D01*
X136197368Y-56729400D02*
X136125939Y-56872257D01*
X136125939Y-56872257D02*
X136054511Y-56943685D01*
X136054511Y-56943685D02*
X135911653Y-57015114D01*
X135911653Y-57015114D02*
X135411653Y-57015114D01*
X136768796Y-56800828D02*
X137125939Y-57800828D01*
X137483082Y-56800828D02*
X137125939Y-57800828D01*
X137125939Y-57800828D02*
X136983082Y-58157971D01*
X136983082Y-58157971D02*
X136911653Y-58229400D01*
X136911653Y-58229400D02*
X136768796Y-58300828D01*
X138054510Y-56800828D02*
X138054510Y-58300828D01*
X138054510Y-56872257D02*
X138197368Y-56800828D01*
X138197368Y-56800828D02*
X138483082Y-56800828D01*
X138483082Y-56800828D02*
X138625939Y-56872257D01*
X138625939Y-56872257D02*
X138697368Y-56943685D01*
X138697368Y-56943685D02*
X138768796Y-57086542D01*
X138768796Y-57086542D02*
X138768796Y-57515114D01*
X138768796Y-57515114D02*
X138697368Y-57657971D01*
X138697368Y-57657971D02*
X138625939Y-57729400D01*
X138625939Y-57729400D02*
X138483082Y-57800828D01*
X138483082Y-57800828D02*
X138197368Y-57800828D01*
X138197368Y-57800828D02*
X138054510Y-57729400D01*
X185761149Y-52487970D02*
X185761149Y-53345113D01*
X184261149Y-52916541D02*
X185761149Y-52916541D01*
X184332578Y-54416541D02*
X184261149Y-54273684D01*
X184261149Y-54273684D02*
X184261149Y-53987970D01*
X184261149Y-53987970D02*
X184332578Y-53845112D01*
X184332578Y-53845112D02*
X184475435Y-53773684D01*
X184475435Y-53773684D02*
X185046863Y-53773684D01*
X185046863Y-53773684D02*
X185189720Y-53845112D01*
X185189720Y-53845112D02*
X185261149Y-53987970D01*
X185261149Y-53987970D02*
X185261149Y-54273684D01*
X185261149Y-54273684D02*
X185189720Y-54416541D01*
X185189720Y-54416541D02*
X185046863Y-54487970D01*
X185046863Y-54487970D02*
X184904006Y-54487970D01*
X184904006Y-54487970D02*
X184761149Y-53773684D01*
X184261149Y-55130826D02*
X185261149Y-55130826D01*
X184975435Y-55130826D02*
X185118292Y-55202255D01*
X185118292Y-55202255D02*
X185189720Y-55273684D01*
X185189720Y-55273684D02*
X185261149Y-55416541D01*
X185261149Y-55416541D02*
X185261149Y-55559398D01*
X184261149Y-56059397D02*
X185261149Y-56059397D01*
X185118292Y-56059397D02*
X185189720Y-56130826D01*
X185189720Y-56130826D02*
X185261149Y-56273683D01*
X185261149Y-56273683D02*
X185261149Y-56487969D01*
X185261149Y-56487969D02*
X185189720Y-56630826D01*
X185189720Y-56630826D02*
X185046863Y-56702255D01*
X185046863Y-56702255D02*
X184261149Y-56702255D01*
X185046863Y-56702255D02*
X185189720Y-56773683D01*
X185189720Y-56773683D02*
X185261149Y-56916540D01*
X185261149Y-56916540D02*
X185261149Y-57130826D01*
X185261149Y-57130826D02*
X185189720Y-57273683D01*
X185189720Y-57273683D02*
X185046863Y-57345112D01*
X185046863Y-57345112D02*
X184261149Y-57345112D01*
X184118292Y-57702255D02*
X184118292Y-58845112D01*
X185046863Y-59202254D02*
X185046863Y-59702254D01*
X184261149Y-59916540D02*
X184261149Y-59202254D01*
X184261149Y-59202254D02*
X185761149Y-59202254D01*
X185761149Y-59202254D02*
X185761149Y-59916540D01*
X185261149Y-60559397D02*
X184261149Y-60559397D01*
X185118292Y-60559397D02*
X185189720Y-60630826D01*
X185189720Y-60630826D02*
X185261149Y-60773683D01*
X185261149Y-60773683D02*
X185261149Y-60987969D01*
X185261149Y-60987969D02*
X185189720Y-61130826D01*
X185189720Y-61130826D02*
X185046863Y-61202255D01*
X185046863Y-61202255D02*
X184261149Y-61202255D01*
X184261149Y-61916540D02*
X185761149Y-61916540D01*
X185189720Y-61916540D02*
X185261149Y-62059398D01*
X185261149Y-62059398D02*
X185261149Y-62345112D01*
X185261149Y-62345112D02*
X185189720Y-62487969D01*
X185189720Y-62487969D02*
X185118292Y-62559398D01*
X185118292Y-62559398D02*
X184975435Y-62630826D01*
X184975435Y-62630826D02*
X184546863Y-62630826D01*
X184546863Y-62630826D02*
X184404006Y-62559398D01*
X184404006Y-62559398D02*
X184332578Y-62487969D01*
X184332578Y-62487969D02*
X184261149Y-62345112D01*
X184261149Y-62345112D02*
X184261149Y-62059398D01*
X184261149Y-62059398D02*
X184332578Y-61916540D01*
X184261149Y-63487969D02*
X184332578Y-63345112D01*
X184332578Y-63345112D02*
X184475435Y-63273683D01*
X184475435Y-63273683D02*
X185761149Y-63273683D01*
X156945006Y-52557085D02*
X156445006Y-51842799D01*
X156087863Y-52557085D02*
X156087863Y-51057085D01*
X156087863Y-51057085D02*
X156659292Y-51057085D01*
X156659292Y-51057085D02*
X156802149Y-51128514D01*
X156802149Y-51128514D02*
X156873578Y-51199942D01*
X156873578Y-51199942D02*
X156945006Y-51342799D01*
X156945006Y-51342799D02*
X156945006Y-51557085D01*
X156945006Y-51557085D02*
X156873578Y-51699942D01*
X156873578Y-51699942D02*
X156802149Y-51771371D01*
X156802149Y-51771371D02*
X156659292Y-51842799D01*
X156659292Y-51842799D02*
X156087863Y-51842799D01*
X157587863Y-52557085D02*
X157587863Y-51557085D01*
X157587863Y-51699942D02*
X157659292Y-51628514D01*
X157659292Y-51628514D02*
X157802149Y-51557085D01*
X157802149Y-51557085D02*
X158016435Y-51557085D01*
X158016435Y-51557085D02*
X158159292Y-51628514D01*
X158159292Y-51628514D02*
X158230721Y-51771371D01*
X158230721Y-51771371D02*
X158230721Y-52557085D01*
X158230721Y-51771371D02*
X158302149Y-51628514D01*
X158302149Y-51628514D02*
X158445006Y-51557085D01*
X158445006Y-51557085D02*
X158659292Y-51557085D01*
X158659292Y-51557085D02*
X158802149Y-51628514D01*
X158802149Y-51628514D02*
X158873578Y-51771371D01*
X158873578Y-51771371D02*
X158873578Y-52557085D01*
X159373578Y-51557085D02*
X159945006Y-51557085D01*
X159587863Y-51057085D02*
X159587863Y-52342799D01*
X159587863Y-52342799D02*
X159659292Y-52485657D01*
X159659292Y-52485657D02*
X159802149Y-52557085D01*
X159802149Y-52557085D02*
X159945006Y-52557085D01*
X131340225Y-61885912D02*
X132197368Y-61885912D01*
X131768796Y-63385912D02*
X131768796Y-61885912D01*
X132697367Y-63385912D02*
X132697367Y-62385912D01*
X132697367Y-62671626D02*
X132768796Y-62528769D01*
X132768796Y-62528769D02*
X132840225Y-62457341D01*
X132840225Y-62457341D02*
X132983082Y-62385912D01*
X132983082Y-62385912D02*
X133125939Y-62385912D01*
X133625938Y-63385912D02*
X133625938Y-62385912D01*
X133625938Y-61885912D02*
X133554510Y-61957341D01*
X133554510Y-61957341D02*
X133625938Y-62028769D01*
X133625938Y-62028769D02*
X133697367Y-61957341D01*
X133697367Y-61957341D02*
X133625938Y-61885912D01*
X133625938Y-61885912D02*
X133625938Y-62028769D01*
X134983082Y-62385912D02*
X134983082Y-63600198D01*
X134983082Y-63600198D02*
X134911653Y-63743055D01*
X134911653Y-63743055D02*
X134840224Y-63814484D01*
X134840224Y-63814484D02*
X134697367Y-63885912D01*
X134697367Y-63885912D02*
X134483082Y-63885912D01*
X134483082Y-63885912D02*
X134340224Y-63814484D01*
X134983082Y-63314484D02*
X134840224Y-63385912D01*
X134840224Y-63385912D02*
X134554510Y-63385912D01*
X134554510Y-63385912D02*
X134411653Y-63314484D01*
X134411653Y-63314484D02*
X134340224Y-63243055D01*
X134340224Y-63243055D02*
X134268796Y-63100198D01*
X134268796Y-63100198D02*
X134268796Y-62671626D01*
X134268796Y-62671626D02*
X134340224Y-62528769D01*
X134340224Y-62528769D02*
X134411653Y-62457341D01*
X134411653Y-62457341D02*
X134554510Y-62385912D01*
X134554510Y-62385912D02*
X134840224Y-62385912D01*
X134840224Y-62385912D02*
X134983082Y-62457341D01*
X135697367Y-63243055D02*
X135768796Y-63314484D01*
X135768796Y-63314484D02*
X135697367Y-63385912D01*
X135697367Y-63385912D02*
X135625939Y-63314484D01*
X135625939Y-63314484D02*
X135697367Y-63243055D01*
X135697367Y-63243055D02*
X135697367Y-63385912D01*
X136340225Y-62957341D02*
X137054511Y-62957341D01*
X136197368Y-63385912D02*
X136697368Y-61885912D01*
X136697368Y-61885912D02*
X137197368Y-63385912D01*
X137625939Y-63314484D02*
X137768796Y-63385912D01*
X137768796Y-63385912D02*
X138054510Y-63385912D01*
X138054510Y-63385912D02*
X138197367Y-63314484D01*
X138197367Y-63314484D02*
X138268796Y-63171626D01*
X138268796Y-63171626D02*
X138268796Y-63100198D01*
X138268796Y-63100198D02*
X138197367Y-62957341D01*
X138197367Y-62957341D02*
X138054510Y-62885912D01*
X138054510Y-62885912D02*
X137840225Y-62885912D01*
X137840225Y-62885912D02*
X137697367Y-62814484D01*
X137697367Y-62814484D02*
X137625939Y-62671626D01*
X137625939Y-62671626D02*
X137625939Y-62600198D01*
X137625939Y-62600198D02*
X137697367Y-62457341D01*
X137697367Y-62457341D02*
X137840225Y-62385912D01*
X137840225Y-62385912D02*
X138054510Y-62385912D01*
X138054510Y-62385912D02*
X138197367Y-62457341D01*
X138840225Y-63314484D02*
X138983082Y-63385912D01*
X138983082Y-63385912D02*
X139268796Y-63385912D01*
X139268796Y-63385912D02*
X139411653Y-63314484D01*
X139411653Y-63314484D02*
X139483082Y-63171626D01*
X139483082Y-63171626D02*
X139483082Y-63100198D01*
X139483082Y-63100198D02*
X139411653Y-62957341D01*
X139411653Y-62957341D02*
X139268796Y-62885912D01*
X139268796Y-62885912D02*
X139054511Y-62885912D01*
X139054511Y-62885912D02*
X138911653Y-62814484D01*
X138911653Y-62814484D02*
X138840225Y-62671626D01*
X138840225Y-62671626D02*
X138840225Y-62600198D01*
X138840225Y-62600198D02*
X138911653Y-62457341D01*
X138911653Y-62457341D02*
X139054511Y-62385912D01*
X139054511Y-62385912D02*
X139268796Y-62385912D01*
X139268796Y-62385912D02*
X139411653Y-62457341D01*
X139983082Y-62385912D02*
X140340225Y-63385912D01*
X140697368Y-62385912D02*
X140340225Y-63385912D01*
X140340225Y-63385912D02*
X140197368Y-63743055D01*
X140197368Y-63743055D02*
X140125939Y-63814484D01*
X140125939Y-63814484D02*
X139983082Y-63885912D01*
X141268796Y-63243055D02*
X141340225Y-63314484D01*
X141340225Y-63314484D02*
X141268796Y-63385912D01*
X141268796Y-63385912D02*
X141197368Y-63314484D01*
X141197368Y-63314484D02*
X141268796Y-63243055D01*
X141268796Y-63243055D02*
X141268796Y-63385912D01*
X142483082Y-62600198D02*
X142697368Y-62671626D01*
X142697368Y-62671626D02*
X142768797Y-62743055D01*
X142768797Y-62743055D02*
X142840225Y-62885912D01*
X142840225Y-62885912D02*
X142840225Y-63100198D01*
X142840225Y-63100198D02*
X142768797Y-63243055D01*
X142768797Y-63243055D02*
X142697368Y-63314484D01*
X142697368Y-63314484D02*
X142554511Y-63385912D01*
X142554511Y-63385912D02*
X141983082Y-63385912D01*
X141983082Y-63385912D02*
X141983082Y-61885912D01*
X141983082Y-61885912D02*
X142483082Y-61885912D01*
X142483082Y-61885912D02*
X142625940Y-61957341D01*
X142625940Y-61957341D02*
X142697368Y-62028769D01*
X142697368Y-62028769D02*
X142768797Y-62171626D01*
X142768797Y-62171626D02*
X142768797Y-62314484D01*
X142768797Y-62314484D02*
X142697368Y-62457341D01*
X142697368Y-62457341D02*
X142625940Y-62528769D01*
X142625940Y-62528769D02*
X142483082Y-62600198D01*
X142483082Y-62600198D02*
X141983082Y-62600198D01*
X144125940Y-63385912D02*
X144125940Y-62600198D01*
X144125940Y-62600198D02*
X144054511Y-62457341D01*
X144054511Y-62457341D02*
X143911654Y-62385912D01*
X143911654Y-62385912D02*
X143625940Y-62385912D01*
X143625940Y-62385912D02*
X143483082Y-62457341D01*
X144125940Y-63314484D02*
X143983082Y-63385912D01*
X143983082Y-63385912D02*
X143625940Y-63385912D01*
X143625940Y-63385912D02*
X143483082Y-63314484D01*
X143483082Y-63314484D02*
X143411654Y-63171626D01*
X143411654Y-63171626D02*
X143411654Y-63028769D01*
X143411654Y-63028769D02*
X143483082Y-62885912D01*
X143483082Y-62885912D02*
X143625940Y-62814484D01*
X143625940Y-62814484D02*
X143983082Y-62814484D01*
X143983082Y-62814484D02*
X144125940Y-62743055D01*
X144768797Y-63314484D02*
X144911654Y-63385912D01*
X144911654Y-63385912D02*
X145197368Y-63385912D01*
X145197368Y-63385912D02*
X145340225Y-63314484D01*
X145340225Y-63314484D02*
X145411654Y-63171626D01*
X145411654Y-63171626D02*
X145411654Y-63100198D01*
X145411654Y-63100198D02*
X145340225Y-62957341D01*
X145340225Y-62957341D02*
X145197368Y-62885912D01*
X145197368Y-62885912D02*
X144983083Y-62885912D01*
X144983083Y-62885912D02*
X144840225Y-62814484D01*
X144840225Y-62814484D02*
X144768797Y-62671626D01*
X144768797Y-62671626D02*
X144768797Y-62600198D01*
X144768797Y-62600198D02*
X144840225Y-62457341D01*
X144840225Y-62457341D02*
X144983083Y-62385912D01*
X144983083Y-62385912D02*
X145197368Y-62385912D01*
X145197368Y-62385912D02*
X145340225Y-62457341D01*
X146625940Y-63314484D02*
X146483083Y-63385912D01*
X146483083Y-63385912D02*
X146197369Y-63385912D01*
X146197369Y-63385912D02*
X146054511Y-63314484D01*
X146054511Y-63314484D02*
X145983083Y-63171626D01*
X145983083Y-63171626D02*
X145983083Y-62600198D01*
X145983083Y-62600198D02*
X146054511Y-62457341D01*
X146054511Y-62457341D02*
X146197369Y-62385912D01*
X146197369Y-62385912D02*
X146483083Y-62385912D01*
X146483083Y-62385912D02*
X146625940Y-62457341D01*
X146625940Y-62457341D02*
X146697369Y-62600198D01*
X146697369Y-62600198D02*
X146697369Y-62743055D01*
X146697369Y-62743055D02*
X145983083Y-62885912D01*
X131840225Y-64300828D02*
X131983082Y-64300828D01*
X131983082Y-64300828D02*
X132125939Y-64372257D01*
X132125939Y-64372257D02*
X132197368Y-64443685D01*
X132197368Y-64443685D02*
X132268796Y-64586542D01*
X132268796Y-64586542D02*
X132340225Y-64872257D01*
X132340225Y-64872257D02*
X132340225Y-65229400D01*
X132340225Y-65229400D02*
X132268796Y-65515114D01*
X132268796Y-65515114D02*
X132197368Y-65657971D01*
X132197368Y-65657971D02*
X132125939Y-65729400D01*
X132125939Y-65729400D02*
X131983082Y-65800828D01*
X131983082Y-65800828D02*
X131840225Y-65800828D01*
X131840225Y-65800828D02*
X131697368Y-65729400D01*
X131697368Y-65729400D02*
X131625939Y-65657971D01*
X131625939Y-65657971D02*
X131554510Y-65515114D01*
X131554510Y-65515114D02*
X131483082Y-65229400D01*
X131483082Y-65229400D02*
X131483082Y-64872257D01*
X131483082Y-64872257D02*
X131554510Y-64586542D01*
X131554510Y-64586542D02*
X131625939Y-64443685D01*
X131625939Y-64443685D02*
X131697368Y-64372257D01*
X131697368Y-64372257D02*
X131840225Y-64300828D01*
X133697367Y-64300828D02*
X132983081Y-64300828D01*
X132983081Y-64300828D02*
X132911653Y-65015114D01*
X132911653Y-65015114D02*
X132983081Y-64943685D01*
X132983081Y-64943685D02*
X133125939Y-64872257D01*
X133125939Y-64872257D02*
X133483081Y-64872257D01*
X133483081Y-64872257D02*
X133625939Y-64943685D01*
X133625939Y-64943685D02*
X133697367Y-65015114D01*
X133697367Y-65015114D02*
X133768796Y-65157971D01*
X133768796Y-65157971D02*
X133768796Y-65515114D01*
X133768796Y-65515114D02*
X133697367Y-65657971D01*
X133697367Y-65657971D02*
X133625939Y-65729400D01*
X133625939Y-65729400D02*
X133483081Y-65800828D01*
X133483081Y-65800828D02*
X133125939Y-65800828D01*
X133125939Y-65800828D02*
X132983081Y-65729400D01*
X132983081Y-65729400D02*
X132911653Y-65657971D01*
X135483081Y-64229400D02*
X134197367Y-66157971D01*
X135911653Y-64443685D02*
X135983081Y-64372257D01*
X135983081Y-64372257D02*
X136125939Y-64300828D01*
X136125939Y-64300828D02*
X136483081Y-64300828D01*
X136483081Y-64300828D02*
X136625939Y-64372257D01*
X136625939Y-64372257D02*
X136697367Y-64443685D01*
X136697367Y-64443685D02*
X136768796Y-64586542D01*
X136768796Y-64586542D02*
X136768796Y-64729400D01*
X136768796Y-64729400D02*
X136697367Y-64943685D01*
X136697367Y-64943685D02*
X135840224Y-65800828D01*
X135840224Y-65800828D02*
X136768796Y-65800828D01*
X137697367Y-64300828D02*
X137840224Y-64300828D01*
X137840224Y-64300828D02*
X137983081Y-64372257D01*
X137983081Y-64372257D02*
X138054510Y-64443685D01*
X138054510Y-64443685D02*
X138125938Y-64586542D01*
X138125938Y-64586542D02*
X138197367Y-64872257D01*
X138197367Y-64872257D02*
X138197367Y-65229400D01*
X138197367Y-65229400D02*
X138125938Y-65515114D01*
X138125938Y-65515114D02*
X138054510Y-65657971D01*
X138054510Y-65657971D02*
X137983081Y-65729400D01*
X137983081Y-65729400D02*
X137840224Y-65800828D01*
X137840224Y-65800828D02*
X137697367Y-65800828D01*
X137697367Y-65800828D02*
X137554510Y-65729400D01*
X137554510Y-65729400D02*
X137483081Y-65657971D01*
X137483081Y-65657971D02*
X137411652Y-65515114D01*
X137411652Y-65515114D02*
X137340224Y-65229400D01*
X137340224Y-65229400D02*
X137340224Y-64872257D01*
X137340224Y-64872257D02*
X137411652Y-64586542D01*
X137411652Y-64586542D02*
X137483081Y-64443685D01*
X137483081Y-64443685D02*
X137554510Y-64372257D01*
X137554510Y-64372257D02*
X137697367Y-64300828D01*
X138768795Y-64443685D02*
X138840223Y-64372257D01*
X138840223Y-64372257D02*
X138983081Y-64300828D01*
X138983081Y-64300828D02*
X139340223Y-64300828D01*
X139340223Y-64300828D02*
X139483081Y-64372257D01*
X139483081Y-64372257D02*
X139554509Y-64443685D01*
X139554509Y-64443685D02*
X139625938Y-64586542D01*
X139625938Y-64586542D02*
X139625938Y-64729400D01*
X139625938Y-64729400D02*
X139554509Y-64943685D01*
X139554509Y-64943685D02*
X138697366Y-65800828D01*
X138697366Y-65800828D02*
X139625938Y-65800828D01*
X140983080Y-64300828D02*
X140268794Y-64300828D01*
X140268794Y-64300828D02*
X140197366Y-65015114D01*
X140197366Y-65015114D02*
X140268794Y-64943685D01*
X140268794Y-64943685D02*
X140411652Y-64872257D01*
X140411652Y-64872257D02*
X140768794Y-64872257D01*
X140768794Y-64872257D02*
X140911652Y-64943685D01*
X140911652Y-64943685D02*
X140983080Y-65015114D01*
X140983080Y-65015114D02*
X141054509Y-65157971D01*
X141054509Y-65157971D02*
X141054509Y-65515114D01*
X141054509Y-65515114D02*
X140983080Y-65657971D01*
X140983080Y-65657971D02*
X140911652Y-65729400D01*
X140911652Y-65729400D02*
X140768794Y-65800828D01*
X140768794Y-65800828D02*
X140411652Y-65800828D01*
X140411652Y-65800828D02*
X140268794Y-65729400D01*
X140268794Y-65729400D02*
X140197366Y-65657971D01*
X184300828Y-131659774D02*
X184300828Y-130802632D01*
X185800828Y-131231203D02*
X184300828Y-131231203D01*
X185729400Y-129731203D02*
X185800828Y-129874060D01*
X185800828Y-129874060D02*
X185800828Y-130159775D01*
X185800828Y-130159775D02*
X185729400Y-130302632D01*
X185729400Y-130302632D02*
X185586542Y-130374060D01*
X185586542Y-130374060D02*
X185015114Y-130374060D01*
X185015114Y-130374060D02*
X184872257Y-130302632D01*
X184872257Y-130302632D02*
X184800828Y-130159775D01*
X184800828Y-130159775D02*
X184800828Y-129874060D01*
X184800828Y-129874060D02*
X184872257Y-129731203D01*
X184872257Y-129731203D02*
X185015114Y-129659775D01*
X185015114Y-129659775D02*
X185157971Y-129659775D01*
X185157971Y-129659775D02*
X185300828Y-130374060D01*
X185800828Y-129016918D02*
X184800828Y-129016918D01*
X185086542Y-129016918D02*
X184943685Y-128945489D01*
X184943685Y-128945489D02*
X184872257Y-128874061D01*
X184872257Y-128874061D02*
X184800828Y-128731203D01*
X184800828Y-128731203D02*
X184800828Y-128588346D01*
X185800828Y-128088347D02*
X184800828Y-128088347D01*
X184943685Y-128088347D02*
X184872257Y-128016918D01*
X184872257Y-128016918D02*
X184800828Y-127874061D01*
X184800828Y-127874061D02*
X184800828Y-127659775D01*
X184800828Y-127659775D02*
X184872257Y-127516918D01*
X184872257Y-127516918D02*
X185015114Y-127445490D01*
X185015114Y-127445490D02*
X185800828Y-127445490D01*
X185015114Y-127445490D02*
X184872257Y-127374061D01*
X184872257Y-127374061D02*
X184800828Y-127231204D01*
X184800828Y-127231204D02*
X184800828Y-127016918D01*
X184800828Y-127016918D02*
X184872257Y-126874061D01*
X184872257Y-126874061D02*
X185015114Y-126802632D01*
X185015114Y-126802632D02*
X185800828Y-126802632D01*
X185943685Y-126445490D02*
X185943685Y-125302632D01*
X185015114Y-124945490D02*
X185015114Y-124445490D01*
X185800828Y-124231204D02*
X185800828Y-124945490D01*
X185800828Y-124945490D02*
X184300828Y-124945490D01*
X184300828Y-124945490D02*
X184300828Y-124231204D01*
X184800828Y-123588347D02*
X185800828Y-123588347D01*
X184943685Y-123588347D02*
X184872257Y-123516918D01*
X184872257Y-123516918D02*
X184800828Y-123374061D01*
X184800828Y-123374061D02*
X184800828Y-123159775D01*
X184800828Y-123159775D02*
X184872257Y-123016918D01*
X184872257Y-123016918D02*
X185015114Y-122945490D01*
X185015114Y-122945490D02*
X185800828Y-122945490D01*
X185800828Y-122231204D02*
X184300828Y-122231204D01*
X184872257Y-122231204D02*
X184800828Y-122088347D01*
X184800828Y-122088347D02*
X184800828Y-121802632D01*
X184800828Y-121802632D02*
X184872257Y-121659775D01*
X184872257Y-121659775D02*
X184943685Y-121588347D01*
X184943685Y-121588347D02*
X185086542Y-121516918D01*
X185086542Y-121516918D02*
X185515114Y-121516918D01*
X185515114Y-121516918D02*
X185657971Y-121588347D01*
X185657971Y-121588347D02*
X185729400Y-121659775D01*
X185729400Y-121659775D02*
X185800828Y-121802632D01*
X185800828Y-121802632D02*
X185800828Y-122088347D01*
X185800828Y-122088347D02*
X185729400Y-122231204D01*
X185800828Y-120659775D02*
X185729400Y-120802632D01*
X185729400Y-120802632D02*
X185586542Y-120874061D01*
X185586542Y-120874061D02*
X184300828Y-120874061D01*
D12*
X160947200Y-59793332D02*
X160994819Y-59650475D01*
X160994819Y-59650475D02*
X160994819Y-59412380D01*
X160994819Y-59412380D02*
X160947200Y-59317142D01*
X160947200Y-59317142D02*
X160899580Y-59269523D01*
X160899580Y-59269523D02*
X160804342Y-59221904D01*
X160804342Y-59221904D02*
X160709104Y-59221904D01*
X160709104Y-59221904D02*
X160613866Y-59269523D01*
X160613866Y-59269523D02*
X160566247Y-59317142D01*
X160566247Y-59317142D02*
X160518628Y-59412380D01*
X160518628Y-59412380D02*
X160471009Y-59602856D01*
X160471009Y-59602856D02*
X160423390Y-59698094D01*
X160423390Y-59698094D02*
X160375771Y-59745713D01*
X160375771Y-59745713D02*
X160280533Y-59793332D01*
X160280533Y-59793332D02*
X160185295Y-59793332D01*
X160185295Y-59793332D02*
X160090057Y-59745713D01*
X160090057Y-59745713D02*
X160042438Y-59698094D01*
X160042438Y-59698094D02*
X159994819Y-59602856D01*
X159994819Y-59602856D02*
X159994819Y-59364761D01*
X159994819Y-59364761D02*
X160042438Y-59221904D01*
X159994819Y-58888570D02*
X160994819Y-58650475D01*
X160994819Y-58650475D02*
X160280533Y-58459999D01*
X160280533Y-58459999D02*
X160994819Y-58269523D01*
X160994819Y-58269523D02*
X159994819Y-58031428D01*
X160090057Y-57698094D02*
X160042438Y-57650475D01*
X160042438Y-57650475D02*
X159994819Y-57555237D01*
X159994819Y-57555237D02*
X159994819Y-57317142D01*
X159994819Y-57317142D02*
X160042438Y-57221904D01*
X160042438Y-57221904D02*
X160090057Y-57174285D01*
X160090057Y-57174285D02*
X160185295Y-57126666D01*
X160185295Y-57126666D02*
X160280533Y-57126666D01*
X160280533Y-57126666D02*
X160423390Y-57174285D01*
X160423390Y-57174285D02*
X160994819Y-57745713D01*
X160994819Y-57745713D02*
X160994819Y-57126666D01*
X196916666Y-132704819D02*
X196916666Y-133419104D01*
X196916666Y-133419104D02*
X196869047Y-133561961D01*
X196869047Y-133561961D02*
X196773809Y-133657200D01*
X196773809Y-133657200D02*
X196630952Y-133704819D01*
X196630952Y-133704819D02*
X196535714Y-133704819D01*
X197869047Y-132704819D02*
X197392857Y-132704819D01*
X197392857Y-132704819D02*
X197345238Y-133181009D01*
X197345238Y-133181009D02*
X197392857Y-133133390D01*
X197392857Y-133133390D02*
X197488095Y-133085771D01*
X197488095Y-133085771D02*
X197726190Y-133085771D01*
X197726190Y-133085771D02*
X197821428Y-133133390D01*
X197821428Y-133133390D02*
X197869047Y-133181009D01*
X197869047Y-133181009D02*
X197916666Y-133276247D01*
X197916666Y-133276247D02*
X197916666Y-133514342D01*
X197916666Y-133514342D02*
X197869047Y-133609580D01*
X197869047Y-133609580D02*
X197821428Y-133657200D01*
X197821428Y-133657200D02*
X197726190Y-133704819D01*
X197726190Y-133704819D02*
X197488095Y-133704819D01*
X197488095Y-133704819D02*
X197392857Y-133657200D01*
X197392857Y-133657200D02*
X197345238Y-133609580D01*
X151248095Y-73249819D02*
X151248095Y-74059342D01*
X151248095Y-74059342D02*
X151295714Y-74154580D01*
X151295714Y-74154580D02*
X151343333Y-74202200D01*
X151343333Y-74202200D02*
X151438571Y-74249819D01*
X151438571Y-74249819D02*
X151629047Y-74249819D01*
X151629047Y-74249819D02*
X151724285Y-74202200D01*
X151724285Y-74202200D02*
X151771904Y-74154580D01*
X151771904Y-74154580D02*
X151819523Y-74059342D01*
X151819523Y-74059342D02*
X151819523Y-73249819D01*
X152724285Y-73583152D02*
X152724285Y-74249819D01*
X152486190Y-73202200D02*
X152248095Y-73916485D01*
X152248095Y-73916485D02*
X152867142Y-73916485D01*
X141559166Y-50662419D02*
X141559166Y-51376704D01*
X141559166Y-51376704D02*
X141511547Y-51519561D01*
X141511547Y-51519561D02*
X141416309Y-51614800D01*
X141416309Y-51614800D02*
X141273452Y-51662419D01*
X141273452Y-51662419D02*
X141178214Y-51662419D01*
X142035357Y-51662419D02*
X142035357Y-50662419D01*
X142035357Y-50662419D02*
X142416309Y-50662419D01*
X142416309Y-50662419D02*
X142511547Y-50710038D01*
X142511547Y-50710038D02*
X142559166Y-50757657D01*
X142559166Y-50757657D02*
X142606785Y-50852895D01*
X142606785Y-50852895D02*
X142606785Y-50995752D01*
X142606785Y-50995752D02*
X142559166Y-51090990D01*
X142559166Y-51090990D02*
X142511547Y-51138609D01*
X142511547Y-51138609D02*
X142416309Y-51186228D01*
X142416309Y-51186228D02*
X142035357Y-51186228D01*
X143511547Y-50662419D02*
X143035357Y-50662419D01*
X143035357Y-50662419D02*
X142987738Y-51138609D01*
X142987738Y-51138609D02*
X143035357Y-51090990D01*
X143035357Y-51090990D02*
X143130595Y-51043371D01*
X143130595Y-51043371D02*
X143368690Y-51043371D01*
X143368690Y-51043371D02*
X143463928Y-51090990D01*
X143463928Y-51090990D02*
X143511547Y-51138609D01*
X143511547Y-51138609D02*
X143559166Y-51233847D01*
X143559166Y-51233847D02*
X143559166Y-51471942D01*
X143559166Y-51471942D02*
X143511547Y-51567180D01*
X143511547Y-51567180D02*
X143463928Y-51614800D01*
X143463928Y-51614800D02*
X143368690Y-51662419D01*
X143368690Y-51662419D02*
X143130595Y-51662419D01*
X143130595Y-51662419D02*
X143035357Y-51614800D01*
X143035357Y-51614800D02*
X142987738Y-51567180D01*
X208461219Y-84420476D02*
X207985028Y-84753809D01*
X208461219Y-84991904D02*
X207461219Y-84991904D01*
X207461219Y-84991904D02*
X207461219Y-84610952D01*
X207461219Y-84610952D02*
X207508838Y-84515714D01*
X207508838Y-84515714D02*
X207556457Y-84468095D01*
X207556457Y-84468095D02*
X207651695Y-84420476D01*
X207651695Y-84420476D02*
X207794552Y-84420476D01*
X207794552Y-84420476D02*
X207889790Y-84468095D01*
X207889790Y-84468095D02*
X207937409Y-84515714D01*
X207937409Y-84515714D02*
X207985028Y-84610952D01*
X207985028Y-84610952D02*
X207985028Y-84991904D01*
X208461219Y-83991904D02*
X207461219Y-83991904D01*
X207461219Y-83991904D02*
X208461219Y-83420476D01*
X208461219Y-83420476D02*
X207461219Y-83420476D01*
X207461219Y-83039523D02*
X207461219Y-82372857D01*
X207461219Y-82372857D02*
X208461219Y-82801428D01*
X142162465Y-79035007D02*
X142114846Y-79082627D01*
X142114846Y-79082627D02*
X141971989Y-79130246D01*
X141971989Y-79130246D02*
X141876751Y-79130246D01*
X141876751Y-79130246D02*
X141733894Y-79082627D01*
X141733894Y-79082627D02*
X141638656Y-78987388D01*
X141638656Y-78987388D02*
X141591037Y-78892150D01*
X141591037Y-78892150D02*
X141543418Y-78701674D01*
X141543418Y-78701674D02*
X141543418Y-78558817D01*
X141543418Y-78558817D02*
X141591037Y-78368341D01*
X141591037Y-78368341D02*
X141638656Y-78273103D01*
X141638656Y-78273103D02*
X141733894Y-78177865D01*
X141733894Y-78177865D02*
X141876751Y-78130246D01*
X141876751Y-78130246D02*
X141971989Y-78130246D01*
X141971989Y-78130246D02*
X142114846Y-78177865D01*
X142114846Y-78177865D02*
X142162465Y-78225484D01*
X143067227Y-78130246D02*
X142591037Y-78130246D01*
X142591037Y-78130246D02*
X142543418Y-78606436D01*
X142543418Y-78606436D02*
X142591037Y-78558817D01*
X142591037Y-78558817D02*
X142686275Y-78511198D01*
X142686275Y-78511198D02*
X142924370Y-78511198D01*
X142924370Y-78511198D02*
X143019608Y-78558817D01*
X143019608Y-78558817D02*
X143067227Y-78606436D01*
X143067227Y-78606436D02*
X143114846Y-78701674D01*
X143114846Y-78701674D02*
X143114846Y-78939769D01*
X143114846Y-78939769D02*
X143067227Y-79035007D01*
X143067227Y-79035007D02*
X143019608Y-79082627D01*
X143019608Y-79082627D02*
X142924370Y-79130246D01*
X142924370Y-79130246D02*
X142686275Y-79130246D01*
X142686275Y-79130246D02*
X142591037Y-79082627D01*
X142591037Y-79082627D02*
X142543418Y-79035007D01*
X155929523Y-103054819D02*
X155596190Y-102578628D01*
X155358095Y-103054819D02*
X155358095Y-102054819D01*
X155358095Y-102054819D02*
X155739047Y-102054819D01*
X155739047Y-102054819D02*
X155834285Y-102102438D01*
X155834285Y-102102438D02*
X155881904Y-102150057D01*
X155881904Y-102150057D02*
X155929523Y-102245295D01*
X155929523Y-102245295D02*
X155929523Y-102388152D01*
X155929523Y-102388152D02*
X155881904Y-102483390D01*
X155881904Y-102483390D02*
X155834285Y-102531009D01*
X155834285Y-102531009D02*
X155739047Y-102578628D01*
X155739047Y-102578628D02*
X155358095Y-102578628D01*
X156358095Y-103054819D02*
X156358095Y-102054819D01*
X156358095Y-102054819D02*
X156929523Y-103054819D01*
X156929523Y-103054819D02*
X156929523Y-102054819D01*
X157881904Y-102054819D02*
X157405714Y-102054819D01*
X157405714Y-102054819D02*
X157358095Y-102531009D01*
X157358095Y-102531009D02*
X157405714Y-102483390D01*
X157405714Y-102483390D02*
X157500952Y-102435771D01*
X157500952Y-102435771D02*
X157739047Y-102435771D01*
X157739047Y-102435771D02*
X157834285Y-102483390D01*
X157834285Y-102483390D02*
X157881904Y-102531009D01*
X157881904Y-102531009D02*
X157929523Y-102626247D01*
X157929523Y-102626247D02*
X157929523Y-102864342D01*
X157929523Y-102864342D02*
X157881904Y-102959580D01*
X157881904Y-102959580D02*
X157834285Y-103007200D01*
X157834285Y-103007200D02*
X157739047Y-103054819D01*
X157739047Y-103054819D02*
X157500952Y-103054819D01*
X157500952Y-103054819D02*
X157405714Y-103007200D01*
X157405714Y-103007200D02*
X157358095Y-102959580D01*
X151986897Y-98464790D02*
X151939278Y-98512410D01*
X151939278Y-98512410D02*
X151796421Y-98560029D01*
X151796421Y-98560029D02*
X151701183Y-98560029D01*
X151701183Y-98560029D02*
X151558326Y-98512410D01*
X151558326Y-98512410D02*
X151463088Y-98417171D01*
X151463088Y-98417171D02*
X151415469Y-98321933D01*
X151415469Y-98321933D02*
X151367850Y-98131457D01*
X151367850Y-98131457D02*
X151367850Y-97988600D01*
X151367850Y-97988600D02*
X151415469Y-97798124D01*
X151415469Y-97798124D02*
X151463088Y-97702886D01*
X151463088Y-97702886D02*
X151558326Y-97607648D01*
X151558326Y-97607648D02*
X151701183Y-97560029D01*
X151701183Y-97560029D02*
X151796421Y-97560029D01*
X151796421Y-97560029D02*
X151939278Y-97607648D01*
X151939278Y-97607648D02*
X151986897Y-97655267D01*
X152320231Y-97560029D02*
X152939278Y-97560029D01*
X152939278Y-97560029D02*
X152605945Y-97940981D01*
X152605945Y-97940981D02*
X152748802Y-97940981D01*
X152748802Y-97940981D02*
X152844040Y-97988600D01*
X152844040Y-97988600D02*
X152891659Y-98036219D01*
X152891659Y-98036219D02*
X152939278Y-98131457D01*
X152939278Y-98131457D02*
X152939278Y-98369552D01*
X152939278Y-98369552D02*
X152891659Y-98464790D01*
X152891659Y-98464790D02*
X152844040Y-98512410D01*
X152844040Y-98512410D02*
X152748802Y-98560029D01*
X152748802Y-98560029D02*
X152463088Y-98560029D01*
X152463088Y-98560029D02*
X152367850Y-98512410D01*
X152367850Y-98512410D02*
X152320231Y-98464790D01*
X101428095Y-80424819D02*
X101428095Y-81234342D01*
X101428095Y-81234342D02*
X101475714Y-81329580D01*
X101475714Y-81329580D02*
X101523333Y-81377200D01*
X101523333Y-81377200D02*
X101618571Y-81424819D01*
X101618571Y-81424819D02*
X101809047Y-81424819D01*
X101809047Y-81424819D02*
X101904285Y-81377200D01*
X101904285Y-81377200D02*
X101951904Y-81329580D01*
X101951904Y-81329580D02*
X101999523Y-81234342D01*
X101999523Y-81234342D02*
X101999523Y-80424819D01*
X102428095Y-80520057D02*
X102475714Y-80472438D01*
X102475714Y-80472438D02*
X102570952Y-80424819D01*
X102570952Y-80424819D02*
X102809047Y-80424819D01*
X102809047Y-80424819D02*
X102904285Y-80472438D01*
X102904285Y-80472438D02*
X102951904Y-80520057D01*
X102951904Y-80520057D02*
X102999523Y-80615295D01*
X102999523Y-80615295D02*
X102999523Y-80710533D01*
X102999523Y-80710533D02*
X102951904Y-80853390D01*
X102951904Y-80853390D02*
X102380476Y-81424819D01*
X102380476Y-81424819D02*
X102999523Y-81424819D01*
X181791819Y-81768176D02*
X181315628Y-82101509D01*
X181791819Y-82339604D02*
X180791819Y-82339604D01*
X180791819Y-82339604D02*
X180791819Y-81958652D01*
X180791819Y-81958652D02*
X180839438Y-81863414D01*
X180839438Y-81863414D02*
X180887057Y-81815795D01*
X180887057Y-81815795D02*
X180982295Y-81768176D01*
X180982295Y-81768176D02*
X181125152Y-81768176D01*
X181125152Y-81768176D02*
X181220390Y-81815795D01*
X181220390Y-81815795D02*
X181268009Y-81863414D01*
X181268009Y-81863414D02*
X181315628Y-81958652D01*
X181315628Y-81958652D02*
X181315628Y-82339604D01*
X181791819Y-81339604D02*
X180791819Y-81339604D01*
X180791819Y-81339604D02*
X181791819Y-80768176D01*
X181791819Y-80768176D02*
X180791819Y-80768176D01*
X181220390Y-80149128D02*
X181172771Y-80244366D01*
X181172771Y-80244366D02*
X181125152Y-80291985D01*
X181125152Y-80291985D02*
X181029914Y-80339604D01*
X181029914Y-80339604D02*
X180982295Y-80339604D01*
X180982295Y-80339604D02*
X180887057Y-80291985D01*
X180887057Y-80291985D02*
X180839438Y-80244366D01*
X180839438Y-80244366D02*
X180791819Y-80149128D01*
X180791819Y-80149128D02*
X180791819Y-79958652D01*
X180791819Y-79958652D02*
X180839438Y-79863414D01*
X180839438Y-79863414D02*
X180887057Y-79815795D01*
X180887057Y-79815795D02*
X180982295Y-79768176D01*
X180982295Y-79768176D02*
X181029914Y-79768176D01*
X181029914Y-79768176D02*
X181125152Y-79815795D01*
X181125152Y-79815795D02*
X181172771Y-79863414D01*
X181172771Y-79863414D02*
X181220390Y-79958652D01*
X181220390Y-79958652D02*
X181220390Y-80149128D01*
X181220390Y-80149128D02*
X181268009Y-80244366D01*
X181268009Y-80244366D02*
X181315628Y-80291985D01*
X181315628Y-80291985D02*
X181410866Y-80339604D01*
X181410866Y-80339604D02*
X181601342Y-80339604D01*
X181601342Y-80339604D02*
X181696580Y-80291985D01*
X181696580Y-80291985D02*
X181744200Y-80244366D01*
X181744200Y-80244366D02*
X181791819Y-80149128D01*
X181791819Y-80149128D02*
X181791819Y-79958652D01*
X181791819Y-79958652D02*
X181744200Y-79863414D01*
X181744200Y-79863414D02*
X181696580Y-79815795D01*
X181696580Y-79815795D02*
X181601342Y-79768176D01*
X181601342Y-79768176D02*
X181410866Y-79768176D01*
X181410866Y-79768176D02*
X181315628Y-79815795D01*
X181315628Y-79815795D02*
X181268009Y-79863414D01*
X181268009Y-79863414D02*
X181220390Y-79958652D01*
X196357142Y-115534819D02*
X196023809Y-115058628D01*
X195785714Y-115534819D02*
X195785714Y-114534819D01*
X195785714Y-114534819D02*
X196166666Y-114534819D01*
X196166666Y-114534819D02*
X196261904Y-114582438D01*
X196261904Y-114582438D02*
X196309523Y-114630057D01*
X196309523Y-114630057D02*
X196357142Y-114725295D01*
X196357142Y-114725295D02*
X196357142Y-114868152D01*
X196357142Y-114868152D02*
X196309523Y-114963390D01*
X196309523Y-114963390D02*
X196261904Y-115011009D01*
X196261904Y-115011009D02*
X196166666Y-115058628D01*
X196166666Y-115058628D02*
X195785714Y-115058628D01*
X196690476Y-114534819D02*
X197309523Y-114534819D01*
X197309523Y-114534819D02*
X196976190Y-114915771D01*
X196976190Y-114915771D02*
X197119047Y-114915771D01*
X197119047Y-114915771D02*
X197214285Y-114963390D01*
X197214285Y-114963390D02*
X197261904Y-115011009D01*
X197261904Y-115011009D02*
X197309523Y-115106247D01*
X197309523Y-115106247D02*
X197309523Y-115344342D01*
X197309523Y-115344342D02*
X197261904Y-115439580D01*
X197261904Y-115439580D02*
X197214285Y-115487200D01*
X197214285Y-115487200D02*
X197119047Y-115534819D01*
X197119047Y-115534819D02*
X196833333Y-115534819D01*
X196833333Y-115534819D02*
X196738095Y-115487200D01*
X196738095Y-115487200D02*
X196690476Y-115439580D01*
X197928571Y-114534819D02*
X198023809Y-114534819D01*
X198023809Y-114534819D02*
X198119047Y-114582438D01*
X198119047Y-114582438D02*
X198166666Y-114630057D01*
X198166666Y-114630057D02*
X198214285Y-114725295D01*
X198214285Y-114725295D02*
X198261904Y-114915771D01*
X198261904Y-114915771D02*
X198261904Y-115153866D01*
X198261904Y-115153866D02*
X198214285Y-115344342D01*
X198214285Y-115344342D02*
X198166666Y-115439580D01*
X198166666Y-115439580D02*
X198119047Y-115487200D01*
X198119047Y-115487200D02*
X198023809Y-115534819D01*
X198023809Y-115534819D02*
X197928571Y-115534819D01*
X197928571Y-115534819D02*
X197833333Y-115487200D01*
X197833333Y-115487200D02*
X197785714Y-115439580D01*
X197785714Y-115439580D02*
X197738095Y-115344342D01*
X197738095Y-115344342D02*
X197690476Y-115153866D01*
X197690476Y-115153866D02*
X197690476Y-114915771D01*
X197690476Y-114915771D02*
X197738095Y-114725295D01*
X197738095Y-114725295D02*
X197785714Y-114630057D01*
X197785714Y-114630057D02*
X197833333Y-114582438D01*
X197833333Y-114582438D02*
X197928571Y-114534819D01*
X165761566Y-52044819D02*
X165761566Y-52759104D01*
X165761566Y-52759104D02*
X165713947Y-52901961D01*
X165713947Y-52901961D02*
X165618709Y-52997200D01*
X165618709Y-52997200D02*
X165475852Y-53044819D01*
X165475852Y-53044819D02*
X165380614Y-53044819D01*
X166237757Y-53044819D02*
X166237757Y-52044819D01*
X166237757Y-52044819D02*
X166618709Y-52044819D01*
X166618709Y-52044819D02*
X166713947Y-52092438D01*
X166713947Y-52092438D02*
X166761566Y-52140057D01*
X166761566Y-52140057D02*
X166809185Y-52235295D01*
X166809185Y-52235295D02*
X166809185Y-52378152D01*
X166809185Y-52378152D02*
X166761566Y-52473390D01*
X166761566Y-52473390D02*
X166713947Y-52521009D01*
X166713947Y-52521009D02*
X166618709Y-52568628D01*
X166618709Y-52568628D02*
X166237757Y-52568628D01*
X167761566Y-53044819D02*
X167190138Y-53044819D01*
X167475852Y-53044819D02*
X167475852Y-52044819D01*
X167475852Y-52044819D02*
X167380614Y-52187676D01*
X167380614Y-52187676D02*
X167285376Y-52282914D01*
X167285376Y-52282914D02*
X167190138Y-52330533D01*
X152841700Y-59722132D02*
X152889319Y-59579275D01*
X152889319Y-59579275D02*
X152889319Y-59341180D01*
X152889319Y-59341180D02*
X152841700Y-59245942D01*
X152841700Y-59245942D02*
X152794080Y-59198323D01*
X152794080Y-59198323D02*
X152698842Y-59150704D01*
X152698842Y-59150704D02*
X152603604Y-59150704D01*
X152603604Y-59150704D02*
X152508366Y-59198323D01*
X152508366Y-59198323D02*
X152460747Y-59245942D01*
X152460747Y-59245942D02*
X152413128Y-59341180D01*
X152413128Y-59341180D02*
X152365509Y-59531656D01*
X152365509Y-59531656D02*
X152317890Y-59626894D01*
X152317890Y-59626894D02*
X152270271Y-59674513D01*
X152270271Y-59674513D02*
X152175033Y-59722132D01*
X152175033Y-59722132D02*
X152079795Y-59722132D01*
X152079795Y-59722132D02*
X151984557Y-59674513D01*
X151984557Y-59674513D02*
X151936938Y-59626894D01*
X151936938Y-59626894D02*
X151889319Y-59531656D01*
X151889319Y-59531656D02*
X151889319Y-59293561D01*
X151889319Y-59293561D02*
X151936938Y-59150704D01*
X151889319Y-58817370D02*
X152889319Y-58579275D01*
X152889319Y-58579275D02*
X152175033Y-58388799D01*
X152175033Y-58388799D02*
X152889319Y-58198323D01*
X152889319Y-58198323D02*
X151889319Y-57960228D01*
X151889319Y-57674513D02*
X151889319Y-57055466D01*
X151889319Y-57055466D02*
X152270271Y-57388799D01*
X152270271Y-57388799D02*
X152270271Y-57245942D01*
X152270271Y-57245942D02*
X152317890Y-57150704D01*
X152317890Y-57150704D02*
X152365509Y-57103085D01*
X152365509Y-57103085D02*
X152460747Y-57055466D01*
X152460747Y-57055466D02*
X152698842Y-57055466D01*
X152698842Y-57055466D02*
X152794080Y-57103085D01*
X152794080Y-57103085D02*
X152841700Y-57150704D01*
X152841700Y-57150704D02*
X152889319Y-57245942D01*
X152889319Y-57245942D02*
X152889319Y-57531656D01*
X152889319Y-57531656D02*
X152841700Y-57626894D01*
X152841700Y-57626894D02*
X152794080Y-57674513D01*
X196977142Y-64534819D02*
X196643809Y-64058628D01*
X196405714Y-64534819D02*
X196405714Y-63534819D01*
X196405714Y-63534819D02*
X196786666Y-63534819D01*
X196786666Y-63534819D02*
X196881904Y-63582438D01*
X196881904Y-63582438D02*
X196929523Y-63630057D01*
X196929523Y-63630057D02*
X196977142Y-63725295D01*
X196977142Y-63725295D02*
X196977142Y-63868152D01*
X196977142Y-63868152D02*
X196929523Y-63963390D01*
X196929523Y-63963390D02*
X196881904Y-64011009D01*
X196881904Y-64011009D02*
X196786666Y-64058628D01*
X196786666Y-64058628D02*
X196405714Y-64058628D01*
X197310476Y-63534819D02*
X197929523Y-63534819D01*
X197929523Y-63534819D02*
X197596190Y-63915771D01*
X197596190Y-63915771D02*
X197739047Y-63915771D01*
X197739047Y-63915771D02*
X197834285Y-63963390D01*
X197834285Y-63963390D02*
X197881904Y-64011009D01*
X197881904Y-64011009D02*
X197929523Y-64106247D01*
X197929523Y-64106247D02*
X197929523Y-64344342D01*
X197929523Y-64344342D02*
X197881904Y-64439580D01*
X197881904Y-64439580D02*
X197834285Y-64487200D01*
X197834285Y-64487200D02*
X197739047Y-64534819D01*
X197739047Y-64534819D02*
X197453333Y-64534819D01*
X197453333Y-64534819D02*
X197358095Y-64487200D01*
X197358095Y-64487200D02*
X197310476Y-64439580D01*
X198310476Y-63630057D02*
X198358095Y-63582438D01*
X198358095Y-63582438D02*
X198453333Y-63534819D01*
X198453333Y-63534819D02*
X198691428Y-63534819D01*
X198691428Y-63534819D02*
X198786666Y-63582438D01*
X198786666Y-63582438D02*
X198834285Y-63630057D01*
X198834285Y-63630057D02*
X198881904Y-63725295D01*
X198881904Y-63725295D02*
X198881904Y-63820533D01*
X198881904Y-63820533D02*
X198834285Y-63963390D01*
X198834285Y-63963390D02*
X198262857Y-64534819D01*
X198262857Y-64534819D02*
X198881904Y-64534819D01*
X158044819Y-90571904D02*
X158854342Y-90571904D01*
X158854342Y-90571904D02*
X158949580Y-90524285D01*
X158949580Y-90524285D02*
X158997200Y-90476666D01*
X158997200Y-90476666D02*
X159044819Y-90381428D01*
X159044819Y-90381428D02*
X159044819Y-90190952D01*
X159044819Y-90190952D02*
X158997200Y-90095714D01*
X158997200Y-90095714D02*
X158949580Y-90048095D01*
X158949580Y-90048095D02*
X158854342Y-90000476D01*
X158854342Y-90000476D02*
X158044819Y-90000476D01*
X158044819Y-89619523D02*
X158044819Y-88952857D01*
X158044819Y-88952857D02*
X159044819Y-89381428D01*
X113592667Y-51027200D02*
X113735524Y-51074819D01*
X113735524Y-51074819D02*
X113973619Y-51074819D01*
X113973619Y-51074819D02*
X114068857Y-51027200D01*
X114068857Y-51027200D02*
X114116476Y-50979580D01*
X114116476Y-50979580D02*
X114164095Y-50884342D01*
X114164095Y-50884342D02*
X114164095Y-50789104D01*
X114164095Y-50789104D02*
X114116476Y-50693866D01*
X114116476Y-50693866D02*
X114068857Y-50646247D01*
X114068857Y-50646247D02*
X113973619Y-50598628D01*
X113973619Y-50598628D02*
X113783143Y-50551009D01*
X113783143Y-50551009D02*
X113687905Y-50503390D01*
X113687905Y-50503390D02*
X113640286Y-50455771D01*
X113640286Y-50455771D02*
X113592667Y-50360533D01*
X113592667Y-50360533D02*
X113592667Y-50265295D01*
X113592667Y-50265295D02*
X113640286Y-50170057D01*
X113640286Y-50170057D02*
X113687905Y-50122438D01*
X113687905Y-50122438D02*
X113783143Y-50074819D01*
X113783143Y-50074819D02*
X114021238Y-50074819D01*
X114021238Y-50074819D02*
X114164095Y-50122438D01*
X114497429Y-50074819D02*
X114735524Y-51074819D01*
X114735524Y-51074819D02*
X114926000Y-50360533D01*
X114926000Y-50360533D02*
X115116476Y-51074819D01*
X115116476Y-51074819D02*
X115354572Y-50074819D01*
X116259333Y-51074819D02*
X115687905Y-51074819D01*
X115973619Y-51074819D02*
X115973619Y-50074819D01*
X115973619Y-50074819D02*
X115878381Y-50217676D01*
X115878381Y-50217676D02*
X115783143Y-50312914D01*
X115783143Y-50312914D02*
X115687905Y-50360533D01*
X220616666Y-113679819D02*
X220616666Y-114394104D01*
X220616666Y-114394104D02*
X220569047Y-114536961D01*
X220569047Y-114536961D02*
X220473809Y-114632200D01*
X220473809Y-114632200D02*
X220330952Y-114679819D01*
X220330952Y-114679819D02*
X220235714Y-114679819D01*
X220997619Y-113679819D02*
X221664285Y-113679819D01*
X221664285Y-113679819D02*
X221235714Y-114679819D01*
X175497848Y-102674864D02*
X175021657Y-103008197D01*
X175497848Y-103246292D02*
X174497848Y-103246292D01*
X174497848Y-103246292D02*
X174497848Y-102865340D01*
X174497848Y-102865340D02*
X174545467Y-102770102D01*
X174545467Y-102770102D02*
X174593086Y-102722483D01*
X174593086Y-102722483D02*
X174688324Y-102674864D01*
X174688324Y-102674864D02*
X174831181Y-102674864D01*
X174831181Y-102674864D02*
X174926419Y-102722483D01*
X174926419Y-102722483D02*
X174974038Y-102770102D01*
X174974038Y-102770102D02*
X175021657Y-102865340D01*
X175021657Y-102865340D02*
X175021657Y-103246292D01*
X174497848Y-102341530D02*
X174497848Y-101722483D01*
X174497848Y-101722483D02*
X174878800Y-102055816D01*
X174878800Y-102055816D02*
X174878800Y-101912959D01*
X174878800Y-101912959D02*
X174926419Y-101817721D01*
X174926419Y-101817721D02*
X174974038Y-101770102D01*
X174974038Y-101770102D02*
X175069276Y-101722483D01*
X175069276Y-101722483D02*
X175307371Y-101722483D01*
X175307371Y-101722483D02*
X175402609Y-101770102D01*
X175402609Y-101770102D02*
X175450229Y-101817721D01*
X175450229Y-101817721D02*
X175497848Y-101912959D01*
X175497848Y-101912959D02*
X175497848Y-102198673D01*
X175497848Y-102198673D02*
X175450229Y-102293911D01*
X175450229Y-102293911D02*
X175402609Y-102341530D01*
X175497848Y-100770102D02*
X175497848Y-101341530D01*
X175497848Y-101055816D02*
X174497848Y-101055816D01*
X174497848Y-101055816D02*
X174640705Y-101151054D01*
X174640705Y-101151054D02*
X174735943Y-101246292D01*
X174735943Y-101246292D02*
X174783562Y-101341530D01*
X104454819Y-92850476D02*
X103978628Y-93183809D01*
X104454819Y-93421904D02*
X103454819Y-93421904D01*
X103454819Y-93421904D02*
X103454819Y-93040952D01*
X103454819Y-93040952D02*
X103502438Y-92945714D01*
X103502438Y-92945714D02*
X103550057Y-92898095D01*
X103550057Y-92898095D02*
X103645295Y-92850476D01*
X103645295Y-92850476D02*
X103788152Y-92850476D01*
X103788152Y-92850476D02*
X103883390Y-92898095D01*
X103883390Y-92898095D02*
X103931009Y-92945714D01*
X103931009Y-92945714D02*
X103978628Y-93040952D01*
X103978628Y-93040952D02*
X103978628Y-93421904D01*
X104454819Y-92421904D02*
X103454819Y-92421904D01*
X103454819Y-92421904D02*
X104454819Y-91850476D01*
X104454819Y-91850476D02*
X103454819Y-91850476D01*
X103454819Y-91469523D02*
X103454819Y-90850476D01*
X103454819Y-90850476D02*
X103835771Y-91183809D01*
X103835771Y-91183809D02*
X103835771Y-91040952D01*
X103835771Y-91040952D02*
X103883390Y-90945714D01*
X103883390Y-90945714D02*
X103931009Y-90898095D01*
X103931009Y-90898095D02*
X104026247Y-90850476D01*
X104026247Y-90850476D02*
X104264342Y-90850476D01*
X104264342Y-90850476D02*
X104359580Y-90898095D01*
X104359580Y-90898095D02*
X104407200Y-90945714D01*
X104407200Y-90945714D02*
X104454819Y-91040952D01*
X104454819Y-91040952D02*
X104454819Y-91326666D01*
X104454819Y-91326666D02*
X104407200Y-91421904D01*
X104407200Y-91421904D02*
X104359580Y-91469523D01*
X191743533Y-95114580D02*
X191695914Y-95162200D01*
X191695914Y-95162200D02*
X191553057Y-95209819D01*
X191553057Y-95209819D02*
X191457819Y-95209819D01*
X191457819Y-95209819D02*
X191314962Y-95162200D01*
X191314962Y-95162200D02*
X191219724Y-95066961D01*
X191219724Y-95066961D02*
X191172105Y-94971723D01*
X191172105Y-94971723D02*
X191124486Y-94781247D01*
X191124486Y-94781247D02*
X191124486Y-94638390D01*
X191124486Y-94638390D02*
X191172105Y-94447914D01*
X191172105Y-94447914D02*
X191219724Y-94352676D01*
X191219724Y-94352676D02*
X191314962Y-94257438D01*
X191314962Y-94257438D02*
X191457819Y-94209819D01*
X191457819Y-94209819D02*
X191553057Y-94209819D01*
X191553057Y-94209819D02*
X191695914Y-94257438D01*
X191695914Y-94257438D02*
X191743533Y-94305057D01*
X192076867Y-94209819D02*
X192743533Y-94209819D01*
X192743533Y-94209819D02*
X192314962Y-95209819D01*
X202967519Y-84420476D02*
X202491328Y-84753809D01*
X202967519Y-84991904D02*
X201967519Y-84991904D01*
X201967519Y-84991904D02*
X201967519Y-84610952D01*
X201967519Y-84610952D02*
X202015138Y-84515714D01*
X202015138Y-84515714D02*
X202062757Y-84468095D01*
X202062757Y-84468095D02*
X202157995Y-84420476D01*
X202157995Y-84420476D02*
X202300852Y-84420476D01*
X202300852Y-84420476D02*
X202396090Y-84468095D01*
X202396090Y-84468095D02*
X202443709Y-84515714D01*
X202443709Y-84515714D02*
X202491328Y-84610952D01*
X202491328Y-84610952D02*
X202491328Y-84991904D01*
X202967519Y-83991904D02*
X201967519Y-83991904D01*
X201967519Y-83991904D02*
X202967519Y-83420476D01*
X202967519Y-83420476D02*
X201967519Y-83420476D01*
X201967519Y-82515714D02*
X201967519Y-82706190D01*
X201967519Y-82706190D02*
X202015138Y-82801428D01*
X202015138Y-82801428D02*
X202062757Y-82849047D01*
X202062757Y-82849047D02*
X202205614Y-82944285D01*
X202205614Y-82944285D02*
X202396090Y-82991904D01*
X202396090Y-82991904D02*
X202777042Y-82991904D01*
X202777042Y-82991904D02*
X202872280Y-82944285D01*
X202872280Y-82944285D02*
X202919900Y-82896666D01*
X202919900Y-82896666D02*
X202967519Y-82801428D01*
X202967519Y-82801428D02*
X202967519Y-82610952D01*
X202967519Y-82610952D02*
X202919900Y-82515714D01*
X202919900Y-82515714D02*
X202872280Y-82468095D01*
X202872280Y-82468095D02*
X202777042Y-82420476D01*
X202777042Y-82420476D02*
X202538947Y-82420476D01*
X202538947Y-82420476D02*
X202443709Y-82468095D01*
X202443709Y-82468095D02*
X202396090Y-82515714D01*
X202396090Y-82515714D02*
X202348471Y-82610952D01*
X202348471Y-82610952D02*
X202348471Y-82801428D01*
X202348471Y-82801428D02*
X202396090Y-82896666D01*
X202396090Y-82896666D02*
X202443709Y-82944285D01*
X202443709Y-82944285D02*
X202538947Y-82991904D01*
X213048095Y-74424819D02*
X213048095Y-75234342D01*
X213048095Y-75234342D02*
X213095714Y-75329580D01*
X213095714Y-75329580D02*
X213143333Y-75377200D01*
X213143333Y-75377200D02*
X213238571Y-75424819D01*
X213238571Y-75424819D02*
X213429047Y-75424819D01*
X213429047Y-75424819D02*
X213524285Y-75377200D01*
X213524285Y-75377200D02*
X213571904Y-75329580D01*
X213571904Y-75329580D02*
X213619523Y-75234342D01*
X213619523Y-75234342D02*
X213619523Y-74424819D01*
X214571904Y-74424819D02*
X214095714Y-74424819D01*
X214095714Y-74424819D02*
X214048095Y-74901009D01*
X214048095Y-74901009D02*
X214095714Y-74853390D01*
X214095714Y-74853390D02*
X214190952Y-74805771D01*
X214190952Y-74805771D02*
X214429047Y-74805771D01*
X214429047Y-74805771D02*
X214524285Y-74853390D01*
X214524285Y-74853390D02*
X214571904Y-74901009D01*
X214571904Y-74901009D02*
X214619523Y-74996247D01*
X214619523Y-74996247D02*
X214619523Y-75234342D01*
X214619523Y-75234342D02*
X214571904Y-75329580D01*
X214571904Y-75329580D02*
X214524285Y-75377200D01*
X214524285Y-75377200D02*
X214429047Y-75424819D01*
X214429047Y-75424819D02*
X214190952Y-75424819D01*
X214190952Y-75424819D02*
X214095714Y-75377200D01*
X214095714Y-75377200D02*
X214048095Y-75329580D01*
X139620984Y-87953901D02*
X139144793Y-88287234D01*
X139620984Y-88525329D02*
X138620984Y-88525329D01*
X138620984Y-88525329D02*
X138620984Y-88144377D01*
X138620984Y-88144377D02*
X138668603Y-88049139D01*
X138668603Y-88049139D02*
X138716222Y-88001520D01*
X138716222Y-88001520D02*
X138811460Y-87953901D01*
X138811460Y-87953901D02*
X138954317Y-87953901D01*
X138954317Y-87953901D02*
X139049555Y-88001520D01*
X139049555Y-88001520D02*
X139097174Y-88049139D01*
X139097174Y-88049139D02*
X139144793Y-88144377D01*
X139144793Y-88144377D02*
X139144793Y-88525329D01*
X139620984Y-87001520D02*
X139620984Y-87572948D01*
X139620984Y-87287234D02*
X138620984Y-87287234D01*
X138620984Y-87287234D02*
X138763841Y-87382472D01*
X138763841Y-87382472D02*
X138859079Y-87477710D01*
X138859079Y-87477710D02*
X138906698Y-87572948D01*
X138620984Y-86668186D02*
X138620984Y-86049139D01*
X138620984Y-86049139D02*
X139001936Y-86382472D01*
X139001936Y-86382472D02*
X139001936Y-86239615D01*
X139001936Y-86239615D02*
X139049555Y-86144377D01*
X139049555Y-86144377D02*
X139097174Y-86096758D01*
X139097174Y-86096758D02*
X139192412Y-86049139D01*
X139192412Y-86049139D02*
X139430507Y-86049139D01*
X139430507Y-86049139D02*
X139525745Y-86096758D01*
X139525745Y-86096758D02*
X139573365Y-86144377D01*
X139573365Y-86144377D02*
X139620984Y-86239615D01*
X139620984Y-86239615D02*
X139620984Y-86525329D01*
X139620984Y-86525329D02*
X139573365Y-86620567D01*
X139573365Y-86620567D02*
X139525745Y-86668186D01*
X125229523Y-103054819D02*
X124896190Y-102578628D01*
X124658095Y-103054819D02*
X124658095Y-102054819D01*
X124658095Y-102054819D02*
X125039047Y-102054819D01*
X125039047Y-102054819D02*
X125134285Y-102102438D01*
X125134285Y-102102438D02*
X125181904Y-102150057D01*
X125181904Y-102150057D02*
X125229523Y-102245295D01*
X125229523Y-102245295D02*
X125229523Y-102388152D01*
X125229523Y-102388152D02*
X125181904Y-102483390D01*
X125181904Y-102483390D02*
X125134285Y-102531009D01*
X125134285Y-102531009D02*
X125039047Y-102578628D01*
X125039047Y-102578628D02*
X124658095Y-102578628D01*
X125658095Y-103054819D02*
X125658095Y-102054819D01*
X125658095Y-102054819D02*
X126229523Y-103054819D01*
X126229523Y-103054819D02*
X126229523Y-102054819D01*
X127229523Y-103054819D02*
X126658095Y-103054819D01*
X126943809Y-103054819D02*
X126943809Y-102054819D01*
X126943809Y-102054819D02*
X126848571Y-102197676D01*
X126848571Y-102197676D02*
X126753333Y-102292914D01*
X126753333Y-102292914D02*
X126658095Y-102340533D01*
X171166666Y-52044819D02*
X171166666Y-52759104D01*
X171166666Y-52759104D02*
X171119047Y-52901961D01*
X171119047Y-52901961D02*
X171023809Y-52997200D01*
X171023809Y-52997200D02*
X170880952Y-53044819D01*
X170880952Y-53044819D02*
X170785714Y-53044819D01*
X171642857Y-53044819D02*
X171642857Y-52044819D01*
X171642857Y-52044819D02*
X172023809Y-52044819D01*
X172023809Y-52044819D02*
X172119047Y-52092438D01*
X172119047Y-52092438D02*
X172166666Y-52140057D01*
X172166666Y-52140057D02*
X172214285Y-52235295D01*
X172214285Y-52235295D02*
X172214285Y-52378152D01*
X172214285Y-52378152D02*
X172166666Y-52473390D01*
X172166666Y-52473390D02*
X172119047Y-52521009D01*
X172119047Y-52521009D02*
X172023809Y-52568628D01*
X172023809Y-52568628D02*
X171642857Y-52568628D01*
X172595238Y-52140057D02*
X172642857Y-52092438D01*
X172642857Y-52092438D02*
X172738095Y-52044819D01*
X172738095Y-52044819D02*
X172976190Y-52044819D01*
X172976190Y-52044819D02*
X173071428Y-52092438D01*
X173071428Y-52092438D02*
X173119047Y-52140057D01*
X173119047Y-52140057D02*
X173166666Y-52235295D01*
X173166666Y-52235295D02*
X173166666Y-52330533D01*
X173166666Y-52330533D02*
X173119047Y-52473390D01*
X173119047Y-52473390D02*
X172547619Y-53044819D01*
X172547619Y-53044819D02*
X173166666Y-53044819D01*
X206324819Y-105966189D02*
X205324819Y-105966189D01*
X206229580Y-104918571D02*
X206277200Y-104966190D01*
X206277200Y-104966190D02*
X206324819Y-105109047D01*
X206324819Y-105109047D02*
X206324819Y-105204285D01*
X206324819Y-105204285D02*
X206277200Y-105347142D01*
X206277200Y-105347142D02*
X206181961Y-105442380D01*
X206181961Y-105442380D02*
X206086723Y-105489999D01*
X206086723Y-105489999D02*
X205896247Y-105537618D01*
X205896247Y-105537618D02*
X205753390Y-105537618D01*
X205753390Y-105537618D02*
X205562914Y-105489999D01*
X205562914Y-105489999D02*
X205467676Y-105442380D01*
X205467676Y-105442380D02*
X205372438Y-105347142D01*
X205372438Y-105347142D02*
X205324819Y-105204285D01*
X205324819Y-105204285D02*
X205324819Y-105109047D01*
X205324819Y-105109047D02*
X205372438Y-104966190D01*
X205372438Y-104966190D02*
X205420057Y-104918571D01*
X206324819Y-103966190D02*
X206324819Y-104537618D01*
X206324819Y-104251904D02*
X205324819Y-104251904D01*
X205324819Y-104251904D02*
X205467676Y-104347142D01*
X205467676Y-104347142D02*
X205562914Y-104442380D01*
X205562914Y-104442380D02*
X205610533Y-104537618D01*
X87925680Y-55132566D02*
X87973300Y-55180185D01*
X87973300Y-55180185D02*
X88020919Y-55323042D01*
X88020919Y-55323042D02*
X88020919Y-55418280D01*
X88020919Y-55418280D02*
X87973300Y-55561137D01*
X87973300Y-55561137D02*
X87878061Y-55656375D01*
X87878061Y-55656375D02*
X87782823Y-55703994D01*
X87782823Y-55703994D02*
X87592347Y-55751613D01*
X87592347Y-55751613D02*
X87449490Y-55751613D01*
X87449490Y-55751613D02*
X87259014Y-55703994D01*
X87259014Y-55703994D02*
X87163776Y-55656375D01*
X87163776Y-55656375D02*
X87068538Y-55561137D01*
X87068538Y-55561137D02*
X87020919Y-55418280D01*
X87020919Y-55418280D02*
X87020919Y-55323042D01*
X87020919Y-55323042D02*
X87068538Y-55180185D01*
X87068538Y-55180185D02*
X87116157Y-55132566D01*
X88020919Y-54180185D02*
X88020919Y-54751613D01*
X88020919Y-54465899D02*
X87020919Y-54465899D01*
X87020919Y-54465899D02*
X87163776Y-54561137D01*
X87163776Y-54561137D02*
X87259014Y-54656375D01*
X87259014Y-54656375D02*
X87306633Y-54751613D01*
D13*
X153958567Y-124730518D02*
X153958567Y-125637661D01*
X153958567Y-125637661D02*
X153898090Y-125819089D01*
X153898090Y-125819089D02*
X153777138Y-125940042D01*
X153777138Y-125940042D02*
X153595709Y-126000518D01*
X153595709Y-126000518D02*
X153474757Y-126000518D01*
X154442376Y-124730518D02*
X155228567Y-124730518D01*
X155228567Y-124730518D02*
X154805233Y-125214327D01*
X154805233Y-125214327D02*
X154986662Y-125214327D01*
X154986662Y-125214327D02*
X155107614Y-125274803D01*
X155107614Y-125274803D02*
X155168090Y-125335280D01*
X155168090Y-125335280D02*
X155228567Y-125456232D01*
X155228567Y-125456232D02*
X155228567Y-125758613D01*
X155228567Y-125758613D02*
X155168090Y-125879565D01*
X155168090Y-125879565D02*
X155107614Y-125940042D01*
X155107614Y-125940042D02*
X154986662Y-126000518D01*
X154986662Y-126000518D02*
X154623805Y-126000518D01*
X154623805Y-126000518D02*
X154502852Y-125940042D01*
X154502852Y-125940042D02*
X154442376Y-125879565D01*
D12*
X83949666Y-78099819D02*
X83949666Y-78814104D01*
X83949666Y-78814104D02*
X83902047Y-78956961D01*
X83902047Y-78956961D02*
X83806809Y-79052200D01*
X83806809Y-79052200D02*
X83663952Y-79099819D01*
X83663952Y-79099819D02*
X83568714Y-79099819D01*
X84378238Y-78195057D02*
X84425857Y-78147438D01*
X84425857Y-78147438D02*
X84521095Y-78099819D01*
X84521095Y-78099819D02*
X84759190Y-78099819D01*
X84759190Y-78099819D02*
X84854428Y-78147438D01*
X84854428Y-78147438D02*
X84902047Y-78195057D01*
X84902047Y-78195057D02*
X84949666Y-78290295D01*
X84949666Y-78290295D02*
X84949666Y-78385533D01*
X84949666Y-78385533D02*
X84902047Y-78528390D01*
X84902047Y-78528390D02*
X84330619Y-79099819D01*
X84330619Y-79099819D02*
X84949666Y-79099819D01*
X130428095Y-80424819D02*
X130428095Y-81234342D01*
X130428095Y-81234342D02*
X130475714Y-81329580D01*
X130475714Y-81329580D02*
X130523333Y-81377200D01*
X130523333Y-81377200D02*
X130618571Y-81424819D01*
X130618571Y-81424819D02*
X130809047Y-81424819D01*
X130809047Y-81424819D02*
X130904285Y-81377200D01*
X130904285Y-81377200D02*
X130951904Y-81329580D01*
X130951904Y-81329580D02*
X130999523Y-81234342D01*
X130999523Y-81234342D02*
X130999523Y-80424819D01*
X131380476Y-80424819D02*
X131999523Y-80424819D01*
X131999523Y-80424819D02*
X131666190Y-80805771D01*
X131666190Y-80805771D02*
X131809047Y-80805771D01*
X131809047Y-80805771D02*
X131904285Y-80853390D01*
X131904285Y-80853390D02*
X131951904Y-80901009D01*
X131951904Y-80901009D02*
X131999523Y-80996247D01*
X131999523Y-80996247D02*
X131999523Y-81234342D01*
X131999523Y-81234342D02*
X131951904Y-81329580D01*
X131951904Y-81329580D02*
X131904285Y-81377200D01*
X131904285Y-81377200D02*
X131809047Y-81424819D01*
X131809047Y-81424819D02*
X131523333Y-81424819D01*
X131523333Y-81424819D02*
X131428095Y-81377200D01*
X131428095Y-81377200D02*
X131380476Y-81329580D01*
X187173267Y-106230814D02*
X187982790Y-106230814D01*
X187982790Y-106230814D02*
X188078028Y-106183195D01*
X188078028Y-106183195D02*
X188125648Y-106135576D01*
X188125648Y-106135576D02*
X188173267Y-106040338D01*
X188173267Y-106040338D02*
X188173267Y-105849862D01*
X188173267Y-105849862D02*
X188125648Y-105754624D01*
X188125648Y-105754624D02*
X188078028Y-105707005D01*
X188078028Y-105707005D02*
X187982790Y-105659386D01*
X187982790Y-105659386D02*
X187173267Y-105659386D01*
X188173267Y-105135576D02*
X188173267Y-104945100D01*
X188173267Y-104945100D02*
X188125648Y-104849862D01*
X188125648Y-104849862D02*
X188078028Y-104802243D01*
X188078028Y-104802243D02*
X187935171Y-104707005D01*
X187935171Y-104707005D02*
X187744695Y-104659386D01*
X187744695Y-104659386D02*
X187363743Y-104659386D01*
X187363743Y-104659386D02*
X187268505Y-104707005D01*
X187268505Y-104707005D02*
X187220886Y-104754624D01*
X187220886Y-104754624D02*
X187173267Y-104849862D01*
X187173267Y-104849862D02*
X187173267Y-105040338D01*
X187173267Y-105040338D02*
X187220886Y-105135576D01*
X187220886Y-105135576D02*
X187268505Y-105183195D01*
X187268505Y-105183195D02*
X187363743Y-105230814D01*
X187363743Y-105230814D02*
X187601838Y-105230814D01*
X187601838Y-105230814D02*
X187697076Y-105183195D01*
X187697076Y-105183195D02*
X187744695Y-105135576D01*
X187744695Y-105135576D02*
X187792314Y-105040338D01*
X187792314Y-105040338D02*
X187792314Y-104849862D01*
X187792314Y-104849862D02*
X187744695Y-104754624D01*
X187744695Y-104754624D02*
X187697076Y-104707005D01*
X187697076Y-104707005D02*
X187601838Y-104659386D01*
X191428095Y-74424819D02*
X191428095Y-75234342D01*
X191428095Y-75234342D02*
X191475714Y-75329580D01*
X191475714Y-75329580D02*
X191523333Y-75377200D01*
X191523333Y-75377200D02*
X191618571Y-75424819D01*
X191618571Y-75424819D02*
X191809047Y-75424819D01*
X191809047Y-75424819D02*
X191904285Y-75377200D01*
X191904285Y-75377200D02*
X191951904Y-75329580D01*
X191951904Y-75329580D02*
X191999523Y-75234342D01*
X191999523Y-75234342D02*
X191999523Y-74424819D01*
X192904285Y-74424819D02*
X192713809Y-74424819D01*
X192713809Y-74424819D02*
X192618571Y-74472438D01*
X192618571Y-74472438D02*
X192570952Y-74520057D01*
X192570952Y-74520057D02*
X192475714Y-74662914D01*
X192475714Y-74662914D02*
X192428095Y-74853390D01*
X192428095Y-74853390D02*
X192428095Y-75234342D01*
X192428095Y-75234342D02*
X192475714Y-75329580D01*
X192475714Y-75329580D02*
X192523333Y-75377200D01*
X192523333Y-75377200D02*
X192618571Y-75424819D01*
X192618571Y-75424819D02*
X192809047Y-75424819D01*
X192809047Y-75424819D02*
X192904285Y-75377200D01*
X192904285Y-75377200D02*
X192951904Y-75329580D01*
X192951904Y-75329580D02*
X192999523Y-75234342D01*
X192999523Y-75234342D02*
X192999523Y-74996247D01*
X192999523Y-74996247D02*
X192951904Y-74901009D01*
X192951904Y-74901009D02*
X192904285Y-74853390D01*
X192904285Y-74853390D02*
X192809047Y-74805771D01*
X192809047Y-74805771D02*
X192618571Y-74805771D01*
X192618571Y-74805771D02*
X192523333Y-74853390D01*
X192523333Y-74853390D02*
X192475714Y-74901009D01*
X192475714Y-74901009D02*
X192428095Y-74996247D01*
X199739580Y-106142857D02*
X199787200Y-106190476D01*
X199787200Y-106190476D02*
X199834819Y-106333333D01*
X199834819Y-106333333D02*
X199834819Y-106428571D01*
X199834819Y-106428571D02*
X199787200Y-106571428D01*
X199787200Y-106571428D02*
X199691961Y-106666666D01*
X199691961Y-106666666D02*
X199596723Y-106714285D01*
X199596723Y-106714285D02*
X199406247Y-106761904D01*
X199406247Y-106761904D02*
X199263390Y-106761904D01*
X199263390Y-106761904D02*
X199072914Y-106714285D01*
X199072914Y-106714285D02*
X198977676Y-106666666D01*
X198977676Y-106666666D02*
X198882438Y-106571428D01*
X198882438Y-106571428D02*
X198834819Y-106428571D01*
X198834819Y-106428571D02*
X198834819Y-106333333D01*
X198834819Y-106333333D02*
X198882438Y-106190476D01*
X198882438Y-106190476D02*
X198930057Y-106142857D01*
X199834819Y-105190476D02*
X199834819Y-105761904D01*
X199834819Y-105476190D02*
X198834819Y-105476190D01*
X198834819Y-105476190D02*
X198977676Y-105571428D01*
X198977676Y-105571428D02*
X199072914Y-105666666D01*
X199072914Y-105666666D02*
X199120533Y-105761904D01*
X199834819Y-104238095D02*
X199834819Y-104809523D01*
X199834819Y-104523809D02*
X198834819Y-104523809D01*
X198834819Y-104523809D02*
X198977676Y-104619047D01*
X198977676Y-104619047D02*
X199072914Y-104714285D01*
X199072914Y-104714285D02*
X199120533Y-104809523D01*
X109389523Y-72054819D02*
X109056190Y-71578628D01*
X108818095Y-72054819D02*
X108818095Y-71054819D01*
X108818095Y-71054819D02*
X109199047Y-71054819D01*
X109199047Y-71054819D02*
X109294285Y-71102438D01*
X109294285Y-71102438D02*
X109341904Y-71150057D01*
X109341904Y-71150057D02*
X109389523Y-71245295D01*
X109389523Y-71245295D02*
X109389523Y-71388152D01*
X109389523Y-71388152D02*
X109341904Y-71483390D01*
X109341904Y-71483390D02*
X109294285Y-71531009D01*
X109294285Y-71531009D02*
X109199047Y-71578628D01*
X109199047Y-71578628D02*
X108818095Y-71578628D01*
X109818095Y-72054819D02*
X109818095Y-71054819D01*
X109818095Y-71054819D02*
X110389523Y-72054819D01*
X110389523Y-72054819D02*
X110389523Y-71054819D01*
X110818095Y-71150057D02*
X110865714Y-71102438D01*
X110865714Y-71102438D02*
X110960952Y-71054819D01*
X110960952Y-71054819D02*
X111199047Y-71054819D01*
X111199047Y-71054819D02*
X111294285Y-71102438D01*
X111294285Y-71102438D02*
X111341904Y-71150057D01*
X111341904Y-71150057D02*
X111389523Y-71245295D01*
X111389523Y-71245295D02*
X111389523Y-71340533D01*
X111389523Y-71340533D02*
X111341904Y-71483390D01*
X111341904Y-71483390D02*
X110770476Y-72054819D01*
X110770476Y-72054819D02*
X111389523Y-72054819D01*
X196416666Y-50204819D02*
X196416666Y-50919104D01*
X196416666Y-50919104D02*
X196369047Y-51061961D01*
X196369047Y-51061961D02*
X196273809Y-51157200D01*
X196273809Y-51157200D02*
X196130952Y-51204819D01*
X196130952Y-51204819D02*
X196035714Y-51204819D01*
X197321428Y-50204819D02*
X197130952Y-50204819D01*
X197130952Y-50204819D02*
X197035714Y-50252438D01*
X197035714Y-50252438D02*
X196988095Y-50300057D01*
X196988095Y-50300057D02*
X196892857Y-50442914D01*
X196892857Y-50442914D02*
X196845238Y-50633390D01*
X196845238Y-50633390D02*
X196845238Y-51014342D01*
X196845238Y-51014342D02*
X196892857Y-51109580D01*
X196892857Y-51109580D02*
X196940476Y-51157200D01*
X196940476Y-51157200D02*
X197035714Y-51204819D01*
X197035714Y-51204819D02*
X197226190Y-51204819D01*
X197226190Y-51204819D02*
X197321428Y-51157200D01*
X197321428Y-51157200D02*
X197369047Y-51109580D01*
X197369047Y-51109580D02*
X197416666Y-51014342D01*
X197416666Y-51014342D02*
X197416666Y-50776247D01*
X197416666Y-50776247D02*
X197369047Y-50681009D01*
X197369047Y-50681009D02*
X197321428Y-50633390D01*
X197321428Y-50633390D02*
X197226190Y-50585771D01*
X197226190Y-50585771D02*
X197035714Y-50585771D01*
X197035714Y-50585771D02*
X196940476Y-50633390D01*
X196940476Y-50633390D02*
X196892857Y-50681009D01*
X196892857Y-50681009D02*
X196845238Y-50776247D01*
X213559733Y-95239580D02*
X213512114Y-95287200D01*
X213512114Y-95287200D02*
X213369257Y-95334819D01*
X213369257Y-95334819D02*
X213274019Y-95334819D01*
X213274019Y-95334819D02*
X213131162Y-95287200D01*
X213131162Y-95287200D02*
X213035924Y-95191961D01*
X213035924Y-95191961D02*
X212988305Y-95096723D01*
X212988305Y-95096723D02*
X212940686Y-94906247D01*
X212940686Y-94906247D02*
X212940686Y-94763390D01*
X212940686Y-94763390D02*
X212988305Y-94572914D01*
X212988305Y-94572914D02*
X213035924Y-94477676D01*
X213035924Y-94477676D02*
X213131162Y-94382438D01*
X213131162Y-94382438D02*
X213274019Y-94334819D01*
X213274019Y-94334819D02*
X213369257Y-94334819D01*
X213369257Y-94334819D02*
X213512114Y-94382438D01*
X213512114Y-94382438D02*
X213559733Y-94430057D01*
X214416876Y-94334819D02*
X214226400Y-94334819D01*
X214226400Y-94334819D02*
X214131162Y-94382438D01*
X214131162Y-94382438D02*
X214083543Y-94430057D01*
X214083543Y-94430057D02*
X213988305Y-94572914D01*
X213988305Y-94572914D02*
X213940686Y-94763390D01*
X213940686Y-94763390D02*
X213940686Y-95144342D01*
X213940686Y-95144342D02*
X213988305Y-95239580D01*
X213988305Y-95239580D02*
X214035924Y-95287200D01*
X214035924Y-95287200D02*
X214131162Y-95334819D01*
X214131162Y-95334819D02*
X214321638Y-95334819D01*
X214321638Y-95334819D02*
X214416876Y-95287200D01*
X214416876Y-95287200D02*
X214464495Y-95239580D01*
X214464495Y-95239580D02*
X214512114Y-95144342D01*
X214512114Y-95144342D02*
X214512114Y-94906247D01*
X214512114Y-94906247D02*
X214464495Y-94811009D01*
X214464495Y-94811009D02*
X214416876Y-94763390D01*
X214416876Y-94763390D02*
X214321638Y-94715771D01*
X214321638Y-94715771D02*
X214131162Y-94715771D01*
X214131162Y-94715771D02*
X214035924Y-94763390D01*
X214035924Y-94763390D02*
X213988305Y-94811009D01*
X213988305Y-94811009D02*
X213940686Y-94906247D01*
X92054819Y-94530476D02*
X91578628Y-94863809D01*
X92054819Y-95101904D02*
X91054819Y-95101904D01*
X91054819Y-95101904D02*
X91054819Y-94720952D01*
X91054819Y-94720952D02*
X91102438Y-94625714D01*
X91102438Y-94625714D02*
X91150057Y-94578095D01*
X91150057Y-94578095D02*
X91245295Y-94530476D01*
X91245295Y-94530476D02*
X91388152Y-94530476D01*
X91388152Y-94530476D02*
X91483390Y-94578095D01*
X91483390Y-94578095D02*
X91531009Y-94625714D01*
X91531009Y-94625714D02*
X91578628Y-94720952D01*
X91578628Y-94720952D02*
X91578628Y-95101904D01*
X92054819Y-94101904D02*
X91054819Y-94101904D01*
X91054819Y-94101904D02*
X92054819Y-93530476D01*
X92054819Y-93530476D02*
X91054819Y-93530476D01*
X91388152Y-92625714D02*
X92054819Y-92625714D01*
X91007200Y-92863809D02*
X91721485Y-93101904D01*
X91721485Y-93101904D02*
X91721485Y-92482857D01*
X91038395Y-50116219D02*
X91038395Y-50925742D01*
X91038395Y-50925742D02*
X91086014Y-51020980D01*
X91086014Y-51020980D02*
X91133633Y-51068600D01*
X91133633Y-51068600D02*
X91228871Y-51116219D01*
X91228871Y-51116219D02*
X91419347Y-51116219D01*
X91419347Y-51116219D02*
X91514585Y-51068600D01*
X91514585Y-51068600D02*
X91562204Y-51020980D01*
X91562204Y-51020980D02*
X91609823Y-50925742D01*
X91609823Y-50925742D02*
X91609823Y-50116219D01*
X92609823Y-51116219D02*
X92038395Y-51116219D01*
X92324109Y-51116219D02*
X92324109Y-50116219D01*
X92324109Y-50116219D02*
X92228871Y-50259076D01*
X92228871Y-50259076D02*
X92133633Y-50354314D01*
X92133633Y-50354314D02*
X92038395Y-50401933D01*
X220040476Y-62679819D02*
X220040476Y-63394104D01*
X220040476Y-63394104D02*
X219992857Y-63536961D01*
X219992857Y-63536961D02*
X219897619Y-63632200D01*
X219897619Y-63632200D02*
X219754762Y-63679819D01*
X219754762Y-63679819D02*
X219659524Y-63679819D01*
X221040476Y-63679819D02*
X220469048Y-63679819D01*
X220754762Y-63679819D02*
X220754762Y-62679819D01*
X220754762Y-62679819D02*
X220659524Y-62822676D01*
X220659524Y-62822676D02*
X220564286Y-62917914D01*
X220564286Y-62917914D02*
X220469048Y-62965533D01*
X221659524Y-62679819D02*
X221754762Y-62679819D01*
X221754762Y-62679819D02*
X221850000Y-62727438D01*
X221850000Y-62727438D02*
X221897619Y-62775057D01*
X221897619Y-62775057D02*
X221945238Y-62870295D01*
X221945238Y-62870295D02*
X221992857Y-63060771D01*
X221992857Y-63060771D02*
X221992857Y-63298866D01*
X221992857Y-63298866D02*
X221945238Y-63489342D01*
X221945238Y-63489342D02*
X221897619Y-63584580D01*
X221897619Y-63584580D02*
X221850000Y-63632200D01*
X221850000Y-63632200D02*
X221754762Y-63679819D01*
X221754762Y-63679819D02*
X221659524Y-63679819D01*
X221659524Y-63679819D02*
X221564286Y-63632200D01*
X221564286Y-63632200D02*
X221516667Y-63584580D01*
X221516667Y-63584580D02*
X221469048Y-63489342D01*
X221469048Y-63489342D02*
X221421429Y-63298866D01*
X221421429Y-63298866D02*
X221421429Y-63060771D01*
X221421429Y-63060771D02*
X221469048Y-62870295D01*
X221469048Y-62870295D02*
X221516667Y-62775057D01*
X221516667Y-62775057D02*
X221564286Y-62727438D01*
X221564286Y-62727438D02*
X221659524Y-62679819D01*
X144706264Y-90634068D02*
X144753884Y-90681687D01*
X144753884Y-90681687D02*
X144801503Y-90824544D01*
X144801503Y-90824544D02*
X144801503Y-90919782D01*
X144801503Y-90919782D02*
X144753884Y-91062639D01*
X144753884Y-91062639D02*
X144658645Y-91157877D01*
X144658645Y-91157877D02*
X144563407Y-91205496D01*
X144563407Y-91205496D02*
X144372931Y-91253115D01*
X144372931Y-91253115D02*
X144230074Y-91253115D01*
X144230074Y-91253115D02*
X144039598Y-91205496D01*
X144039598Y-91205496D02*
X143944360Y-91157877D01*
X143944360Y-91157877D02*
X143849122Y-91062639D01*
X143849122Y-91062639D02*
X143801503Y-90919782D01*
X143801503Y-90919782D02*
X143801503Y-90824544D01*
X143801503Y-90824544D02*
X143849122Y-90681687D01*
X143849122Y-90681687D02*
X143896741Y-90634068D01*
X144134836Y-89776925D02*
X144801503Y-89776925D01*
X143753884Y-90015020D02*
X144468169Y-90253115D01*
X144468169Y-90253115D02*
X144468169Y-89634068D01*
X182312708Y-97607487D02*
X182265089Y-97655107D01*
X182265089Y-97655107D02*
X182122232Y-97702726D01*
X182122232Y-97702726D02*
X182026994Y-97702726D01*
X182026994Y-97702726D02*
X181884137Y-97655107D01*
X181884137Y-97655107D02*
X181788899Y-97559868D01*
X181788899Y-97559868D02*
X181741280Y-97464630D01*
X181741280Y-97464630D02*
X181693661Y-97274154D01*
X181693661Y-97274154D02*
X181693661Y-97131297D01*
X181693661Y-97131297D02*
X181741280Y-96940821D01*
X181741280Y-96940821D02*
X181788899Y-96845583D01*
X181788899Y-96845583D02*
X181884137Y-96750345D01*
X181884137Y-96750345D02*
X182026994Y-96702726D01*
X182026994Y-96702726D02*
X182122232Y-96702726D01*
X182122232Y-96702726D02*
X182265089Y-96750345D01*
X182265089Y-96750345D02*
X182312708Y-96797964D01*
X183265089Y-97702726D02*
X182693661Y-97702726D01*
X182979375Y-97702726D02*
X182979375Y-96702726D01*
X182979375Y-96702726D02*
X182884137Y-96845583D01*
X182884137Y-96845583D02*
X182788899Y-96940821D01*
X182788899Y-96940821D02*
X182693661Y-96988440D01*
X183598423Y-96702726D02*
X184217470Y-96702726D01*
X184217470Y-96702726D02*
X183884137Y-97083678D01*
X183884137Y-97083678D02*
X184026994Y-97083678D01*
X184026994Y-97083678D02*
X184122232Y-97131297D01*
X184122232Y-97131297D02*
X184169851Y-97178916D01*
X184169851Y-97178916D02*
X184217470Y-97274154D01*
X184217470Y-97274154D02*
X184217470Y-97512249D01*
X184217470Y-97512249D02*
X184169851Y-97607487D01*
X184169851Y-97607487D02*
X184122232Y-97655107D01*
X184122232Y-97655107D02*
X184026994Y-97702726D01*
X184026994Y-97702726D02*
X183741280Y-97702726D01*
X183741280Y-97702726D02*
X183646042Y-97655107D01*
X183646042Y-97655107D02*
X183598423Y-97607487D01*
X189454819Y-127133333D02*
X190169104Y-127133333D01*
X190169104Y-127133333D02*
X190311961Y-127180952D01*
X190311961Y-127180952D02*
X190407200Y-127276190D01*
X190407200Y-127276190D02*
X190454819Y-127419047D01*
X190454819Y-127419047D02*
X190454819Y-127514285D01*
X190454819Y-126657142D02*
X189454819Y-126657142D01*
X189454819Y-126657142D02*
X189454819Y-126276190D01*
X189454819Y-126276190D02*
X189502438Y-126180952D01*
X189502438Y-126180952D02*
X189550057Y-126133333D01*
X189550057Y-126133333D02*
X189645295Y-126085714D01*
X189645295Y-126085714D02*
X189788152Y-126085714D01*
X189788152Y-126085714D02*
X189883390Y-126133333D01*
X189883390Y-126133333D02*
X189931009Y-126180952D01*
X189931009Y-126180952D02*
X189978628Y-126276190D01*
X189978628Y-126276190D02*
X189978628Y-126657142D01*
X189788152Y-125228571D02*
X190454819Y-125228571D01*
X189407200Y-125466666D02*
X190121485Y-125704761D01*
X190121485Y-125704761D02*
X190121485Y-125085714D01*
D13*
X100446067Y-124730518D02*
X100446067Y-125637661D01*
X100446067Y-125637661D02*
X100385590Y-125819089D01*
X100385590Y-125819089D02*
X100264638Y-125940042D01*
X100264638Y-125940042D02*
X100083209Y-126000518D01*
X100083209Y-126000518D02*
X99962257Y-126000518D01*
X101716067Y-126000518D02*
X100990352Y-126000518D01*
X101353209Y-126000518D02*
X101353209Y-124730518D01*
X101353209Y-124730518D02*
X101232257Y-124911946D01*
X101232257Y-124911946D02*
X101111305Y-125032899D01*
X101111305Y-125032899D02*
X100990352Y-125093375D01*
D12*
X118048095Y-80504819D02*
X118048095Y-81314342D01*
X118048095Y-81314342D02*
X118095714Y-81409580D01*
X118095714Y-81409580D02*
X118143333Y-81457200D01*
X118143333Y-81457200D02*
X118238571Y-81504819D01*
X118238571Y-81504819D02*
X118429047Y-81504819D01*
X118429047Y-81504819D02*
X118524285Y-81457200D01*
X118524285Y-81457200D02*
X118571904Y-81409580D01*
X118571904Y-81409580D02*
X118619523Y-81314342D01*
X118619523Y-81314342D02*
X118619523Y-80504819D01*
X119238571Y-80933390D02*
X119143333Y-80885771D01*
X119143333Y-80885771D02*
X119095714Y-80838152D01*
X119095714Y-80838152D02*
X119048095Y-80742914D01*
X119048095Y-80742914D02*
X119048095Y-80695295D01*
X119048095Y-80695295D02*
X119095714Y-80600057D01*
X119095714Y-80600057D02*
X119143333Y-80552438D01*
X119143333Y-80552438D02*
X119238571Y-80504819D01*
X119238571Y-80504819D02*
X119429047Y-80504819D01*
X119429047Y-80504819D02*
X119524285Y-80552438D01*
X119524285Y-80552438D02*
X119571904Y-80600057D01*
X119571904Y-80600057D02*
X119619523Y-80695295D01*
X119619523Y-80695295D02*
X119619523Y-80742914D01*
X119619523Y-80742914D02*
X119571904Y-80838152D01*
X119571904Y-80838152D02*
X119524285Y-80885771D01*
X119524285Y-80885771D02*
X119429047Y-80933390D01*
X119429047Y-80933390D02*
X119238571Y-80933390D01*
X119238571Y-80933390D02*
X119143333Y-80981009D01*
X119143333Y-80981009D02*
X119095714Y-81028628D01*
X119095714Y-81028628D02*
X119048095Y-81123866D01*
X119048095Y-81123866D02*
X119048095Y-81314342D01*
X119048095Y-81314342D02*
X119095714Y-81409580D01*
X119095714Y-81409580D02*
X119143333Y-81457200D01*
X119143333Y-81457200D02*
X119238571Y-81504819D01*
X119238571Y-81504819D02*
X119429047Y-81504819D01*
X119429047Y-81504819D02*
X119524285Y-81457200D01*
X119524285Y-81457200D02*
X119571904Y-81409580D01*
X119571904Y-81409580D02*
X119619523Y-81314342D01*
X119619523Y-81314342D02*
X119619523Y-81123866D01*
X119619523Y-81123866D02*
X119571904Y-81028628D01*
X119571904Y-81028628D02*
X119524285Y-80981009D01*
X119524285Y-80981009D02*
X119429047Y-80933390D01*
X114394311Y-62435940D02*
X114060978Y-61959749D01*
X113822883Y-62435940D02*
X113822883Y-61435940D01*
X113822883Y-61435940D02*
X114203835Y-61435940D01*
X114203835Y-61435940D02*
X114299073Y-61483559D01*
X114299073Y-61483559D02*
X114346692Y-61531178D01*
X114346692Y-61531178D02*
X114394311Y-61626416D01*
X114394311Y-61626416D02*
X114394311Y-61769273D01*
X114394311Y-61769273D02*
X114346692Y-61864511D01*
X114346692Y-61864511D02*
X114299073Y-61912130D01*
X114299073Y-61912130D02*
X114203835Y-61959749D01*
X114203835Y-61959749D02*
X113822883Y-61959749D01*
X115346692Y-62435940D02*
X114775264Y-62435940D01*
X115060978Y-62435940D02*
X115060978Y-61435940D01*
X115060978Y-61435940D02*
X114965740Y-61578797D01*
X114965740Y-61578797D02*
X114870502Y-61674035D01*
X114870502Y-61674035D02*
X114775264Y-61721654D01*
X116203835Y-61435940D02*
X116013359Y-61435940D01*
X116013359Y-61435940D02*
X115918121Y-61483559D01*
X115918121Y-61483559D02*
X115870502Y-61531178D01*
X115870502Y-61531178D02*
X115775264Y-61674035D01*
X115775264Y-61674035D02*
X115727645Y-61864511D01*
X115727645Y-61864511D02*
X115727645Y-62245463D01*
X115727645Y-62245463D02*
X115775264Y-62340701D01*
X115775264Y-62340701D02*
X115822883Y-62388321D01*
X115822883Y-62388321D02*
X115918121Y-62435940D01*
X115918121Y-62435940D02*
X116108597Y-62435940D01*
X116108597Y-62435940D02*
X116203835Y-62388321D01*
X116203835Y-62388321D02*
X116251454Y-62340701D01*
X116251454Y-62340701D02*
X116299073Y-62245463D01*
X116299073Y-62245463D02*
X116299073Y-62007368D01*
X116299073Y-62007368D02*
X116251454Y-61912130D01*
X116251454Y-61912130D02*
X116203835Y-61864511D01*
X116203835Y-61864511D02*
X116108597Y-61816892D01*
X116108597Y-61816892D02*
X115918121Y-61816892D01*
X115918121Y-61816892D02*
X115822883Y-61864511D01*
X115822883Y-61864511D02*
X115775264Y-61912130D01*
X115775264Y-61912130D02*
X115727645Y-62007368D01*
X109741980Y-54777866D02*
X109789600Y-54825485D01*
X109789600Y-54825485D02*
X109837219Y-54968342D01*
X109837219Y-54968342D02*
X109837219Y-55063580D01*
X109837219Y-55063580D02*
X109789600Y-55206437D01*
X109789600Y-55206437D02*
X109694361Y-55301675D01*
X109694361Y-55301675D02*
X109599123Y-55349294D01*
X109599123Y-55349294D02*
X109408647Y-55396913D01*
X109408647Y-55396913D02*
X109265790Y-55396913D01*
X109265790Y-55396913D02*
X109075314Y-55349294D01*
X109075314Y-55349294D02*
X108980076Y-55301675D01*
X108980076Y-55301675D02*
X108884838Y-55206437D01*
X108884838Y-55206437D02*
X108837219Y-55063580D01*
X108837219Y-55063580D02*
X108837219Y-54968342D01*
X108837219Y-54968342D02*
X108884838Y-54825485D01*
X108884838Y-54825485D02*
X108932457Y-54777866D01*
X108932457Y-54396913D02*
X108884838Y-54349294D01*
X108884838Y-54349294D02*
X108837219Y-54254056D01*
X108837219Y-54254056D02*
X108837219Y-54015961D01*
X108837219Y-54015961D02*
X108884838Y-53920723D01*
X108884838Y-53920723D02*
X108932457Y-53873104D01*
X108932457Y-53873104D02*
X109027695Y-53825485D01*
X109027695Y-53825485D02*
X109122933Y-53825485D01*
X109122933Y-53825485D02*
X109265790Y-53873104D01*
X109265790Y-53873104D02*
X109837219Y-54444532D01*
X109837219Y-54444532D02*
X109837219Y-53825485D01*
X166632032Y-75472577D02*
X166298699Y-74996386D01*
X166060604Y-75472577D02*
X166060604Y-74472577D01*
X166060604Y-74472577D02*
X166441556Y-74472577D01*
X166441556Y-74472577D02*
X166536794Y-74520196D01*
X166536794Y-74520196D02*
X166584413Y-74567815D01*
X166584413Y-74567815D02*
X166632032Y-74663053D01*
X166632032Y-74663053D02*
X166632032Y-74805910D01*
X166632032Y-74805910D02*
X166584413Y-74901148D01*
X166584413Y-74901148D02*
X166536794Y-74948767D01*
X166536794Y-74948767D02*
X166441556Y-74996386D01*
X166441556Y-74996386D02*
X166060604Y-74996386D01*
X167584413Y-75472577D02*
X167012985Y-75472577D01*
X167298699Y-75472577D02*
X167298699Y-74472577D01*
X167298699Y-74472577D02*
X167203461Y-74615434D01*
X167203461Y-74615434D02*
X167108223Y-74710672D01*
X167108223Y-74710672D02*
X167012985Y-74758291D01*
X168441556Y-74805910D02*
X168441556Y-75472577D01*
X168203461Y-74424958D02*
X167965366Y-75139243D01*
X167965366Y-75139243D02*
X168584413Y-75139243D01*
X159309580Y-81177857D02*
X159357200Y-81225476D01*
X159357200Y-81225476D02*
X159404819Y-81368333D01*
X159404819Y-81368333D02*
X159404819Y-81463571D01*
X159404819Y-81463571D02*
X159357200Y-81606428D01*
X159357200Y-81606428D02*
X159261961Y-81701666D01*
X159261961Y-81701666D02*
X159166723Y-81749285D01*
X159166723Y-81749285D02*
X158976247Y-81796904D01*
X158976247Y-81796904D02*
X158833390Y-81796904D01*
X158833390Y-81796904D02*
X158642914Y-81749285D01*
X158642914Y-81749285D02*
X158547676Y-81701666D01*
X158547676Y-81701666D02*
X158452438Y-81606428D01*
X158452438Y-81606428D02*
X158404819Y-81463571D01*
X158404819Y-81463571D02*
X158404819Y-81368333D01*
X158404819Y-81368333D02*
X158452438Y-81225476D01*
X158452438Y-81225476D02*
X158500057Y-81177857D01*
X159404819Y-80225476D02*
X159404819Y-80796904D01*
X159404819Y-80511190D02*
X158404819Y-80511190D01*
X158404819Y-80511190D02*
X158547676Y-80606428D01*
X158547676Y-80606428D02*
X158642914Y-80701666D01*
X158642914Y-80701666D02*
X158690533Y-80796904D01*
X158500057Y-79844523D02*
X158452438Y-79796904D01*
X158452438Y-79796904D02*
X158404819Y-79701666D01*
X158404819Y-79701666D02*
X158404819Y-79463571D01*
X158404819Y-79463571D02*
X158452438Y-79368333D01*
X158452438Y-79368333D02*
X158500057Y-79320714D01*
X158500057Y-79320714D02*
X158595295Y-79273095D01*
X158595295Y-79273095D02*
X158690533Y-79273095D01*
X158690533Y-79273095D02*
X158833390Y-79320714D01*
X158833390Y-79320714D02*
X159404819Y-79892142D01*
X159404819Y-79892142D02*
X159404819Y-79273095D01*
X141466666Y-54914819D02*
X141466666Y-55629104D01*
X141466666Y-55629104D02*
X141419047Y-55771961D01*
X141419047Y-55771961D02*
X141323809Y-55867200D01*
X141323809Y-55867200D02*
X141180952Y-55914819D01*
X141180952Y-55914819D02*
X141085714Y-55914819D01*
X141942857Y-55914819D02*
X141942857Y-54914819D01*
X141942857Y-54914819D02*
X142323809Y-54914819D01*
X142323809Y-54914819D02*
X142419047Y-54962438D01*
X142419047Y-54962438D02*
X142466666Y-55010057D01*
X142466666Y-55010057D02*
X142514285Y-55105295D01*
X142514285Y-55105295D02*
X142514285Y-55248152D01*
X142514285Y-55248152D02*
X142466666Y-55343390D01*
X142466666Y-55343390D02*
X142419047Y-55391009D01*
X142419047Y-55391009D02*
X142323809Y-55438628D01*
X142323809Y-55438628D02*
X141942857Y-55438628D01*
X143371428Y-54914819D02*
X143180952Y-54914819D01*
X143180952Y-54914819D02*
X143085714Y-54962438D01*
X143085714Y-54962438D02*
X143038095Y-55010057D01*
X143038095Y-55010057D02*
X142942857Y-55152914D01*
X142942857Y-55152914D02*
X142895238Y-55343390D01*
X142895238Y-55343390D02*
X142895238Y-55724342D01*
X142895238Y-55724342D02*
X142942857Y-55819580D01*
X142942857Y-55819580D02*
X142990476Y-55867200D01*
X142990476Y-55867200D02*
X143085714Y-55914819D01*
X143085714Y-55914819D02*
X143276190Y-55914819D01*
X143276190Y-55914819D02*
X143371428Y-55867200D01*
X143371428Y-55867200D02*
X143419047Y-55819580D01*
X143419047Y-55819580D02*
X143466666Y-55724342D01*
X143466666Y-55724342D02*
X143466666Y-55486247D01*
X143466666Y-55486247D02*
X143419047Y-55391009D01*
X143419047Y-55391009D02*
X143371428Y-55343390D01*
X143371428Y-55343390D02*
X143276190Y-55295771D01*
X143276190Y-55295771D02*
X143085714Y-55295771D01*
X143085714Y-55295771D02*
X142990476Y-55343390D01*
X142990476Y-55343390D02*
X142942857Y-55391009D01*
X142942857Y-55391009D02*
X142895238Y-55486247D01*
X224489666Y-78099819D02*
X224489666Y-78814104D01*
X224489666Y-78814104D02*
X224442047Y-78956961D01*
X224442047Y-78956961D02*
X224346809Y-79052200D01*
X224346809Y-79052200D02*
X224203952Y-79099819D01*
X224203952Y-79099819D02*
X224108714Y-79099819D01*
X225108714Y-78528390D02*
X225013476Y-78480771D01*
X225013476Y-78480771D02*
X224965857Y-78433152D01*
X224965857Y-78433152D02*
X224918238Y-78337914D01*
X224918238Y-78337914D02*
X224918238Y-78290295D01*
X224918238Y-78290295D02*
X224965857Y-78195057D01*
X224965857Y-78195057D02*
X225013476Y-78147438D01*
X225013476Y-78147438D02*
X225108714Y-78099819D01*
X225108714Y-78099819D02*
X225299190Y-78099819D01*
X225299190Y-78099819D02*
X225394428Y-78147438D01*
X225394428Y-78147438D02*
X225442047Y-78195057D01*
X225442047Y-78195057D02*
X225489666Y-78290295D01*
X225489666Y-78290295D02*
X225489666Y-78337914D01*
X225489666Y-78337914D02*
X225442047Y-78433152D01*
X225442047Y-78433152D02*
X225394428Y-78480771D01*
X225394428Y-78480771D02*
X225299190Y-78528390D01*
X225299190Y-78528390D02*
X225108714Y-78528390D01*
X225108714Y-78528390D02*
X225013476Y-78576009D01*
X225013476Y-78576009D02*
X224965857Y-78623628D01*
X224965857Y-78623628D02*
X224918238Y-78718866D01*
X224918238Y-78718866D02*
X224918238Y-78909342D01*
X224918238Y-78909342D02*
X224965857Y-79004580D01*
X224965857Y-79004580D02*
X225013476Y-79052200D01*
X225013476Y-79052200D02*
X225108714Y-79099819D01*
X225108714Y-79099819D02*
X225299190Y-79099819D01*
X225299190Y-79099819D02*
X225394428Y-79052200D01*
X225394428Y-79052200D02*
X225442047Y-79004580D01*
X225442047Y-79004580D02*
X225489666Y-78909342D01*
X225489666Y-78909342D02*
X225489666Y-78718866D01*
X225489666Y-78718866D02*
X225442047Y-78623628D01*
X225442047Y-78623628D02*
X225394428Y-78576009D01*
X225394428Y-78576009D02*
X225299190Y-78528390D01*
X222679580Y-105942857D02*
X222727200Y-105990476D01*
X222727200Y-105990476D02*
X222774819Y-106133333D01*
X222774819Y-106133333D02*
X222774819Y-106228571D01*
X222774819Y-106228571D02*
X222727200Y-106371428D01*
X222727200Y-106371428D02*
X222631961Y-106466666D01*
X222631961Y-106466666D02*
X222536723Y-106514285D01*
X222536723Y-106514285D02*
X222346247Y-106561904D01*
X222346247Y-106561904D02*
X222203390Y-106561904D01*
X222203390Y-106561904D02*
X222012914Y-106514285D01*
X222012914Y-106514285D02*
X221917676Y-106466666D01*
X221917676Y-106466666D02*
X221822438Y-106371428D01*
X221822438Y-106371428D02*
X221774819Y-106228571D01*
X221774819Y-106228571D02*
X221774819Y-106133333D01*
X221774819Y-106133333D02*
X221822438Y-105990476D01*
X221822438Y-105990476D02*
X221870057Y-105942857D01*
X222774819Y-104990476D02*
X222774819Y-105561904D01*
X222774819Y-105276190D02*
X221774819Y-105276190D01*
X221774819Y-105276190D02*
X221917676Y-105371428D01*
X221917676Y-105371428D02*
X222012914Y-105466666D01*
X222012914Y-105466666D02*
X222060533Y-105561904D01*
X221774819Y-104371428D02*
X221774819Y-104276190D01*
X221774819Y-104276190D02*
X221822438Y-104180952D01*
X221822438Y-104180952D02*
X221870057Y-104133333D01*
X221870057Y-104133333D02*
X221965295Y-104085714D01*
X221965295Y-104085714D02*
X222155771Y-104038095D01*
X222155771Y-104038095D02*
X222393866Y-104038095D01*
X222393866Y-104038095D02*
X222584342Y-104085714D01*
X222584342Y-104085714D02*
X222679580Y-104133333D01*
X222679580Y-104133333D02*
X222727200Y-104180952D01*
X222727200Y-104180952D02*
X222774819Y-104276190D01*
X222774819Y-104276190D02*
X222774819Y-104371428D01*
X222774819Y-104371428D02*
X222727200Y-104466666D01*
X222727200Y-104466666D02*
X222679580Y-104514285D01*
X222679580Y-104514285D02*
X222584342Y-104561904D01*
X222584342Y-104561904D02*
X222393866Y-104609523D01*
X222393866Y-104609523D02*
X222155771Y-104609523D01*
X222155771Y-104609523D02*
X221965295Y-104561904D01*
X221965295Y-104561904D02*
X221870057Y-104514285D01*
X221870057Y-104514285D02*
X221822438Y-104466666D01*
X221822438Y-104466666D02*
X221774819Y-104371428D01*
D14*
X159360000Y-53350000D02*
X156640000Y-53350000D01*
X156640000Y-63570000D01*
X159360000Y-63570000D01*
X159360000Y-53350000D01*
X192250000Y-128750000D02*
G75*
G02*
X192236411Y-125287337I4750000J1750000D01*
G01*
X195250000Y-122250000D02*
G75*
G02*
X198712663Y-122236411I1750000J-4750000D01*
G01*
X198750000Y-131750000D02*
G75*
G02*
X195287337Y-131763589I-1749999J4749999D01*
G01*
X201750000Y-125250000D02*
G75*
G02*
X201763589Y-128712663I-4749999J-1749999D01*
G01*
X149360000Y-74795000D02*
X149360000Y-95235000D01*
X149360000Y-95235000D02*
X154660000Y-95235000D01*
X151010000Y-74795000D02*
X149360000Y-74795000D01*
X154660000Y-74795000D02*
X153010000Y-74795000D01*
X154660000Y-95235000D02*
X154660000Y-74795000D01*
X153010000Y-74795000D02*
G75*
G02*
X151010000Y-74795000I-1000000J0D01*
G01*
D12*
X140062500Y-52807600D02*
X140562500Y-52307600D01*
X140062500Y-53607600D02*
X140062500Y-52807600D01*
X140562500Y-52307600D02*
X144162500Y-52307600D01*
X140562500Y-54107600D02*
X140062500Y-53607600D01*
X144162500Y-52307600D02*
X144662500Y-52807600D01*
X144162500Y-54107600D02*
X140562500Y-54107600D01*
X144662500Y-52807600D02*
X144662500Y-53607600D01*
X144662500Y-53607600D02*
X144162500Y-54107600D01*
D14*
X204206400Y-75940000D02*
X204206400Y-88980000D01*
X204206400Y-88980000D02*
X207006400Y-88980000D01*
X207006400Y-75940000D02*
X204206400Y-75940000D01*
X207006400Y-78650000D02*
X204206400Y-78650000D01*
X207006400Y-88980000D02*
X207006400Y-75940000D01*
X139901000Y-77597800D02*
X139901000Y-77282800D01*
X139901000Y-80022800D02*
X139901000Y-79707800D01*
X144841000Y-77282800D02*
X139901000Y-77282800D01*
X144841000Y-77597800D02*
X144841000Y-77282800D01*
X144841000Y-80022800D02*
X139901000Y-80022800D01*
X144841000Y-80022800D02*
X144841000Y-79707800D01*
X139940000Y-103600000D02*
X139940000Y-106400000D01*
X139940000Y-106400000D02*
X170760000Y-106400000D01*
X142650000Y-103600000D02*
X142650000Y-106400000D01*
X170760000Y-103600000D02*
X139940000Y-103600000D01*
X170760000Y-106400000D02*
X170760000Y-103600000D01*
X149704500Y-96674100D02*
X149704500Y-96989100D01*
X149704500Y-96674100D02*
X154644500Y-96674100D01*
X149704500Y-99099100D02*
X149704500Y-99414100D01*
X149704500Y-99414100D02*
X154644500Y-99414100D01*
X154644500Y-96674100D02*
X154644500Y-96989100D01*
X154644500Y-99099100D02*
X154644500Y-99414100D01*
X99540000Y-81970000D02*
X99540000Y-102410000D01*
X99540000Y-102410000D02*
X104840000Y-102410000D01*
X101190000Y-81970000D02*
X99540000Y-81970000D01*
X104840000Y-81970000D02*
X103190000Y-81970000D01*
X104840000Y-102410000D02*
X104840000Y-81970000D01*
X103190000Y-81970000D02*
G75*
G02*
X101190000Y-81970000I-1000000J0D01*
G01*
X182337000Y-75827700D02*
X182337000Y-88867700D01*
X182337000Y-86157700D02*
X185137000Y-86157700D01*
X182337000Y-88867700D02*
X185137000Y-88867700D01*
X185137000Y-75827700D02*
X182337000Y-75827700D01*
X185137000Y-88867700D02*
X185137000Y-75827700D01*
X190820000Y-118000000D02*
X191930000Y-118000000D01*
X191930000Y-116080000D02*
X191930000Y-119920000D01*
X191930000Y-119920000D02*
X202070000Y-119920000D01*
X202070000Y-116080000D02*
X191930000Y-116080000D01*
X202070000Y-119920000D02*
X202070000Y-116080000D01*
X203180000Y-118000000D02*
X202070000Y-118000000D01*
X165264900Y-53590000D02*
X166594900Y-53590000D01*
X165264900Y-54920000D02*
X165264900Y-53590000D01*
X165264900Y-56190000D02*
X165264900Y-61330000D01*
X165264900Y-56190000D02*
X167924900Y-56190000D01*
X165264900Y-61330000D02*
X167924900Y-61330000D01*
X167924900Y-56190000D02*
X167924900Y-61330000D01*
X151254500Y-53278800D02*
X148534500Y-53278800D01*
X148534500Y-63498800D01*
X151254500Y-63498800D01*
X151254500Y-53278800D01*
X191440000Y-67000000D02*
X192550000Y-67000000D01*
X192550000Y-65080000D02*
X192550000Y-68920000D01*
X192550000Y-68920000D02*
X202690000Y-68920000D01*
X202690000Y-65080000D02*
X192550000Y-65080000D01*
X202690000Y-68920000D02*
X202690000Y-65080000D01*
X203800000Y-67000000D02*
X202690000Y-67000000D01*
X159590000Y-87160000D02*
X159590000Y-88810000D01*
X159590000Y-90810000D02*
X159590000Y-92460000D01*
X159590000Y-92460000D02*
X180030000Y-92460000D01*
X180030000Y-87160000D02*
X159590000Y-87160000D01*
X180030000Y-92460000D02*
X180030000Y-87160000D01*
X159590000Y-88810000D02*
G75*
G02*
X159590000Y-90810000I0J-1000000D01*
G01*
X111426000Y-54120000D02*
X111426000Y-55620000D01*
X112676000Y-58120000D02*
X117176000Y-58120000D01*
X117176000Y-51620000D02*
X112676000Y-51620000D01*
X118426000Y-55620000D02*
X118426000Y-54120000D01*
X217100000Y-114975000D02*
X224900000Y-114975000D01*
X217100000Y-121025000D02*
X217100000Y-114975000D01*
X218450000Y-119915000D02*
X223530000Y-119915000D01*
X218450000Y-120925000D02*
X218450000Y-119915000D01*
X223530000Y-119915000D02*
X223530000Y-120925000D01*
X224900000Y-114975000D02*
X224900000Y-121025000D01*
X224900000Y-121025000D02*
X217100000Y-121025000D01*
X173630000Y-98730000D02*
X173630000Y-105270000D01*
X173630000Y-105270000D02*
X176370000Y-105270000D01*
X175000000Y-97960000D02*
X175000000Y-98730000D01*
X175000000Y-106040000D02*
X175000000Y-105270000D01*
X176370000Y-98730000D02*
X173630000Y-98730000D01*
X176370000Y-105270000D02*
X176370000Y-98730000D01*
X107600000Y-80560000D02*
X107600000Y-106300000D01*
X107600000Y-103590000D02*
X110400000Y-103590000D01*
X107600000Y-106300000D02*
X110400000Y-106300000D01*
X110400000Y-80560000D02*
X107600000Y-80560000D01*
X110400000Y-106300000D02*
X110400000Y-80560000D01*
X189440200Y-95885000D02*
X189440200Y-96200000D01*
X189440200Y-95885000D02*
X194380200Y-95885000D01*
X189440200Y-98310000D02*
X189440200Y-98625000D01*
X189440200Y-98625000D02*
X194380200Y-98625000D01*
X194380200Y-95885000D02*
X194380200Y-96200000D01*
X194380200Y-98310000D02*
X194380200Y-98625000D01*
X198712700Y-75940000D02*
X198712700Y-88980000D01*
X198712700Y-88980000D02*
X201512700Y-88980000D01*
X201512700Y-75940000D02*
X198712700Y-75940000D01*
X201512700Y-78650000D02*
X198712700Y-78650000D01*
X201512700Y-88980000D02*
X201512700Y-75940000D01*
X211160000Y-75970000D02*
X211160000Y-93870000D01*
X211160000Y-93870000D02*
X216460000Y-93870000D01*
X212810000Y-75970000D02*
X211160000Y-75970000D01*
X216460000Y-75970000D02*
X214810000Y-75970000D01*
X216460000Y-93870000D02*
X216460000Y-75970000D01*
X214810000Y-75970000D02*
G75*
G02*
X212810000Y-75970000I-1000000J0D01*
G01*
X137830000Y-84015000D02*
X137830000Y-90555000D01*
X137830000Y-90555000D02*
X140570000Y-90555000D01*
X139200000Y-83245000D02*
X139200000Y-84015000D01*
X139200000Y-91325000D02*
X139200000Y-90555000D01*
X140570000Y-84015000D02*
X137830000Y-84015000D01*
X140570000Y-90555000D02*
X140570000Y-84015000D01*
X111780000Y-103600000D02*
X111780000Y-106400000D01*
X111780000Y-106400000D02*
X137520000Y-106400000D01*
X114490000Y-103600000D02*
X114490000Y-106400000D01*
X137520000Y-103600000D02*
X111780000Y-103600000D01*
X137520000Y-106400000D02*
X137520000Y-103600000D01*
X170670000Y-53590000D02*
X172000000Y-53590000D01*
X170670000Y-54920000D02*
X170670000Y-53590000D01*
X170670000Y-56190000D02*
X170670000Y-61330000D01*
X170670000Y-56190000D02*
X173330000Y-56190000D01*
X170670000Y-61330000D02*
X173330000Y-61330000D01*
X173330000Y-56190000D02*
X173330000Y-61330000D01*
D12*
X186100000Y-55470000D02*
X186600000Y-54970000D01*
X186100000Y-59070000D02*
X186100000Y-55470000D01*
X186600000Y-54970000D02*
X187400000Y-54970000D01*
X186600000Y-59570000D02*
X186100000Y-59070000D01*
X187400000Y-54970000D02*
X187900000Y-55470000D01*
X187400000Y-59570000D02*
X186600000Y-59570000D01*
X187900000Y-55470000D02*
X187900000Y-59070000D01*
X187900000Y-59070000D02*
X187400000Y-59570000D01*
D14*
X206870000Y-102340000D02*
X206870000Y-103990000D01*
X206870000Y-105990000D02*
X206870000Y-107640000D01*
X206870000Y-107640000D02*
X217150000Y-107640000D01*
X217150000Y-102340000D02*
X206870000Y-102340000D01*
X217150000Y-107640000D02*
X217150000Y-102340000D01*
X206870000Y-103990000D02*
G75*
G02*
X206870000Y-105990000I0J-1000000D01*
G01*
X82126100Y-55205900D02*
X79944100Y-55205900D01*
X82126100Y-55245900D02*
X79948100Y-55245900D01*
X82126100Y-55285900D02*
X79951100Y-55285900D01*
X82126100Y-55325900D02*
X79955100Y-55325900D01*
X82126100Y-55365900D02*
X79960100Y-55365900D01*
X82126100Y-55405900D02*
X79965100Y-55405900D01*
X82126100Y-55445900D02*
X79971100Y-55445900D01*
X82126100Y-55485900D02*
X79977100Y-55485900D01*
X82126100Y-55525900D02*
X79984100Y-55525900D01*
X82126100Y-55565900D02*
X79991100Y-55565900D01*
X82126100Y-55605900D02*
X79999100Y-55605900D01*
X82126100Y-55645900D02*
X80007100Y-55645900D01*
X82126100Y-55686900D02*
X80016100Y-55686900D01*
X82126100Y-55726900D02*
X80025100Y-55726900D01*
X82126100Y-55766900D02*
X80035100Y-55766900D01*
X82126100Y-55806900D02*
X80045100Y-55806900D01*
X82126100Y-55846900D02*
X80056100Y-55846900D01*
X82126100Y-55886900D02*
X80068100Y-55886900D01*
X82126100Y-55926900D02*
X80080100Y-55926900D01*
X82126100Y-55966900D02*
X80092100Y-55966900D01*
X82126100Y-56006900D02*
X80105100Y-56006900D01*
X82126100Y-56046900D02*
X80119100Y-56046900D01*
X82126100Y-56086900D02*
X80133100Y-56086900D01*
X82126100Y-56126900D02*
X80148100Y-56126900D01*
X82126100Y-56166900D02*
X80164100Y-56166900D01*
X82126100Y-56206900D02*
X80180100Y-56206900D01*
X82126100Y-56246900D02*
X80196100Y-56246900D01*
X82126100Y-56286900D02*
X80214100Y-56286900D01*
X82126100Y-56326900D02*
X80232100Y-56326900D01*
X82126100Y-56366900D02*
X80250100Y-56366900D01*
X82126100Y-56406900D02*
X80270100Y-56406900D01*
X82126100Y-56446900D02*
X80290100Y-56446900D01*
X82126100Y-56486900D02*
X80310100Y-56486900D01*
X82126100Y-56526900D02*
X80332100Y-56526900D01*
X82126100Y-56566900D02*
X80354100Y-56566900D01*
X82126100Y-56606900D02*
X80376100Y-56606900D01*
X82126100Y-56646900D02*
X80400100Y-56646900D01*
X82126100Y-56686900D02*
X80424100Y-56686900D01*
X82126100Y-56726900D02*
X80450100Y-56726900D01*
X82126100Y-56766900D02*
X80476100Y-56766900D01*
X82126100Y-56806900D02*
X80502100Y-56806900D01*
X82126100Y-56846900D02*
X80530100Y-56846900D01*
X82126100Y-56886900D02*
X80559100Y-56886900D01*
X82126100Y-56926900D02*
X80588100Y-56926900D01*
X82126100Y-56966900D02*
X80618100Y-56966900D01*
X82126100Y-57006900D02*
X80650100Y-57006900D01*
X82126100Y-57046900D02*
X80682100Y-57046900D01*
X82126100Y-57086900D02*
X80716100Y-57086900D01*
X82126100Y-57126900D02*
X80750100Y-57126900D01*
X82126100Y-57166900D02*
X80786100Y-57166900D01*
X82126100Y-57206900D02*
X80823100Y-57206900D01*
X82126100Y-57246900D02*
X80861100Y-57246900D01*
X83568100Y-58206900D02*
X82764100Y-58206900D01*
X83799100Y-58166900D02*
X82533100Y-58166900D01*
X83968100Y-58126900D02*
X82364100Y-58126900D01*
X84106100Y-58086900D02*
X82226100Y-58086900D01*
X84225100Y-58046900D02*
X82107100Y-58046900D01*
X84331100Y-58006900D02*
X82001100Y-58006900D01*
X84428100Y-57966900D02*
X81904100Y-57966900D01*
X84516100Y-57926900D02*
X81816100Y-57926900D01*
X84598100Y-57886900D02*
X81734100Y-57886900D01*
X84675100Y-57846900D02*
X81657100Y-57846900D01*
X84747100Y-57806900D02*
X81585100Y-57806900D01*
X84816100Y-57766900D02*
X81516100Y-57766900D01*
X84880100Y-57726900D02*
X81452100Y-57726900D01*
X84942100Y-57686900D02*
X81390100Y-57686900D01*
X85000100Y-57646900D02*
X81332100Y-57646900D01*
X85005100Y-51465659D02*
X85005100Y-52095659D01*
X85056100Y-57606900D02*
X81276100Y-57606900D01*
X85110100Y-57566900D02*
X81222100Y-57566900D01*
X85161100Y-57526900D02*
X81171100Y-57526900D01*
X85210100Y-57486900D02*
X81122100Y-57486900D01*
X85258100Y-57446900D02*
X81074100Y-57446900D01*
X85303100Y-57406900D02*
X81029100Y-57406900D01*
X85320100Y-51780659D02*
X84690100Y-51780659D01*
X85348100Y-57366900D02*
X80984100Y-57366900D01*
X85390100Y-57326900D02*
X80942100Y-57326900D01*
X85431100Y-57286900D02*
X80901100Y-57286900D01*
X85471100Y-57246900D02*
X84206100Y-57246900D01*
X85509100Y-57206900D02*
X84206100Y-57206900D01*
X85546100Y-57166900D02*
X84206100Y-57166900D01*
X85582100Y-57126900D02*
X84206100Y-57126900D01*
X85616100Y-57086900D02*
X84206100Y-57086900D01*
X85650100Y-57046900D02*
X84206100Y-57046900D01*
X85682100Y-57006900D02*
X84206100Y-57006900D01*
X85714100Y-56966900D02*
X84206100Y-56966900D01*
X85744100Y-56926900D02*
X84206100Y-56926900D01*
X85773100Y-56886900D02*
X84206100Y-56886900D01*
X85802100Y-56846900D02*
X84206100Y-56846900D01*
X85830100Y-56806900D02*
X84206100Y-56806900D01*
X85856100Y-56766900D02*
X84206100Y-56766900D01*
X85882100Y-56726900D02*
X84206100Y-56726900D01*
X85908100Y-56686900D02*
X84206100Y-56686900D01*
X85932100Y-56646900D02*
X84206100Y-56646900D01*
X85956100Y-56606900D02*
X84206100Y-56606900D01*
X85978100Y-56566900D02*
X84206100Y-56566900D01*
X86000100Y-56526900D02*
X84206100Y-56526900D01*
X86022100Y-56486900D02*
X84206100Y-56486900D01*
X86042100Y-56446900D02*
X84206100Y-56446900D01*
X86062100Y-56406900D02*
X84206100Y-56406900D01*
X86082100Y-56366900D02*
X84206100Y-56366900D01*
X86100100Y-56326900D02*
X84206100Y-56326900D01*
X86118100Y-56286900D02*
X84206100Y-56286900D01*
X86136100Y-56246900D02*
X84206100Y-56246900D01*
X86152100Y-56206900D02*
X84206100Y-56206900D01*
X86168100Y-56166900D02*
X84206100Y-56166900D01*
X86184100Y-56126900D02*
X84206100Y-56126900D01*
X86199100Y-56086900D02*
X84206100Y-56086900D01*
X86213100Y-56046900D02*
X84206100Y-56046900D01*
X86227100Y-56006900D02*
X84206100Y-56006900D01*
X86240100Y-55966900D02*
X84206100Y-55966900D01*
X86252100Y-55926900D02*
X84206100Y-55926900D01*
X86264100Y-55886900D02*
X84206100Y-55886900D01*
X86276100Y-55846900D02*
X84206100Y-55846900D01*
X86287100Y-55806900D02*
X84206100Y-55806900D01*
X86297100Y-55766900D02*
X84206100Y-55766900D01*
X86307100Y-55726900D02*
X84206100Y-55726900D01*
X86316100Y-55686900D02*
X84206100Y-55686900D01*
X86325100Y-55645900D02*
X84206100Y-55645900D01*
X86333100Y-55605900D02*
X84206100Y-55605900D01*
X86341100Y-55565900D02*
X84206100Y-55565900D01*
X86348100Y-55525900D02*
X84206100Y-55525900D01*
X86355100Y-55485900D02*
X84206100Y-55485900D01*
X86361100Y-55445900D02*
X84206100Y-55445900D01*
X86367100Y-55405900D02*
X84206100Y-55405900D01*
X86372100Y-55365900D02*
X84206100Y-55365900D01*
X86377100Y-55325900D02*
X84206100Y-55325900D01*
X86381100Y-55285900D02*
X84206100Y-55285900D01*
X86384100Y-55245900D02*
X84206100Y-55245900D01*
X86388100Y-55205900D02*
X84206100Y-55205900D01*
X86390100Y-55165900D02*
X79942100Y-55165900D01*
X86393100Y-55125900D02*
X79939100Y-55125900D01*
X86394100Y-55085900D02*
X79938100Y-55085900D01*
X86396100Y-54965900D02*
X79936100Y-54965900D01*
X86396100Y-55005900D02*
X79936100Y-55005900D01*
X86396100Y-55045900D02*
X79936100Y-55045900D01*
X86436100Y-54965900D02*
G75*
G02*
X79896100Y-54965900I-3270000J0D01*
G01*
X79896100Y-54965900D02*
G75*
G02*
X86436100Y-54965900I3270000J0D01*
G01*
D15*
X129656900Y-116261200D02*
X129656900Y-116261200D01*
X129766900Y-116261200D02*
X129766900Y-116261200D01*
D10*
X129966900Y-122701200D02*
X129966900Y-123701200D01*
X129966900Y-123701200D02*
X130536900Y-123701200D01*
X130536900Y-114701200D02*
X176256900Y-114701200D01*
X130536900Y-122701200D02*
X129966900Y-122701200D01*
X130536900Y-125426200D02*
X130536900Y-114701200D01*
X131936900Y-125426200D02*
X130536900Y-125426200D01*
X132506900Y-133426200D02*
X132506900Y-134426200D01*
X132506900Y-134426200D02*
X133076900Y-134426200D01*
X133076900Y-125426200D02*
X131936900Y-125426200D01*
X133076900Y-133426200D02*
X132506900Y-133426200D01*
X133076900Y-136151200D02*
X133076900Y-125426200D01*
X176256900Y-114701200D02*
X176256900Y-125426200D01*
X176256900Y-125426200D02*
X178796900Y-125426200D01*
X178796900Y-125426200D02*
X178796900Y-136151200D01*
X178796900Y-136151200D02*
X133076900Y-136151200D01*
D15*
X129656900Y-116261200D02*
G75*
G02*
X129766900Y-116261200I55000J0D01*
G01*
X129766900Y-116261200D02*
G75*
G02*
X129656900Y-116261200I-55000J0D01*
G01*
D14*
X81683000Y-80085000D02*
X81683000Y-103065000D01*
X81683000Y-80085000D02*
X84283000Y-80085000D01*
X81683000Y-103065000D02*
X86883000Y-103065000D01*
X84283000Y-80085000D02*
X84283000Y-82685000D01*
X84283000Y-82685000D02*
X86883000Y-82685000D01*
X85553000Y-80085000D02*
X86883000Y-80085000D01*
X86883000Y-80085000D02*
X86883000Y-81415000D01*
X86883000Y-82685000D02*
X86883000Y-103065000D01*
X128540000Y-81970000D02*
X128540000Y-102410000D01*
X128540000Y-102410000D02*
X133840000Y-102410000D01*
X130190000Y-81970000D02*
X128540000Y-81970000D01*
X133840000Y-81970000D02*
X132190000Y-81970000D01*
X133840000Y-102410000D02*
X133840000Y-81970000D01*
X132190000Y-81970000D02*
G75*
G02*
X130190000Y-81970000I-1000000J0D01*
G01*
X177470000Y-102840000D02*
X177470000Y-104490000D01*
X177470000Y-106490000D02*
X177470000Y-108140000D01*
X177470000Y-108140000D02*
X197910000Y-108140000D01*
X197910000Y-102840000D02*
X177470000Y-102840000D01*
X197910000Y-108140000D02*
X197910000Y-102840000D01*
X177470000Y-104490000D02*
G75*
G02*
X177470000Y-106490000I0J-1000000D01*
G01*
X189540000Y-75970000D02*
X189540000Y-93870000D01*
X189540000Y-93870000D02*
X194840000Y-93870000D01*
X191190000Y-75970000D02*
X189540000Y-75970000D01*
X194840000Y-75970000D02*
X193190000Y-75970000D01*
X194840000Y-93870000D02*
X194840000Y-75970000D01*
X193190000Y-75970000D02*
G75*
G02*
X191190000Y-75970000I-1000000J0D01*
G01*
X200510000Y-103030000D02*
X200825000Y-103030000D01*
X200510000Y-107970000D02*
X200510000Y-103030000D01*
X200510000Y-107970000D02*
X200825000Y-107970000D01*
X202935000Y-103030000D02*
X203250000Y-103030000D01*
X202935000Y-107970000D02*
X203250000Y-107970000D01*
X203250000Y-107970000D02*
X203250000Y-103030000D01*
X93400000Y-72600000D02*
X93400000Y-75400000D01*
X93400000Y-75400000D02*
X124220000Y-75400000D01*
X96110000Y-72600000D02*
X96110000Y-75400000D01*
X124220000Y-72600000D02*
X93400000Y-72600000D01*
X124220000Y-75400000D02*
X124220000Y-72600000D01*
X192250000Y-58750000D02*
G75*
G02*
X192236411Y-55287337I4749999J1749999D01*
G01*
X195250000Y-52250000D02*
G75*
G02*
X198712663Y-52236411I1749999J-4749999D01*
G01*
X198750000Y-61750000D02*
G75*
G02*
X195287337Y-61763589I-1750000J4750000D01*
G01*
X201750000Y-55250000D02*
G75*
G02*
X201763589Y-58712663I-4750000J-1750000D01*
G01*
X211256400Y-96010000D02*
X211256400Y-96325000D01*
X211256400Y-96010000D02*
X216196400Y-96010000D01*
X211256400Y-98435000D02*
X211256400Y-98750000D01*
X211256400Y-98750000D02*
X216196400Y-98750000D01*
X216196400Y-96010000D02*
X216196400Y-96325000D01*
X216196400Y-98435000D02*
X216196400Y-98750000D01*
X92600000Y-79700000D02*
X92600000Y-110520000D01*
X92600000Y-107810000D02*
X95400000Y-107810000D01*
X92600000Y-110520000D02*
X95400000Y-110520000D01*
X95400000Y-79700000D02*
X92600000Y-79700000D01*
X95400000Y-110520000D02*
X95400000Y-79700000D01*
D16*
X88540300Y-52126400D02*
X88540300Y-60626400D01*
X88540300Y-60626400D02*
X100140300Y-60626400D01*
X100140300Y-52126400D02*
X88540300Y-52126400D01*
X100140300Y-60626400D02*
X100140300Y-52126400D01*
D10*
X88090300Y-58626400D02*
G75*
G02*
X87890300Y-58626400I-100000J0D01*
G01*
X87890300Y-58626400D02*
G75*
G02*
X88090300Y-58626400I100000J0D01*
G01*
D14*
X217000000Y-63975000D02*
X224800000Y-63975000D01*
X217000000Y-70025000D02*
X217000000Y-63975000D01*
X218350000Y-68915000D02*
X223430000Y-68915000D01*
X218350000Y-69925000D02*
X218350000Y-68915000D01*
X223430000Y-68915000D02*
X223430000Y-69925000D01*
X224800000Y-63975000D02*
X224800000Y-70025000D01*
X224800000Y-70025000D02*
X217000000Y-70025000D01*
X142986200Y-87934600D02*
X142986200Y-92874600D01*
X143301200Y-87934600D02*
X142986200Y-87934600D01*
X143301200Y-92874600D02*
X142986200Y-92874600D01*
X145726200Y-87934600D02*
X145411200Y-87934600D01*
X145726200Y-87934600D02*
X145726200Y-92874600D01*
X145726200Y-92874600D02*
X145411200Y-92874600D01*
X180410000Y-95930000D02*
X180410000Y-96245000D01*
X180410000Y-95930000D02*
X185350000Y-95930000D01*
X180410000Y-98355000D02*
X180410000Y-98670000D01*
X180410000Y-98670000D02*
X185350000Y-98670000D01*
X185350000Y-95930000D02*
X185350000Y-96245000D01*
X185350000Y-98355000D02*
X185350000Y-98670000D01*
D12*
X187100000Y-124470000D02*
X187600000Y-123970000D01*
X187100000Y-128070000D02*
X187100000Y-124470000D01*
X187600000Y-123970000D02*
X188400000Y-123970000D01*
X187600000Y-128570000D02*
X187100000Y-128070000D01*
X188400000Y-123970000D02*
X188900000Y-124470000D01*
X188400000Y-128570000D02*
X187600000Y-128570000D01*
X188900000Y-124470000D02*
X188900000Y-128070000D01*
X188900000Y-128070000D02*
X188400000Y-128570000D01*
D15*
X76144400Y-116261200D02*
X76144400Y-116261200D01*
X76254400Y-116261200D02*
X76254400Y-116261200D01*
D10*
X76454400Y-122701200D02*
X76454400Y-123701200D01*
X76454400Y-123701200D02*
X77024400Y-123701200D01*
X77024400Y-114701200D02*
X122744400Y-114701200D01*
X77024400Y-122701200D02*
X76454400Y-122701200D01*
X77024400Y-125426200D02*
X77024400Y-114701200D01*
X78424400Y-125426200D02*
X77024400Y-125426200D01*
X78994400Y-133426200D02*
X78994400Y-134426200D01*
X78994400Y-134426200D02*
X79564400Y-134426200D01*
X79564400Y-125426200D02*
X78424400Y-125426200D01*
X79564400Y-133426200D02*
X78994400Y-133426200D01*
X79564400Y-136151200D02*
X79564400Y-125426200D01*
X122744400Y-114701200D02*
X122744400Y-125426200D01*
X122744400Y-125426200D02*
X125284400Y-125426200D01*
X125284400Y-125426200D02*
X125284400Y-136151200D01*
X125284400Y-136151200D02*
X79564400Y-136151200D01*
D15*
X76144400Y-116261200D02*
G75*
G02*
X76254400Y-116261200I55000J0D01*
G01*
X76254400Y-116261200D02*
G75*
G02*
X76144400Y-116261200I-55000J0D01*
G01*
D14*
X116160000Y-82050000D02*
X116160000Y-102490000D01*
X116160000Y-102490000D02*
X121460000Y-102490000D01*
X117810000Y-82050000D02*
X116160000Y-82050000D01*
X121460000Y-82050000D02*
X119810000Y-82050000D01*
X121460000Y-102490000D02*
X121460000Y-82050000D01*
X119810000Y-82050000D02*
G75*
G02*
X117810000Y-82050000I-1000000J0D01*
G01*
X110960000Y-62000000D02*
X111730000Y-62000000D01*
X111730000Y-60630000D02*
X111730000Y-63370000D01*
X111730000Y-63370000D02*
X118270000Y-63370000D01*
X118270000Y-60630000D02*
X111730000Y-60630000D01*
X118270000Y-63370000D02*
X118270000Y-60630000D01*
X119040000Y-62000000D02*
X118270000Y-62000000D01*
X103942400Y-54851200D02*
X101760400Y-54851200D01*
X103942400Y-54891200D02*
X101764400Y-54891200D01*
X103942400Y-54931200D02*
X101767400Y-54931200D01*
X103942400Y-54971200D02*
X101771400Y-54971200D01*
X103942400Y-55011200D02*
X101776400Y-55011200D01*
X103942400Y-55051200D02*
X101781400Y-55051200D01*
X103942400Y-55091200D02*
X101787400Y-55091200D01*
X103942400Y-55131200D02*
X101793400Y-55131200D01*
X103942400Y-55171200D02*
X101800400Y-55171200D01*
X103942400Y-55211200D02*
X101807400Y-55211200D01*
X103942400Y-55251200D02*
X101815400Y-55251200D01*
X103942400Y-55291200D02*
X101823400Y-55291200D01*
X103942400Y-55332200D02*
X101832400Y-55332200D01*
X103942400Y-55372200D02*
X101841400Y-55372200D01*
X103942400Y-55412200D02*
X101851400Y-55412200D01*
X103942400Y-55452200D02*
X101861400Y-55452200D01*
X103942400Y-55492200D02*
X101872400Y-55492200D01*
X103942400Y-55532200D02*
X101884400Y-55532200D01*
X103942400Y-55572200D02*
X101896400Y-55572200D01*
X103942400Y-55612200D02*
X101908400Y-55612200D01*
X103942400Y-55652200D02*
X101921400Y-55652200D01*
X103942400Y-55692200D02*
X101935400Y-55692200D01*
X103942400Y-55732200D02*
X101949400Y-55732200D01*
X103942400Y-55772200D02*
X101964400Y-55772200D01*
X103942400Y-55812200D02*
X101980400Y-55812200D01*
X103942400Y-55852200D02*
X101996400Y-55852200D01*
X103942400Y-55892200D02*
X102012400Y-55892200D01*
X103942400Y-55932200D02*
X102030400Y-55932200D01*
X103942400Y-55972200D02*
X102048400Y-55972200D01*
X103942400Y-56012200D02*
X102066400Y-56012200D01*
X103942400Y-56052200D02*
X102086400Y-56052200D01*
X103942400Y-56092200D02*
X102106400Y-56092200D01*
X103942400Y-56132200D02*
X102126400Y-56132200D01*
X103942400Y-56172200D02*
X102148400Y-56172200D01*
X103942400Y-56212200D02*
X102170400Y-56212200D01*
X103942400Y-56252200D02*
X102192400Y-56252200D01*
X103942400Y-56292200D02*
X102216400Y-56292200D01*
X103942400Y-56332200D02*
X102240400Y-56332200D01*
X103942400Y-56372200D02*
X102266400Y-56372200D01*
X103942400Y-56412200D02*
X102292400Y-56412200D01*
X103942400Y-56452200D02*
X102318400Y-56452200D01*
X103942400Y-56492200D02*
X102346400Y-56492200D01*
X103942400Y-56532200D02*
X102375400Y-56532200D01*
X103942400Y-56572200D02*
X102404400Y-56572200D01*
X103942400Y-56612200D02*
X102434400Y-56612200D01*
X103942400Y-56652200D02*
X102466400Y-56652200D01*
X103942400Y-56692200D02*
X102498400Y-56692200D01*
X103942400Y-56732200D02*
X102532400Y-56732200D01*
X103942400Y-56772200D02*
X102566400Y-56772200D01*
X103942400Y-56812200D02*
X102602400Y-56812200D01*
X103942400Y-56852200D02*
X102639400Y-56852200D01*
X103942400Y-56892200D02*
X102677400Y-56892200D01*
X105384400Y-57852200D02*
X104580400Y-57852200D01*
X105615400Y-57812200D02*
X104349400Y-57812200D01*
X105784400Y-57772200D02*
X104180400Y-57772200D01*
X105922400Y-57732200D02*
X104042400Y-57732200D01*
X106041400Y-57692200D02*
X103923400Y-57692200D01*
X106147400Y-57652200D02*
X103817400Y-57652200D01*
X106244400Y-57612200D02*
X103720400Y-57612200D01*
X106332400Y-57572200D02*
X103632400Y-57572200D01*
X106414400Y-57532200D02*
X103550400Y-57532200D01*
X106491400Y-57492200D02*
X103473400Y-57492200D01*
X106563400Y-57452200D02*
X103401400Y-57452200D01*
X106632400Y-57412200D02*
X103332400Y-57412200D01*
X106696400Y-57372200D02*
X103268400Y-57372200D01*
X106758400Y-57332200D02*
X103206400Y-57332200D01*
X106816400Y-57292200D02*
X103148400Y-57292200D01*
X106821400Y-51110959D02*
X106821400Y-51740959D01*
X106872400Y-57252200D02*
X103092400Y-57252200D01*
X106926400Y-57212200D02*
X103038400Y-57212200D01*
X106977400Y-57172200D02*
X102987400Y-57172200D01*
X107026400Y-57132200D02*
X102938400Y-57132200D01*
X107074400Y-57092200D02*
X102890400Y-57092200D01*
X107119400Y-57052200D02*
X102845400Y-57052200D01*
X107136400Y-51425959D02*
X106506400Y-51425959D01*
X107164400Y-57012200D02*
X102800400Y-57012200D01*
X107206400Y-56972200D02*
X102758400Y-56972200D01*
X107247400Y-56932200D02*
X102717400Y-56932200D01*
X107287400Y-56892200D02*
X106022400Y-56892200D01*
X107325400Y-56852200D02*
X106022400Y-56852200D01*
X107362400Y-56812200D02*
X106022400Y-56812200D01*
X107398400Y-56772200D02*
X106022400Y-56772200D01*
X107432400Y-56732200D02*
X106022400Y-56732200D01*
X107466400Y-56692200D02*
X106022400Y-56692200D01*
X107498400Y-56652200D02*
X106022400Y-56652200D01*
X107530400Y-56612200D02*
X106022400Y-56612200D01*
X107560400Y-56572200D02*
X106022400Y-56572200D01*
X107589400Y-56532200D02*
X106022400Y-56532200D01*
X107618400Y-56492200D02*
X106022400Y-56492200D01*
X107646400Y-56452200D02*
X106022400Y-56452200D01*
X107672400Y-56412200D02*
X106022400Y-56412200D01*
X107698400Y-56372200D02*
X106022400Y-56372200D01*
X107724400Y-56332200D02*
X106022400Y-56332200D01*
X107748400Y-56292200D02*
X106022400Y-56292200D01*
X107772400Y-56252200D02*
X106022400Y-56252200D01*
X107794400Y-56212200D02*
X106022400Y-56212200D01*
X107816400Y-56172200D02*
X106022400Y-56172200D01*
X107838400Y-56132200D02*
X106022400Y-56132200D01*
X107858400Y-56092200D02*
X106022400Y-56092200D01*
X107878400Y-56052200D02*
X106022400Y-56052200D01*
X107898400Y-56012200D02*
X106022400Y-56012200D01*
X107916400Y-55972200D02*
X106022400Y-55972200D01*
X107934400Y-55932200D02*
X106022400Y-55932200D01*
X107952400Y-55892200D02*
X106022400Y-55892200D01*
X107968400Y-55852200D02*
X106022400Y-55852200D01*
X107984400Y-55812200D02*
X106022400Y-55812200D01*
X108000400Y-55772200D02*
X106022400Y-55772200D01*
X108015400Y-55732200D02*
X106022400Y-55732200D01*
X108029400Y-55692200D02*
X106022400Y-55692200D01*
X108043400Y-55652200D02*
X106022400Y-55652200D01*
X108056400Y-55612200D02*
X106022400Y-55612200D01*
X108068400Y-55572200D02*
X106022400Y-55572200D01*
X108080400Y-55532200D02*
X106022400Y-55532200D01*
X108092400Y-55492200D02*
X106022400Y-55492200D01*
X108103400Y-55452200D02*
X106022400Y-55452200D01*
X108113400Y-55412200D02*
X106022400Y-55412200D01*
X108123400Y-55372200D02*
X106022400Y-55372200D01*
X108132400Y-55332200D02*
X106022400Y-55332200D01*
X108141400Y-55291200D02*
X106022400Y-55291200D01*
X108149400Y-55251200D02*
X106022400Y-55251200D01*
X108157400Y-55211200D02*
X106022400Y-55211200D01*
X108164400Y-55171200D02*
X106022400Y-55171200D01*
X108171400Y-55131200D02*
X106022400Y-55131200D01*
X108177400Y-55091200D02*
X106022400Y-55091200D01*
X108183400Y-55051200D02*
X106022400Y-55051200D01*
X108188400Y-55011200D02*
X106022400Y-55011200D01*
X108193400Y-54971200D02*
X106022400Y-54971200D01*
X108197400Y-54931200D02*
X106022400Y-54931200D01*
X108200400Y-54891200D02*
X106022400Y-54891200D01*
X108204400Y-54851200D02*
X106022400Y-54851200D01*
X108206400Y-54811200D02*
X101758400Y-54811200D01*
X108209400Y-54771200D02*
X101755400Y-54771200D01*
X108210400Y-54731200D02*
X101754400Y-54731200D01*
X108212400Y-54611200D02*
X101752400Y-54611200D01*
X108212400Y-54651200D02*
X101752400Y-54651200D01*
X108212400Y-54691200D02*
X101752400Y-54691200D01*
X108252400Y-54611200D02*
G75*
G02*
X101712400Y-54611200I-3270000J0D01*
G01*
X101712400Y-54611200D02*
G75*
G02*
X108252400Y-54611200I3270000J0D01*
G01*
X163240000Y-75000000D02*
X164010000Y-75000000D01*
X164010000Y-73630000D02*
X164010000Y-76370000D01*
X164010000Y-76370000D02*
X170550000Y-76370000D01*
X170550000Y-73630000D02*
X164010000Y-73630000D01*
X170550000Y-76370000D02*
X170550000Y-73630000D01*
X171320000Y-75000000D02*
X170550000Y-75000000D01*
X160120000Y-80495000D02*
X161360000Y-80495000D01*
X160120000Y-80535000D02*
X161360000Y-80535000D01*
X160121000Y-80455000D02*
X161360000Y-80455000D01*
X160123000Y-80415000D02*
X161360000Y-80415000D01*
X160126000Y-80375000D02*
X161360000Y-80375000D01*
X160129000Y-80335000D02*
X161360000Y-80335000D01*
X160133000Y-80295000D02*
X161360000Y-80295000D01*
X160138000Y-80255000D02*
X161360000Y-80255000D01*
X160144000Y-80215000D02*
X161360000Y-80215000D01*
X160150000Y-80175000D02*
X161360000Y-80175000D01*
X160158000Y-80135000D02*
X161360000Y-80135000D01*
X160166000Y-80095000D02*
X161360000Y-80095000D01*
X160175000Y-80055000D02*
X161360000Y-80055000D01*
X160184000Y-80015000D02*
X161360000Y-80015000D01*
X160195000Y-79975000D02*
X161360000Y-79975000D01*
X160206000Y-79935000D02*
X161360000Y-79935000D01*
X160218000Y-79895000D02*
X161360000Y-79895000D01*
X160232000Y-79855000D02*
X161360000Y-79855000D01*
X160246000Y-79814000D02*
X161360000Y-79814000D01*
X160260000Y-79774000D02*
X161360000Y-79774000D01*
X160276000Y-79734000D02*
X161360000Y-79734000D01*
X160293000Y-79694000D02*
X161360000Y-79694000D01*
X160311000Y-79654000D02*
X161360000Y-79654000D01*
X160330000Y-79614000D02*
X161360000Y-79614000D01*
X160349000Y-79574000D02*
X161360000Y-79574000D01*
X160370000Y-79534000D02*
X161360000Y-79534000D01*
X160392000Y-79494000D02*
X161360000Y-79494000D01*
X160415000Y-79454000D02*
X161360000Y-79454000D01*
X160440000Y-79414000D02*
X161360000Y-79414000D01*
X160465000Y-79374000D02*
X161360000Y-79374000D01*
X160492000Y-79334000D02*
X161360000Y-79334000D01*
X160520000Y-79294000D02*
X161360000Y-79294000D01*
X160550000Y-79254000D02*
X161360000Y-79254000D01*
X160581000Y-79214000D02*
X161360000Y-79214000D01*
X160613000Y-79174000D02*
X161360000Y-79174000D01*
X160648000Y-79134000D02*
X161360000Y-79134000D01*
X160684000Y-79094000D02*
X161360000Y-79094000D01*
X160722000Y-79054000D02*
X161360000Y-79054000D01*
X160762000Y-79014000D02*
X161360000Y-79014000D01*
X160804000Y-78974000D02*
X161360000Y-78974000D01*
X160805000Y-82604801D02*
X161205000Y-82604801D01*
X160849000Y-78934000D02*
X163551000Y-78934000D01*
X160896000Y-78894000D02*
X163504000Y-78894000D01*
X160946000Y-78854000D02*
X163454000Y-78854000D01*
X161000000Y-78814000D02*
X163400000Y-78814000D01*
X161005000Y-82804801D02*
X161005000Y-82404801D01*
X161058000Y-78774000D02*
X163342000Y-78774000D01*
X161120000Y-78734000D02*
X163280000Y-78734000D01*
X161187000Y-78694000D02*
X163213000Y-78694000D01*
X161260000Y-78654000D02*
X163140000Y-78654000D01*
X161341000Y-78614000D02*
X163059000Y-78614000D01*
X161432000Y-78574000D02*
X162968000Y-78574000D01*
X161536000Y-78534000D02*
X162864000Y-78534000D01*
X161663000Y-78494000D02*
X162737000Y-78494000D01*
X161830000Y-78454000D02*
X162570000Y-78454000D01*
X163040000Y-78974000D02*
X163596000Y-78974000D01*
X163040000Y-79014000D02*
X163638000Y-79014000D01*
X163040000Y-79054000D02*
X163678000Y-79054000D01*
X163040000Y-79094000D02*
X163716000Y-79094000D01*
X163040000Y-79134000D02*
X163752000Y-79134000D01*
X163040000Y-79174000D02*
X163787000Y-79174000D01*
X163040000Y-79214000D02*
X163819000Y-79214000D01*
X163040000Y-79254000D02*
X163850000Y-79254000D01*
X163040000Y-79294000D02*
X163880000Y-79294000D01*
X163040000Y-79334000D02*
X163908000Y-79334000D01*
X163040000Y-79374000D02*
X163935000Y-79374000D01*
X163040000Y-79414000D02*
X163960000Y-79414000D01*
X163040000Y-79454000D02*
X163985000Y-79454000D01*
X163040000Y-79494000D02*
X164008000Y-79494000D01*
X163040000Y-79534000D02*
X164030000Y-79534000D01*
X163040000Y-79574000D02*
X164051000Y-79574000D01*
X163040000Y-79614000D02*
X164070000Y-79614000D01*
X163040000Y-79654000D02*
X164089000Y-79654000D01*
X163040000Y-79694000D02*
X164107000Y-79694000D01*
X163040000Y-79734000D02*
X164124000Y-79734000D01*
X163040000Y-79774000D02*
X164140000Y-79774000D01*
X163040000Y-79814000D02*
X164154000Y-79814000D01*
X163040000Y-79855000D02*
X164168000Y-79855000D01*
X163040000Y-79895000D02*
X164182000Y-79895000D01*
X163040000Y-79935000D02*
X164194000Y-79935000D01*
X163040000Y-79975000D02*
X164205000Y-79975000D01*
X163040000Y-80015000D02*
X164216000Y-80015000D01*
X163040000Y-80055000D02*
X164225000Y-80055000D01*
X163040000Y-80095000D02*
X164234000Y-80095000D01*
X163040000Y-80135000D02*
X164242000Y-80135000D01*
X163040000Y-80175000D02*
X164250000Y-80175000D01*
X163040000Y-80215000D02*
X164256000Y-80215000D01*
X163040000Y-80255000D02*
X164262000Y-80255000D01*
X163040000Y-80295000D02*
X164267000Y-80295000D01*
X163040000Y-80335000D02*
X164271000Y-80335000D01*
X163040000Y-80375000D02*
X164274000Y-80375000D01*
X163040000Y-80415000D02*
X164277000Y-80415000D01*
X163040000Y-80455000D02*
X164279000Y-80455000D01*
X163040000Y-80495000D02*
X164280000Y-80495000D01*
X163040000Y-80535000D02*
X164280000Y-80535000D01*
X164320000Y-80535000D02*
G75*
G02*
X160080000Y-80535000I-2120000J0D01*
G01*
X160080000Y-80535000D02*
G75*
G02*
X164320000Y-80535000I2120000J0D01*
G01*
D12*
X139970000Y-57060000D02*
X140470000Y-56560000D01*
X139970000Y-57860000D02*
X139970000Y-57060000D01*
X140470000Y-56560000D02*
X144070000Y-56560000D01*
X140470000Y-58360000D02*
X139970000Y-57860000D01*
X144070000Y-56560000D02*
X144570000Y-57060000D01*
X144070000Y-58360000D02*
X140470000Y-58360000D01*
X144570000Y-57060000D02*
X144570000Y-57860000D01*
X144570000Y-57860000D02*
X144070000Y-58360000D01*
D14*
X222223000Y-80085000D02*
X222223000Y-103065000D01*
X222223000Y-80085000D02*
X224823000Y-80085000D01*
X222223000Y-103065000D02*
X227423000Y-103065000D01*
X224823000Y-80085000D02*
X224823000Y-82685000D01*
X224823000Y-82685000D02*
X227423000Y-82685000D01*
X226093000Y-80085000D02*
X227423000Y-80085000D01*
X227423000Y-80085000D02*
X227423000Y-81415000D01*
X227423000Y-82685000D02*
X227423000Y-103065000D01*
D17*
G36*
X83908668Y-65227746D02*
G01*
X84208048Y-65258899D01*
X84351113Y-65320712D01*
X84382064Y-65401456D01*
X84336271Y-65494991D01*
X84170118Y-65551125D01*
X83840449Y-65577950D01*
X83409815Y-65583753D01*
X82910963Y-65575167D01*
X82611583Y-65544013D01*
X82468517Y-65482200D01*
X82437567Y-65401456D01*
X82483360Y-65307921D01*
X82649512Y-65251788D01*
X82979181Y-65224963D01*
X83409815Y-65219160D01*
X83908668Y-65227746D01*
G37*
G36*
X91443596Y-65227746D02*
G01*
X91742976Y-65258899D01*
X91886042Y-65320712D01*
X91916992Y-65401456D01*
X91871199Y-65494991D01*
X91705047Y-65551125D01*
X91375377Y-65577950D01*
X90944744Y-65583753D01*
X90445891Y-65575167D01*
X90146511Y-65544013D01*
X90003446Y-65482200D01*
X89972495Y-65401456D01*
X90018288Y-65307921D01*
X90184440Y-65251788D01*
X90514110Y-65224963D01*
X90944744Y-65219160D01*
X91443596Y-65227746D01*
G37*
G36*
X91207961Y-64006789D02*
G01*
X91622206Y-64019424D01*
X91870171Y-64047474D01*
X91990231Y-64096660D01*
X92020760Y-64172705D01*
X92015644Y-64216528D01*
X91964927Y-64316894D01*
X91829104Y-64383711D01*
X91563699Y-64425971D01*
X91124232Y-64452664D01*
X90791422Y-64463991D01*
X89607901Y-64498775D01*
X89607901Y-65462222D01*
X89607901Y-66425669D01*
X90791422Y-66460453D01*
X91345845Y-66482409D01*
X91701689Y-66514977D01*
X91903434Y-66567147D01*
X91995559Y-66647909D01*
X92015644Y-66707916D01*
X92012543Y-66797705D01*
X91936934Y-66858100D01*
X91750442Y-66894820D01*
X91414692Y-66913586D01*
X90891310Y-66920121D01*
X90589061Y-66920595D01*
X89121777Y-66920595D01*
X89121777Y-65462222D01*
X89121777Y-64003849D01*
X90589061Y-64003849D01*
X91207961Y-64006789D01*
G37*
G36*
X83660842Y-64006233D02*
G01*
X84073693Y-64017863D01*
X84324052Y-64045451D01*
X84452199Y-64095710D01*
X84498413Y-64175353D01*
X84503595Y-64246911D01*
X84486915Y-64357538D01*
X84407547Y-64428356D01*
X84221496Y-64468166D01*
X83884769Y-64485765D01*
X83353372Y-64489953D01*
X83288284Y-64489973D01*
X82072973Y-64489973D01*
X82072973Y-65462222D01*
X82072973Y-66434471D01*
X83288284Y-66434471D01*
X83841418Y-66437807D01*
X84195513Y-66453680D01*
X84394561Y-66490890D01*
X84482558Y-66558236D01*
X84503496Y-66664515D01*
X84503595Y-66677533D01*
X84489287Y-66780136D01*
X84419509Y-66848945D01*
X84253982Y-66890671D01*
X83952428Y-66912029D01*
X83474568Y-66919731D01*
X83045222Y-66920595D01*
X81586849Y-66920595D01*
X81586849Y-65462222D01*
X81586849Y-64003849D01*
X83045222Y-64003849D01*
X83660842Y-64006233D01*
G37*
G36*
X85337716Y-64062958D02*
G01*
X85537788Y-64266693D01*
X85781861Y-64654662D01*
X85808767Y-64702652D01*
X86066056Y-65157076D01*
X86325517Y-65603149D01*
X86480392Y-65861266D01*
X86762989Y-66321076D01*
X87425876Y-65164157D01*
X87739159Y-64634215D01*
X87971802Y-64288150D01*
X88151324Y-64092166D01*
X88305246Y-64012471D01*
X88369380Y-64005543D01*
X88566153Y-64036690D01*
X88600943Y-64094997D01*
X88442047Y-64376070D01*
X88208590Y-64771760D01*
X87928963Y-65235934D01*
X87631561Y-65722459D01*
X87344776Y-66185200D01*
X87097002Y-66578023D01*
X86916631Y-66854795D01*
X86832057Y-66969382D01*
X86831795Y-66969551D01*
X86660360Y-66966382D01*
X86616310Y-66942959D01*
X86515358Y-66816493D01*
X86323131Y-66530148D01*
X86068877Y-66131871D01*
X85781848Y-65669606D01*
X85491293Y-65191300D01*
X85226462Y-64744899D01*
X85016605Y-64378348D01*
X84890973Y-64139594D01*
X84868189Y-64077486D01*
X84971552Y-64020120D01*
X85143964Y-64003849D01*
X85337716Y-64062958D01*
G37*
G36*
X94354927Y-63947602D02*
G01*
X94435332Y-64057892D01*
X94612561Y-64330178D01*
X94858037Y-64718244D01*
X95143179Y-65175872D01*
X95439410Y-65656846D01*
X95718150Y-66114947D01*
X95950821Y-66503958D01*
X96108844Y-66777662D01*
X96136932Y-66829447D01*
X96073236Y-66898706D01*
X95900129Y-66920595D01*
X95599050Y-66801776D01*
X95399961Y-66556002D01*
X95252796Y-66344676D01*
X95080440Y-66235849D01*
X94801522Y-66196076D01*
X94512913Y-66191408D01*
X94108683Y-66157907D01*
X93900971Y-66076834D01*
X93900486Y-65977332D01*
X94117940Y-65888547D01*
X94387391Y-65849862D01*
X94676926Y-65799604D01*
X94827633Y-65723090D01*
X94833739Y-65704894D01*
X94775500Y-65529787D01*
X94634731Y-65262660D01*
X94462348Y-64986745D01*
X94309271Y-64785275D01*
X94239193Y-64733035D01*
X94146891Y-64831456D01*
X93963921Y-65097368D01*
X93719362Y-65486741D01*
X93516802Y-65826815D01*
X93181027Y-66374736D01*
X92926119Y-66722957D01*
X92734158Y-66893857D01*
X92640970Y-66920595D01*
X92446070Y-66889038D01*
X92403117Y-66846957D01*
X92463801Y-66708474D01*
X92626353Y-66413273D01*
X92861524Y-66009301D01*
X93140062Y-65544502D01*
X93432719Y-65066823D01*
X93710244Y-64624210D01*
X93943386Y-64264609D01*
X94102897Y-64035965D01*
X94151238Y-63981485D01*
X94322805Y-63936222D01*
X94354927Y-63947602D01*
G37*
G36*
X79390721Y-64010825D02*
G01*
X79860771Y-64029644D01*
X80191224Y-64057135D01*
X80305327Y-64079341D01*
X80584433Y-64303655D01*
X80752582Y-64669477D01*
X80802938Y-65098689D01*
X80728670Y-65513169D01*
X80522943Y-65834797D01*
X80463083Y-65882752D01*
X80199737Y-66067206D01*
X80613306Y-66493901D01*
X81026874Y-66920595D01*
X80695493Y-66920595D01*
X80351200Y-66815361D01*
X79990642Y-66495236D01*
X79713114Y-66221511D01*
X79446894Y-66098176D01*
X79082872Y-66069877D01*
X78726993Y-66044914D01*
X78567717Y-65960418D01*
X78548571Y-65887581D01*
X78605093Y-65781178D01*
X78805199Y-65724364D01*
X79194699Y-65705546D01*
X79269077Y-65705284D01*
X79847449Y-65649634D01*
X80215436Y-65485371D01*
X80369024Y-65216524D01*
X80304198Y-64847124D01*
X80245731Y-64725046D01*
X80153090Y-64608484D01*
X79992718Y-64537779D01*
X79711159Y-64502045D01*
X79254959Y-64490400D01*
X79091185Y-64489973D01*
X78062447Y-64489973D01*
X78062447Y-65705284D01*
X78059111Y-66258418D01*
X78043237Y-66612512D01*
X78006027Y-66811561D01*
X77938682Y-66899557D01*
X77832402Y-66920496D01*
X77819385Y-66920595D01*
X77716781Y-66906287D01*
X77647973Y-66836509D01*
X77606246Y-66670982D01*
X77584889Y-66369428D01*
X77577186Y-65891568D01*
X77576323Y-65462222D01*
X77576323Y-64003849D01*
X78842459Y-64003849D01*
X79390721Y-64010825D01*
G37*
G36*
X97025892Y-63965131D02*
G01*
X97029001Y-63965744D01*
X97218844Y-64062268D01*
X97438299Y-64300454D01*
X97713076Y-64711828D01*
X97910675Y-65047006D01*
X98169584Y-65484112D01*
X98389826Y-65828032D01*
X98541076Y-66032853D01*
X98586229Y-66069877D01*
X98681536Y-65971386D01*
X98864901Y-65706389D01*
X99105889Y-65320606D01*
X99268297Y-65045304D01*
X99613229Y-64488255D01*
X99896455Y-64133243D01*
X100145370Y-63956161D01*
X100387367Y-63932903D01*
X100496657Y-63964398D01*
X100572751Y-64047499D01*
X100623682Y-64251376D01*
X100653456Y-64611511D01*
X100666079Y-65163388D01*
X100667232Y-65475224D01*
X100664694Y-66087940D01*
X100652637Y-66498003D01*
X100624388Y-66745808D01*
X100573279Y-66871747D01*
X100492640Y-66916216D01*
X100428570Y-66920595D01*
X100318031Y-66900859D01*
X100245501Y-66812127D01*
X100200761Y-66610114D01*
X100173590Y-66250534D01*
X100155125Y-65735667D01*
X100120342Y-64550739D01*
X99459876Y-65644518D01*
X99119235Y-66198260D01*
X98873046Y-66567639D01*
X98697804Y-66780814D01*
X98570007Y-66865945D01*
X98466153Y-66851192D01*
X98457157Y-66845915D01*
X98360135Y-66723455D01*
X98169292Y-66435979D01*
X97913515Y-66028284D01*
X97661402Y-65611921D01*
X96960533Y-64436570D01*
X96925899Y-65678583D01*
X96906615Y-66239791D01*
X96880078Y-66601269D01*
X96836751Y-66806338D01*
X96767096Y-66898319D01*
X96661575Y-66920533D01*
X96652454Y-66920595D01*
X96551220Y-66905263D01*
X96483469Y-66832337D01*
X96442526Y-66661420D01*
X96421718Y-66352118D01*
X96414369Y-65864034D01*
X96413643Y-65475224D01*
X96418750Y-64820372D01*
X96443591Y-64373493D01*
X96502446Y-64099557D01*
X96609595Y-63963538D01*
X96779317Y-63930405D01*
X97025892Y-63965131D01*
G37*
D14*
X218450000Y-102830000D02*
X218450000Y-107770000D01*
X218765000Y-102830000D02*
X218450000Y-102830000D01*
X218765000Y-107770000D02*
X218450000Y-107770000D01*
X221190000Y-102830000D02*
X220875000Y-102830000D01*
X221190000Y-102830000D02*
X221190000Y-107770000D01*
X221190000Y-107770000D02*
X220875000Y-107770000D01*
%LPC*%
D18*
X158000000Y-58460000D03*
D19*
X158000000Y-55920000D03*
X158000000Y-61000000D03*
D20*
X197000000Y-127000000D03*
D21*
X200175000Y-130175000D03*
X200175000Y-123825000D03*
X193825000Y-130175000D03*
X193825000Y-123825000D03*
D22*
X148200000Y-76125000D03*
D23*
X148200000Y-78665000D03*
X148200000Y-81205000D03*
X148200000Y-83745000D03*
X148200000Y-86285000D03*
X148200000Y-88825000D03*
X148200000Y-91365000D03*
X148200000Y-93905000D03*
X155820000Y-93905000D03*
X155820000Y-91365000D03*
X155820000Y-88825000D03*
X155820000Y-86285000D03*
X155820000Y-83745000D03*
X155820000Y-81205000D03*
X155820000Y-78665000D03*
X155820000Y-76125000D03*
D24*
X141092500Y-53207600D03*
X143632500Y-53207600D03*
D22*
X205606400Y-77380000D03*
D23*
X205606400Y-79920000D03*
X205606400Y-82460000D03*
X205606400Y-85000000D03*
X205606400Y-87540000D03*
D19*
X144871000Y-78652800D03*
X139871000Y-78652800D03*
D22*
X141380000Y-105000000D03*
D23*
X143920000Y-105000000D03*
X146460000Y-105000000D03*
X149000000Y-105000000D03*
X151540000Y-105000000D03*
X154080000Y-105000000D03*
X156620000Y-105000000D03*
X159160000Y-105000000D03*
X161700000Y-105000000D03*
X164240000Y-105000000D03*
X166780000Y-105000000D03*
X169320000Y-105000000D03*
D19*
X149674500Y-98044100D03*
X154674500Y-98044100D03*
D22*
X98380000Y-83300000D03*
D23*
X98380000Y-85840000D03*
X98380000Y-88380000D03*
X98380000Y-90920000D03*
X98380000Y-93460000D03*
X98380000Y-96000000D03*
X98380000Y-98540000D03*
X98380000Y-101080000D03*
X106000000Y-101080000D03*
X106000000Y-98540000D03*
X106000000Y-96000000D03*
X106000000Y-93460000D03*
X106000000Y-90920000D03*
X106000000Y-88380000D03*
X106000000Y-85840000D03*
X106000000Y-83300000D03*
D22*
X183737000Y-87427700D03*
D23*
X183737000Y-84887700D03*
X183737000Y-82347700D03*
X183737000Y-79807700D03*
X183737000Y-77267700D03*
D25*
X189380000Y-118000000D03*
D26*
X204620000Y-118000000D03*
D27*
X166594900Y-54920000D03*
D28*
X166594900Y-57460000D03*
X166594900Y-60000000D03*
D18*
X149894500Y-58388800D03*
D19*
X149894500Y-55848800D03*
X149894500Y-60928800D03*
D25*
X190000000Y-67000000D03*
D26*
X205240000Y-67000000D03*
D22*
X160920000Y-93620000D03*
D23*
X163460000Y-93620000D03*
X166000000Y-93620000D03*
X168540000Y-93620000D03*
X171080000Y-93620000D03*
X173620000Y-93620000D03*
X176160000Y-93620000D03*
X178700000Y-93620000D03*
X178700000Y-86000000D03*
X176160000Y-86000000D03*
X173620000Y-86000000D03*
X171080000Y-86000000D03*
X168540000Y-86000000D03*
X166000000Y-86000000D03*
X163460000Y-86000000D03*
X160920000Y-86000000D03*
D29*
X111676000Y-52620000D03*
X118176000Y-52620000D03*
X111676000Y-57120000D03*
X118176000Y-57120000D03*
D30*
X218450000Y-117625000D03*
D31*
X220990000Y-117625000D03*
X223530000Y-117625000D03*
D19*
X175000000Y-96920000D03*
D23*
X175000000Y-107080000D03*
D22*
X109000000Y-104860000D03*
D23*
X109000000Y-102320000D03*
X109000000Y-99780000D03*
X109000000Y-97240000D03*
X109000000Y-94700000D03*
X109000000Y-92160000D03*
X109000000Y-89620000D03*
X109000000Y-87080000D03*
X109000000Y-84540000D03*
X109000000Y-82000000D03*
D19*
X189410200Y-97255000D03*
X194410200Y-97255000D03*
D22*
X200112700Y-77380000D03*
D23*
X200112700Y-79920000D03*
X200112700Y-82460000D03*
X200112700Y-85000000D03*
X200112700Y-87540000D03*
D22*
X210000000Y-77300000D03*
D23*
X210000000Y-79840000D03*
X210000000Y-82380000D03*
X210000000Y-84920000D03*
X210000000Y-87460000D03*
X210000000Y-90000000D03*
X210000000Y-92540000D03*
X217620000Y-92540000D03*
X217620000Y-90000000D03*
X217620000Y-87460000D03*
X217620000Y-84920000D03*
X217620000Y-82380000D03*
X217620000Y-79840000D03*
X217620000Y-77300000D03*
D19*
X139200000Y-92365000D03*
D23*
X139200000Y-82205000D03*
D22*
X113220000Y-105000000D03*
D23*
X115760000Y-105000000D03*
X118300000Y-105000000D03*
X120840000Y-105000000D03*
X123380000Y-105000000D03*
X125920000Y-105000000D03*
X128460000Y-105000000D03*
X131000000Y-105000000D03*
X133540000Y-105000000D03*
X136080000Y-105000000D03*
D27*
X172000000Y-54920000D03*
D28*
X172000000Y-57460000D03*
X172000000Y-60000000D03*
D24*
X187000000Y-56000000D03*
X187000000Y-58540000D03*
D22*
X208200000Y-108800000D03*
D23*
X210740000Y-108800000D03*
X213280000Y-108800000D03*
X215820000Y-108800000D03*
X215820000Y-101180000D03*
X213280000Y-101180000D03*
X210740000Y-101180000D03*
X208200000Y-101180000D03*
D22*
X83166100Y-53715900D03*
D19*
X83166100Y-56215900D03*
D32*
X133076900Y-116261200D03*
D33*
X135616900Y-131501200D03*
X138156900Y-116261200D03*
X140696900Y-131501200D03*
X143236900Y-116261200D03*
X145776900Y-131501200D03*
X148316900Y-116261200D03*
X150856900Y-131501200D03*
X153396900Y-116261200D03*
X155936900Y-131501200D03*
X158476900Y-116261200D03*
X161016900Y-131501200D03*
X163556900Y-116261200D03*
X166096900Y-131501200D03*
X168636900Y-116261200D03*
X171176900Y-131501200D03*
X173716900Y-116261200D03*
X176256900Y-131501200D03*
D27*
X85553000Y-81415000D03*
D28*
X83013000Y-81415000D03*
X85553000Y-83955000D03*
X83013000Y-83955000D03*
X85553000Y-86495000D03*
X83013000Y-86495000D03*
X85553000Y-89035000D03*
X83013000Y-89035000D03*
X85553000Y-91575000D03*
X83013000Y-91575000D03*
X85553000Y-94115000D03*
X83013000Y-94115000D03*
X85553000Y-96655000D03*
X83013000Y-96655000D03*
X85553000Y-99195000D03*
X83013000Y-99195000D03*
X85553000Y-101735000D03*
X83013000Y-101735000D03*
D22*
X127380000Y-83300000D03*
D23*
X127380000Y-85840000D03*
X127380000Y-88380000D03*
X127380000Y-90920000D03*
X127380000Y-93460000D03*
X127380000Y-96000000D03*
X127380000Y-98540000D03*
X127380000Y-101080000D03*
X135000000Y-101080000D03*
X135000000Y-98540000D03*
X135000000Y-96000000D03*
X135000000Y-93460000D03*
X135000000Y-90920000D03*
X135000000Y-88380000D03*
X135000000Y-85840000D03*
X135000000Y-83300000D03*
D22*
X178800000Y-109300000D03*
D23*
X181340000Y-109300000D03*
X183880000Y-109300000D03*
X186420000Y-109300000D03*
X188960000Y-109300000D03*
X191500000Y-109300000D03*
X194040000Y-109300000D03*
X196580000Y-109300000D03*
X196580000Y-101680000D03*
X194040000Y-101680000D03*
X191500000Y-101680000D03*
X188960000Y-101680000D03*
X186420000Y-101680000D03*
X183880000Y-101680000D03*
X181340000Y-101680000D03*
X178800000Y-101680000D03*
D22*
X188380000Y-77300000D03*
D23*
X188380000Y-79840000D03*
X188380000Y-82380000D03*
X188380000Y-84920000D03*
X188380000Y-87460000D03*
X188380000Y-90000000D03*
X188380000Y-92540000D03*
X196000000Y-92540000D03*
X196000000Y-90000000D03*
X196000000Y-87460000D03*
X196000000Y-84920000D03*
X196000000Y-82380000D03*
X196000000Y-79840000D03*
X196000000Y-77300000D03*
D19*
X201880000Y-108000000D03*
X201880000Y-103000000D03*
D22*
X94840000Y-74000000D03*
D23*
X97380000Y-74000000D03*
X99920000Y-74000000D03*
X102460000Y-74000000D03*
X105000000Y-74000000D03*
X107540000Y-74000000D03*
X110080000Y-74000000D03*
X112620000Y-74000000D03*
X115160000Y-74000000D03*
X117700000Y-74000000D03*
X120240000Y-74000000D03*
X122780000Y-74000000D03*
D20*
X197000000Y-57000000D03*
D21*
X193825000Y-53825000D03*
X193825000Y-60175000D03*
X200175000Y-53825000D03*
X200175000Y-60175000D03*
D19*
X211226400Y-97380000D03*
X216226400Y-97380000D03*
D22*
X94000000Y-109080000D03*
D23*
X94000000Y-106540000D03*
X94000000Y-104000000D03*
X94000000Y-101460000D03*
X94000000Y-98920000D03*
X94000000Y-96380000D03*
X94000000Y-93840000D03*
X94000000Y-91300000D03*
X94000000Y-88760000D03*
X94000000Y-86220000D03*
X94000000Y-83680000D03*
X94000000Y-81140000D03*
D34*
X91800300Y-58626400D03*
D35*
X94340300Y-58626400D03*
X96880300Y-58626400D03*
D30*
X218350000Y-66625000D03*
D31*
X220890000Y-66625000D03*
X223430000Y-66625000D03*
D19*
X144356200Y-87904600D03*
X144356200Y-92904600D03*
X180380000Y-97300000D03*
X185380000Y-97300000D03*
D24*
X188000000Y-125000000D03*
X188000000Y-127540000D03*
D32*
X79564400Y-116261200D03*
D33*
X82104400Y-131501200D03*
X84644400Y-116261200D03*
X87184400Y-131501200D03*
X89724400Y-116261200D03*
X92264400Y-131501200D03*
X94804400Y-116261200D03*
X97344400Y-131501200D03*
X99884400Y-116261200D03*
X102424400Y-131501200D03*
X104964400Y-116261200D03*
X107504400Y-131501200D03*
X110044400Y-116261200D03*
X112584400Y-131501200D03*
X115124400Y-116261200D03*
X117664400Y-131501200D03*
X120204400Y-116261200D03*
X122744400Y-131501200D03*
D22*
X115000000Y-83380000D03*
D23*
X115000000Y-85920000D03*
X115000000Y-88460000D03*
X115000000Y-91000000D03*
X115000000Y-93540000D03*
X115000000Y-96080000D03*
X115000000Y-98620000D03*
X115000000Y-101160000D03*
X122620000Y-101160000D03*
X122620000Y-98620000D03*
X122620000Y-96080000D03*
X122620000Y-93540000D03*
X122620000Y-91000000D03*
X122620000Y-88460000D03*
X122620000Y-85920000D03*
X122620000Y-83380000D03*
D19*
X120080000Y-62000000D03*
D23*
X109920000Y-62000000D03*
D22*
X104982400Y-53361200D03*
D19*
X104982400Y-55861200D03*
X162200000Y-75000000D03*
D23*
X172360000Y-75000000D03*
D36*
X162200000Y-81285000D03*
D37*
X162200000Y-79785000D03*
D24*
X141000000Y-57460000D03*
X143540000Y-57460000D03*
D27*
X226093000Y-81415000D03*
D28*
X223553000Y-81415000D03*
X226093000Y-83955000D03*
X223553000Y-83955000D03*
X226093000Y-86495000D03*
X223553000Y-86495000D03*
X226093000Y-89035000D03*
X223553000Y-89035000D03*
X226093000Y-91575000D03*
X223553000Y-91575000D03*
X226093000Y-94115000D03*
X223553000Y-94115000D03*
X226093000Y-96655000D03*
X223553000Y-96655000D03*
X226093000Y-99195000D03*
X223553000Y-99195000D03*
X226093000Y-101735000D03*
X223553000Y-101735000D03*
D19*
X219820000Y-102800000D03*
X219820000Y-107800000D03*
%LPD*%
M02*
