G04 #@! TF.GenerationSoftware,KiCad,Pcbnew,8.0.8*
G04 #@! TF.CreationDate,2025-05-30T13:16:57-05:00*
G04 #@! TF.ProjectId,baseboard,62617365-626f-4617-9264-2e6b69636164,rev?*
G04 #@! TF.SameCoordinates,Original*
G04 #@! TF.FileFunction,Soldermask,Bot*
G04 #@! TF.FilePolarity,Negative*
%FSLAX46Y46*%
G04 Gerber Fmt 4.6, Leading zero omitted, Abs format (unit mm)*
G04 Created by KiCad (PCBNEW 8.0.8) date 2025-05-30 13:16:57*
%MOMM*%
%LPD*%
G01*
G04 APERTURE LIST*
%ADD10R,1.500000X1.500000*%
%ADD11C,1.600000*%
%ADD12C,3.556000*%
%ADD13C,3.810000*%
%ADD14R,1.600000X1.600000*%
%ADD15O,1.600000X1.600000*%
%ADD16C,1.400000*%
%ADD17C,2.400000*%
%ADD18O,2.400000X2.400000*%
%ADD19R,1.700000X1.700000*%
%ADD20O,1.700000X1.700000*%
%ADD21C,2.000000*%
%ADD22R,1.730000X2.030000*%
%ADD23O,1.730000X2.030000*%
%ADD24R,1.950000X1.950000*%
%ADD25C,1.950000*%
%ADD26R,1.508000X1.508000*%
%ADD27C,1.508000*%
%ADD28R,1.200000X1.200000*%
%ADD29C,1.200000*%
G04 APERTURE END LIST*
D10*
X158000000Y-58460000D03*
D11*
X158000000Y-55920000D03*
X158000000Y-61000000D03*
D12*
X197000000Y-127000000D03*
D13*
X200175000Y-130175000D03*
X200175000Y-123825000D03*
X193825000Y-130175000D03*
X193825000Y-123825000D03*
D14*
X148200000Y-76125000D03*
D15*
X148200000Y-78665000D03*
X148200000Y-81205000D03*
X148200000Y-83745000D03*
X148200000Y-86285000D03*
X148200000Y-88825000D03*
X148200000Y-91365000D03*
X148200000Y-93905000D03*
X155820000Y-93905000D03*
X155820000Y-91365000D03*
X155820000Y-88825000D03*
X155820000Y-86285000D03*
X155820000Y-83745000D03*
X155820000Y-81205000D03*
X155820000Y-78665000D03*
X155820000Y-76125000D03*
D16*
X141092500Y-53207600D03*
X143632500Y-53207600D03*
D14*
X205606400Y-77380000D03*
D15*
X205606400Y-79920000D03*
X205606400Y-82460000D03*
X205606400Y-85000000D03*
X205606400Y-87540000D03*
D11*
X144871000Y-78652800D03*
X139871000Y-78652800D03*
D14*
X141380000Y-105000000D03*
D15*
X143920000Y-105000000D03*
X146460000Y-105000000D03*
X149000000Y-105000000D03*
X151540000Y-105000000D03*
X154080000Y-105000000D03*
X156620000Y-105000000D03*
X159160000Y-105000000D03*
X161700000Y-105000000D03*
X164240000Y-105000000D03*
X166780000Y-105000000D03*
X169320000Y-105000000D03*
D11*
X149674500Y-98044100D03*
X154674500Y-98044100D03*
D14*
X98380000Y-83300000D03*
D15*
X98380000Y-85840000D03*
X98380000Y-88380000D03*
X98380000Y-90920000D03*
X98380000Y-93460000D03*
X98380000Y-96000000D03*
X98380000Y-98540000D03*
X98380000Y-101080000D03*
X106000000Y-101080000D03*
X106000000Y-98540000D03*
X106000000Y-96000000D03*
X106000000Y-93460000D03*
X106000000Y-90920000D03*
X106000000Y-88380000D03*
X106000000Y-85840000D03*
X106000000Y-83300000D03*
D14*
X183737000Y-87427700D03*
D15*
X183737000Y-84887700D03*
X183737000Y-82347700D03*
X183737000Y-79807700D03*
X183737000Y-77267700D03*
D17*
X189380000Y-118000000D03*
D18*
X204620000Y-118000000D03*
D19*
X166594900Y-54920000D03*
D20*
X166594900Y-57460000D03*
X166594900Y-60000000D03*
D10*
X149894500Y-58388800D03*
D11*
X149894500Y-55848800D03*
X149894500Y-60928800D03*
D17*
X190000000Y-67000000D03*
D18*
X205240000Y-67000000D03*
D14*
X160920000Y-93620000D03*
D15*
X163460000Y-93620000D03*
X166000000Y-93620000D03*
X168540000Y-93620000D03*
X171080000Y-93620000D03*
X173620000Y-93620000D03*
X176160000Y-93620000D03*
X178700000Y-93620000D03*
X178700000Y-86000000D03*
X176160000Y-86000000D03*
X173620000Y-86000000D03*
X171080000Y-86000000D03*
X168540000Y-86000000D03*
X166000000Y-86000000D03*
X163460000Y-86000000D03*
X160920000Y-86000000D03*
D21*
X111676000Y-52620000D03*
X118176000Y-52620000D03*
X111676000Y-57120000D03*
X118176000Y-57120000D03*
D22*
X218450000Y-117625000D03*
D23*
X220990000Y-117625000D03*
X223530000Y-117625000D03*
D11*
X175000000Y-96920000D03*
D15*
X175000000Y-107080000D03*
D14*
X109000000Y-104860000D03*
D15*
X109000000Y-102320000D03*
X109000000Y-99780000D03*
X109000000Y-97240000D03*
X109000000Y-94700000D03*
X109000000Y-92160000D03*
X109000000Y-89620000D03*
X109000000Y-87080000D03*
X109000000Y-84540000D03*
X109000000Y-82000000D03*
D11*
X189410200Y-97255000D03*
X194410200Y-97255000D03*
D14*
X200112700Y-77380000D03*
D15*
X200112700Y-79920000D03*
X200112700Y-82460000D03*
X200112700Y-85000000D03*
X200112700Y-87540000D03*
D14*
X210000000Y-77300000D03*
D15*
X210000000Y-79840000D03*
X210000000Y-82380000D03*
X210000000Y-84920000D03*
X210000000Y-87460000D03*
X210000000Y-90000000D03*
X210000000Y-92540000D03*
X217620000Y-92540000D03*
X217620000Y-90000000D03*
X217620000Y-87460000D03*
X217620000Y-84920000D03*
X217620000Y-82380000D03*
X217620000Y-79840000D03*
X217620000Y-77300000D03*
D11*
X139200000Y-92365000D03*
D15*
X139200000Y-82205000D03*
D14*
X113220000Y-105000000D03*
D15*
X115760000Y-105000000D03*
X118300000Y-105000000D03*
X120840000Y-105000000D03*
X123380000Y-105000000D03*
X125920000Y-105000000D03*
X128460000Y-105000000D03*
X131000000Y-105000000D03*
X133540000Y-105000000D03*
X136080000Y-105000000D03*
D19*
X172000000Y-54920000D03*
D20*
X172000000Y-57460000D03*
X172000000Y-60000000D03*
D16*
X187000000Y-56000000D03*
X187000000Y-58540000D03*
D14*
X208200000Y-108800000D03*
D15*
X210740000Y-108800000D03*
X213280000Y-108800000D03*
X215820000Y-108800000D03*
X215820000Y-101180000D03*
X213280000Y-101180000D03*
X210740000Y-101180000D03*
X208200000Y-101180000D03*
D14*
X83166100Y-53715900D03*
D11*
X83166100Y-56215900D03*
D24*
X133076900Y-116261200D03*
D25*
X135616900Y-131501200D03*
X138156900Y-116261200D03*
X140696900Y-131501200D03*
X143236900Y-116261200D03*
X145776900Y-131501200D03*
X148316900Y-116261200D03*
X150856900Y-131501200D03*
X153396900Y-116261200D03*
X155936900Y-131501200D03*
X158476900Y-116261200D03*
X161016900Y-131501200D03*
X163556900Y-116261200D03*
X166096900Y-131501200D03*
X168636900Y-116261200D03*
X171176900Y-131501200D03*
X173716900Y-116261200D03*
X176256900Y-131501200D03*
D19*
X85553000Y-81415000D03*
D20*
X83013000Y-81415000D03*
X85553000Y-83955000D03*
X83013000Y-83955000D03*
X85553000Y-86495000D03*
X83013000Y-86495000D03*
X85553000Y-89035000D03*
X83013000Y-89035000D03*
X85553000Y-91575000D03*
X83013000Y-91575000D03*
X85553000Y-94115000D03*
X83013000Y-94115000D03*
X85553000Y-96655000D03*
X83013000Y-96655000D03*
X85553000Y-99195000D03*
X83013000Y-99195000D03*
X85553000Y-101735000D03*
X83013000Y-101735000D03*
D14*
X127380000Y-83300000D03*
D15*
X127380000Y-85840000D03*
X127380000Y-88380000D03*
X127380000Y-90920000D03*
X127380000Y-93460000D03*
X127380000Y-96000000D03*
X127380000Y-98540000D03*
X127380000Y-101080000D03*
X135000000Y-101080000D03*
X135000000Y-98540000D03*
X135000000Y-96000000D03*
X135000000Y-93460000D03*
X135000000Y-90920000D03*
X135000000Y-88380000D03*
X135000000Y-85840000D03*
X135000000Y-83300000D03*
D14*
X178800000Y-109300000D03*
D15*
X181340000Y-109300000D03*
X183880000Y-109300000D03*
X186420000Y-109300000D03*
X188960000Y-109300000D03*
X191500000Y-109300000D03*
X194040000Y-109300000D03*
X196580000Y-109300000D03*
X196580000Y-101680000D03*
X194040000Y-101680000D03*
X191500000Y-101680000D03*
X188960000Y-101680000D03*
X186420000Y-101680000D03*
X183880000Y-101680000D03*
X181340000Y-101680000D03*
X178800000Y-101680000D03*
D14*
X188380000Y-77300000D03*
D15*
X188380000Y-79840000D03*
X188380000Y-82380000D03*
X188380000Y-84920000D03*
X188380000Y-87460000D03*
X188380000Y-90000000D03*
X188380000Y-92540000D03*
X196000000Y-92540000D03*
X196000000Y-90000000D03*
X196000000Y-87460000D03*
X196000000Y-84920000D03*
X196000000Y-82380000D03*
X196000000Y-79840000D03*
X196000000Y-77300000D03*
D11*
X201880000Y-108000000D03*
X201880000Y-103000000D03*
D14*
X94840000Y-74000000D03*
D15*
X97380000Y-74000000D03*
X99920000Y-74000000D03*
X102460000Y-74000000D03*
X105000000Y-74000000D03*
X107540000Y-74000000D03*
X110080000Y-74000000D03*
X112620000Y-74000000D03*
X115160000Y-74000000D03*
X117700000Y-74000000D03*
X120240000Y-74000000D03*
X122780000Y-74000000D03*
D12*
X197000000Y-57000000D03*
D13*
X193825000Y-53825000D03*
X193825000Y-60175000D03*
X200175000Y-53825000D03*
X200175000Y-60175000D03*
D11*
X211226400Y-97380000D03*
X216226400Y-97380000D03*
D14*
X94000000Y-109080000D03*
D15*
X94000000Y-106540000D03*
X94000000Y-104000000D03*
X94000000Y-101460000D03*
X94000000Y-98920000D03*
X94000000Y-96380000D03*
X94000000Y-93840000D03*
X94000000Y-91300000D03*
X94000000Y-88760000D03*
X94000000Y-86220000D03*
X94000000Y-83680000D03*
X94000000Y-81140000D03*
D26*
X91800300Y-58626400D03*
D27*
X94340300Y-58626400D03*
X96880300Y-58626400D03*
D22*
X218350000Y-66625000D03*
D23*
X220890000Y-66625000D03*
X223430000Y-66625000D03*
D11*
X144356200Y-87904600D03*
X144356200Y-92904600D03*
X180380000Y-97300000D03*
X185380000Y-97300000D03*
D16*
X188000000Y-125000000D03*
X188000000Y-127540000D03*
D24*
X79564400Y-116261200D03*
D25*
X82104400Y-131501200D03*
X84644400Y-116261200D03*
X87184400Y-131501200D03*
X89724400Y-116261200D03*
X92264400Y-131501200D03*
X94804400Y-116261200D03*
X97344400Y-131501200D03*
X99884400Y-116261200D03*
X102424400Y-131501200D03*
X104964400Y-116261200D03*
X107504400Y-131501200D03*
X110044400Y-116261200D03*
X112584400Y-131501200D03*
X115124400Y-116261200D03*
X117664400Y-131501200D03*
X120204400Y-116261200D03*
X122744400Y-131501200D03*
D14*
X115000000Y-83380000D03*
D15*
X115000000Y-85920000D03*
X115000000Y-88460000D03*
X115000000Y-91000000D03*
X115000000Y-93540000D03*
X115000000Y-96080000D03*
X115000000Y-98620000D03*
X115000000Y-101160000D03*
X122620000Y-101160000D03*
X122620000Y-98620000D03*
X122620000Y-96080000D03*
X122620000Y-93540000D03*
X122620000Y-91000000D03*
X122620000Y-88460000D03*
X122620000Y-85920000D03*
X122620000Y-83380000D03*
D11*
X120080000Y-62000000D03*
D15*
X109920000Y-62000000D03*
D14*
X104982400Y-53361200D03*
D11*
X104982400Y-55861200D03*
X162200000Y-75000000D03*
D15*
X172360000Y-75000000D03*
D28*
X162200000Y-81285000D03*
D29*
X162200000Y-79785000D03*
D16*
X141000000Y-57460000D03*
X143540000Y-57460000D03*
D19*
X226093000Y-81415000D03*
D20*
X223553000Y-81415000D03*
X226093000Y-83955000D03*
X223553000Y-83955000D03*
X226093000Y-86495000D03*
X223553000Y-86495000D03*
X226093000Y-89035000D03*
X223553000Y-89035000D03*
X226093000Y-91575000D03*
X223553000Y-91575000D03*
X226093000Y-94115000D03*
X223553000Y-94115000D03*
X226093000Y-96655000D03*
X223553000Y-96655000D03*
X226093000Y-99195000D03*
X223553000Y-99195000D03*
X226093000Y-101735000D03*
X223553000Y-101735000D03*
D11*
X219820000Y-102800000D03*
X219820000Y-107800000D03*
M02*
