M48
; DRILL file {KiCad 8.0.8} date 2025-05-30T13:16:59-0500
; FORMAT={-:-/ absolute / metric / decimal}
; #@! TF.CreationDate,2025-05-30T13:16:59-05:00
; #@! TF.GenerationSoftware,Kicad,Pcbnew,8.0.8
; #@! TF.FileFunction,Plated,1,6,PTH
FMAT,2
METRIC
; #@! TA.AperFunction,Plated,PTH,ViaDrill
T1C0.300
; #@! TA.AperFunction,Plated,PTH,ComponentDrill
T2C0.600
; #@! TA.AperFunction,Plated,PTH,ComponentDrill
T3C0.800
; #@! TA.AperFunction,Plated,PTH,ComponentDrill
T4C1.000
; #@! TA.AperFunction,Plated,PTH,ComponentDrill
T5C1.020
; #@! TA.AperFunction,Plated,PTH,ComponentDrill
T6C1.100
; #@! TA.AperFunction,Plated,PTH,ComponentDrill
T7C1.200
; #@! TA.AperFunction,Plated,PTH,ComponentDrill
T8C1.270
; #@! TA.AperFunction,Plated,PTH,ComponentDrill
T9C1.300
; #@! TA.AperFunction,Plated,PTH,ComponentDrill
T10C1.524
%
G90
G05
T1
X86.038Y-64.697
X89.894Y-99.661
X91.109Y-85.741
X95.627Y-108.053
X96.081Y-97.27
X96.937Y-111.838
X98.874Y-81.891
X99.034Y-80.458
X100.927Y-109.053
X102.071Y-118.072
X104.357Y-112.931
X109.729Y-83.408
X112.584Y-109.893
X112.584Y-120.779
X117.749Y-100.496
X118.476Y-96.365
X118.524Y-101.25
X124.822Y-104.032
X124.879Y-74.053
X130.613Y-97.073
X130.72Y-64.697
X137.966Y-80.032
X139.43Y-104.13
X140.156Y-95.78
X140.253Y-93.582
X149.543Y-88.398
X158.346Y-62.502
X159.16Y-96.394
X161.017Y-109.053
X164.24Y-101.041
X168.681Y-114.16
X176.16Y-72.435
X177.902Y-105.223
X185.679Y-71.308
X186.709Y-90.066
X221.073Y-89.518
X226.093Y-72.352
T2
X162.2Y-79.785
X162.2Y-81.285
T3
X83.166Y-53.716
X83.166Y-56.216
X94.0Y-81.14
X94.0Y-83.68
X94.0Y-86.22
X94.0Y-88.76
X94.0Y-91.3
X94.0Y-93.84
X94.0Y-96.38
X94.0Y-98.92
X94.0Y-101.46
X94.0Y-104.0
X94.0Y-106.54
X94.0Y-109.08
X94.84Y-74.0
X97.38Y-74.0
X98.38Y-83.3
X98.38Y-85.84
X98.38Y-88.38
X98.38Y-90.92
X98.38Y-93.46
X98.38Y-96.0
X98.38Y-98.54
X98.38Y-101.08
X99.92Y-74.0
X102.46Y-74.0
X104.982Y-53.361
X104.982Y-55.861
X105.0Y-74.0
X106.0Y-83.3
X106.0Y-85.84
X106.0Y-88.38
X106.0Y-90.92
X106.0Y-93.46
X106.0Y-96.0
X106.0Y-98.54
X106.0Y-101.08
X107.54Y-74.0
X109.0Y-82.0
X109.0Y-84.54
X109.0Y-87.08
X109.0Y-89.62
X109.0Y-92.16
X109.0Y-94.7
X109.0Y-97.24
X109.0Y-99.78
X109.0Y-102.32
X109.0Y-104.86
X109.92Y-62.0
X110.08Y-74.0
X112.62Y-74.0
X113.22Y-105.0
X115.0Y-83.38
X115.0Y-85.92
X115.0Y-88.46
X115.0Y-91.0
X115.0Y-93.54
X115.0Y-96.08
X115.0Y-98.62
X115.0Y-101.16
X115.16Y-74.0
X115.76Y-105.0
X117.7Y-74.0
X118.3Y-105.0
X120.08Y-62.0
X120.24Y-74.0
X120.84Y-105.0
X122.62Y-83.38
X122.62Y-85.92
X122.62Y-88.46
X122.62Y-91.0
X122.62Y-93.54
X122.62Y-96.08
X122.62Y-98.62
X122.62Y-101.16
X122.78Y-74.0
X123.38Y-105.0
X125.92Y-105.0
X127.38Y-83.3
X127.38Y-85.84
X127.38Y-88.38
X127.38Y-90.92
X127.38Y-93.46
X127.38Y-96.0
X127.38Y-98.54
X127.38Y-101.08
X128.46Y-105.0
X131.0Y-105.0
X133.54Y-105.0
X135.0Y-83.3
X135.0Y-85.84
X135.0Y-88.38
X135.0Y-90.92
X135.0Y-93.46
X135.0Y-96.0
X135.0Y-98.54
X135.0Y-101.08
X136.08Y-105.0
X139.2Y-82.205
X139.2Y-92.365
X139.871Y-78.653
X141.0Y-57.46
X141.093Y-53.208
X141.38Y-105.0
X143.54Y-57.46
X143.632Y-53.208
X143.92Y-105.0
X144.356Y-87.905
X144.356Y-92.905
X144.871Y-78.653
X146.46Y-105.0
X148.2Y-76.125
X148.2Y-78.665
X148.2Y-81.205
X148.2Y-83.745
X148.2Y-86.285
X148.2Y-88.825
X148.2Y-91.365
X148.2Y-93.905
X149.0Y-105.0
X149.674Y-98.044
X149.894Y-55.849
X149.894Y-58.389
X149.894Y-60.929
X151.54Y-105.0
X154.08Y-105.0
X154.674Y-98.044
X155.82Y-76.125
X155.82Y-78.665
X155.82Y-81.205
X155.82Y-83.745
X155.82Y-86.285
X155.82Y-88.825
X155.82Y-91.365
X155.82Y-93.905
X156.62Y-105.0
X158.0Y-55.92
X158.0Y-58.46
X158.0Y-61.0
X159.16Y-105.0
X160.92Y-86.0
X160.92Y-93.62
X161.7Y-105.0
X162.2Y-75.0
X163.46Y-86.0
X163.46Y-93.62
X164.24Y-105.0
X166.0Y-86.0
X166.0Y-93.62
X166.78Y-105.0
X168.54Y-86.0
X168.54Y-93.62
X169.32Y-105.0
X171.08Y-86.0
X171.08Y-93.62
X172.36Y-75.0
X173.62Y-86.0
X173.62Y-93.62
X175.0Y-96.92
X175.0Y-107.08
X176.16Y-86.0
X176.16Y-93.62
X178.7Y-86.0
X178.7Y-93.62
X178.8Y-101.68
X178.8Y-109.3
X180.38Y-97.3
X181.34Y-101.68
X181.34Y-109.3
X183.737Y-77.268
X183.737Y-79.808
X183.737Y-82.348
X183.737Y-84.888
X183.737Y-87.428
X183.88Y-101.68
X183.88Y-109.3
X185.38Y-97.3
X186.42Y-101.68
X186.42Y-109.3
X187.0Y-56.0
X187.0Y-58.54
X188.0Y-125.0
X188.0Y-127.54
X188.38Y-77.3
X188.38Y-79.84
X188.38Y-82.38
X188.38Y-84.92
X188.38Y-87.46
X188.38Y-90.0
X188.38Y-92.54
X188.96Y-101.68
X188.96Y-109.3
X189.41Y-97.255
X191.5Y-101.68
X191.5Y-109.3
X194.04Y-101.68
X194.04Y-109.3
X194.41Y-97.255
X196.0Y-77.3
X196.0Y-79.84
X196.0Y-82.38
X196.0Y-84.92
X196.0Y-87.46
X196.0Y-90.0
X196.0Y-92.54
X196.58Y-101.68
X196.58Y-109.3
X200.113Y-77.38
X200.113Y-79.92
X200.113Y-82.46
X200.113Y-85.0
X200.113Y-87.54
X201.88Y-103.0
X201.88Y-108.0
X205.606Y-77.38
X205.606Y-79.92
X205.606Y-82.46
X205.606Y-85.0
X205.606Y-87.54
X208.2Y-101.18
X208.2Y-108.8
X210.0Y-77.3
X210.0Y-79.84
X210.0Y-82.38
X210.0Y-84.92
X210.0Y-87.46
X210.0Y-90.0
X210.0Y-92.54
X210.74Y-101.18
X210.74Y-108.8
X211.226Y-97.38
X213.28Y-101.18
X213.28Y-108.8
X215.82Y-101.18
X215.82Y-108.8
X216.226Y-97.38
X217.62Y-77.3
X217.62Y-79.84
X217.62Y-82.38
X217.62Y-84.92
X217.62Y-87.46
X217.62Y-90.0
X217.62Y-92.54
X219.82Y-102.8
X219.82Y-107.8
T4
X83.013Y-81.415
X83.013Y-83.955
X83.013Y-86.495
X83.013Y-89.035
X83.013Y-91.575
X83.013Y-94.115
X83.013Y-96.655
X83.013Y-99.195
X83.013Y-101.735
X85.553Y-81.415
X85.553Y-83.955
X85.553Y-86.495
X85.553Y-89.035
X85.553Y-91.575
X85.553Y-94.115
X85.553Y-96.655
X85.553Y-99.195
X85.553Y-101.735
X91.8Y-58.626
X94.34Y-58.626
X96.88Y-58.626
X166.595Y-54.92
X166.595Y-57.46
X166.595Y-60.0
X172.0Y-54.92
X172.0Y-57.46
X172.0Y-60.0
X223.553Y-81.415
X223.553Y-83.955
X223.553Y-86.495
X223.553Y-89.035
X223.553Y-91.575
X223.553Y-94.115
X223.553Y-96.655
X223.553Y-99.195
X223.553Y-101.735
X226.093Y-81.415
X226.093Y-83.955
X226.093Y-86.495
X226.093Y-89.035
X226.093Y-91.575
X226.093Y-94.115
X226.093Y-96.655
X226.093Y-99.195
X226.093Y-101.735
T5
X218.35Y-66.625
X218.45Y-117.625
X220.89Y-66.625
X220.99Y-117.625
X223.43Y-66.625
X223.53Y-117.625
T6
X111.676Y-52.62
X111.676Y-57.12
X118.176Y-52.62
X118.176Y-57.12
T7
X189.38Y-118.0
X190.0Y-67.0
X204.62Y-118.0
X205.24Y-67.0
T8
X197.0Y-57.0
X197.0Y-127.0
T9
X79.564Y-116.261
X82.104Y-131.501
X84.644Y-116.261
X87.184Y-131.501
X89.724Y-116.261
X92.264Y-131.501
X94.804Y-116.261
X97.344Y-131.501
X99.884Y-116.261
X102.424Y-131.501
X104.964Y-116.261
X107.504Y-131.501
X110.044Y-116.261
X112.584Y-131.501
X115.124Y-116.261
X117.664Y-131.501
X120.204Y-116.261
X122.744Y-131.501
X133.077Y-116.261
X135.617Y-131.501
X138.157Y-116.261
X140.697Y-131.501
X143.237Y-116.261
X145.777Y-131.501
X148.317Y-116.261
X150.857Y-131.501
X153.397Y-116.261
X155.937Y-131.501
X158.477Y-116.261
X161.017Y-131.501
X163.557Y-116.261
X166.097Y-131.501
X168.637Y-116.261
X171.177Y-131.501
X173.717Y-116.261
X176.257Y-131.501
T10
X193.825Y-53.825
X193.825Y-60.175
X193.825Y-123.825
X193.825Y-130.175
X200.175Y-53.825
X200.175Y-60.175
X200.175Y-123.825
X200.175Y-130.175
M30
