G04 #@! TF.GenerationSoftware,KiCad,Pcbnew,8.0.8*
G04 #@! TF.CreationDate,2025-05-30T13:16:56-05:00*
G04 #@! TF.ProjectId,baseboard,62617365-626f-4617-9264-2e6b69636164,rev?*
G04 #@! TF.SameCoordinates,Original*
G04 #@! TF.FileFunction,Copper,L2,Inr*
G04 #@! TF.FilePolarity,Positive*
%FSLAX46Y46*%
G04 Gerber Fmt 4.6, Leading zero omitted, Abs format (unit mm)*
G04 Created by KiCad (PCBNEW 8.0.8) date 2025-05-30 13:16:56*
%MOMM*%
%LPD*%
G01*
G04 APERTURE LIST*
G04 #@! TA.AperFunction,ComponentPad*
%ADD10R,1.500000X1.500000*%
G04 #@! TD*
G04 #@! TA.AperFunction,ComponentPad*
%ADD11C,1.600000*%
G04 #@! TD*
G04 #@! TA.AperFunction,ComponentPad*
%ADD12C,3.556000*%
G04 #@! TD*
G04 #@! TA.AperFunction,ComponentPad*
%ADD13C,3.810000*%
G04 #@! TD*
G04 #@! TA.AperFunction,ComponentPad*
%ADD14R,1.600000X1.600000*%
G04 #@! TD*
G04 #@! TA.AperFunction,ComponentPad*
%ADD15O,1.600000X1.600000*%
G04 #@! TD*
G04 #@! TA.AperFunction,ComponentPad*
%ADD16C,1.400000*%
G04 #@! TD*
G04 #@! TA.AperFunction,ComponentPad*
%ADD17C,2.400000*%
G04 #@! TD*
G04 #@! TA.AperFunction,ComponentPad*
%ADD18O,2.400000X2.400000*%
G04 #@! TD*
G04 #@! TA.AperFunction,ComponentPad*
%ADD19R,1.700000X1.700000*%
G04 #@! TD*
G04 #@! TA.AperFunction,ComponentPad*
%ADD20O,1.700000X1.700000*%
G04 #@! TD*
G04 #@! TA.AperFunction,ComponentPad*
%ADD21C,2.000000*%
G04 #@! TD*
G04 #@! TA.AperFunction,ComponentPad*
%ADD22R,1.730000X2.030000*%
G04 #@! TD*
G04 #@! TA.AperFunction,ComponentPad*
%ADD23O,1.730000X2.030000*%
G04 #@! TD*
G04 #@! TA.AperFunction,ComponentPad*
%ADD24R,1.950000X1.950000*%
G04 #@! TD*
G04 #@! TA.AperFunction,ComponentPad*
%ADD25C,1.950000*%
G04 #@! TD*
G04 #@! TA.AperFunction,ComponentPad*
%ADD26R,1.508000X1.508000*%
G04 #@! TD*
G04 #@! TA.AperFunction,ComponentPad*
%ADD27C,1.508000*%
G04 #@! TD*
G04 #@! TA.AperFunction,ComponentPad*
%ADD28R,1.200000X1.200000*%
G04 #@! TD*
G04 #@! TA.AperFunction,ComponentPad*
%ADD29C,1.200000*%
G04 #@! TD*
G04 #@! TA.AperFunction,ViaPad*
%ADD30C,0.600000*%
G04 #@! TD*
G04 #@! TA.AperFunction,Conductor*
%ADD31C,0.500000*%
G04 #@! TD*
G04 #@! TA.AperFunction,Conductor*
%ADD32C,0.450000*%
G04 #@! TD*
G04 #@! TA.AperFunction,Conductor*
%ADD33C,1.250000*%
G04 #@! TD*
G04 APERTURE END LIST*
D10*
X158000000Y-58460000D03*
D11*
X158000000Y-55920000D03*
X158000000Y-61000000D03*
D12*
X197000000Y-127000000D03*
D13*
X200175000Y-130175000D03*
X200175000Y-123825000D03*
X193825000Y-130175000D03*
X193825000Y-123825000D03*
D14*
X148200000Y-76125000D03*
D15*
X148200000Y-78665000D03*
X148200000Y-81205000D03*
X148200000Y-83745000D03*
X148200000Y-86285000D03*
X148200000Y-88825000D03*
X148200000Y-91365000D03*
X148200000Y-93905000D03*
X155820000Y-93905000D03*
X155820000Y-91365000D03*
X155820000Y-88825000D03*
X155820000Y-86285000D03*
X155820000Y-83745000D03*
X155820000Y-81205000D03*
X155820000Y-78665000D03*
X155820000Y-76125000D03*
D16*
X141092500Y-53207600D03*
X143632500Y-53207600D03*
D14*
X205606400Y-77380000D03*
D15*
X205606400Y-79920000D03*
X205606400Y-82460000D03*
X205606400Y-85000000D03*
X205606400Y-87540000D03*
D11*
X144871000Y-78652800D03*
X139871000Y-78652800D03*
D14*
X141380000Y-105000000D03*
D15*
X143920000Y-105000000D03*
X146460000Y-105000000D03*
X149000000Y-105000000D03*
X151540000Y-105000000D03*
X154080000Y-105000000D03*
X156620000Y-105000000D03*
X159160000Y-105000000D03*
X161700000Y-105000000D03*
X164240000Y-105000000D03*
X166780000Y-105000000D03*
X169320000Y-105000000D03*
D11*
X149674500Y-98044100D03*
X154674500Y-98044100D03*
D14*
X98380000Y-83300000D03*
D15*
X98380000Y-85840000D03*
X98380000Y-88380000D03*
X98380000Y-90920000D03*
X98380000Y-93460000D03*
X98380000Y-96000000D03*
X98380000Y-98540000D03*
X98380000Y-101080000D03*
X106000000Y-101080000D03*
X106000000Y-98540000D03*
X106000000Y-96000000D03*
X106000000Y-93460000D03*
X106000000Y-90920000D03*
X106000000Y-88380000D03*
X106000000Y-85840000D03*
X106000000Y-83300000D03*
D14*
X183737000Y-87427700D03*
D15*
X183737000Y-84887700D03*
X183737000Y-82347700D03*
X183737000Y-79807700D03*
X183737000Y-77267700D03*
D17*
X189380000Y-118000000D03*
D18*
X204620000Y-118000000D03*
D19*
X166594900Y-54920000D03*
D20*
X166594900Y-57460000D03*
X166594900Y-60000000D03*
D10*
X149894500Y-58388800D03*
D11*
X149894500Y-55848800D03*
X149894500Y-60928800D03*
D17*
X190000000Y-67000000D03*
D18*
X205240000Y-67000000D03*
D14*
X160920000Y-93620000D03*
D15*
X163460000Y-93620000D03*
X166000000Y-93620000D03*
X168540000Y-93620000D03*
X171080000Y-93620000D03*
X173620000Y-93620000D03*
X176160000Y-93620000D03*
X178700000Y-93620000D03*
X178700000Y-86000000D03*
X176160000Y-86000000D03*
X173620000Y-86000000D03*
X171080000Y-86000000D03*
X168540000Y-86000000D03*
X166000000Y-86000000D03*
X163460000Y-86000000D03*
X160920000Y-86000000D03*
D21*
X111676000Y-52620000D03*
X118176000Y-52620000D03*
X111676000Y-57120000D03*
X118176000Y-57120000D03*
D22*
X218450000Y-117625000D03*
D23*
X220990000Y-117625000D03*
X223530000Y-117625000D03*
D11*
X175000000Y-96920000D03*
D15*
X175000000Y-107080000D03*
D14*
X109000000Y-104860000D03*
D15*
X109000000Y-102320000D03*
X109000000Y-99780000D03*
X109000000Y-97240000D03*
X109000000Y-94700000D03*
X109000000Y-92160000D03*
X109000000Y-89620000D03*
X109000000Y-87080000D03*
X109000000Y-84540000D03*
X109000000Y-82000000D03*
D11*
X189410200Y-97255000D03*
X194410200Y-97255000D03*
D14*
X200112700Y-77380000D03*
D15*
X200112700Y-79920000D03*
X200112700Y-82460000D03*
X200112700Y-85000000D03*
X200112700Y-87540000D03*
D14*
X210000000Y-77300000D03*
D15*
X210000000Y-79840000D03*
X210000000Y-82380000D03*
X210000000Y-84920000D03*
X210000000Y-87460000D03*
X210000000Y-90000000D03*
X210000000Y-92540000D03*
X217620000Y-92540000D03*
X217620000Y-90000000D03*
X217620000Y-87460000D03*
X217620000Y-84920000D03*
X217620000Y-82380000D03*
X217620000Y-79840000D03*
X217620000Y-77300000D03*
D11*
X139200000Y-92365000D03*
D15*
X139200000Y-82205000D03*
D14*
X113220000Y-105000000D03*
D15*
X115760000Y-105000000D03*
X118300000Y-105000000D03*
X120840000Y-105000000D03*
X123380000Y-105000000D03*
X125920000Y-105000000D03*
X128460000Y-105000000D03*
X131000000Y-105000000D03*
X133540000Y-105000000D03*
X136080000Y-105000000D03*
D19*
X172000000Y-54920000D03*
D20*
X172000000Y-57460000D03*
X172000000Y-60000000D03*
D16*
X187000000Y-56000000D03*
X187000000Y-58540000D03*
D14*
X208200000Y-108800000D03*
D15*
X210740000Y-108800000D03*
X213280000Y-108800000D03*
X215820000Y-108800000D03*
X215820000Y-101180000D03*
X213280000Y-101180000D03*
X210740000Y-101180000D03*
X208200000Y-101180000D03*
D14*
X83166100Y-53715900D03*
D11*
X83166100Y-56215900D03*
D24*
X133076900Y-116261200D03*
D25*
X135616900Y-131501200D03*
X138156900Y-116261200D03*
X140696900Y-131501200D03*
X143236900Y-116261200D03*
X145776900Y-131501200D03*
X148316900Y-116261200D03*
X150856900Y-131501200D03*
X153396900Y-116261200D03*
X155936900Y-131501200D03*
X158476900Y-116261200D03*
X161016900Y-131501200D03*
X163556900Y-116261200D03*
X166096900Y-131501200D03*
X168636900Y-116261200D03*
X171176900Y-131501200D03*
X173716900Y-116261200D03*
X176256900Y-131501200D03*
D19*
X85553000Y-81415000D03*
D20*
X83013000Y-81415000D03*
X85553000Y-83955000D03*
X83013000Y-83955000D03*
X85553000Y-86495000D03*
X83013000Y-86495000D03*
X85553000Y-89035000D03*
X83013000Y-89035000D03*
X85553000Y-91575000D03*
X83013000Y-91575000D03*
X85553000Y-94115000D03*
X83013000Y-94115000D03*
X85553000Y-96655000D03*
X83013000Y-96655000D03*
X85553000Y-99195000D03*
X83013000Y-99195000D03*
X85553000Y-101735000D03*
X83013000Y-101735000D03*
D14*
X127380000Y-83300000D03*
D15*
X127380000Y-85840000D03*
X127380000Y-88380000D03*
X127380000Y-90920000D03*
X127380000Y-93460000D03*
X127380000Y-96000000D03*
X127380000Y-98540000D03*
X127380000Y-101080000D03*
X135000000Y-101080000D03*
X135000000Y-98540000D03*
X135000000Y-96000000D03*
X135000000Y-93460000D03*
X135000000Y-90920000D03*
X135000000Y-88380000D03*
X135000000Y-85840000D03*
X135000000Y-83300000D03*
D14*
X178800000Y-109300000D03*
D15*
X181340000Y-109300000D03*
X183880000Y-109300000D03*
X186420000Y-109300000D03*
X188960000Y-109300000D03*
X191500000Y-109300000D03*
X194040000Y-109300000D03*
X196580000Y-109300000D03*
X196580000Y-101680000D03*
X194040000Y-101680000D03*
X191500000Y-101680000D03*
X188960000Y-101680000D03*
X186420000Y-101680000D03*
X183880000Y-101680000D03*
X181340000Y-101680000D03*
X178800000Y-101680000D03*
D14*
X188380000Y-77300000D03*
D15*
X188380000Y-79840000D03*
X188380000Y-82380000D03*
X188380000Y-84920000D03*
X188380000Y-87460000D03*
X188380000Y-90000000D03*
X188380000Y-92540000D03*
X196000000Y-92540000D03*
X196000000Y-90000000D03*
X196000000Y-87460000D03*
X196000000Y-84920000D03*
X196000000Y-82380000D03*
X196000000Y-79840000D03*
X196000000Y-77300000D03*
D11*
X201880000Y-108000000D03*
X201880000Y-103000000D03*
D14*
X94840000Y-74000000D03*
D15*
X97380000Y-74000000D03*
X99920000Y-74000000D03*
X102460000Y-74000000D03*
X105000000Y-74000000D03*
X107540000Y-74000000D03*
X110080000Y-74000000D03*
X112620000Y-74000000D03*
X115160000Y-74000000D03*
X117700000Y-74000000D03*
X120240000Y-74000000D03*
X122780000Y-74000000D03*
D12*
X197000000Y-57000000D03*
D13*
X193825000Y-53825000D03*
X193825000Y-60175000D03*
X200175000Y-53825000D03*
X200175000Y-60175000D03*
D11*
X211226400Y-97380000D03*
X216226400Y-97380000D03*
D14*
X94000000Y-109080000D03*
D15*
X94000000Y-106540000D03*
X94000000Y-104000000D03*
X94000000Y-101460000D03*
X94000000Y-98920000D03*
X94000000Y-96380000D03*
X94000000Y-93840000D03*
X94000000Y-91300000D03*
X94000000Y-88760000D03*
X94000000Y-86220000D03*
X94000000Y-83680000D03*
X94000000Y-81140000D03*
D26*
X91800300Y-58626400D03*
D27*
X94340300Y-58626400D03*
X96880300Y-58626400D03*
D22*
X218350000Y-66625000D03*
D23*
X220890000Y-66625000D03*
X223430000Y-66625000D03*
D11*
X144356200Y-87904600D03*
X144356200Y-92904600D03*
X180380000Y-97300000D03*
X185380000Y-97300000D03*
D16*
X188000000Y-125000000D03*
X188000000Y-127540000D03*
D24*
X79564400Y-116261200D03*
D25*
X82104400Y-131501200D03*
X84644400Y-116261200D03*
X87184400Y-131501200D03*
X89724400Y-116261200D03*
X92264400Y-131501200D03*
X94804400Y-116261200D03*
X97344400Y-131501200D03*
X99884400Y-116261200D03*
X102424400Y-131501200D03*
X104964400Y-116261200D03*
X107504400Y-131501200D03*
X110044400Y-116261200D03*
X112584400Y-131501200D03*
X115124400Y-116261200D03*
X117664400Y-131501200D03*
X120204400Y-116261200D03*
X122744400Y-131501200D03*
D14*
X115000000Y-83380000D03*
D15*
X115000000Y-85920000D03*
X115000000Y-88460000D03*
X115000000Y-91000000D03*
X115000000Y-93540000D03*
X115000000Y-96080000D03*
X115000000Y-98620000D03*
X115000000Y-101160000D03*
X122620000Y-101160000D03*
X122620000Y-98620000D03*
X122620000Y-96080000D03*
X122620000Y-93540000D03*
X122620000Y-91000000D03*
X122620000Y-88460000D03*
X122620000Y-85920000D03*
X122620000Y-83380000D03*
D11*
X120080000Y-62000000D03*
D15*
X109920000Y-62000000D03*
D14*
X104982400Y-53361200D03*
D11*
X104982400Y-55861200D03*
X162200000Y-75000000D03*
D15*
X172360000Y-75000000D03*
D28*
X162200000Y-81285000D03*
D29*
X162200000Y-79785000D03*
D16*
X141000000Y-57460000D03*
X143540000Y-57460000D03*
D19*
X226093000Y-81415000D03*
D20*
X223553000Y-81415000D03*
X226093000Y-83955000D03*
X223553000Y-83955000D03*
X226093000Y-86495000D03*
X223553000Y-86495000D03*
X226093000Y-89035000D03*
X223553000Y-89035000D03*
X226093000Y-91575000D03*
X223553000Y-91575000D03*
X226093000Y-94115000D03*
X223553000Y-94115000D03*
X226093000Y-96655000D03*
X223553000Y-96655000D03*
X226093000Y-99195000D03*
X223553000Y-99195000D03*
X226093000Y-101735000D03*
X223553000Y-101735000D03*
D11*
X219820000Y-102800000D03*
X219820000Y-107800000D03*
D30*
X89894200Y-99660900D03*
X185679100Y-71308400D03*
X104356600Y-112931500D03*
X102070900Y-118071600D03*
X226093000Y-72351700D03*
X86037600Y-64696900D03*
X130720100Y-64696900D03*
X109729000Y-83408000D03*
X91108600Y-85740600D03*
X221072700Y-89517700D03*
X158346100Y-62501900D03*
X95627400Y-108052900D03*
X99034300Y-80457800D03*
X100927100Y-109053100D03*
X112583500Y-109893000D03*
X96936600Y-111838100D03*
X161016900Y-109053100D03*
X112584500Y-120779300D03*
X177902000Y-105223200D03*
X137966400Y-80032000D03*
X140156300Y-95780300D03*
X130613200Y-97073400D03*
X118475600Y-96365100D03*
X96080700Y-97270000D03*
X139429900Y-104130400D03*
X140253200Y-93582300D03*
X117748900Y-100496000D03*
X118524500Y-101250300D03*
X98874300Y-81891300D03*
X176160000Y-72435100D03*
X124879200Y-74052900D03*
X124822200Y-104032000D03*
X159160000Y-96394000D03*
X149542800Y-88397600D03*
X164240000Y-101041100D03*
X186708600Y-90066300D03*
X168681400Y-114159900D03*
D31*
X116250000Y-94830000D02*
X115000000Y-96080000D01*
X148200000Y-96569600D02*
X148200000Y-93905000D01*
X149674500Y-98044100D02*
X148200000Y-96569600D01*
X116250000Y-92250000D02*
X116250000Y-94830000D01*
X115000000Y-91000000D02*
X116250000Y-92250000D01*
X154570000Y-90075000D02*
X155820000Y-88825000D01*
X154570000Y-77375000D02*
X154570000Y-87575000D01*
X136250000Y-97290000D02*
X136250000Y-94710000D01*
X154570000Y-87575000D02*
X155820000Y-88825000D01*
X147200000Y-82205000D02*
X148200000Y-81205000D01*
X136250000Y-94710000D02*
X135000000Y-93460000D01*
X154570000Y-97939600D02*
X154570000Y-90075000D01*
X139200000Y-82205000D02*
X147200000Y-82205000D01*
X135000000Y-98540000D02*
X136250000Y-97290000D01*
X154674500Y-98044100D02*
X154570000Y-97939600D01*
X155820000Y-76125000D02*
X154570000Y-77375000D01*
D32*
X182610000Y-88507100D02*
X180454600Y-86351700D01*
X180454600Y-86351700D02*
X180454600Y-71319700D01*
X181340000Y-109300000D02*
X181340000Y-108073300D01*
X180454600Y-71319700D02*
X166594900Y-57460000D01*
X182610000Y-106803300D02*
X182610000Y-88507100D01*
X181340000Y-108073300D02*
X182610000Y-106803300D01*
X210740000Y-108800000D02*
X210740000Y-107573300D01*
X197314800Y-94148100D02*
X197314800Y-87010500D01*
X196451000Y-86146700D02*
X196000000Y-86146700D01*
X210740000Y-107573300D02*
X197314800Y-94148100D01*
X196000000Y-84920000D02*
X196000000Y-86146700D01*
X197314800Y-87010500D02*
X196451000Y-86146700D01*
D33*
X97874700Y-79305200D02*
X97671100Y-79508800D01*
X107373300Y-82000000D02*
X104678500Y-79305200D01*
X93271000Y-79508800D02*
X89894200Y-82885600D01*
X104678500Y-79305200D02*
X97874700Y-79305200D01*
X89894200Y-82885600D02*
X89894200Y-99660900D01*
X109000000Y-82000000D02*
X107373300Y-82000000D01*
X97671100Y-79508800D02*
X93271000Y-79508800D01*
X92373300Y-99348000D02*
X92373300Y-96380000D01*
X81304600Y-98363400D02*
X81304600Y-102481900D01*
X94000000Y-96380000D02*
X92373300Y-96380000D01*
X81304600Y-102481900D02*
X83724100Y-104901400D01*
X86819900Y-104901400D02*
X92373300Y-99348000D01*
X83724100Y-104901400D02*
X86819900Y-104901400D01*
X83013000Y-96655000D02*
X81304600Y-98363400D01*
X185679100Y-71308400D02*
X190880300Y-76509600D01*
X190880300Y-87420300D02*
X196000000Y-92540000D01*
X190880300Y-76509600D02*
X190880300Y-87420300D01*
X107197500Y-77820200D02*
X92906600Y-77820200D01*
X110855700Y-85224300D02*
X110855700Y-81478400D01*
X92906600Y-77820200D02*
X87415100Y-83311700D01*
X87415100Y-102253200D02*
X86218600Y-103449700D01*
X87415100Y-83311700D02*
X87415100Y-102253200D01*
X84727700Y-103449700D02*
X83013000Y-101735000D01*
X86218600Y-103449700D02*
X84727700Y-103449700D01*
X109000000Y-87080000D02*
X110855700Y-85224300D01*
X110855700Y-81478400D02*
X107197500Y-77820200D01*
D32*
X81732900Y-87754900D02*
X83013000Y-89035000D01*
X81732900Y-69001600D02*
X81732900Y-87754900D01*
X86037600Y-64696900D02*
X81732900Y-69001600D01*
X223553000Y-101735000D02*
X220331600Y-98513600D01*
X220331600Y-98513600D02*
X220331600Y-83327300D01*
X218071000Y-81066700D02*
X217620000Y-81066700D01*
X217620000Y-79840000D02*
X217620000Y-81066700D01*
X220331600Y-83327300D02*
X218071000Y-81066700D01*
X224797800Y-103030200D02*
X222967800Y-103030200D01*
X222967800Y-103030200D02*
X217620000Y-97682400D01*
X226093000Y-101735000D02*
X224797800Y-103030200D01*
X217620000Y-97682400D02*
X217620000Y-92540000D01*
X156280000Y-84971700D02*
X157052600Y-85744300D01*
X157052600Y-85744300D02*
X157052600Y-89356700D01*
X156271000Y-90138300D02*
X155820000Y-90138300D01*
X155820000Y-84971700D02*
X156280000Y-84971700D01*
X221072700Y-82088700D02*
X223034800Y-80126600D01*
X223034800Y-80126600D02*
X227125000Y-80126600D01*
X227414900Y-80416500D02*
X227414900Y-85173100D01*
X155820000Y-83745000D02*
X155820000Y-84971700D01*
X227125000Y-80126600D02*
X227414900Y-80416500D01*
X157052600Y-89356700D02*
X156271000Y-90138300D01*
X221072700Y-89517700D02*
X221072700Y-82088700D01*
X155820000Y-91365000D02*
X155820000Y-90138300D01*
X227414900Y-85173100D02*
X226093000Y-86495000D01*
D33*
X163351500Y-103348500D02*
X161700000Y-105000000D01*
X118577600Y-75662400D02*
X116822400Y-75662400D01*
X116822400Y-75662400D02*
X115160000Y-74000000D01*
X166780000Y-105000000D02*
X165128500Y-103348500D01*
X146460000Y-92396000D02*
X146460000Y-105000000D01*
X126437300Y-72373300D02*
X146460000Y-92396000D01*
X120240000Y-72373300D02*
X126437300Y-72373300D01*
X165128500Y-103348500D02*
X163351500Y-103348500D01*
X120240000Y-74000000D02*
X120240000Y-72373300D01*
X120240000Y-74000000D02*
X118577600Y-75662400D01*
D32*
X158346100Y-62501900D02*
X158346100Y-82199400D01*
X160920000Y-86000000D02*
X160920000Y-84773300D01*
X158346100Y-82199400D02*
X160920000Y-84773300D01*
X120080000Y-62000000D02*
X118176000Y-60096000D01*
X118176000Y-60096000D02*
X118176000Y-57120000D01*
X181340000Y-98260000D02*
X180380000Y-97300000D01*
X181340000Y-101680000D02*
X181340000Y-98260000D01*
D33*
X95627400Y-110358200D02*
X95627400Y-108052900D01*
X89724400Y-116261200D02*
X95627400Y-110358200D01*
X100927100Y-110138500D02*
X94804400Y-116261200D01*
X100927100Y-109053100D02*
X100927100Y-110138500D01*
X111593300Y-108902800D02*
X111593300Y-103808100D01*
X127380000Y-101080000D02*
X125753300Y-101080000D01*
X111593300Y-103808100D02*
X112100200Y-103301200D01*
X112100200Y-103301200D02*
X123532100Y-103301200D01*
X112583500Y-109893000D02*
X111593300Y-108902800D01*
X123532100Y-103301200D02*
X125753300Y-101080000D01*
X159244900Y-92500200D02*
X163680100Y-88065000D01*
X163680100Y-88065000D02*
X166475000Y-88065000D01*
X170963700Y-126634400D02*
X170963700Y-104273600D01*
X166096900Y-131501200D02*
X170963700Y-126634400D01*
X164047500Y-99580800D02*
X159244900Y-94778200D01*
X166475000Y-88065000D02*
X168540000Y-86000000D01*
X159244900Y-94778200D02*
X159244900Y-92500200D01*
X170963700Y-104273600D02*
X166270900Y-99580800D01*
X166270900Y-99580800D02*
X164047500Y-99580800D01*
X106000000Y-85840000D02*
X100754000Y-91086000D01*
X100754000Y-106742800D02*
X97079300Y-110417500D01*
X97079300Y-111695400D02*
X96936600Y-111838100D01*
X97079300Y-110417500D02*
X97079300Y-111695400D01*
X100754000Y-91086000D02*
X100754000Y-106742800D01*
X161016900Y-131501200D02*
X161016900Y-109053100D01*
X145776900Y-131501200D02*
X134275700Y-120000000D01*
X104363900Y-110438800D02*
X104363900Y-97636100D01*
X115935600Y-120000000D02*
X113697000Y-122238600D01*
X107504400Y-117819300D02*
X107504400Y-113579300D01*
X111923700Y-122238600D02*
X107504400Y-117819300D01*
X113697000Y-122238600D02*
X111923700Y-122238600D01*
X134275700Y-120000000D02*
X115935600Y-120000000D01*
X107504400Y-113579300D02*
X104363900Y-110438800D01*
X104363900Y-97636100D02*
X106000000Y-96000000D01*
X124884800Y-83655200D02*
X122620000Y-85920000D01*
X148316900Y-114887800D02*
X136228900Y-102799800D01*
X133366800Y-101810700D02*
X133366800Y-86458800D01*
X133366800Y-86458800D02*
X128552300Y-81644300D01*
X134355900Y-102799800D02*
X133366800Y-101810700D01*
X128552300Y-81644300D02*
X126264100Y-81644300D01*
X136228900Y-102799800D02*
X134355900Y-102799800D01*
X124884800Y-83023600D02*
X124884800Y-83655200D01*
X126264100Y-81644300D02*
X124884800Y-83023600D01*
X148316900Y-116261200D02*
X148316900Y-114887800D01*
X112584500Y-120779300D02*
X112584500Y-114553500D01*
X106000000Y-107969000D02*
X106000000Y-101080000D01*
X112584500Y-114553500D02*
X106000000Y-107969000D01*
X178700000Y-87626700D02*
X180335100Y-89261800D01*
X180335100Y-94307000D02*
X177167900Y-97474200D01*
X177167900Y-103876200D02*
X177902000Y-104610300D01*
X177167900Y-97474200D02*
X177167900Y-103876200D01*
X177902000Y-104610300D02*
X177902000Y-105223200D01*
X180335100Y-89261800D02*
X180335100Y-94307000D01*
X178700000Y-86000000D02*
X178700000Y-87626700D01*
X98059800Y-117021800D02*
X98059800Y-115513900D01*
X104772200Y-123734200D02*
X98059800Y-117021800D01*
X130685774Y-121490074D02*
X124784296Y-121490074D01*
X122540170Y-123734200D02*
X104772200Y-123734200D01*
X98059800Y-115513900D02*
X102777400Y-110796300D01*
X124784296Y-121490074D02*
X122540170Y-123734200D01*
X140696900Y-131501200D02*
X130685774Y-121490074D01*
X102777400Y-94142600D02*
X106000000Y-90920000D01*
X102777400Y-110796300D02*
X102777400Y-94142600D01*
D32*
X165307800Y-56207100D02*
X165307800Y-80967800D01*
X180070000Y-119610000D02*
X188000000Y-127540000D01*
X180070000Y-108343100D02*
X180070000Y-119610000D01*
X178001800Y-106274900D02*
X180070000Y-108343100D01*
X169810000Y-85470000D02*
X169810000Y-98618500D01*
X169810000Y-98618500D02*
X177466400Y-106274900D01*
X177466400Y-106274900D02*
X178001800Y-106274900D01*
X166594900Y-54920000D02*
X165307800Y-56207100D01*
X165307800Y-80967800D02*
X169810000Y-85470000D01*
X187000000Y-64000000D02*
X190000000Y-67000000D01*
X187000000Y-58540000D02*
X187000000Y-64000000D01*
X188000000Y-125000000D02*
X188000000Y-119380000D01*
X188000000Y-119380000D02*
X189380000Y-118000000D01*
X162200000Y-79785000D02*
X162200000Y-75000000D01*
D33*
X91800300Y-73491000D02*
X91800300Y-60207100D01*
X91800300Y-58626400D02*
X91800300Y-60207100D01*
X85553000Y-81415000D02*
X85553000Y-79738300D01*
X85553000Y-79738300D02*
X91800300Y-73491000D01*
D32*
X137966400Y-58873700D02*
X137966400Y-80032000D01*
X143632500Y-53207600D02*
X137966400Y-58873700D01*
X94000000Y-83680000D02*
X94000000Y-84906700D01*
X96080700Y-86527400D02*
X96080700Y-97270000D01*
X94460000Y-84906700D02*
X96080700Y-86527400D01*
X94000000Y-84906700D02*
X94460000Y-84906700D01*
X94000000Y-102773300D02*
X94450500Y-102773300D01*
X94000000Y-104000000D02*
X94000000Y-102773300D01*
X98380000Y-98540000D02*
X98380000Y-99766700D01*
X94450500Y-102773300D02*
X97457100Y-99766700D01*
X97457100Y-99766700D02*
X98380000Y-99766700D01*
X139429600Y-94405900D02*
X140253200Y-93582300D01*
X139429900Y-104130400D02*
X139429600Y-104130100D01*
X139429600Y-104130100D02*
X139429600Y-94405900D01*
X117748900Y-94129400D02*
X117748900Y-100496000D01*
X127380000Y-84526700D02*
X126919900Y-84526700D01*
X127380000Y-83300000D02*
X127380000Y-84526700D01*
X126153300Y-86709700D02*
X123133000Y-89730000D01*
X122148300Y-89730000D02*
X117748900Y-94129400D01*
X126153300Y-85293300D02*
X126153300Y-86709700D01*
X123133000Y-89730000D02*
X122148300Y-89730000D01*
X126919900Y-84526700D02*
X126153300Y-85293300D01*
X126928900Y-89606700D02*
X127380000Y-89606700D01*
X119884800Y-99890000D02*
X123102600Y-99890000D01*
X127380000Y-88380000D02*
X127380000Y-89606700D01*
X123102600Y-99890000D02*
X123955100Y-99037500D01*
X123955100Y-92580500D02*
X126928900Y-89606700D01*
X118524500Y-101250300D02*
X119884800Y-99890000D01*
X123955100Y-99037500D02*
X123955100Y-92580500D01*
X127380000Y-98540000D02*
X127380000Y-99766700D01*
X131000000Y-105000000D02*
X131000000Y-102935700D01*
X127831000Y-99766700D02*
X127380000Y-99766700D01*
X131000000Y-102935700D02*
X127831000Y-99766700D01*
X176160000Y-86000000D02*
X176160000Y-72435100D01*
X112246200Y-85633800D02*
X109500000Y-88380000D01*
X112246200Y-76168200D02*
X112246200Y-85633800D01*
X109500000Y-88380000D02*
X106000000Y-88380000D01*
X113890000Y-74524400D02*
X112246200Y-76168200D01*
X114671900Y-72747600D02*
X113890000Y-73529500D01*
X116447600Y-72747600D02*
X114671900Y-72747600D01*
X117700000Y-74000000D02*
X116447600Y-72747600D01*
X113890000Y-73529500D02*
X113890000Y-74524400D01*
X112972700Y-83168900D02*
X112972700Y-87420600D01*
X106000000Y-93460000D02*
X107226700Y-93460000D01*
X122780000Y-74000000D02*
X121553300Y-74000000D01*
X112972700Y-87420600D02*
X109503300Y-90890000D01*
X107226700Y-92134000D02*
X107226700Y-93460000D01*
X121553300Y-74588300D02*
X112972700Y-83168900D01*
X121553300Y-74000000D02*
X121553300Y-74588300D01*
X109503300Y-90890000D02*
X108470700Y-90890000D01*
X108470700Y-90890000D02*
X107226700Y-92134000D01*
X154080000Y-100584100D02*
X149542800Y-96046900D01*
X149542800Y-96046900D02*
X149542800Y-88397600D01*
X154080000Y-105000000D02*
X154080000Y-100584100D01*
X200112700Y-86313300D02*
X200572800Y-86313300D01*
X200112700Y-87540000D02*
X200112700Y-86313300D01*
X205606400Y-79920000D02*
X205606400Y-81146700D01*
X201339400Y-84962600D02*
X205155300Y-81146700D01*
X200572800Y-86313300D02*
X201339400Y-85546700D01*
X205155300Y-81146700D02*
X205606400Y-81146700D01*
X201339400Y-85546700D02*
X201339400Y-84962600D01*
X188380000Y-88773300D02*
X187919900Y-88773300D01*
X187919900Y-88773300D02*
X187153300Y-88006700D01*
X196000000Y-88773300D02*
X195540000Y-88773300D01*
X196000000Y-79840000D02*
X196000000Y-81066700D01*
X183737000Y-79807700D02*
X183737000Y-81034400D01*
X196000000Y-90000000D02*
X196000000Y-88773300D01*
X195548900Y-81066700D02*
X196000000Y-81066700D01*
X187153300Y-88006700D02*
X187153300Y-83999700D01*
X184188000Y-81034400D02*
X183737000Y-81034400D01*
X188380000Y-90000000D02*
X188380000Y-88773300D01*
X187153300Y-83999700D02*
X184188000Y-81034400D01*
X194767400Y-88000700D02*
X194767400Y-81848200D01*
X194767400Y-81848200D02*
X195548900Y-81066700D01*
X195540000Y-88773300D02*
X194767400Y-88000700D01*
M02*
